<?xml version="1.0" encoding="UTF-8"?><svg xmlns="http://www.w3.org/2000/svg" xmlns:xlink="http://www.w3.org/1999/xlink" width="1080pt" zoomAndPan="magnify" viewBox="0 0 1080 585.000005" height="585.000005pt" preserveAspectRatio="xMidYMid meet" version="1.2"><defs><clipPath xml:id="clip1" id="clip1"><path d="M 50 58.398438 L 151 58.398438 L 151 245.335938 L 50 245.335938 Z M 50 58.398438 "/></clipPath><clipPath xml:id="clip2" id="clip2"><path d="M 10.519531 107.792969 L 60.097656 107.792969 L 60.097656 165.5 L 10.519531 165.5 Z M 10.519531 107.792969 "/></clipPath><clipPath xml:id="clip3" id="clip3"><path d="M 690.074219 425.765625 L 1035.980469 425.765625 L 1035.980469 583.746094 L 690.074219 583.746094 Z M 690.074219 425.765625 "/></clipPath></defs><g xml:id="surface1" id="surface1"><g clip-rule="nonzero" clip-path="url(#clip1)"><path style=" stroke:none;fill-rule:nonzero;fill:rgb(9.799194%,9.408569%,14.118958%);fill-opacity:1;" d="M 133.414062 58.398438 L 67.542969 58.398438 C 57.898438 58.398438 50.0625 66.230469 50.0625 75.863281 L 50.0625 227.871094 C 50.0625 237.503906 57.898438 245.335938 67.542969 245.335938 L 133.414062 245.335938 C 143.058594 245.335938 150.898438 237.503906 150.898438 227.871094 L 150.898438 75.863281 C 150.898438 66.230469 143.058594 58.398438 133.414062 58.398438 Z M 149.574219 227.871094 C 149.574219 236.757812 142.355469 244.015625 133.414062 244.015625 L 67.542969 244.015625 C 58.605469 244.015625 51.382812 236.800781 51.382812 227.871094 L 51.382812 226.640625 L 149.574219 226.640625 Z M 149.574219 225.320312 L 51.382812 225.320312 L 51.382812 211.335938 L 149.574219 211.335938 Z M 149.574219 210.058594 L 51.382812 210.058594 L 51.382812 88.089844 L 149.574219 88.089844 Z M 149.574219 86.769531 L 51.382812 86.769531 L 51.382812 78.414062 L 149.574219 78.414062 Z M 149.574219 77.09375 L 51.382812 77.09375 L 51.382812 75.863281 C 51.382812 66.933594 58.605469 59.71875 67.542969 59.71875 L 133.414062 59.71875 C 142.355469 59.71875 149.574219 66.933594 149.574219 75.863281 Z M 118.09375 83.121094 L 82.867188 83.121094 L 82.867188 81.800781 L 118.09375 81.800781 Z M 88.152344 66.40625 L 112.808594 66.40625 L 112.808594 67.726562 L 88.152344 67.726562 Z M 100.480469 242.914062 C 104.441406 242.914062 107.699219 239.703125 107.699219 235.703125 C 107.699219 231.742188 104.488281 228.53125 100.480469 228.53125 C 96.515625 228.53125 93.257812 231.742188 93.257812 235.746094 C 93.257812 239.703125 96.515625 242.914062 100.480469 242.914062 Z M 100.480469 229.808594 C 103.738281 229.808594 106.378906 232.445312 106.378906 235.65625 C 106.378906 238.914062 103.738281 241.550781 100.480469 241.550781 C 97.222656 241.550781 94.578125 238.914062 94.578125 235.65625 C 94.578125 232.402344 97.222656 229.808594 100.480469 229.808594 Z M 62.304688 104.671875 L 102.417969 104.671875 C 105.191406 104.671875 107.4375 102.429688 107.4375 99.65625 L 107.4375 98.734375 C 107.4375 95.964844 105.191406 93.71875 102.417969 93.71875 L 62.304688 93.71875 C 59.53125 93.71875 57.285156 95.964844 57.285156 98.734375 L 57.285156 99.65625 C 57.285156 102.429688 59.53125 104.671875 62.304688 104.671875 Z M 58.605469 98.734375 C 58.605469 96.667969 60.277344 95.039062 62.304688 95.039062 L 102.417969 95.039062 C 104.488281 95.039062 106.117188 96.710938 106.117188 98.734375 L 106.117188 99.65625 C 106.117188 101.726562 104.441406 103.351562 102.417969 103.351562 L 62.304688 103.351562 C 60.234375 103.351562 58.605469 101.679688 58.605469 99.65625 Z M 93.390625 116.679688 L 93.390625 158.246094 C 93.390625 160.972656 95.59375 163.171875 98.320312 163.171875 L 139.976562 163.171875 C 142.707031 163.171875 144.910156 160.972656 144.910156 158.246094 L 144.910156 116.636719 C 144.910156 113.910156 142.707031 111.710938 139.976562 111.710938 L 98.320312 111.710938 C 95.59375 111.753906 93.390625 113.953125 93.390625 116.679688 Z M 143.585938 116.679688 L 143.585938 158.246094 C 143.585938 160.222656 141.957031 161.851562 139.976562 161.851562 L 98.320312 161.851562 C 96.339844 161.851562 94.710938 160.222656 94.710938 158.246094 L 94.710938 116.636719 C 94.710938 114.65625 96.339844 113.027344 98.320312 113.027344 L 139.976562 113.027344 C 141.957031 113.074219 143.585938 114.65625 143.585938 116.679688 Z M 62.214844 205.835938 L 102.503906 205.835938 C 105.234375 205.835938 107.4375 203.636719 107.4375 200.910156 L 107.4375 174.300781 C 107.4375 171.574219 105.234375 169.375 102.503906 169.375 L 62.214844 169.375 C 59.484375 169.375 57.285156 171.574219 57.285156 174.300781 L 57.285156 200.910156 C 57.285156 203.636719 59.484375 205.835938 62.214844 205.835938 Z M 58.605469 174.300781 C 58.605469 172.277344 60.234375 170.691406 62.214844 170.691406 L 102.503906 170.691406 C 104.53125 170.691406 106.117188 172.320312 106.117188 174.300781 L 106.117188 200.910156 C 106.117188 202.933594 104.488281 204.515625 102.503906 204.515625 L 62.214844 204.515625 C 60.191406 204.515625 58.605469 202.890625 58.605469 200.910156 Z M 58.78125 223.253906 L 130.15625 223.253906 C 132.929688 223.253906 135.175781 221.011719 135.175781 218.238281 L 135.175781 218.195312 C 135.175781 215.425781 132.929688 213.183594 130.15625 213.136719 L 58.78125 213.136719 C 56.007812 213.136719 53.761719 215.382812 53.761719 218.195312 L 53.761719 218.238281 C 53.761719 221.011719 56.007812 223.253906 58.78125 223.253906 Z M 55.082031 218.152344 C 55.082031 216.085938 56.753906 214.457031 58.78125 214.414062 L 130.15625 214.414062 C 132.226562 214.414062 133.855469 216.085938 133.855469 218.152344 L 133.855469 218.195312 C 133.855469 220.261719 132.183594 221.890625 130.15625 221.890625 L 58.78125 221.890625 C 56.710938 221.890625 55.082031 220.21875 55.082031 218.195312 Z M 142.398438 222.859375 C 144.996094 222.859375 147.066406 220.792969 147.066406 218.195312 C 147.066406 215.601562 144.996094 213.535156 142.398438 213.535156 C 139.800781 213.535156 137.730469 215.601562 137.730469 218.195312 C 137.730469 220.792969 139.84375 222.859375 142.398438 222.859375 Z M 142.398438 214.898438 C 144.246094 214.851562 145.746094 216.394531 145.746094 218.195312 C 145.746094 220.042969 144.246094 221.539062 142.398438 221.539062 C 140.550781 221.539062 139.050781 220.042969 139.050781 218.195312 C 139.097656 216.347656 140.59375 214.898438 142.398438 214.898438 Z M 142.398438 214.898438 "/></g><g clip-rule="nonzero" clip-path="url(#clip2)"><path style=" stroke:none;fill-rule:nonzero;fill:rgb(9.799194%,9.408569%,14.118958%);fill-opacity:1;" d="M 42.917969 125.726562 C 43.984375 125.726562 44.859375 126.601562 44.859375 127.667969 C 44.859375 128.738281 43.984375 129.613281 42.917969 129.613281 C 41.851562 129.613281 40.976562 128.738281 40.976562 127.667969 C 40.976562 126.601562 41.832031 125.726562 42.917969 125.726562 Z M 27.699219 125.726562 C 28.765625 125.726562 29.640625 126.601562 29.640625 127.667969 C 29.640625 128.738281 28.765625 129.613281 27.699219 129.613281 C 26.632812 129.613281 25.757812 128.738281 25.757812 127.667969 C 25.757812 126.601562 26.632812 125.726562 27.699219 125.726562 Z M 12.5 125.726562 C 13.570312 125.726562 14.441406 126.601562 14.441406 127.667969 C 14.441406 128.738281 13.570312 129.613281 12.5 129.613281 C 11.433594 129.613281 10.558594 128.738281 10.558594 127.667969 C 10.558594 126.601562 11.433594 125.726562 12.5 125.726562 Z M 58.117188 125.726562 C 59.183594 125.726562 60.058594 126.601562 60.058594 127.667969 C 60.058594 128.738281 59.183594 129.613281 58.117188 129.613281 C 57.046875 129.613281 56.175781 128.738281 56.175781 127.667969 C 56.175781 126.601562 57.046875 125.726562 58.117188 125.726562 Z M 42.917969 143.679688 C 43.984375 143.679688 44.859375 144.554688 44.859375 145.621094 C 44.859375 146.691406 43.984375 147.566406 42.917969 147.566406 C 41.851562 147.566406 40.976562 146.691406 40.976562 145.621094 C 40.976562 144.554688 41.832031 143.679688 42.917969 143.679688 Z M 27.699219 143.679688 C 28.765625 143.679688 29.640625 144.554688 29.640625 145.621094 C 29.640625 146.691406 28.765625 147.566406 27.699219 147.566406 C 26.632812 147.566406 25.757812 146.691406 25.757812 145.621094 C 25.757812 144.554688 26.632812 143.679688 27.699219 143.679688 Z M 12.5 143.679688 C 13.570312 143.679688 14.441406 144.554688 14.441406 145.621094 C 14.441406 146.691406 13.570312 147.566406 12.5 147.566406 C 11.433594 147.566406 10.558594 146.691406 10.558594 145.621094 C 10.558594 144.554688 11.433594 143.679688 12.5 143.679688 Z M 58.117188 143.679688 C 59.183594 143.679688 60.058594 144.554688 60.058594 145.621094 C 60.058594 146.691406 59.183594 147.566406 58.117188 147.566406 C 57.046875 147.566406 56.175781 146.691406 56.175781 145.621094 C 56.175781 144.554688 57.046875 143.679688 58.117188 143.679688 Z M 42.917969 107.792969 C 43.984375 107.792969 44.859375 108.667969 44.859375 109.734375 C 44.859375 110.804688 43.984375 111.679688 42.917969 111.679688 C 41.851562 111.679688 40.976562 110.804688 40.976562 109.734375 C 40.976562 108.667969 41.832031 107.792969 42.917969 107.792969 Z M 27.699219 107.792969 C 28.765625 107.792969 29.640625 108.667969 29.640625 109.734375 C 29.640625 110.804688 28.765625 111.679688 27.699219 111.679688 C 26.632812 111.679688 25.757812 110.804688 25.757812 109.734375 C 25.757812 108.667969 26.632812 107.792969 27.699219 107.792969 Z M 12.5 107.792969 C 13.570312 107.792969 14.441406 108.667969 14.441406 109.734375 C 14.441406 110.804688 13.570312 111.679688 12.5 111.679688 C 11.433594 111.679688 10.558594 110.804688 10.558594 109.734375 C 10.558594 108.667969 11.433594 107.792969 12.5 107.792969 Z M 58.117188 107.792969 C 59.183594 107.792969 60.058594 108.667969 60.058594 109.734375 C 60.058594 110.804688 59.183594 111.679688 58.117188 111.679688 C 57.046875 111.679688 56.175781 110.804688 56.175781 109.734375 C 56.175781 108.667969 57.046875 107.792969 58.117188 107.792969 Z M 42.917969 161.613281 C 43.984375 161.613281 44.859375 162.488281 44.859375 163.554688 C 44.859375 164.625 43.984375 165.5 42.917969 165.5 C 41.851562 165.5 40.976562 164.625 40.976562 163.554688 C 40.976562 162.488281 41.832031 161.613281 42.917969 161.613281 Z M 27.699219 161.613281 C 28.765625 161.613281 29.640625 162.488281 29.640625 163.554688 C 29.640625 164.625 28.765625 165.5 27.699219 165.5 C 26.632812 165.5 25.757812 164.625 25.757812 163.554688 C 25.757812 162.488281 26.632812 161.613281 27.699219 161.613281 Z M 12.5 161.613281 C 13.570312 161.613281 14.441406 162.488281 14.441406 163.554688 C 14.441406 164.625 13.570312 165.5 12.5 165.5 C 11.433594 165.5 10.558594 164.625 10.558594 163.554688 C 10.558594 162.488281 11.433594 161.613281 12.5 161.613281 Z M 58.117188 161.613281 C 59.183594 161.613281 60.058594 162.488281 60.058594 163.554688 C 60.058594 164.625 59.183594 165.5 58.117188 165.5 C 57.046875 165.5 56.175781 164.625 56.175781 163.554688 C 56.175781 162.488281 57.046875 161.613281 58.117188 161.613281 Z M 58.117188 161.613281 "/></g><g clip-rule="nonzero" clip-path="url(#clip3)"><path style=" stroke:none;fill-rule:nonzero;fill:rgb(9.799194%,9.408569%,14.118958%);fill-opacity:1;" d="M 930.742188 466.402344 C 930.742188 466.097656 930.476562 465.832031 930.171875 465.832031 L 927.625 465.832031 C 927.589844 465.832031 927.550781 465.832031 927.550781 465.792969 C 927.550781 465.792969 927.511719 465.753906 927.511719 465.71875 L 930.707031 454.78125 C 930.78125 454.476562 930.628906 454.171875 930.324219 454.058594 C 930.019531 453.945312 929.71875 454.132812 929.601562 454.4375 L 926.371094 465.375 C 926.21875 466.058594 926.601562 466.703125 927.285156 466.894531 C 927.398438 466.933594 927.472656 466.933594 927.589844 466.933594 L 930.136719 466.933594 C 930.515625 466.96875 930.742188 466.703125 930.742188 466.402344 Z M 924.472656 453.566406 C 924.167969 453.566406 923.902344 453.832031 923.902344 454.132812 L 923.902344 454.894531 C 923.902344 455.199219 924.167969 455.464844 924.472656 455.464844 C 924.777344 455.464844 925.042969 455.199219 925.042969 454.894531 L 925.042969 454.132812 C 925.042969 453.792969 924.8125 453.566406 924.472656 453.566406 Z M 936.179688 453.566406 C 935.875 453.566406 935.609375 453.832031 935.609375 454.132812 L 935.609375 454.894531 C 935.609375 455.199219 935.875 455.464844 936.179688 455.464844 C 936.484375 455.464844 936.75 455.199219 936.75 454.894531 L 936.75 454.132812 C 936.75 453.792969 936.484375 453.566406 936.179688 453.566406 Z M 935.796875 470.769531 L 929.527344 472.324219 C 929.222656 472.402344 929.03125 472.703125 929.109375 473.007812 C 929.109375 473.007812 929.109375 473.046875 929.109375 473.046875 C 929.414062 473.957031 930.402344 475.402344 932.226562 475.402344 C 932.566406 475.402344 932.871094 475.363281 933.175781 475.289062 C 936.101562 474.566406 936.445312 471.488281 936.445312 471.335938 C 936.445312 471.148438 936.367188 470.957031 936.253906 470.84375 C 936.179688 470.769531 935.988281 470.730469 935.796875 470.769531 Z M 932.949219 474.1875 C 931.996094 474.488281 931.007812 474.109375 930.476562 473.273438 L 935.152344 472.097656 C 934.847656 473.121094 934.011719 473.921875 932.949219 474.1875 Z M 935.34375 449.082031 L 939.902344 450.601562 C 940.207031 450.71875 940.511719 450.527344 940.625 450.261719 C 940.738281 449.957031 940.550781 449.652344 940.246094 449.539062 L 935.683594 448.019531 C 935.378906 447.90625 935.078125 448.097656 934.960938 448.363281 C 934.960938 448.363281 934.960938 448.363281 934.960938 448.398438 C 934.886719 448.667969 935.039062 448.96875 935.34375 449.082031 Z M 926.753906 448.742188 C 926.601562 448.476562 926.257812 448.363281 925.992188 448.476562 L 921.695312 450.640625 C 921.429688 450.792969 921.316406 451.132812 921.429688 451.402344 C 921.542969 451.589844 921.734375 451.703125 921.925781 451.703125 C 922 451.703125 922.113281 451.667969 922.191406 451.628906 L 926.484375 449.464844 C 926.789062 449.351562 926.902344 449.007812 926.753906 448.742188 Z M 951.117188 460.820312 C 951.574219 460.550781 952.105469 460.4375 952.597656 460.550781 C 953.015625 460.742188 953.320312 461.085938 953.4375 461.503906 C 954.003906 462.945312 952.144531 464.238281 952.144531 464.238281 C 951.878906 464.425781 951.800781 464.769531 951.992188 465.035156 C 952.105469 465.1875 952.257812 465.300781 952.484375 465.300781 C 952.597656 465.300781 952.714844 465.261719 952.789062 465.222656 C 952.902344 465.148438 955.449219 463.402344 954.539062 461.121094 C 954.308594 460.363281 953.703125 459.792969 952.980469 459.527344 C 951.800781 459.148438 950.585938 459.90625 950.507812 459.945312 C 950.242188 460.097656 950.128906 460.4375 950.28125 460.703125 C 950.433594 460.96875 950.773438 461.085938 951.039062 460.933594 C 951.039062 460.855469 951.078125 460.820312 951.117188 460.820312 Z M 858.828125 552.339844 C 857.308594 537.910156 848.296875 533.011719 834.652344 527.164062 L 799.453125 513.71875 C 796.71875 512.542969 795.804688 510.300781 795.046875 506.542969 L 791.398438 487.515625 C 797.363281 487.742188 801.8125 483.640625 802.609375 477.035156 C 803.789062 467.273438 802.304688 452.046875 802.265625 451.894531 C 802.265625 451.894531 802.265625 451.894531 802.265625 451.855469 C 804.625 450.183594 806.714844 447.183594 807.246094 444.414062 C 807.816406 441.527344 807.4375 436.132812 807.019531 434.539062 C 806.941406 434.199219 806.714844 433.929688 806.410156 433.78125 C 805.726562 433.515625 804.890625 434.007812 803.445312 434.917969 C 801.8125 435.980469 800.101562 436.855469 798.277344 437.578125 C 794.363281 439.097656 789.875 437.578125 785.125 435.980469 C 781.246094 434.652344 777.257812 433.324219 773 433.324219 C 764.484375 433.324219 757.261719 437.917969 754.980469 444.714844 C 753.308594 449.691406 749.925781 461.957031 754.296875 467.652344 C 760.53125 475.742188 766.539062 485.085938 765.96875 487.289062 C 765.890625 487.589844 766.082031 487.894531 766.386719 487.972656 C 766.691406 488.046875 766.992188 487.855469 767.070312 487.554688 C 767.980469 483.832031 757.339844 469.742188 755.171875 466.933594 C 750.992188 461.503906 754.753906 448.816406 756.007812 445.058594 C 758.136719 438.714844 764.941406 434.425781 772.960938 434.425781 C 777.027344 434.425781 780.945312 435.714844 784.707031 437.007812 C 789.648438 438.679688 794.324219 440.234375 798.617188 438.566406 C 800.480469 437.804688 802.265625 436.894531 803.941406 435.792969 C 804.546875 435.375 805.15625 435.03125 805.839844 434.765625 C 806.183594 436.171875 806.601562 441.375 806.03125 444.109375 C 805.382812 447.414062 802.152344 451.210938 799.378906 451.894531 C 796.109375 452.730469 790.597656 452.085938 785.277344 451.476562 C 777.941406 450.640625 773.378906 450.222656 771.898438 452.007812 C 771.402344 452.617188 771.328125 453.453125 771.59375 454.171875 C 772.769531 457.96875 773.988281 461.652344 774.710938 463.855469 C 773.683594 463.097656 772.277344 462.335938 770.679688 462.335938 C 769.085938 462.335938 767.679688 463.097656 766.460938 464.539062 C 764.597656 466.742188 764.257812 469.554688 765.511719 472.742188 C 765.851562 473.617188 766.273438 474.453125 766.726562 475.25 C 766.613281 475.554688 766.5 475.855469 766.386719 476.160156 C 765.285156 479.273438 765.132812 481.515625 765.929688 482.84375 C 766.308594 483.488281 766.957031 483.945312 767.714844 484.097656 L 767.714844 505.742188 C 767.714844 508.859375 765.816406 511.628906 762.925781 512.769531 L 719.59375 531.378906 C 707.011719 536.351562 697.09375 540.265625 694.699219 554.582031 L 690.175781 582.796875 C 690.136719 583.101562 690.328125 583.40625 690.628906 583.441406 L 690.707031 583.441406 C 690.972656 583.441406 691.238281 583.253906 691.277344 582.949219 L 695.953125 554.769531 C 698.234375 541.101562 707.886719 537.300781 720.164062 532.441406 L 763.496094 513.832031 C 766.839844 512.542969 769.007812 509.3125 769.007812 505.742188 L 769.007812 500.691406 C 771.667969 501.300781 781.171875 503.390625 786.113281 503.390625 C 790.523438 503.390625 792.347656 502.628906 793.03125 502.210938 L 793.90625 506.730469 C 794.703125 510.757812 795.804688 513.378906 799 514.746094 L 834.195312 528.1875 C 847.425781 533.847656 856.203125 538.632812 857.648438 552.417969 L 860.804688 582.875 C 860.84375 583.175781 861.070312 583.40625 861.375 583.40625 L 861.449219 583.40625 C 861.753906 583.367188 861.980469 583.101562 861.945312 582.796875 Z M 767.070312 482.3125 C 766.347656 481.097656 766.878906 478.667969 767.640625 476.464844 C 767.714844 476.578125 767.792969 476.65625 767.828125 476.730469 L 767.828125 482.957031 C 767.527344 482.84375 767.261719 482.617188 767.070312 482.3125 Z M 768.894531 476.160156 C 768.894531 476.160156 768.589844 475.78125 768.171875 475.171875 C 768.398438 474.605469 768.667969 474.035156 768.894531 473.578125 C 770.074219 476.046875 771.78125 480.488281 770.679688 482.3125 C 770.375 482.804688 769.84375 483.074219 769.046875 483.109375 L 769.046875 476.539062 C 769.007812 476.386719 768.96875 476.238281 768.894531 476.160156 Z M 792.613281 501.1875 C 792.613281 501.1875 791.359375 502.289062 786.152344 502.289062 C 781.171875 502.289062 771.210938 500.046875 769.046875 499.554688 L 769.046875 484.25 C 770.261719 484.210938 771.136719 483.757812 771.667969 482.882812 C 772.46875 481.554688 772.316406 479.3125 771.210938 476.199219 C 770.71875 474.753906 770.109375 473.386719 769.386719 472.019531 C 769.238281 471.753906 768.894531 471.640625 768.628906 471.792969 C 768.515625 471.832031 768.4375 471.945312 768.398438 472.019531 C 768.363281 472.058594 767.980469 472.820312 767.449219 473.957031 C 767.183594 473.425781 766.917969 472.894531 766.726562 472.363281 C 765.664062 469.554688 765.929688 467.199219 767.527344 465.335938 C 768.550781 464.160156 769.65625 463.554688 770.871094 463.515625 C 773.417969 463.515625 775.660156 466.136719 775.699219 466.136719 C 775.886719 466.363281 776.269531 466.402344 776.496094 466.210938 C 776.6875 466.058594 776.722656 465.832031 776.648438 465.601562 C 776.648438 465.566406 774.710938 459.867188 772.847656 453.867188 C 772.65625 453.222656 772.808594 452.957031 772.921875 452.804688 C 774.0625 451.402344 780.03125 452.085938 785.277344 452.691406 C 790.710938 453.300781 796.300781 453.945312 799.796875 453.070312 C 800.289062 452.957031 800.746094 452.769531 801.203125 452.5 C 801.277344 453.335938 801.429688 455.160156 801.582031 457.515625 C 801.316406 457.324219 801.050781 457.210938 800.746094 457.097656 C 799.988281 456.792969 799.152344 456.832031 798.429688 457.136719 C 798.164062 457.285156 798.011719 457.628906 798.164062 457.894531 C 798.3125 458.160156 798.65625 458.3125 798.921875 458.160156 C 799.417969 458.007812 799.910156 458.007812 800.40625 458.199219 C 800.785156 458.351562 801.164062 458.578125 801.46875 458.882812 C 801.546875 458.957031 801.621094 458.996094 801.699219 458.996094 C 802 464.238281 802.191406 471.453125 801.507812 476.921875 C 800.746094 483.109375 796.453125 486.871094 790.828125 486.339844 L 790.789062 486.339844 C 790.484375 486.300781 790.179688 486.527344 790.179688 486.832031 C 790.179688 486.90625 790.179688 486.945312 790.179688 487.023438 L 792.878906 501.035156 C 792.765625 501.074219 792.6875 501.109375 792.613281 501.1875 Z M 772.582031 465.984375 C 771.175781 465.1875 769.386719 465.566406 768.4375 466.894531 C 768.210938 467.121094 768.25 467.503906 768.476562 467.691406 C 768.703125 467.921875 769.085938 467.882812 769.273438 467.652344 C 769.273438 467.652344 769.3125 467.617188 769.3125 467.617188 C 769.921875 466.742188 771.0625 466.476562 772.011719 467.007812 C 772.277344 467.160156 772.621094 467.085938 772.769531 466.78125 C 772.921875 466.476562 772.847656 466.136719 772.582031 465.984375 Z M 800.859375 462.261719 C 801.164062 462.261719 801.429688 461.996094 801.429688 461.691406 L 801.429688 460.933594 C 801.429688 460.628906 801.164062 460.363281 800.859375 460.363281 C 800.558594 460.363281 800.289062 460.628906 800.289062 460.933594 L 800.289062 461.691406 C 800.289062 462.035156 800.558594 462.261719 800.859375 462.261719 Z M 789.722656 461.351562 L 789.722656 462.109375 C 789.722656 462.414062 789.988281 462.679688 790.292969 462.679688 C 790.597656 462.679688 790.863281 462.414062 790.863281 462.109375 L 790.863281 461.351562 C 790.863281 461.046875 790.597656 460.78125 790.292969 460.78125 C 789.988281 460.78125 789.722656 461.007812 789.722656 461.351562 Z M 798.046875 466.894531 C 798.3125 467.539062 798.046875 468.300781 797.402344 468.566406 C 797.25 468.640625 797.058594 468.679688 796.90625 468.679688 L 796.222656 468.679688 C 795.917969 468.679688 795.652344 468.945312 795.652344 469.25 C 795.652344 469.554688 795.917969 469.820312 796.222656 469.820312 L 796.832031 469.820312 C 798.164062 469.820312 799.265625 468.753906 799.265625 467.386719 C 799.265625 467.046875 799.1875 466.742188 799.074219 466.4375 L 796.757812 461.046875 C 796.640625 460.742188 796.300781 460.628906 795.996094 460.742188 C 795.691406 460.855469 795.578125 461.199219 795.691406 461.503906 Z M 790.445312 458.3125 C 790.597656 458.046875 790.484375 457.703125 790.179688 457.550781 C 789.421875 457.25 788.582031 457.25 787.863281 457.515625 C 786.988281 457.855469 786.226562 458.464844 785.65625 459.261719 C 785.46875 459.527344 785.542969 459.867188 785.808594 460.058594 C 785.886719 460.136719 786 460.171875 786.113281 460.136719 C 786.304688 460.136719 786.492188 460.058594 786.570312 459.867188 C 786.988281 459.300781 787.519531 458.84375 788.164062 458.578125 C 788.621094 458.386719 789.152344 458.386719 789.648438 458.539062 C 789.953125 458.691406 790.292969 458.578125 790.445312 458.3125 Z M 792.804688 476.65625 C 795.957031 476.65625 796.414062 472.515625 796.414062 472.324219 C 796.414062 472.171875 796.375 472.019531 796.261719 471.871094 C 796.148438 471.753906 795.996094 471.679688 795.84375 471.679688 L 789.761719 471.679688 C 789.609375 471.679688 789.457031 471.753906 789.34375 471.871094 C 789.230469 471.984375 789.191406 472.136719 789.191406 472.324219 C 789.230469 472.515625 789.6875 476.65625 792.804688 476.65625 Z M 795.160156 472.855469 C 794.929688 473.804688 794.324219 475.515625 792.804688 475.515625 C 791.28125 475.515625 790.675781 473.804688 790.445312 472.855469 Z M 1035.84375 582.683594 L 1028.242188 539.199219 C 1027.746094 536.199219 1025.695312 533.695312 1022.84375 532.554688 L 959.136719 507.414062 C 956.25 506.277344 954.347656 503.503906 954.347656 500.390625 L 954.347656 483.871094 L 966.511719 483.871094 C 966.777344 483.871094 967.003906 483.679688 967.082031 483.414062 C 968.296875 478.210938 966.96875 473.273438 965.179688 466.4375 C 964.457031 463.667969 963.28125 461.804688 962.253906 460.171875 C 960.582031 457.515625 959.25 455.386719 960.621094 450.375 C 961.53125 446.996094 960.886719 443.464844 958.71875 440.160156 C 957.617188 438.527344 956.285156 437.046875 954.726562 435.832031 C 957.046875 433.550781 957.085938 429.832031 954.765625 427.511719 C 953.664062 426.375 952.144531 425.765625 950.546875 425.765625 C 947.542969 425.765625 944.351562 427.816406 944.273438 431.160156 C 944.121094 431.121094 943.933594 431.082031 943.78125 431.082031 C 933.820312 429.601562 926.980469 431.539062 921.621094 437.347656 C 916.488281 442.894531 918.769531 448.363281 918.847656 448.589844 C 918.882812 448.667969 918.921875 448.703125 918.960938 448.742188 L 918.960938 477.109375 C 918.960938 480.640625 921.8125 483.453125 925.347656 483.488281 L 927.324219 483.488281 L 927.324219 501.375 C 927.324219 504.375 925.535156 507.109375 922.761719 508.328125 L 874.335938 529.0625 C 871.445312 530.316406 869.433594 533.011719 869.128906 536.164062 L 864.074219 583.140625 C 864.035156 583.441406 864.261719 583.746094 864.566406 583.746094 L 864.644531 583.746094 C 864.945312 583.746094 865.175781 583.519531 865.214844 583.253906 L 870.269531 536.277344 C 870.535156 533.542969 872.28125 531.1875 874.792969 530.125 L 918.160156 511.554688 C 918.464844 512.464844 919.492188 514.933594 922.265625 517.289062 C 927.09375 521.429688 933.859375 522.453125 939.449219 522.453125 C 940.359375 522.453125 941.234375 522.414062 942.070312 522.378906 C 960.503906 521.351562 965.75 513.605469 966.777344 511.667969 L 1022.460938 533.617188 C 1024.933594 534.605469 1026.683594 536.808594 1027.136719 539.390625 L 1034.742188 582.875 C 1034.777344 583.140625 1035.007812 583.367188 1035.308594 583.328125 C 1035.347656 583.328125 1035.386719 583.328125 1035.386719 583.328125 C 1035.691406 583.328125 1035.917969 583.023438 1035.84375 582.683594 C 1035.84375 582.722656 1035.84375 582.722656 1035.84375 582.683594 Z M 945.414062 431.273438 C 945.414062 428.578125 948.074219 426.90625 950.546875 426.90625 C 953.167969 426.90625 955.296875 428.996094 955.296875 431.613281 C 955.296875 432.945312 954.726562 434.234375 953.777344 435.148438 C 951.269531 433.363281 948.417969 432.070312 945.414062 431.425781 C 945.453125 431.347656 945.453125 431.3125 945.414062 431.273438 Z M 919.453125 445.816406 C 919.339844 443.917969 919.757812 441.03125 922.496094 438.109375 C 927.589844 432.601562 934.125 430.78125 943.667969 432.222656 C 949.484375 433.097656 954.878906 436.363281 957.769531 440.804688 C 959.746094 443.84375 960.355469 447.070312 959.515625 450.109375 C 958.035156 455.578125 959.515625 458.007812 961.304688 460.78125 C 962.332031 462.414062 963.394531 464.121094 964.078125 466.703125 C 966.015625 474.035156 967.003906 478.171875 966.054688 482.691406 L 947.203125 482.691406 L 952.902344 468.070312 C 953.550781 467.617188 955.980469 465.71875 956.515625 463.097656 C 956.78125 461.730469 956.4375 460.324219 955.640625 459.222656 C 954.992188 458.199219 953.929688 457.515625 952.75 457.363281 C 950.738281 457.058594 948.496094 458.121094 947.125 458.996094 C 947.808594 456.375 948.265625 453.71875 948.457031 451.019531 C 948.835938 445.4375 942.753906 441.527344 942.488281 441.375 C 942.375 441.300781 942.222656 441.261719 942.109375 441.300781 C 941.996094 441.300781 930.667969 443.199219 927.703125 443.578125 C 924.890625 443.917969 921.960938 442.515625 921.960938 442.515625 C 921.695312 442.398438 921.394531 442.476562 921.242188 442.742188 L 920.136719 444.488281 C 919.835938 444.90625 919.605469 445.363281 919.453125 445.816406 Z M 923.21875 509.351562 C 926.410156 507.984375 928.460938 504.832031 928.460938 501.375 L 928.460938 482.921875 C 928.460938 482.617188 928.195312 482.351562 927.890625 482.351562 L 925.347656 482.351562 C 922.457031 482.351562 920.101562 479.996094 920.101562 477.109375 L 920.101562 448.398438 C 920.101562 447.222656 920.441406 446.082031 921.050781 445.097656 L 921.886719 443.765625 C 922.875 444.183594 925.347656 445.058594 927.816406 444.753906 C 930.589844 444.414062 940.4375 442.78125 942.070312 442.515625 C 943.019531 443.160156 947.65625 446.578125 947.316406 450.984375 C 947.085938 454.132812 946.519531 457.210938 945.566406 460.210938 C 945.492188 460.4375 945.566406 460.703125 945.796875 460.855469 C 945.984375 461.007812 946.289062 461.007812 946.480469 460.820312 C 946.519531 460.78125 949.902344 458.085938 952.597656 458.503906 C 953.472656 458.617188 954.273438 459.109375 954.726562 459.867188 C 955.375 460.742188 955.601562 461.804688 955.414062 462.871094 C 954.957031 465.335938 952.179688 467.199219 952.144531 467.238281 L 952.066406 467.273438 L 952.027344 467.3125 C 952.027344 467.3125 951.992188 467.351562 951.992188 467.351562 L 951.953125 467.386719 C 951.953125 467.386719 951.914062 467.425781 951.914062 467.425781 C 951.914062 467.425781 951.914062 467.464844 951.878906 467.464844 L 945.796875 483.035156 C 945.71875 483.222656 945.757812 483.414062 945.871094 483.566406 C 945.984375 483.71875 946.136719 483.792969 946.328125 483.792969 L 953.167969 483.792969 L 953.167969 500.3125 C 953.167969 503.882812 955.335938 507.109375 958.679688 508.402344 L 961.570312 509.542969 C 961.191406 510.148438 960.164062 511.441406 958.074219 512.769531 C 955.414062 514.480469 950.394531 516.566406 941.613281 517.023438 C 932.832031 517.480469 928.082031 515.3125 925.648438 513.414062 C 924.28125 512.429688 923.179688 511.097656 922.496094 509.578125 Z M 941.996094 521.238281 C 936.292969 521.542969 928.347656 520.972656 923.027344 516.453125 C 920.328125 514.175781 919.417969 511.746094 919.1875 511.0625 L 921.429688 510.109375 C 922.191406 511.933594 925.765625 518.277344 939.332031 518.277344 C 940.09375 518.277344 940.855469 518.277344 941.652344 518.199219 C 957.390625 517.441406 961.796875 511.402344 962.632812 509.996094 L 965.714844 511.210938 C 964.6875 513.074219 959.441406 520.289062 941.996094 521.238281 Z M 941.996094 521.238281 "/></g></g></svg>