<svg width="1079" height="585" viewBox="0 0 1079 585" fill="none" xmlns="http://www.w3.org/2000/svg">
<path d="M53.1598 358.828C99.1051 338.406 256.746 383.68 289.007 438.277C321.273 492.879 323.789 530.184 303.914 584.852C284.039 639.52 234.625 679.211 184.867 686.633C135.113 694.051 63.1012 708.961 18.3786 654.363C-26.3402 599.762 -43.6956 594.723 -46.1449 572.395C-48.598 550.063 -61.0511 480.555 -28.7894 430.856C3.47232 381.16 8.44107 378.707 53.1598 358.828Z" fill="#A2D2FF"/>
<path d="M474.824 156.199C420.129 225.234 400.34 343.852 474.824 421.113C549.304 498.375 672.925 468.027 760.195 481.812C847.461 495.598 955.074 495.598 977.086 374.199C999.207 252.805 946.738 222.457 797.66 136.855C648.582 51.2578 579.765 23.6875 474.824 156.199Z" fill="#FFC8DD"/>
<path d="M1078.7 233.602C1057.81 225.336 1020.84 202.555 1022.32 145.012C1024.33 64.957 882.589 125.41 889.625 0C893.007 0 1033.53 0 1078.7 0V233.602Z" fill="#A2D2FF"/>
</svg>
