<svg id="Layer_1" data-name="Layer 1" xmlns="http://www.w3.org/2000/svg" viewBox="0 0 1119.4 935.1"><defs><style>.cls-1{fill:#fdf186;}</style></defs><g id="background"><g id="background-2" data-name="background"><path d="M992.2,526c-16,0-32.9-12.3-50.2-36.7a.72.72,0,0,1,1.2-.8c17.6,24.7,34.6,36.8,50.6,36,13-.7,21.9-9.5,31.4-18.8s19-18.8,33-19.4c15.6-.8,31.8,9.7,48.2,31.1a.78.78,0,1,1-1.2,1c-16.1-21-31.8-31.3-46.9-30.5-13.4.7-22.9,10-32.1,19s-18.8,18.5-32.3,19.2A10.28,10.28,0,0,0,992.2,526Z"/><path d="M98.8,794.5c-13.3,0-27.3-10.2-41.7-30.4a.68.68,0,0,1,.2-1c.4-.2.8-.2,1,.2,14.6,20.4,28.6,30.4,41.8,29.7,10.7-.6,18.1-7.8,25.9-15.5s15.8-15.6,27.4-16.2c13-.7,26.4,8,40,25.8a.79.79,0,0,1-.1,1.1.91.91,0,0,1-1.1-.1c-13.3-17.3-26.3-25.8-38.7-25.2-11.1.5-18.9,8.3-26.4,15.7s-15.5,15.3-26.8,16A8.64,8.64,0,0,0,98.8,794.5Z"/><path d="M28.8,292.4c-9.1,0-18.8-7-28.7-20.9a.68.68,0,0,1,.2-1,.68.68,0,0,1,1,.2c9.9,13.9,19.4,20.7,28.3,20.2,7.2-.4,12.2-5.3,17.5-10.5S58,269.7,66,269.3c8.9-.4,18.2,5.5,27.5,17.7a.78.78,0,0,1-1.2,1c-9-11.8-17.8-17.5-26.2-17.1-7.5.4-12.5,5.4-17.9,10.7s-10.7,10.5-18.5,10.9A2.77,2.77,0,0,0,28.8,292.4Z"/><rect class="cls-1" x="410.28" y="16.61" width="20.5" height="20.5" transform="translate(118.68 320.89) rotate(-47.9)"/><path d="M1103.8,637a.76.76,0,0,1-.5-.2l-14.9-14.9a.78.78,0,0,1,0-1.1l14.9-14.9a.78.78,0,0,1,1.1,0l14.9,14.9a.78.78,0,0,1,0,1.1l-14.9,14.9A3.93,3.93,0,0,1,1103.8,637Zm-13.9-15.7,13.9,13.9,13.9-13.9-13.9-13.9Z"/><path d="M1071.4,393.3h-.3a.7.7,0,0,1-.4-1l8.6-22.6a.76.76,0,1,1,1.4.6l-8.6,22.6A.84.84,0,0,1,1071.4,393.3Z"/><path d="M1088,152.5a.86.86,0,0,1-.6-.3l-16-18.2a.78.78,0,1,1,1.2-1l16,18.2a.79.79,0,0,1-.1,1.1A.76.76,0,0,1,1088,152.5Z"/><path d="M55.4,631.1a.76.76,0,0,1-.5-.2L37.8,613.7a.78.78,0,0,1,1.1-1.1L56,629.8a.78.78,0,0,1,0,1.1A1.42,1.42,0,0,1,55.4,631.1Z"/><path d="M76.1,423.3a.6.6,0,0,1-.4-.1l-21.1-12a.71.71,0,0,1-.3-1,.81.81,0,0,1,1-.3l21.1,12a.71.71,0,0,1,.3,1A.62.62,0,0,1,76.1,423.3Z"/><path d="M46.9,902.9c-.2,0-.3-.1-.5-.2L27.7,887.3a.78.78,0,1,1,1-1.2l18.7,15.4a.78.78,0,0,1,.1,1.1A.86.86,0,0,1,46.9,902.9Z"/><path d="M171.7,370.3a.76.76,0,0,1-.5-.2.78.78,0,0,1,0-1.1l16.9-17.4a.78.78,0,1,1,1.1,1.1l-17,17.3A.55.55,0,0,1,171.7,370.3Z"/><path d="M162,207.2a.86.86,0,0,1-.6-.3l-14.8-19.1a.78.78,0,0,1,1.2-1l14.8,19.1a.79.79,0,0,1-.1,1.1C162.3,207.1,162.2,207.2,162,207.2Z"/><path d="M66.4,94.6a.71.71,0,0,1-.6-.3.91.91,0,0,1,.1-1.1L85.2,78.6a.78.78,0,1,1,1,1.2L66.9,94.5A.9.9,0,0,1,66.4,94.6Z"/><path d="M192.1,99.1h-.2a.72.72,0,0,1-.5-.9l6-23.5a.73.73,0,1,1,1.4.4l-6,23.5A.94.94,0,0,1,192.1,99.1Z"/><path d="M326.5,39.4a.55.55,0,0,1-.6-.4L313.2,18.4a.72.72,0,1,1,1.2-.8l12.7,20.6a.75.75,0,0,1-.2,1A.52.52,0,0,1,326.5,39.4Z"/><path d="M534.9,47.8a.55.55,0,0,1-.5-.2.77.77,0,0,1-.1-1.1l14.6-19.4A.77.77,0,0,1,550,27a.71.71,0,0,1,.1,1.1L535.5,47.5A.71.71,0,0,1,534.9,47.8Z"/><path d="M663.3,42.3a1.42,1.42,0,0,1-.6-.2L646.4,24.2a.78.78,0,0,1,1.1-1.1L663.9,41a.78.78,0,0,1,0,1.1A1.42,1.42,0,0,1,663.3,42.3Z"/><path d="M183.3,8.3h-.2L159.8,1.5a.72.72,0,0,1-.5-.9.72.72,0,0,1,.9-.5l23.3,6.8a.72.72,0,0,1,.5.9A.75.75,0,0,1,183.3,8.3Z"/><path d="M895.5,42.4a.76.76,0,0,1-.5-.2.9.9,0,0,1-.1-1.1L911.1,23a.78.78,0,1,1,1.2,1L896.2,42.1A1.08,1.08,0,0,1,895.5,42.4Z"/><path d="M795.5,28a.75.75,0,0,1-.7-.5.72.72,0,0,1,.5-.9l23.1-7.3a.73.73,0,1,1,.4,1.4L795.7,28Z"/><path d="M201.3,904.2a.76.76,0,0,1-.5-.2.91.91,0,0,1-.1-1.1l16.2-18a.78.78,0,1,1,1.2,1l-16.2,18A.86.86,0,0,1,201.3,904.2Z"/><path d="M942.6,373.9a.71.71,0,0,1-.6-.3l-14.5-19.4a.72.72,0,0,1,1.2-.8l14.5,19.4a.68.68,0,0,1-.2,1C942.9,373.8,942.7,373.9,942.6,373.9Z"/><path d="M1041.9,268.3a.75.75,0,0,1-.7-.5.82.82,0,0,1,.4-1l22.6-8.6a.76.76,0,0,1,.6,1.4l-22.6,8.6A.37.37,0,0,1,1041.9,268.3Z"/><path d="M977.6,142.8a.86.86,0,0,1-.6-.3l-15.5-18.6a.78.78,0,1,1,1.2-1l15.5,18.6a.79.79,0,0,1-.1,1.1A.76.76,0,0,1,977.6,142.8Z"/><path d="M1020.7,62.2a.75.75,0,0,1-.7-.5.73.73,0,0,1,.4-1l22.4-9.3a.76.76,0,1,1,.6,1.4L1021,62.1A.37.37,0,0,1,1020.7,62.2Z"/><path d="M978.6,639.4a.76.76,0,0,1-.5-.2l-17.5-16.7a.78.78,0,0,1,1.1-1.1l17.5,16.7a.78.78,0,0,1,0,1.1A1.42,1.42,0,0,1,978.6,639.4Z"/><path d="M352.8,839.8a.6.6,0,0,1-.4-.1l-20.1-13.5a.72.72,0,1,1,.8-1.2l20.1,13.5a.78.78,0,0,1,.2,1C353.2,839.6,353,839.8,352.8,839.8Z"/><path d="M461.3,878a.37.37,0,0,1-.3-.1.82.82,0,0,1-.4-1L470.9,855a.76.76,0,1,1,1.4.6l-10.3,22A1,1,0,0,1,461.3,878Z"/><path d="M954.1,914.9c-.2,0-.3-.1-.5-.2l-18.7-15.4a.78.78,0,1,1,1-1.2l18.7,15.4a.78.78,0,0,1,.1,1.1A.86.86,0,0,1,954.1,914.9Z"/><path d="M1064.5,738.5a.6.6,0,0,1-.4-.1.78.78,0,0,1-.2-1l13.7-20a.72.72,0,0,1,1.2.8l-13.7,20A.6.6,0,0,1,1064.5,738.5Z"/><circle class="cls-1" cx="342.7" cy="902.1" r="12"/><path d="M171.7,673.5a9.39,9.39,0,0,1-9.3-8.6h0A9.35,9.35,0,0,1,171,655a8.64,8.64,0,0,1,6.7,2.3,9.21,9.21,0,0,1,3.2,6.3,8.64,8.64,0,0,1-2.3,6.7,9.87,9.87,0,0,1-6.3,3.2Zm-7.8-8.7a7.52,7.52,0,0,0,2.6,5.3,7.81,7.81,0,0,0,5.6,1.9,7.52,7.52,0,0,0,5.3-2.6,7.81,7.81,0,0,0,1.9-5.6,7.52,7.52,0,0,0-2.6-5.3,7.81,7.81,0,0,0-5.6-1.9,7.66,7.66,0,0,0-7.2,8.2Z"/><path d="M728.9,62.2a6,6,0,0,1-2.9-.8h0a5.46,5.46,0,0,1-2.3-3.3,5.13,5.13,0,0,1,.7-4,5.34,5.34,0,0,1,7.4-1.6,5.46,5.46,0,0,1,2.3,3.3,5.2,5.2,0,0,1-.7,4A5.55,5.55,0,0,1,728.9,62.2Zm-2.1-2.1a3.86,3.86,0,0,0,5.3-1.2,3.74,3.74,0,0,0,.5-2.9,3.51,3.51,0,0,0-1.7-2.4,3.86,3.86,0,0,0-5.3,1.2,3.84,3.84,0,0,0,1.2,5.3Z"/><path d="M1063,892.8a6.2,6.2,0,0,1-3.2-.9,6,6,0,1,1,9.1-6.4,5.48,5.48,0,0,1-.8,4.5,6.16,6.16,0,0,1-3.8,2.7C1063.8,892.7,1063.4,892.8,1063,892.8Zm0-10.6a3.4,3.4,0,0,0-1,.1,4.47,4.47,0,0,0-2.8,2h0a4.65,4.65,0,0,0,1.4,6.3,4.45,4.45,0,0,0,6.2-1.4,4.65,4.65,0,0,0-1.4-6.3A4.2,4.2,0,0,0,1063,882.2Zm-4.5,1.7Z"/></g></g><g id="general"><g id="general-2" data-name="general"><g id="window1"><path d="M885.9,333.8H247.8a.79.79,0,0,1-.8-.8V286.4a.79.79,0,0,1,.8-.8H885.9a.79.79,0,0,1,.8.8V333A.86.86,0,0,1,885.9,333.8Zm-637.3-1.5H885.2V287.2H248.6Z"/><path d="M885.9,333.8H247.8a.79.79,0,0,1-.8-.8V86.6a.79.79,0,0,1,.8-.8H885.9a.79.79,0,0,1,.8.8V333A.86.86,0,0,1,885.9,333.8Zm-637.3-1.5H885.2V87.3H248.6Z"/></g><path d="M885.9,491.5H523a.79.79,0,0,1-.8-.8V363.5a.79.79,0,0,1,.8-.8H886a.79.79,0,0,1,.8.8V490.8A1,1,0,0,1,885.9,491.5ZM523.7,490H885.2V364.2H523.7Z"/><rect id="window4" class="cls-1" x="523" y="521.2" width="363" height="413.1"/><path d="M488,785.5H247.8a.79.79,0,0,1-.8-.8V360.8a.79.79,0,0,1,.8-.8H488a.79.79,0,0,1,.8.8V784.7A.86.86,0,0,1,488,785.5ZM248.6,784H487.3V361.6H248.6Z"/><circle id="circle" class="cls-1" cx="360.3" cy="217.9" r="92.8"/><g id="hand"><path d="M666.3,180.3a.76.76,0,0,1-.5-.2c-8.8-9.2-25-26.6-34.9-39.6-2.4-3.2-7.4-9.7-5.1-14.4a6.23,6.23,0,0,1,4.5-3.4c4.3-.6,8,4.1,10.7,7.5l.3.4c3.7,4.7,7.8,9.5,12.4,14.3-2-2.9-3.6-5.5-4.3-6.5-2.1-3.2-3.9-5.9-5.5-8.2-5.7-8.4-8.1-11.9-6.6-15.7a7.14,7.14,0,0,1,5.2-4.4c4.6-.7,8.5,5.1,14.3,13.8l.5.7c5,7.5,10.3,15.2,15.7,23a.72.72,0,0,1-1.2.8c-5.4-7.8-10.7-15.5-15.7-23l-.5-.7c-5.3-7.9-9.1-13.7-12.8-13.1a5.56,5.56,0,0,0-4,3.5c-1.2,3,1,6.3,6.4,14.3,1.6,2.3,3.4,5,5.5,8.2.7,1.1,2.5,3.9,4.6,7,1.6,2.4,3.2,4.7,4.6,6.7h0l.3.4c3.7,4.4,3.8,4.5,3.7,5.1a.55.55,0,0,1-.3.5c-.7.5-.9.6-4.8-5l-.1-.1a213.3,213.3,0,0,1-18.5-20.6l-.3-.4c-2.3-3-5.8-7.5-9.3-7a4.62,4.62,0,0,0-3.4,2.5c-1.9,3.9,2.9,10.2,4.9,12.9,9.9,13,26,30.3,34.8,39.5a.78.78,0,0,1,0,1.1C666.7,180.2,666.5,180.3,666.3,180.3Z"/><path d="M712.4,178.2a.75.75,0,0,1-.7-.5,2.71,2.71,0,0,0-.3-.8c-.3-.7-.7-1.8-1.3-3.2-2.4-6.2-7.2-17.9-10.1-24.6s-6-13.1-7.6-16.2l-.4-.8c-.4-.8-.7-1.4-2-4.3l-1.4-3.1c-4.3-9.5-6.5-14.3-9.6-14.5a4.88,4.88,0,0,0-3.9,2c-1.6,2.3-.2,5.7,2.4,11.9.7,1.7,1.4,3.5,2.2,5.6,1.7,4.5,3.4,9.2,4.8,14a.75.75,0,0,1-.4.9.66.66,0,0,1-.9-.3c-4.7-7.9-9-15.7-12.9-23.2l-.5-.9c-3.3-6.3-6.1-11.7-9.7-11.7a4.55,4.55,0,0,0-3.6,1.8c-1.9,2.7.7,8,5.8,17.7,3.3,6.3,6.7,12.6,10.1,18.7a.74.74,0,1,1-1.3.7c-3.4-6.2-6.8-12.5-10.2-18.7-5.6-10.5-8.2-15.8-5.8-19.2a6.21,6.21,0,0,1,4.8-2.5c4.5,0,7.6,5.8,11.1,12.5l.5.9c2.9,5.5,6,11.2,9.3,17-.8-2.5-1.7-4.9-2.6-7.2-.8-2.1-1.6-3.9-2.2-5.5-2.8-6.7-4.3-10.4-2.2-13.4a6.22,6.22,0,0,1,5.2-2.6c4.1.2,6.2,4.9,10.9,15.3l1.4,3.1c1.3,2.8,1.6,3.4,2,4.2l.4.7c1.6,3.2,4.7,9.6,7.6,16.3s7.7,18.5,10.1,24.7c.6,1.4,1,2.5,1.3,3.2a2.71,2.71,0,0,1,.3.8.88.88,0,0,1-.5,1C712.6,178.2,712.5,178.2,712.4,178.2Z"/><path d="M661.6,197.6a.76.76,0,0,1-.5-.2l-.9-.9c-.2-.1-.3-.3-.5-.4a62.85,62.85,0,0,0-13.7-9.8c-1.5-.8-2.9-1.5-4.3-2.1-4.6-2.2-8.3-3.9-9.2-7.7a7.11,7.11,0,0,1,1.8-6.8c3.2-2.9,9-1,15.7,1.3a91.2,91.2,0,0,1,10.3,4.5c2.2,1.1,4.4,2.3,6.5,3.6,1.1-1,2.3-2,3.5-2.9a23.84,23.84,0,0,1,6.8-3.3,26.28,26.28,0,0,1,11.5-1,.75.75,0,1,1-.1,1.5,25.08,25.08,0,0,0-10.9,1,23.75,23.75,0,0,0-6.4,3.1,22.51,22.51,0,0,0-3.7,3.1.74.74,0,0,1-.9.1c-2.2-1.3-4.5-2.6-6.9-3.8a71.91,71.91,0,0,0-10.1-4.4c-6.3-2.1-11.7-4-14.2-1.6a5.92,5.92,0,0,0-1.3,5.4c.7,3.1,3.9,4.6,8.4,6.7l4.4,2.2a61.39,61.39,0,0,1,14,10.1c.2.1.3.3.5.5a9,9,0,0,0,1,.9.78.78,0,0,1,0,1.1A.93.93,0,0,0,661.6,197.6Z"/><path d="M661.9,160.3a.37.37,0,0,1-.3-.1.82.82,0,0,1-.4-1,27.89,27.89,0,0,1,7.9-10c8.3-6.4,17.8-5.8,21.5-5.3a.76.76,0,0,1-.3,1.5c-3.5-.5-12.5-1-20.4,5a24.26,24.26,0,0,0-7.5,9.5C662.5,160.2,662.2,160.3,661.9,160.3Z"/><path d="M712.1,176.7q-25.2,10.05-50.5,20.1a9,9,0,0,0-1-.9q25-11.25,50.2-22.5C711.4,174.9,711.8,176,712.1,176.7Z"/></g><g id="head"><path id="hair" d="M395.1,200.3a15.17,15.17,0,0,0,2.2,10.5c-1.9-.3-3.9-.6-5.8-.8-7.8-6.8-15.7-13.6-23.5-20.4q-18.9,13.65-37.8,27.4c-1.2-3-7.8-20.4,1-38.3,11.8-24.1,40-25.7,41.2-25.7,24.1-.9,43.5,17.1,50.4,36.2,5.4,14.9,2.6,28.4,1,34.2-2.2-3.4-4.4-6.7-6.7-10.1a13.87,13.87,0,0,0,3.2-14.4,13.35,13.35,0,0,0-14.3-8.4A13.1,13.1,0,0,0,395.1,200.3Z"/><g id="face"><path d="M390.2,264a.84.84,0,0,1-.7-.4l-2.7-5.7a29.08,29.08,0,0,1-14,3.3c-16.6-.6-27.8-17.2-32.6-24.3a97.72,97.72,0,0,1-10.1-20.8.83.83,0,0,1,.5-1c.4-.1.8,0,.9.4v.1a101.92,101.92,0,0,0,9.9,20.5c4.7,6.9,15.5,23.1,31.4,23.6a21.22,21.22,0,0,0,6.6-.7,31.28,31.28,0,0,0,7.3-2.8h.1a1.27,1.27,0,0,1,.6-.1,1,1,0,0,1,.5.4l3,6.4a.73.73,0,0,1-.4,1C390.4,263.9,390.3,264,390.2,264Z"/><path d="M432.7,236.7a.71.71,0,0,1-.6-.3l-3.4-5.3c-2.9-4.5-5.8-9.1-8.7-13.6a.72.72,0,1,1,1.2-.8c2.9,4.5,5.8,9.1,8.7,13.6l3.4,5.3a.78.78,0,0,1-.2,1C433,236.6,432.9,236.7,432.7,236.7Z"/><path d="M390.2,263.2l10.4-6.7c.1-.2.2-.3.3-.5a60.46,60.46,0,0,0,6.4-20.5,48.12,48.12,0,0,1-13.1,16,44.26,44.26,0,0,1-7.5,4.8l.3.6c1,2.1,2.1,4.2,3.2,6.3Z"/></g></g><g id="tshirt"><path d="M488,360.8V565c-6.5,2.1-13.1,4.1-19.6,6.2-2.6.8-5.3,1.7-7.9,2.5-1.8.6-8.1,2.5-10,3.2-.6.2-17.1,5.4-17.9,5.6-3.5-19.9-15.2-120.1-16.6-146.7A160.6,160.6,0,0,1,394.4,490c-9.4,14.8-16.6,26.1-30.4,32-4.3,1.9-16.3,6.2-53.7-3.8A307.39,307.39,0,0,1,247.8,494V420.2a348.51,348.51,0,0,0,46.7,18.7,364.25,364.25,0,0,0,37.5,9.6c2.7-10.8,5.8-21.9,9.1-33.2,5.7-19.2,11.8-37.4,18.1-54.5Z"/><path d="M432.6,583.3a.6.6,0,0,1-.4-.1.55.55,0,0,1-.3-.5c-3.2-18-13.9-108.3-16.2-141.4a161.18,161.18,0,0,1-20.5,49.2c-9.3,14.7-16.7,26.3-30.7,32.3-3.8,1.6-15.4,6.6-54.2-3.8a319.63,319.63,0,0,1-62.7-24.2.67.67,0,0,1-.4-.7V420.3a.55.55,0,0,1,.4-.6c.2-.1.5-.2.7,0a340.24,340.24,0,0,0,46.6,18.6,330.66,330.66,0,0,0,36.8,9.4c2.8-10.9,5.8-21.8,9-32.6,5.4-18.3,11.5-36.6,18.1-54.5a.75.75,0,0,1,.7-.5H488a.79.79,0,0,1,.8.8V565a.75.75,0,0,1-.5.7l-55.5,17.5A.31.31,0,0,1,432.6,583.3ZM416,435.1h0a.68.68,0,0,1,.7.7c1.4,26.8,12.9,124.7,16.4,145.7l54.1-17.1V361.6H359.8c-6.5,17.7-12.5,35.9-17.9,54-3.2,11-6.3,22.1-9.1,33.2a.87.87,0,0,1-.9.6,345.17,345.17,0,0,1-37.6-9.6,339.79,339.79,0,0,1-45.7-18.2v72.1a318.7,318.7,0,0,0,62,23.9c38.3,10.2,49.5,5.4,53.2,3.8,13.6-5.8,20.5-16.7,30-31.7a159.16,159.16,0,0,0,21.5-53.9A.68.68,0,0,1,416,435.1Z"/><path d="M523,521.2H627.1c-.1,0-.2.1-.3.1-11.6,3.7-23.3,7.3-34.9,11-2.2.7-4.5,1.4-6.7,2.1-13.9,4.4-27.7,8.7-41.6,13.1-6.9,2.2-13.8,4.3-20.6,6.5Z"/><path d="M523,554.8c-.2,0-.3,0-.4-.1a.71.71,0,0,1-.3-.6V521.3a.79.79,0,0,1,.8-.8H627.2a.67.67,0,0,1,.7.6.89.89,0,0,1-.5.8l-.4.1c-11.6,3.7-23.3,7.3-34.9,11-2.2.7-4.3,1.4-6.5,2l-.2.1c-13.9,4.4-27.7,8.7-41.6,13.1l-20.6,6.5A.31.31,0,0,1,523,554.8Zm.7-32.8v31l19.7-6.2c13.9-4.4,27.7-8.7,41.6-13.1l.2-.1c2.2-.7,4.3-1.4,6.5-2l30.6-9.6Z"/><path d="M600.9,363.5q32.25,63.6,64.6,127.3H523V363.5Z"/><path d="M665.5,491.5H523a.79.79,0,0,1-.8-.8V363.5a.79.79,0,0,1,.8-.8h77.9a1,1,0,0,1,.7.4l64.6,127.3a.85.85,0,0,1,0,.7A.75.75,0,0,1,665.5,491.5ZM523.7,490H664.3L600.4,364.2H523.7Z"/><path d="M779.5,333H364.4a168.52,168.52,0,0,1,7.6-23.1,138.6,138.6,0,0,1,12.3-23.5,94.27,94.27,0,0,1,6.6-9,125.7,125.7,0,0,0-9.6-8.2c17.2-11.1,34.3-22.2,51.5-33.3,2.1-1.4,4.2-2.8,6.3-4.1,1.2,3.3,2.4,6.7,3.6,10,2.7-.9,5.4-1.7,8-2.4a196.19,196.19,0,0,1,21.3-4.5c78.5-13.4,151.2,22.7,195.1,51.6,15.7,10.4,27.8,19.8,35,25.7-3.7-8.6-7.5-17.1-11.2-25.7q-18.75-43-37.5-86.2c2.8-1.1,5.5-2.2,8.3-3.4,16.7-6.8,33.5-13.5,50.2-20.3,0,.1.1.1.1.2s.3.5.4.7a557.18,557.18,0,0,1,41.3,83.2c3.5,8.8,6.9,17.4,10,25.7C770.2,303.3,775.8,319,779.5,333Z"/><path d="M779.5,333.8H364.4a.86.86,0,0,1-.6-.3.66.66,0,0,1-.1-.6,170.44,170.44,0,0,1,7.6-23.2,138.53,138.53,0,0,1,12.4-23.6c2-3,4-5.8,6.2-8.5a104.46,104.46,0,0,0-9.1-7.6.75.75,0,0,1,0-1.2l51.5-33.3,6.2-4.1a.66.66,0,0,1,.6-.1.82.82,0,0,1,.5.5l3.4,9.3c2.4-.8,4.9-1.6,7.3-2.2,7.8-2.1,15.1-3.4,21.3-4.5,76.9-13.1,148.9,20.9,195.7,51.7,11.3,7.4,22,15.3,32.7,23.8L652.5,200.8a.64.64,0,0,1,0-.6.78.78,0,0,1,.4-.4l58.5-23.6a.81.81,0,0,1,.9.3.31.31,0,0,1,.1.2l.1.1a2.19,2.19,0,0,0,.3.5,561.73,561.73,0,0,1,41.4,83.3l.3.8c3.4,8.7,6.6,16.9,9.7,24.9,7.7,20.1,12.6,34.5,15.8,46.7a.61.61,0,0,1-.1.6C780,333.7,779.7,333.8,779.5,333.8Zm-414.1-1.5H778.5c-3.2-11.9-8-26.1-15.5-45.6-3.1-8-6.3-16.2-9.7-24.9l-.3-.8a549.5,549.5,0,0,0-41.3-83.1c-.1-.1-.1-.2-.2-.4l-57.2,23.1,48.4,111.2a1,1,0,0,1-.2.9.75.75,0,0,1-.9,0,430.11,430.11,0,0,0-35-25.7C620,256.4,548.4,222.5,472,235.6c-6.2,1.1-13.4,2.4-21.2,4.5-2.6.7-5.3,1.5-7.9,2.4a.72.72,0,0,1-.9-.5l-3.3-9.1-5.5,3.6-50.6,32.7c2.4,1.9,7.7,6.4,8.9,7.6a.67.67,0,0,1,0,1,96.66,96.66,0,0,0-6.5,8.9A139,139,0,0,0,372.7,310,187.79,187.79,0,0,0,365.4,332.3ZM711.9,176.6Z"/><path d="M784.1,363.5c-.1,10.1-2.6,18.4-8.3,24.5-22.7,24.1-87.2,2.7-122.5-9.1a308.9,308.9,0,0,1-37.9-15.4Z"/><path d="M742.1,399.7c-28.8,0-65.6-12.3-88.9-20.1a321.32,321.32,0,0,1-38-15.4.74.74,0,0,1-.4-.8.86.86,0,0,1,.7-.6H784.2a.68.68,0,0,1,.7.7c-.1,10.9-2.9,19-8.5,25C768.7,396.7,756.4,399.7,742.1,399.7ZM618.8,364.2a336.35,336.35,0,0,0,34.8,13.9c34.7,11.6,99.2,33.2,121.7,9.3,5.2-5.5,7.8-13.1,8-23.2Z"/></g><g id="legs"><path d="M678.8,935.1a.86.86,0,0,1-.6-.3L580.5,823.7c-8.4-9.6-16.9-19.2-25.3-28.8a.76.76,0,0,1-.2-.5c-.1-4-.2-8.1-.2-12.8-.2-13.8-.2-27.8,0-41.6.2-10.8.5-22,1-33.2.1-2.8.2-5.6.4-8.4.7-13.9,1.6-27.9,2.7-41.7,1-11.9,2.1-23.9,3.4-35.7a.84.84,0,0,1,.7-.7.79.79,0,0,1,.8.5c4.1,12,8.6,24,13.4,35.6,2.8,6.7,5.7,13.4,8.7,19.9l1.2,2.7c2.8,6.1,5.8,12.6,8.9,18.9,8.1,17,14.8,29.8,21.6,41.5,3.3,5.7,6.6,10.9,9.8,15.8a267.21,267.21,0,0,0,19.3,25.6,207.34,207.34,0,0,0,22.1,21.9c1,.8,2,1.7,3,2.5,7.8,6.3,15,11.1,29.1,16.9,2.8,1.2,5.9,2.4,9.2,3.6,10,3.8,22.8,8.1,41.5,14,10.7,3.4,23.7,7.4,40.8,12.6l.8.2c11.9,3.6,24,7.3,36.8,11.1l4.8,1.4c14.4,4.3,28.3,8.4,41.6,12.3l9.8,2.9a.73.73,0,0,1-.4,1.4l-9.8-2.9c-13.2-3.9-27.2-8-41.6-12.3l-4.8-1.4c-12.8-3.8-24.8-7.5-36.8-11.1l-.8-.2c-17.1-5.2-30.1-9.2-40.8-12.6-18.7-5.9-31.6-10.3-41.6-14-3.3-1.3-6.4-2.5-9.3-3.7-14.2-5.9-21.5-10.7-29.4-17.1l-3.1-2.5a202,202,0,0,1-22.3-22.1,244.49,244.49,0,0,1-19.4-25.8c-3.3-5-6.5-10.2-9.9-15.9-6.9-11.7-13.5-24.6-21.7-41.6-3-6.4-6-12.9-8.9-18.9l-1.2-2.7c-3-6.5-5.9-13.2-8.7-20-4.4-10.7-8.5-21.6-12.3-32.5-1.1,10.7-2.2,21.6-3,32.3-1.1,13.8-2,27.7-2.7,41.5-.1,2.8-.3,5.6-.4,8.4-.5,11.2-.8,22.3-1,33.1-.2,13.7-.3,27.7,0,41.5.1,4.5.1,8.6.2,12.5,8.4,9.5,16.8,19.1,25.1,28.6l97.7,111.1a.79.79,0,0,1-.1,1.1C679.2,935.1,679,935.1,678.8,935.1Z"/><path d="M885.9,791a.37.37,0,0,1-.3-.1c-2.4-1-4.8-2.1-7.1-3.1l-44.2-19.5c-13.9-6.1-27.7-12.2-41.6-18.3-6.9-3-13.8-6.1-20.7-9.1l-1.2-.5c-6.6-2.9-13.1-5.8-19.7-8.7l-13.3-5.9a.78.78,0,0,1-.4-.4L690.7,614c-5.6-13.3-11.1-26.5-16.7-39.8l-22.1-52.7a.76.76,0,0,1,1.4-.6l22.1,52.7c5.6,13.3,11.1,26.5,16.7,39.8l46.6,111.1,13,5.7c6.6,2.9,13.1,5.8,19.7,8.7l1.2.5c6.9,3,13.8,6.1,20.7,9.1,13.9,6.1,27.7,12.2,41.6,18.3l44.2,19.5c2.4,1,4.7,2.1,7.1,3.1a.86.86,0,0,1-.3,1.6Z"/><path d="M446.4,785.5a.68.68,0,0,1-.7-.7l-.3-3c-1-12.6-1.4-26.2-1.2-41.6.2-14.8,1-28.7,1.8-41.6.1-2.5.3-4.9.4-7.1l.1-.8c.7-11.6,1.2-22.5,1.7-33.6.6-13.8,1-27.8,1.2-41.6.2-12.4.4-25.4.4-38.5a.79.79,0,0,1,.8-.8h0a.67.67,0,0,1,.7.8c0,13.1-.1,26.1-.4,38.6-.3,13.8-.7,27.8-1.2,41.6-.4,11-1,22-1.7,33.6l-.1.8c-.1,2.3-.3,4.7-.4,7.1-.8,12.9-1.5,26.8-1.8,41.5-.2,15.3.2,28.9,1.2,41.5l.3,3a1.09,1.09,0,0,1-.8.8Z"/><g id="pattern"><path d="M668.3,491.5H626.7a.79.79,0,0,1-.8-.8.74.74,0,0,1,.8-.8h41.6a.8.8,0,1,1,0,1.6Z"/><path d="M657.3,533.1H591.9a.79.79,0,0,1-.8-.8.74.74,0,0,1,.8-.8h65.4a.8.8,0,0,1,0,1.6Z"/><path d="M488,574.6H460.4a.79.79,0,0,1-.8-.8.74.74,0,0,1,.8-.8H488a.8.8,0,1,1,0,1.6Z"/><path d="M674.7,574.6H523a.79.79,0,0,1-.8-.8.74.74,0,0,1,.8-.8H674.7a.8.8,0,0,1,0,1.6Z"/><path d="M692.1,616.2H523a.79.79,0,0,1-.8-.8.74.74,0,0,1,.8-.8H692.2a.79.79,0,0,1,.8.8A.82.82,0,0,1,692.1,616.2Z"/><path d="M488,616.2H450a.79.79,0,0,1-.8-.8.74.74,0,0,1,.8-.8h38a.8.8,0,1,1,0,1.6Z"/><path d="M709.9,657.8H576.5a.79.79,0,0,1-.8-.8.74.74,0,0,1,.8-.8H709.9a.8.8,0,0,1,0,1.6Z"/><path d="M559.7,657.8H523a.79.79,0,0,1-.8-.8.74.74,0,0,1,.8-.8h36.7a.8.8,0,0,1,0,1.6Z"/><path d="M488,657.8H448.8a.79.79,0,0,1-.8-.8.74.74,0,0,1,.8-.8H488a.8.8,0,1,1,0,1.6Z"/><path d="M727,699.3H595.2a.79.79,0,0,1-.8-.8.74.74,0,0,1,.8-.8H727a.8.8,0,0,1,0,1.6Z"/><path d="M488,699.3H446.6a.79.79,0,0,1-.8-.8.74.74,0,0,1,.8-.8H488a.8.8,0,1,1,0,1.6Z"/><path d="M557,699.3H523a.79.79,0,0,1-.8-.8.74.74,0,0,1,.8-.8h34a.8.8,0,0,1,0,1.6Z"/><path d="M772.3,740.9H616.9a.79.79,0,0,1-.8-.8.74.74,0,0,1,.8-.8H772.3a.8.8,0,1,1,0,1.6Z"/><path d="M488,740.9H444.9a.79.79,0,0,1-.8-.8.74.74,0,0,1,.8-.8H488a.8.8,0,0,1,0,1.6Z"/><path d="M555.6,740.9H523a.79.79,0,0,1-.8-.8.74.74,0,0,1,.8-.8h32.6a.8.8,0,1,1,0,1.6Z"/><path d="M555.6,785.5H523a.79.79,0,0,1-.8-.8.74.74,0,0,1,.8-.8h32.6a.8.8,0,1,1,0,1.6Z"/><path d="M866.5,782.5H646.1a.79.79,0,0,1-.8-.8.74.74,0,0,1,.8-.8H866.5a.79.79,0,0,1,.8.8A.74.74,0,0,1,866.5,782.5Z"/><path d="M581.1,824H523a.79.79,0,0,1-.8-.8.74.74,0,0,1,.8-.8h58.2a.79.79,0,0,1,.8.8A.88.88,0,0,1,581.1,824Z"/><path d="M885.9,824H700.6a.79.79,0,0,1-.8-.8.74.74,0,0,1,.8-.8H885.9a.8.8,0,0,1,0,1.6Z"/><path d="M617.7,865.6H523a.79.79,0,0,1-.8-.8.74.74,0,0,1,.8-.8h94.7a.8.8,0,0,1,0,1.6Z"/><path d="M885.9,865.6H829.7a.79.79,0,0,1-.8-.8.74.74,0,0,1,.8-.8h56.2a.8.8,0,0,1,0,1.6Z"/><path d="M654.2,907.2H523a.79.79,0,0,1-.8-.8.74.74,0,0,1,.8-.8H654.3a.79.79,0,0,1,.8.8A.88.88,0,0,1,654.2,907.2Z"/><path d="M460.5,785.5a.79.79,0,0,1-.8-.8v-211a.79.79,0,0,1,.8-.8.74.74,0,0,1,.8.8v211C461.2,785.1,460.9,785.5,460.5,785.5Z"/><path d="M543.6,935.1h0a.79.79,0,0,1-.8-.8V547.5a.79.79,0,0,1,.8-.8.74.74,0,0,1,.8.8V934.4A.85.85,0,0,1,543.6,935.1Z"/><path d="M585.2,677.7a.79.79,0,0,1-.8-.8V534.4a.79.79,0,0,1,.8-.8.74.74,0,0,1,.8.8V677A.85.85,0,0,1,585.2,677.7Z"/><path d="M585.2,935.1a.79.79,0,0,1-.8-.8V827.9a.79.79,0,0,1,.8-.8.74.74,0,0,1,.8.8V934.4A.85.85,0,0,1,585.2,935.1Z"/><path d="M626.7,756.8a.79.79,0,0,1-.8-.8V521.3a.79.79,0,0,1,.8-.8.74.74,0,0,1,.8.8V756A.86.86,0,0,1,626.7,756.8Z"/><path d="M626.7,935.1a.79.79,0,0,1-.8-.8V875.1a.79.79,0,0,1,.8-.8.74.74,0,0,1,.8.8v59.2A.79.79,0,0,1,626.7,935.1Z"/><path d="M668.3,804.5a.79.79,0,0,1-.8-.8V558.6a.79.79,0,0,1,.8-.8.74.74,0,0,1,.8.8V803.7C669,804.2,668.7,804.5,668.3,804.5Z"/><path d="M668.3,935.1a.79.79,0,0,1-.8-.8v-12a.79.79,0,0,1,.8-.8.74.74,0,0,1,.8.8v12C669,934.8,668.7,935.1,668.3,935.1Z"/><path d="M709.9,827.7a.79.79,0,0,1-.8-.8V657a.79.79,0,0,1,.8-.8.74.74,0,0,1,.8.8V826.9C710.6,827.4,710.3,827.7,709.9,827.7Z"/><path d="M751.4,841.7a.79.79,0,0,1-.8-.8V731a.79.79,0,0,1,.8-.8.74.74,0,0,1,.8.8V841A.77.77,0,0,1,751.4,841.7Z"/><path d="M793,854.5a.79.79,0,0,1-.8-.8V749.3a.79.79,0,0,1,.8-.8.74.74,0,0,1,.8.8V853.8A.85.85,0,0,1,793,854.5Z"/><path d="M834.6,867a.79.79,0,0,1-.8-.8V767.5a.79.79,0,0,1,.8-.8.74.74,0,0,1,.8.8v98.7C835.3,866.7,835,867,834.6,867Z"/><path d="M876.1,879.3a.79.79,0,0,1-.8-.8V785.9a.79.79,0,0,1,.8-.8.74.74,0,0,1,.8.8v92.6A.79.79,0,0,1,876.1,879.3Z"/></g></g></g></g></svg>