<?xml version="1.0" encoding="utf-8"?>
<!-- Generator: Adobe Illustrator 25.1.0, SVG Export Plug-In . SVG Version: 6.00 Build 0)  -->
<svg version="1.1" id="Layer_1" xmlns="http://www.w3.org/2000/svg" xmlns:xlink="http://www.w3.org/1999/xlink" x="0px" y="0px"
	 viewBox="0 0 2548 2682" style="enable-background:new 0 0 2548 2682;" xml:space="preserve">
<style type="text/css">
	.st0{fill:none;stroke:#000000;stroke-width:8;}
	.st1{fill:none;stroke:#000000;stroke-width:8;stroke-linecap:round;}
	.st2{fill:#94C2F8;}
	.st3{fill:none;stroke:#000000;stroke-width:6;}
</style>
<desc>Created with Sketch.</desc>
<g id="Page-1">
	<g id="_x31_0" transform="translate(4.000000, 4.000000)">
		<circle id="Oval" class="st0" cx="1684.9" cy="1219.2" r="5.3"/>
		<circle id="Oval_1_" class="st0" cx="1286.7" cy="56.2" r="5.3"/>
		<circle id="Oval_2_" class="st0" cx="100.1" cy="974.8" r="5.3"/>
		<circle id="Oval_3_" class="st0" cx="1866.8" cy="735.3" r="5.3"/>
		<circle id="Oval_4_" class="st0" cx="2533.8" cy="1056.1" r="5.3"/>
		<circle id="Oval_5_" class="st0" cx="399.5" cy="2285" r="5.3"/>
		<circle id="Oval_6_" class="st0" cx="968.7" cy="490.3" r="5.3"/>
		<circle id="Oval_7_" class="st0" cx="2430" cy="2156.2" r="5.3"/>
		<circle id="Oval_8_" class="st0" cx="1734" cy="2229.8" r="5.3"/>
		<line id="Path" class="st1" x1="2174.6" y1="1711.8" x2="2204" y2="1733.1"/>
		<line id="Path_1_" class="st1" x1="467.9" y1="0.5" x2="497.2" y2="21.8"/>
		<line id="Path_2_" class="st1" x1="1350.7" y1="2622.6" x2="1320.9" y2="2643.4"/>
		<line id="Path_3_" class="st1" x1="2219.1" y1="2529.4" x2="2189.3" y2="2550.1"/>
		<line id="Path_4_" class="st1" x1="156.5" y1="432" x2="126.7" y2="452.7"/>
		<line id="Path_5_" class="st1" x1="506.9" y1="1397.3" x2="477.1" y2="1418.1"/>
		<line id="Path_6_" class="st1" x1="0.8" y1="1827.6" x2="34.6" y2="1814.3"/>
		<line id="Path_7_" class="st1" x1="2329.5" y1="221.6" x2="2349.2" y2="252.1"/>
		<line id="Path_8_" class="st1" x1="2136.8" y1="1097.5" x2="2156.6" y2="1128"/>
		<line id="Path_9_" class="st1" x1="542.5" y1="2643.4" x2="562.3" y2="2673.8"/>
		<path id="Shape" class="st1" d="M1805.9,236.6c-9.3,48.4-14.9,125,5,174.4 M2218.9,553.2c-13.7,7.4-27,13.3-39.8,17.8 M1817.6,425
			c3,5.1,6.3,9.7,10,13.9 M1834.3,445.2c5,4.1,10.6,7.5,16.9,9.8 M1857.2,457c8.9,2.3,19,2.8,30.4,1.2
			c102.3-14.3,126.3-135.6,125.6-194.5c-2.1-44.7-29.3-102.1-75.8-37.1c-46.4,65-12.3,191.9,10.6,247.2
			c18.8,41,67.8,100.5,144.7,108.8 M2108.1,583.5c3.5,0.1,7.1,0,10.7-0.2 M2126.8,582.8c6.1-0.5,12.4-1.4,18.9-2.6 M2153.3,578.6
			c6.2-1.4,12.6-3.2,19.1-5.3"/>
		<polygon id="Path_10_" points="1292.7,2376.8 1323.2,2346.3 1146.5,2152.4 1133.3,2237.7 682.4,2321 701.7,2355.5 1109.9,2499.7 
			1165.8,2457 1165.8,2511.9 1261.3,2543.3 		"/>
		<polygon id="Path_11_" points="913.5,2203.2 943.9,2172.7 767.2,1978.8 754,2064.1 303.2,2147.3 322.5,2181.8 730.7,2326 
			786.5,2283.4 786.5,2338.2 882,2369.7 		"/>
		<path id="Shape_2_" class="st1" d="M1303.9,2332.1c0.8-6.5,52.5-127.3,78.2-186.8 M1163.8,2180.8l25.4-72.1"/>
		<path id="Shape_3_" class="st1" d="M924.6,2158.5c0.8-6.5,52.9-115.7,78.6-175.2 M784.5,2007.2l27.6-87.4"/>
		<path id="Path_12_" class="st0" d="M2288.5,1768.1l2.6,21.2l151.8,13.1c14.7,0.9,18.2,7.6,8.3,14.5c10.3-2.4,26.8,8.9,13.1,24.4
			c9.1-0.1,18.6,9.5,9.5,20.3c-0.9,1.1-3.9,3.7-8.1,4.8c-4.2,1.1-16.9,2.8-22.7,3.4l29.2,8.8c9,2.7,10.9,20.1-6,19.8l-128.9-13.9
			l60.6,37.3c7.5,7.9,5.7,28.7-16.3,20.3c-10.6-3.2-102.6-22.4-144.2-43.3l-36.8-36.3l-42.2-107.2"/>
		<path id="Path_13_" class="st1" d="M1198.6,1021.1l-9.4-158.8l-95.4-80l-91.5,23.2c-5.1,6.8-6.8,20.6,27.6,21.5
			c34.4,0.9,51.5,0.4,55.7,0l44.7,52.4c-0.5,13.8-6,42.4-23.2,46.3c-2.7,0.6-29.8,7.2-37.5-8.3c-6.2-12.4-14.3-38.1-22-55.1
			c-7.9-5.7-24.6-9-28.1,23.2s32,122.6,50.2,163.8"/>
		<path id="Shape_4_" class="st1" d="M2451.8,1816.9l-79.8,0.5 M2465.2,1841.3l-86.6,0.9 M2446.6,1870.5l-58.3-10"/>
		<path id="Path_14_" class="st2" d="M1740.1,911.1c25.8,0.8,38.3,23,39.5,31.6c25.3,0,90.4,5,148,25s101.5,86.5,116.2,117.3
			l316.6,681.8l-223.6,29.9l-157.2-424.3l96.9,347.7c-120.3-118.3-386.1-379-484.3-421.5c-98.3-42.5-178.8,31.5-206.8,73.8
			c-8.4-8.8-29-27.9-44.1-33.4c-93.8-33.2-171.8,13.8-199.1,41.5l-151.4-327.3l239.4-75.8L1323,1251
			c32.6-47.2,109.7-152.9,157.6-197.8s116-69.2,144.2-75.8c0-5,0.7-17.5,3.5-26.8C1631.6,939.1,1707.7,910.1,1740.1,911.1z"/>
		<path id="Shape_5_" class="st1" d="M1970.6,1344.9l-38.1-136.8 M1535.3,1284.4l23.7-101.3"/>
		<line id="Path_15_" class="st1" x1="1319.9" y1="1263.4" x2="1309.5" y2="1308"/>
		<path id="Path_16_" d="M1803.9,897.1l-82.4,24.1l2.4-32.2c-36.9-21.1-38.8-61.5-48.1-74.5c-28.8,22.1-66.4,25.2-78.9,24.8
			c-1.5,7.8-0.8,17.4-0.3,21.3c3.6,19.7,18.3,62,49,77.3c-3.7,2.2-11.9,7.3-14.8,9.6l-73.5,12.7c-3.5-25.3,20.6-39.6,18.9-84.4
			c-2.8-77,34.8-123.5,79.2-123c28.1,0.3,44.3,14.3,65.2,32.6c11,9.6,21.4,12.2,40.8,29.7C1793.3,853.1,1768.3,876.8,1803.9,897.1z"
			/>
		<path id="Shape_6_" class="st1" d="M1640.9,949l4.7,32 M1662.7,940.6l6.5,27.3 M1688.2,933.2l10.1,24.3 M1708.7,922.8l13.3,32.4
			 M1739.8,921.5l16.2,25.9"/>
		<path id="Path_17_" class="st1" d="M1595.9,855.2c9.3-1.9,20.6,0.6,27.5,10.7c9.4,13.7,10.4,33.7,0.3,48.4
			c1.3,0.1,13.6-2.7,22.4-13.4"/>
		<path id="Path_18_" class="st1" d="M1644.4,849.7c5.5-4.2,19.4-9.4,30.8,3.3"/>
		<path id="Path_19_" class="st1" d="M1649.5,922.7c3.9,0.1,12.7-1.7,17-10"/>
		<path id="Path_20_" class="st1" d="M1649.3,869.9c5,1.7,17.6,2.8,27.6-6.7"/>
		<path id="Path_21_" class="st1" d="M1598,879.3c5.3,4.8,18.3,10.8,28.1-4.2"/>
		<path id="Shape_7_" class="st1" d="M1383.4,1373.5c4.8-7.5,19.8-27.4,42-47.3c123.4-108.1,259.8,31.5,346.6,102.2l211.9,203.4
			 M1383.4,1373.5c-22.3-32.6-96.5-81.2-215.2-14.4c-59,30.9-297.2,374.4-409,542.3l275.7,93.3 M1383.4,1373.5
			c-12.2,17.3-30.3,47.2-49.6,86.4 M1250.1,1706.8L1102,2017.4l-67.1-22.7 M1250.1,1706.8l-99.9,394.4l233.2,43.5 M1250.1,1706.8
			c18.7-97.5,52.8-184.1,83.7-246.8 M1540.4,1928.5l-22.8,241.2l-134.1-25 M1540.4,1928.5l443.4-23.7
			c32.7-23.9,96.8-94.5,91.4-185.2l-91.4-87.7 M1540.4,1928.5l41.7-344.5 M1383.4,2144.7l157-730.9l399.9,441.8l43.6-223.7
			 M1333.8,1460l-165.6-31.5L1035,1994.7"/>
		<path id="Shape_8_" d="M1031.5,798.7c0.9,1.4,2.8,1.8,4.2,0.9c1.4-0.9,1.8-2.7,0.9-4.1L1031.5,798.7z M1057.3,885
			c0,90.2-73.2,163.4-163.4,163.4v6c93.5,0,169.4-75.8,169.4-169.4H1057.3z M893.9,721.6c57.9,0,108.6,31.6,137.6,77.1l5.1-3.2
			c-30-47.1-82.5-79.9-142.7-79.9L893.9,721.6L893.9,721.6z M1047.4,829.1c6.4,17.4,9.8,36.3,9.8,55.9h6c0-20.4-3.6-39.9-10.2-58
			L1047.4,829.1z M731,897.5c-0.3-4.1-0.5-8.3-0.5-12.6h-6c0,4.4,0.2,8.7,0.5,13L731,897.5z M812.9,1026.9
			c-38.5-22-67.3-59.3-77.9-103.6l-5.8,1.4c11,45.9,40.8,84.6,80.8,107.4L812.9,1026.9z M893.9,1048.3c-26.4,0-51.3-6.3-73.4-17.4
			l-2.7,5.4c22.9,11.5,48.7,18,76.1,18L893.9,1048.3L893.9,1048.3z M730.5,885c0-18.5,3.1-36.3,8.7-52.8l-5.7-1.9
			c-5.9,17.2-9.1,35.6-9.1,54.8L730.5,885L730.5,885z M741,827.2c23.3-61.7,83-105.6,152.9-105.6v-6c-72.5,0-134.3,45.5-158.5,109.5
			L741,827.2z"/>
		<circle id="Oval_9_" class="st3" cx="837.1" cy="1073" r="48.7"/>
		<circle id="Oval_10_" class="st3" cx="746.5" cy="796.2" r="35.6"/>
		<circle id="Oval_11_" class="st3" cx="837.1" cy="1073" r="41.6"/>
		<circle id="Oval_12_" class="st3" cx="746.5" cy="796.2" r="30.3"/>
		<path id="Path_22_" class="st3" d="M672.2,925.2c4.9-17.4,20.9-30.2,39.8-30.2c22.8,0,41.3,18.5,41.3,41.4
			c0,22.8-18.5,41.3-41.3,41.3c-8.4,0-16.3-2.5-22.8-6.9"/>
		<path id="Shape_9_" d="M673.2,927.8c1.6-0.4,2.6-2.1,2.1-3.7c-0.4-1.6-2.1-2.6-3.7-2.1L673.2,927.8z M525,963.9l-0.8-2.9l-9.9,2.6
			l9.8,3.1L525,963.9z M585.7,983.4l-0.9,2.9l1.8,0.6l1.3-1.4L585.7,983.4z M597.9,970.5l1.1-2.8l-1.9-0.7l-1.4,1.4L597.9,970.5z
			 M631.4,983.4l-1.1,2.8l2.3,0.9l1.3-2.2L631.4,983.4z M644.7,961.1l2-2.2l-2.7-2.4l-1.9,3.1L644.7,961.1z M662,976.7l-2,2.2l1.2,1
			l1.5-0.3L662,976.7z M690,973.5c1.6-0.4,2.6-2,2.3-3.6c-0.4-1.6-2-2.6-3.6-2.3L690,973.5z M671.7,922l-147.5,39l1.5,5.8l147.5-39
			L671.7,922z M524,966.7l60.7,19.5l1.8-5.7L525.9,961L524,966.7z M587.8,985.4l12.3-12.8l-4.3-4.2l-12.3,12.8L587.8,985.4z
			 M596.9,973.3l33.4,12.8l2.1-5.6L599,967.7L596.9,973.3z M633.9,984.9l13.4-22.3l-5.1-3.1l-13.4,22.3L633.9,984.9z M642.7,963.3
			l17.3,15.6l4-4.5l-17.3-15.6L642.7,963.3z M662.6,979.6l27.3-6.1l-1.3-5.8l-27.3,6.1L662.6,979.6z"/>
		<path id="Shape_10_" class="st3" d="M816,1119.8l-33.5,63.1 M782.5,1182.9L749,1246l54.5,31.2c2.3-10.5-4.1-31.2-4.1-31.2
			s27.3,2.2,26.7-8.7c-0.3-6.4-9.9-13.1-9.9-13.1s19.3,2,29.8-3.1L782.5,1182.9z"/>
		<path id="Shape_11_" class="st3" d="M711.7,780.3l-47-25.3 M664.7,755l-46.9-25.3l-23.5,40.5c7.8,1.7,23.3-3,23.3-3
			s-1.8,20.4,6.4,20c4.8-0.2,9.8-7.4,9.8-7.4s-1.6,14.4,2.2,22.3L664.7,755z"/>
		<circle id="Oval_13_" class="st3" cx="728.9" cy="936.3" r="10.8"/>
		<path id="Combined-Shape" d="M1279,329.4v183.2h-240.6V329.4H1279z M1158.7,374.8c-13.4,0-24.2,10.8-24.2,24.2
			c0,9.5,5.5,17.8,13.6,21.7l0,0l-19.3,55.8h60L1169,421c8.3-3.8,14-12.2,14-22C1182.9,385.6,1172.1,374.8,1158.7,374.8z"/>
		<path id="Path_23_" class="st0" d="M1261.7,343.3c0.6-47.3-17.1-142.9-93.4-146.5c-52.1-2.4-80.5,42.2-94.3,86.3l28.9,11.8
			c9.5-38.3,31.8-72.1,68.4-68.6c51.5,4.8,60.8,80.9,61,117L1261.7,343.3L1261.7,343.3z"/>
		<path id="Combined-Shape_1_" d="M287.1,792l44,86.5l-113.6,57.9l-44-86.5L287.1,792z M258.5,847.9c-3.2-6.3-10.9-8.8-17.2-5.6
			s-8.8,10.9-5.6,17.2c2.3,4.5,6.9,7.1,11.6,7l0,0l4.3,31l28.3-14.4l-22.7-21.4C260.1,857.8,260.8,852.5,258.5,847.9z"/>
		<path id="Path_24_" class="st0" d="M203,756c-36.9,16.6-25.5,68.7-15.2,92.6l16-5.9c-9.2-21.8-20.9-64.2,5.3-74.6
			c25.5-10.1,50.5,24.7,59.3,41.7l13.9-7.1C271.2,780.2,239.8,739.3,203,756z"/>
		<path id="Combined-Shape_2_" d="M618,1440l176.5,104.3l-79.4,134.3l-176.5-104.3L618,1440z M686.6,1525.4
			c-9.8-5.8-22.5-2.5-28.2,7.3c-4.1,7-3.7,15.4,0.5,21.8l0,0l-38.4,32.5l44,26l9.5-49.3c7.7,0.8,15.6-2.9,19.8-10
			C699.6,1543.8,696.4,1531.2,686.6,1525.4z"/>
		<path id="Path_25_" class="st0" d="M770.8,1399c-54.4-35.7-115.2,24.6-138.8,59.2l21.8,16.7c21.7-31.3,69.2-83.7,105.9-57.1
			c35.7,25.9,10,89.9-5.5,116.4l21.6,12.8C796.8,1512.5,825.2,1434.7,770.8,1399z"/>
	</g>
</g>
</svg>
