<svg width="271" height="71" viewBox="0 0 271 71" fill="none" xmlns="http://www.w3.org/2000/svg">
<circle cx="35" cy="35.5" r="25" fill="#FFC368"/>
<circle cx="66" cy="35.5" r="25" fill="#FFC368"/>
<path d="M31.5467 32.0982L25.5449 37.3036L31.5467 42.8218C31.395 43.1441 31.139 43.4191 30.7787 43.6467C30.4373 43.8742 30.0865 43.988 29.7262 43.988C29.2901 43.988 28.9487 43.8742 28.7022 43.6467L22.4444 37.3036L28.7307 31.3018C28.9772 31.0553 29.309 30.932 29.7262 30.932C30.1244 30.932 30.4942 31.0553 30.8356 31.3018C31.1769 31.5293 31.4139 31.7948 31.5467 32.0982ZM42.104 42.6796C42.9953 42.6796 43.8581 42.2624 44.6924 41.428C44.6545 37.9388 44.6356 35.2556 44.6356 33.3782C43.8391 32.98 43.0427 32.7809 42.2462 32.7809C41.1653 32.7809 40.3025 33.1981 39.6578 34.0324C39.032 34.8668 38.7191 35.9572 38.7191 37.3036C38.7191 38.8964 39.0415 40.1954 39.6862 41.2004C40.3499 42.1865 41.1558 42.6796 42.104 42.6796ZM35.6187 37.7302C35.6187 35.6253 36.197 33.9281 37.3538 32.6387C38.5295 31.3492 39.9517 30.7044 41.6204 30.7044C42.7203 30.7044 43.7443 30.9699 44.6924 31.5009C44.6924 28.1065 44.5787 25.4327 44.3511 23.4796C44.8821 23.4037 45.3941 23.3658 45.8871 23.3658C46.5129 23.3658 46.9964 23.4985 47.3378 23.764C47.6791 24.0295 47.8498 24.4087 47.8498 24.9018C47.8498 25.3758 47.8024 27.111 47.7076 30.1071C47.6317 33.0843 47.5938 35.7581 47.5938 38.1284C47.5938 41.2763 47.7739 43.3338 48.1342 44.3009C47.6601 44.4905 47.1387 44.5853 46.5698 44.5853C45.5079 44.5853 44.92 44.1871 44.8062 43.3907C43.7064 44.3199 42.5401 44.7844 41.3076 44.7844C39.7716 44.7844 38.4347 44.1207 37.2969 42.7933C36.1781 41.4659 35.6187 39.7782 35.6187 37.7302ZM59.9756 37.4458C59.9756 35.8719 59.6911 34.7056 59.1222 33.9471C58.5723 33.1696 57.8801 32.7809 57.0458 32.7809C55.9459 32.7809 54.9219 33.255 53.9738 34.2031C53.9927 35.3409 54.0022 36.6019 54.0022 37.9862C54.0022 39.2757 53.9738 40.385 53.9169 41.3142C54.8271 42.2244 55.8321 42.6796 56.932 42.6796C57.956 42.6796 58.7145 42.1676 59.2076 41.1436C59.7196 40.1196 59.9756 38.887 59.9756 37.4458ZM58.0698 30.7044C59.5489 30.7044 60.753 31.2639 61.6822 32.3827C62.6114 33.4825 63.076 35.1418 63.076 37.3604C63.076 39.4464 62.5261 41.2099 61.4262 42.6511C60.3264 44.0733 58.743 44.7844 56.676 44.7844C54.4194 44.7844 52.4852 44.1207 50.8733 42.7933C51.0061 41.6745 51.0724 39.655 51.0724 36.7347C51.0724 35.047 51.025 32.6007 50.9302 29.396C50.8354 26.1723 50.7311 24.2001 50.6173 23.4796C50.9776 23.4037 51.4801 23.3658 52.1249 23.3658C53.4523 23.3658 54.116 23.8778 54.116 24.9018C54.116 25.1293 54.0876 25.9542 54.0307 27.3764C53.9738 28.7987 53.9453 30.401 53.9453 32.1836C55.159 31.1975 56.5338 30.7044 58.0698 30.7044ZM66.5309 23.3658C67.8773 23.3658 68.5504 23.8873 68.5504 24.9302C68.5504 25.044 68.522 25.4896 68.4651 26.2671C68.4082 27.0256 68.3513 28.1255 68.2944 29.5667C68.2565 31.0078 68.2376 32.6102 68.2376 34.3738C68.2376 38.0147 68.2755 40.3566 68.3513 41.3996C68.4272 42.4425 68.6453 43.3907 69.0056 44.244C68.4556 44.4905 67.8962 44.6138 67.3273 44.6138C66.5119 44.6138 65.962 44.4431 65.6776 44.1018C65.3931 43.7415 65.2509 43.1441 65.2509 42.3098C65.2888 38.7447 65.3078 36.1279 65.3078 34.4591C65.3078 28.7133 65.2224 25.063 65.0518 23.508C65.5827 23.4132 66.0758 23.3658 66.5309 23.3658ZM73.1644 42.8218L79.1662 37.3036L73.1644 32.0982C73.3161 31.7948 73.5627 31.5293 73.904 31.3018C74.2453 31.0553 74.6151 30.932 75.0133 30.932C75.4116 30.932 75.7529 31.0553 76.0373 31.3018L82.2951 37.3036L76.0373 43.6467C75.7908 43.8742 75.4495 43.988 75.0133 43.988C74.6341 43.988 74.2738 43.8837 73.9324 43.6751C73.5911 43.4476 73.3351 43.1631 73.1644 42.8218Z" fill="white"/>
<path d="M116.632 36.4043C116.535 37.0098 116.437 37.5859 116.339 38.1328C116.261 38.6797 116.213 39.1191 116.193 39.4512C116.173 39.9395 116.261 40.291 116.457 40.5059C116.652 40.7207 116.867 40.8281 117.101 40.8281C117.375 40.8281 117.707 40.6914 118.097 40.418C118.507 40.1445 118.937 39.8027 119.386 39.3926C119.836 38.9824 120.285 38.5332 120.734 38.0449C121.183 37.5566 121.593 37.0977 121.964 36.668C122.355 36.2188 122.677 35.8281 122.931 35.4961C123.205 35.1641 123.39 34.9492 123.488 34.8516C123.605 34.7344 123.722 34.666 123.839 34.6465C123.976 34.627 124.084 34.6465 124.162 34.7051C124.24 34.7637 124.279 34.8711 124.279 35.0273C124.279 35.1836 124.201 35.3789 124.045 35.6133C123.81 35.9844 123.507 36.4238 123.136 36.9316C122.765 37.4199 122.355 37.9277 121.906 38.4551C121.457 38.9824 120.978 39.5 120.47 40.0078C119.982 40.5156 119.484 40.9648 118.976 41.3555C118.488 41.7461 118.009 42.0586 117.541 42.293C117.091 42.5469 116.681 42.6738 116.31 42.6738C116.037 42.6738 115.773 42.5957 115.519 42.4395C115.285 42.2832 115.07 42.0781 114.875 41.8242C114.679 41.5703 114.523 41.2871 114.406 40.9746C114.308 40.6621 114.269 40.3496 114.289 40.0371C114.308 39.9004 114.338 39.666 114.377 39.334C113.556 40.252 112.726 40.9844 111.886 41.5312C111.066 42.0586 110.275 42.3223 109.513 42.3223C109.24 42.3223 108.947 42.2539 108.634 42.1172C108.322 41.9805 108.039 41.7559 107.785 41.4434C107.55 41.1309 107.355 40.7207 107.199 40.2129C107.043 39.7051 106.984 39.0898 107.023 38.3672C107.082 37.2344 107.306 36.1602 107.697 35.1445C108.088 34.1289 108.576 33.25 109.162 32.5078C109.767 31.7461 110.441 31.1504 111.183 30.7207C111.945 30.2715 112.707 30.0469 113.468 30.0469C113.8 30.0469 114.103 30.1348 114.377 30.3105C114.65 30.4668 114.884 30.6816 115.08 30.9551C115.275 31.209 115.431 31.4922 115.548 31.8047C115.685 32.1172 115.783 32.4102 115.841 32.6836C115.978 32.1172 116.105 31.5605 116.222 31.0137C116.339 30.4668 116.457 29.9492 116.574 29.4609C116.769 28.7383 116.974 27.957 117.189 27.1172C117.384 26.3945 117.609 25.5645 117.863 24.627C118.117 23.6895 118.4 22.7031 118.713 21.668C118.908 21.5117 119.093 21.3945 119.269 21.3164C119.445 21.2383 119.611 21.1797 119.767 21.1406C119.943 21.082 120.109 21.0527 120.265 21.0527C120.461 21.0527 120.636 21.082 120.793 21.1406C120.949 21.1797 121.076 21.3066 121.173 21.5215C121.291 21.7168 121.369 22.0195 121.408 22.4297C121.447 22.8398 121.447 23.3965 121.408 24.0996C121.369 24.959 121.213 25.8965 120.939 26.9121C120.685 27.9277 120.343 28.9824 119.914 30.0762C119.484 31.1504 118.986 32.2344 118.42 33.3281C117.873 34.4023 117.277 35.4277 116.632 36.4043ZM114.904 36.7852C114.982 36.4141 115.05 36.043 115.109 35.6719C115.187 35.3008 115.275 34.9199 115.373 34.5293C115.334 34.5488 115.295 34.5684 115.255 34.5879C115.236 34.6074 115.207 34.627 115.168 34.6465C114.953 34.7441 114.806 34.7441 114.728 34.6465C114.65 34.5293 114.611 34.3535 114.611 34.1191C114.611 34.002 114.601 33.7969 114.582 33.5039C114.562 33.1914 114.504 32.8789 114.406 32.5664C114.328 32.2344 114.201 31.9512 114.025 31.7168C113.849 31.4629 113.605 31.3359 113.293 31.3359C112.843 31.3359 112.384 31.5703 111.916 32.0391C111.447 32.4883 111.007 33.0449 110.597 33.709C110.187 34.3535 109.845 35.0469 109.572 35.7891C109.298 36.5312 109.142 37.1953 109.103 37.7812C109.064 38.7188 109.181 39.3926 109.455 39.8027C109.728 40.2129 110.099 40.418 110.568 40.418C110.92 40.418 111.3 40.2812 111.711 40.0078C112.14 39.7344 112.55 39.4023 112.941 39.0117C113.351 38.6211 113.722 38.2207 114.054 37.8105C114.406 37.4004 114.689 37.0586 114.904 36.7852ZM134.639 35.9062C134.054 36.7656 133.389 37.6055 132.647 38.4258C131.905 39.2266 131.114 39.9492 130.274 40.5938C129.454 41.2188 128.604 41.7266 127.725 42.1172C126.866 42.5078 126.026 42.7031 125.206 42.7031C124.776 42.7031 124.307 42.5957 123.8 42.3809C123.311 42.1855 122.862 41.873 122.452 41.4434C122.042 41.0137 121.71 40.457 121.456 39.7734C121.221 39.0898 121.153 38.2598 121.251 37.2832C121.329 36.4824 121.573 35.6426 121.983 34.7637C122.413 33.8652 122.93 33.0449 123.536 32.3027C124.161 31.5605 124.854 30.9453 125.616 30.457C126.397 29.9688 127.179 29.7246 127.96 29.7246C128.702 29.7246 129.239 29.9102 129.571 30.2812C129.903 30.6523 130.05 31.1113 130.011 31.6582C129.952 32.2637 129.776 32.8203 129.483 33.3281C129.21 33.8359 128.878 34.2949 128.487 34.7051C128.096 35.1152 127.677 35.4863 127.227 35.8184C126.798 36.1504 126.388 36.4531 125.997 36.7266C125.567 37.0195 125.157 37.3027 124.766 37.5762C124.376 37.8301 124.034 38.0645 123.741 38.2793C123.761 38.7676 123.848 39.1777 124.005 39.5098C124.161 39.8418 124.356 40.1152 124.591 40.3301C124.825 40.5254 125.089 40.6719 125.382 40.7695C125.694 40.8477 126.007 40.8867 126.319 40.8867C126.983 40.8867 127.677 40.6816 128.399 40.2715C129.122 39.8418 129.825 39.334 130.509 38.748C131.212 38.1426 131.856 37.5176 132.442 36.873C133.048 36.2285 133.546 35.6719 133.936 35.2031C134.073 35.0469 134.21 34.959 134.346 34.9395C134.503 34.9004 134.62 34.9199 134.698 34.998C134.796 35.0566 134.845 35.1738 134.845 35.3496C134.845 35.5059 134.776 35.6914 134.639 35.9062ZM127.139 31.3945C126.905 31.3945 126.622 31.5117 126.29 31.7461C125.977 31.9805 125.665 32.3223 125.352 32.7715C125.04 33.2012 124.747 33.7383 124.473 34.3828C124.2 35.0078 123.995 35.7305 123.858 36.5508C124.093 36.375 124.346 36.1992 124.62 36.0234C124.893 35.8281 125.167 35.623 125.44 35.4082C126.28 34.7637 126.866 34.1973 127.198 33.709C127.53 33.2207 127.716 32.8008 127.755 32.4492C127.794 32.0781 127.755 31.8145 127.638 31.6582C127.52 31.4824 127.354 31.3945 127.139 31.3945ZM136.211 41.0039C136.328 41.082 136.475 41.1211 136.65 41.1211C136.846 41.1211 137.031 41.082 137.207 41.0039C137.402 40.9258 137.578 40.8184 137.734 40.6816C137.91 40.5449 138.037 40.3691 138.115 40.1543C138.193 39.9395 138.193 39.6367 138.115 39.2461C138.037 38.8359 137.91 38.4062 137.734 37.957C137.578 37.4883 137.402 37.0195 137.207 36.5508C137.012 36.082 136.846 35.6523 136.709 35.2617C136.592 34.9688 136.494 34.6953 136.416 34.4414C136.338 34.2266 136.26 34.0215 136.182 33.8262C136.123 33.6113 136.074 33.4648 136.035 33.3867C135.938 33.543 135.762 33.7969 135.508 34.1484C135.273 34.5 135.01 34.8711 134.717 35.2617C134.443 35.6328 134.18 35.9844 133.926 36.3164C133.672 36.6289 133.496 36.8438 133.398 36.9609C133.242 37.1367 133.086 37.2441 132.93 37.2832C132.793 37.3027 132.676 37.2734 132.578 37.1953C132.48 37.0977 132.422 36.9707 132.402 36.8145C132.402 36.6387 132.48 36.4336 132.637 36.1992C132.754 36.043 132.93 35.7988 133.164 35.4668C133.398 35.1152 133.633 34.7637 133.867 34.4121C134.102 34.041 134.316 33.7188 134.512 33.4453C134.707 33.1523 134.814 32.9766 134.834 32.918C134.873 32.7617 134.814 32.5566 134.658 32.3027C134.521 32.0488 134.502 31.7559 134.6 31.4238C134.678 31.1504 134.854 30.8379 135.127 30.4863C135.4 30.1152 135.723 29.7832 136.094 29.4902C136.465 29.1973 136.846 28.9824 137.236 28.8457C137.627 28.6895 137.979 28.6895 138.291 28.8457C138.545 29.002 138.75 29.1777 138.906 29.373C139.063 29.5488 139.121 29.7344 139.082 29.9297C139.043 30.0273 138.984 30.1543 138.906 30.3105C138.828 30.4668 138.711 30.6621 138.555 30.8965C138.398 31.1113 138.174 31.3945 137.881 31.7461C137.939 32.1953 138.018 32.6055 138.115 32.9766C138.232 33.3477 138.34 33.6699 138.438 33.9434C138.555 34.2754 138.682 34.5781 138.818 34.8516C138.994 35.2031 139.18 35.5645 139.375 35.9355C139.57 36.3066 139.746 36.6777 139.902 37.0488C140.059 37.4004 140.186 37.7324 140.283 38.0449C140.381 38.3574 140.41 38.6211 140.371 38.8359C140.313 39.168 140.137 39.5684 139.844 40.0371C139.57 40.5059 139.219 40.9648 138.789 41.4141C138.379 41.8438 137.9 42.2148 137.354 42.5273C136.826 42.8398 136.27 42.9961 135.684 42.9961C135.273 42.9961 134.873 42.8691 134.482 42.6152C134.111 42.3613 133.789 42.0684 133.516 41.7363C133.262 41.3848 133.066 41.043 132.93 40.7109C132.813 40.3789 132.803 40.125 132.9 39.9492C133.018 39.7148 133.125 39.5293 133.223 39.3926C133.32 39.2559 133.467 39.0996 133.662 38.9238C133.74 38.8652 133.838 38.7969 133.955 38.7188C134.053 38.6602 134.189 38.6016 134.365 38.543C134.541 38.4844 134.746 38.416 134.98 38.3379C135.176 38.9434 135.352 39.4219 135.508 39.7734C135.664 40.1055 135.791 40.3691 135.889 40.5645C136.006 40.7793 136.113 40.9258 136.211 41.0039ZM148.622 24.7441C148.564 24.959 148.446 25.1738 148.271 25.3887C148.114 25.584 147.929 25.75 147.714 25.8867C147.519 26.0039 147.314 26.082 147.099 26.1211C146.884 26.1602 146.708 26.1211 146.571 26.0039C146.161 25.6914 145.946 25.3594 145.927 25.0078C145.907 24.6367 145.995 24.2949 146.191 23.9824C146.386 23.6504 146.63 23.377 146.923 23.1621C147.216 22.9277 147.47 22.791 147.685 22.752C147.9 22.7129 148.075 22.7617 148.212 22.8984C148.368 23.0156 148.486 23.1816 148.564 23.3965C148.642 23.5918 148.681 23.8164 148.681 24.0703C148.7 24.3242 148.681 24.5488 148.622 24.7441ZM144.579 30.9844C144.677 30.8672 144.863 30.7695 145.136 30.6914C145.409 30.6133 145.693 30.5547 145.986 30.5156C146.279 30.457 146.542 30.4277 146.777 30.4277C147.03 30.4082 147.177 30.4082 147.216 30.4277C147.236 30.4473 147.187 30.6523 147.07 31.043C146.952 31.4336 146.806 31.8926 146.63 32.4199C146.454 32.9473 146.269 33.4941 146.073 34.0605C145.878 34.6074 145.732 35.0566 145.634 35.4082C145.536 35.7598 145.419 36.1602 145.282 36.6094C145.146 37.0391 145.019 37.4688 144.902 37.8984C144.804 38.3086 144.736 38.6992 144.696 39.0703C144.657 39.4414 144.687 39.7246 144.784 39.9199C144.882 40.1543 144.989 40.3203 145.107 40.418C145.224 40.4961 145.351 40.5352 145.488 40.5352C145.878 40.5352 146.366 40.3203 146.952 39.8906C147.558 39.4609 148.163 38.9531 148.769 38.3672C149.394 37.7617 149.97 37.1562 150.497 36.5508C151.025 35.9258 151.415 35.4277 151.669 35.0566C151.825 34.8613 151.982 34.7344 152.138 34.6758C152.314 34.6172 152.45 34.627 152.548 34.7051C152.665 34.7832 152.724 34.9102 152.724 35.0859C152.743 35.2617 152.685 35.4668 152.548 35.7012C152.236 36.248 151.777 36.9023 151.171 37.6641C150.566 38.4062 149.921 39.1289 149.238 39.832C148.554 40.5156 147.88 41.1016 147.216 41.5898C146.571 42.0781 146.044 42.332 145.634 42.3516C145.302 42.3711 144.97 42.3125 144.638 42.1758C144.325 42.0586 144.032 41.8926 143.759 41.6777C143.505 41.4434 143.29 41.1797 143.114 40.8867C142.939 40.5742 142.841 40.252 142.821 39.9199C142.763 39.4316 142.763 38.7676 142.821 37.9277C142.88 37.0684 142.988 36.1992 143.144 35.3203C143.3 34.4219 143.495 33.5723 143.73 32.7715C143.984 31.9707 144.267 31.375 144.579 30.9844ZM157.694 46.1895C157.596 46.6582 157.469 47.2441 157.313 47.9473C157.176 48.6504 157.01 49.3926 156.815 50.1738C156.639 50.9551 156.424 51.7266 156.17 52.4883C155.936 53.2695 155.672 53.9629 155.379 54.5684C155.086 55.1934 154.764 55.7012 154.413 56.0918C154.061 56.4824 153.67 56.6777 153.241 56.6777C152.596 56.6777 152.039 56.4824 151.571 56.0918C151.121 55.7207 150.741 55.2422 150.428 54.6562C150.116 54.0898 149.891 53.4746 149.754 52.8105C149.598 52.1465 149.52 51.5312 149.52 50.9648C149.52 50.1836 149.588 49.5293 149.725 49.002C149.862 48.4941 150.096 48.0059 150.428 47.5371C150.78 47.0684 151.248 46.5703 151.834 46.043C152.42 45.5156 153.172 44.8613 154.09 44.0801C154.539 43.6895 154.969 43.3184 155.379 42.9668C155.789 42.6152 156.18 42.293 156.551 42C156.649 41.6094 156.737 41.248 156.815 40.916C156.913 40.5645 156.991 40.252 157.049 39.9785C156.541 40.6621 155.926 41.2383 155.204 41.707C154.5 42.1758 153.69 42.4102 152.772 42.4102C151.932 42.4102 151.248 42.0391 150.721 41.2969C150.213 40.5352 149.959 39.4219 149.959 37.957C149.959 37.2344 150.096 36.4043 150.37 35.4668C150.643 34.5293 151.034 33.6504 151.541 32.8301C152.049 32.0098 152.674 31.3164 153.416 30.75C154.159 30.1836 154.989 29.9004 155.907 29.9004C156.336 29.9004 156.707 30.0078 157.02 30.2227C157.332 30.4375 157.596 30.7109 157.811 31.043C158.026 31.3555 158.192 31.6973 158.309 32.0684C158.426 32.4199 158.514 32.752 158.573 33.0645C158.612 32.9473 158.641 32.8301 158.661 32.7129C158.68 32.5762 158.709 32.459 158.748 32.3613C158.944 31.6973 159.159 31.248 159.393 31.0137C159.647 30.7598 160.018 30.6328 160.506 30.6328C160.78 30.6328 161.004 30.6816 161.18 30.7793C161.375 30.877 161.473 30.9648 161.473 31.043C161.375 31.2578 161.297 31.4238 161.239 31.541C161.18 31.6582 161.121 31.7852 161.063 31.9219C161.004 32.0391 160.946 32.1953 160.887 32.3906C160.829 32.5859 160.75 32.8691 160.653 33.2402C160.614 33.377 160.536 33.6992 160.418 34.207C160.321 34.6953 160.184 35.2812 160.008 35.9648C159.852 36.6484 159.676 37.4004 159.481 38.2207C159.305 39.041 159.129 39.8418 158.954 40.623C159.5 40.3105 160.067 39.9297 160.653 39.4805C161.239 39.0312 161.795 38.5723 162.323 38.1035C162.85 37.6348 163.319 37.1953 163.729 36.7852C164.139 36.3555 164.442 36.0039 164.637 35.7305C164.793 35.4961 164.969 35.3301 165.164 35.2324C165.36 35.1348 165.526 35.1055 165.663 35.1445C165.819 35.1641 165.907 35.252 165.926 35.4082C165.965 35.5449 165.907 35.7402 165.75 35.9941C165.301 36.7168 164.754 37.4199 164.11 38.1035C163.465 38.7676 162.801 39.3926 162.118 39.9785C161.454 40.5449 160.799 41.0527 160.155 41.502C159.53 41.9316 158.993 42.2832 158.543 42.5566C158.348 43.4355 158.182 44.1484 158.045 44.6953C157.909 45.2422 157.791 45.7402 157.694 46.1895ZM154.002 40.418C154.413 40.418 154.793 40.3105 155.145 40.0957C155.516 39.8809 155.848 39.6367 156.141 39.3633C156.434 39.0703 156.678 38.7773 156.873 38.4844C157.069 38.1914 157.215 37.957 157.313 37.7812C157.391 37.6055 157.479 37.3711 157.577 37.0781C157.694 36.7852 157.782 36.502 157.84 36.2285C157.899 35.9551 157.918 35.7109 157.899 35.4961C157.899 35.2812 157.83 35.1641 157.694 35.1445C157.577 35.125 157.479 35.0469 157.401 34.9102C157.342 34.7734 157.293 34.6172 157.254 34.4414C157.215 34.2656 157.186 34.0898 157.166 33.9141C157.166 33.7383 157.157 33.582 157.137 33.4453C157.039 32.7617 156.873 32.2637 156.639 31.9512C156.405 31.6387 156.141 31.4824 155.848 31.4824C155.36 31.4824 154.891 31.6777 154.442 32.0684C154.012 32.459 153.621 32.9668 153.27 33.5918C152.938 34.1973 152.674 34.8711 152.479 35.6133C152.284 36.3359 152.186 37.0293 152.186 37.6934C152.186 38.5137 152.303 39.1777 152.538 39.6855C152.772 40.1738 153.26 40.418 154.002 40.418ZM152.655 54.0117C153.045 54.0117 153.358 53.7188 153.592 53.1328C153.846 52.5664 154.11 51.7852 154.383 50.7891C154.442 50.5547 154.52 50.2129 154.618 49.7637C154.735 49.334 154.862 48.8359 154.998 48.2695C155.155 47.7031 155.311 47.0879 155.467 46.4238C155.623 45.7793 155.789 45.125 155.965 44.4609C155.809 44.5977 155.643 44.7344 155.467 44.8711C155.311 45.0273 155.145 45.2031 154.969 45.3984C154.539 45.8086 154.12 46.1992 153.709 46.5703C153.319 46.9609 152.967 47.3613 152.655 47.7715C152.342 48.2012 152.088 48.6602 151.893 49.1484C151.717 49.6367 151.629 50.2031 151.629 50.8477C151.629 51.4922 151.649 52.0195 151.688 52.4297C151.746 52.8398 151.815 53.1621 151.893 53.3965C151.991 53.6309 152.098 53.7871 152.215 53.8652C152.352 53.9629 152.498 54.0117 152.655 54.0117ZM172.009 42.7324C171.56 42.7324 171.17 42.6445 170.838 42.4688C170.525 42.3125 170.271 42.0977 170.076 41.8242C169.88 41.5508 169.754 41.2383 169.695 40.8867C169.636 40.5156 169.656 40.125 169.754 39.7148C169.812 39.4414 169.91 39.0801 170.046 38.6309C170.183 38.1621 170.32 37.6641 170.457 37.1367C170.613 36.5898 170.75 36.0527 170.867 35.5254C171.004 34.9785 171.091 34.4902 171.13 34.0605C171.17 33.6113 171.15 33.25 171.072 32.9766C170.994 32.6836 170.828 32.5371 170.574 32.5371C170.261 32.5371 169.939 32.6445 169.607 32.8594C169.275 33.0547 168.933 33.3281 168.582 33.6797C168.25 34.0312 167.908 34.4414 167.556 34.9102C167.224 35.3594 166.892 35.8281 166.56 36.3164C166.384 36.9805 166.238 37.5664 166.121 38.0742C166.004 38.5625 165.896 39.0117 165.798 39.4219C165.72 39.8125 165.642 40.1641 165.564 40.4766C165.486 40.7695 165.418 41.0527 165.359 41.3262C165.3 41.5215 165.125 41.7168 164.832 41.9121C164.539 42.0879 164.226 42.2344 163.894 42.3516C163.562 42.4688 163.279 42.5273 163.045 42.5273C162.791 42.5273 162.683 42.4395 162.722 42.2637C162.742 42.1465 162.81 41.8828 162.927 41.4727C163.025 41.0625 163.152 40.584 163.308 40.0371C163.445 39.4707 163.591 38.875 163.748 38.25C163.904 37.625 164.05 37.0293 164.187 36.4629C164.285 36.0137 164.392 35.5156 164.509 34.9688C164.607 34.5 164.724 33.9531 164.861 33.3281C165.017 32.7031 165.193 32.0195 165.388 31.2773C165.525 31.1602 165.662 31.0723 165.798 31.0137C165.955 30.9355 166.111 30.877 166.267 30.8379C166.423 30.7793 166.589 30.7402 166.765 30.7207C166.921 30.7207 167.078 30.7305 167.234 30.75C167.371 30.7695 167.507 30.8086 167.644 30.8672C167.8 30.9062 167.937 30.9746 168.054 31.0723C167.996 31.209 167.927 31.4043 167.849 31.6582C167.771 31.8926 167.693 32.1465 167.615 32.4199C167.537 32.7324 167.439 33.0547 167.322 33.3867C167.576 33.0352 167.859 32.6836 168.171 32.332C168.504 31.9609 168.855 31.6289 169.226 31.3359C169.617 31.043 170.027 30.8086 170.457 30.6328C170.886 30.4375 171.326 30.3398 171.775 30.3398C172.146 30.3398 172.478 30.4473 172.771 30.6621C173.064 30.877 173.289 31.1797 173.445 31.5703C173.621 31.9414 173.718 32.3906 173.738 32.918C173.777 33.4453 173.709 34.0215 173.533 34.6465L173.211 35.9355C173.113 36.3457 172.986 36.834 172.83 37.4004C172.693 37.9473 172.517 38.5527 172.302 39.2168C172.185 39.6465 172.136 40.0176 172.156 40.3301C172.195 40.6426 172.39 40.7988 172.742 40.7988C173.093 40.7988 173.533 40.584 174.06 40.1543C174.607 39.7246 175.154 39.207 175.701 38.6016C176.248 37.9961 176.765 37.3809 177.254 36.7559C177.742 36.1113 178.113 35.5938 178.367 35.2031C178.543 34.9492 178.709 34.7832 178.865 34.7051C179.021 34.627 179.138 34.6172 179.216 34.6758C179.314 34.7344 179.363 34.8711 179.363 35.0859C179.363 35.2812 179.285 35.5352 179.129 35.8477C178.992 36.1211 178.777 36.4824 178.484 36.9316C178.211 37.3809 177.879 37.8594 177.488 38.3672C177.097 38.875 176.677 39.3926 176.228 39.9199C175.779 40.4277 175.31 40.8965 174.822 41.3262C174.334 41.7363 173.845 42.0684 173.357 42.3223C172.888 42.5957 172.439 42.7324 172.009 42.7324ZM183.425 25.2129C183.132 26.3848 182.8 27.5078 182.429 28.582C182.077 29.6367 181.706 30.6328 181.315 31.5703C180.944 32.4883 180.563 33.3281 180.173 34.0898C179.802 34.8516 179.47 35.5156 179.177 36.082C178.981 37.4883 178.981 38.6211 179.177 39.4805C179.372 40.3398 179.753 40.7695 180.319 40.7695C180.788 40.7695 181.247 40.5547 181.696 40.125C182.145 39.6953 182.546 39.168 182.897 38.543C183.249 37.918 183.542 37.2539 183.776 36.5508C184.03 35.8281 184.186 35.1836 184.245 34.6172C183.874 34.5195 183.561 34.3535 183.307 34.1191C183.054 33.8652 182.927 33.5332 182.927 33.123C182.927 32.8496 183.005 32.5957 183.161 32.3613C183.317 32.1074 183.503 31.8926 183.718 31.7168C183.932 31.541 184.167 31.4043 184.421 31.3066C184.675 31.209 184.909 31.1602 185.124 31.1602C185.456 31.1602 185.739 31.375 185.973 31.8047C186.208 32.2148 186.364 32.7422 186.442 33.3867C187.223 33.3672 188.044 33.25 188.903 33.0352C189.763 32.8203 190.573 32.5469 191.335 32.2148C191.55 32.1172 191.725 32.0879 191.862 32.127C191.999 32.166 192.087 32.2441 192.126 32.3613C192.184 32.4785 192.184 32.6152 192.126 32.7715C192.067 32.9082 191.95 33.0156 191.774 33.0938C191.325 33.3477 190.856 33.582 190.368 33.7969C189.899 33.9922 189.43 34.1582 188.962 34.2949C188.493 34.4316 188.044 34.5391 187.614 34.6172C187.184 34.6953 186.794 34.7344 186.442 34.7344C186.364 35.5156 186.12 36.3652 185.71 37.2832C185.3 38.1816 184.802 39.0215 184.216 39.8027C183.63 40.5645 182.975 41.1992 182.253 41.707C181.55 42.2148 180.856 42.4688 180.173 42.4688C179.958 42.4688 179.675 42.4395 179.323 42.3809C178.971 42.3223 178.63 42.1172 178.298 41.7656C177.966 41.4141 177.682 40.8574 177.448 40.0957C177.214 39.3145 177.116 38.2109 177.155 36.7852C177.175 35.8281 177.282 34.8125 177.477 33.7383C177.673 32.6641 177.907 31.5898 178.18 30.5156C178.454 29.4414 178.757 28.4062 179.089 27.4102C179.44 26.3945 179.772 25.4863 180.085 24.6855C180.397 23.8652 180.68 23.1816 180.934 22.6348C181.208 22.0879 181.413 21.7363 181.55 21.5801C181.725 21.3652 181.93 21.209 182.165 21.1113C182.399 20.9941 182.624 20.916 182.839 20.877C183.073 20.8184 183.288 20.7988 183.483 20.8184C183.679 20.8379 183.815 20.8672 183.893 20.9062C184.011 20.9844 184.04 21.4141 183.981 22.1953C183.942 22.9766 183.757 23.9824 183.425 25.2129ZM196.422 31.2188C196.676 31.0234 196.92 30.877 197.154 30.7793C197.408 30.6621 197.633 30.584 197.828 30.5449C198.043 30.4863 198.258 30.4668 198.473 30.4863C199 30.5254 199.322 30.6914 199.439 30.9844C199.576 31.2773 199.596 31.7461 199.498 32.3906C199.439 32.7227 199.322 33.1426 199.146 33.6504C198.971 34.1582 198.766 34.7832 198.531 35.5254C198.297 36.248 198.043 37.0781 197.77 38.0156C197.516 38.9531 197.271 40.0078 197.037 41.1797C196.803 42.1367 196.549 43.2402 196.275 44.4902C196.041 45.584 195.758 46.9023 195.426 48.4453C195.113 49.9883 194.771 51.7559 194.4 53.748C194.303 54.2363 194.088 54.5195 193.756 54.5977C193.443 54.6758 193.111 54.6367 192.76 54.4805C192.623 54.4023 192.496 54.3145 192.379 54.2168C192.281 54.1191 192.174 54.002 192.057 53.8652C191.939 53.748 191.842 53.582 191.764 53.3672C192.213 51.7266 192.604 50.2324 192.936 48.8848C193.287 47.5371 193.6 46.3652 193.873 45.3691C194.166 44.2168 194.439 43.1816 194.693 42.2637C194.791 41.8535 194.879 41.4531 194.957 41.0625C195.055 40.6523 195.152 40.252 195.25 39.8613C194.996 40.2715 194.723 40.6621 194.43 41.0332C194.137 41.4043 193.814 41.7266 193.463 42C193.111 42.2734 192.73 42.4785 192.32 42.6152C191.93 42.7715 191.52 42.8203 191.09 42.7617C190.035 42.625 189.283 42.2344 188.834 41.5898C188.404 40.9453 188.219 40.1055 188.277 39.0703C188.297 38.6602 188.355 38.2109 188.453 37.7227C188.551 37.2344 188.658 36.7656 188.775 36.3164C188.893 35.8672 189 35.4668 189.098 35.1152C189.215 34.7441 189.303 34.4805 189.361 34.3242C189.596 33.582 189.762 32.9473 189.859 32.4199C189.977 31.8926 189.898 31.4531 189.625 31.1016C189.898 30.9258 190.152 30.8086 190.387 30.75C190.641 30.6719 190.865 30.6133 191.061 30.5742C191.275 30.5547 191.49 30.5547 191.705 30.5742C192.232 30.6523 192.535 30.8477 192.613 31.1602C192.711 31.4727 192.682 31.9414 192.525 32.5664C192.447 32.8984 192.32 33.3281 192.145 33.8555C191.969 34.3633 191.783 34.8906 191.588 35.4375C191.393 35.9844 191.217 36.4922 191.061 36.9609C190.904 37.4102 190.816 37.7324 190.797 37.9277C190.621 38.8066 190.611 39.4902 190.768 39.9785C190.924 40.4473 191.266 40.6816 191.793 40.6816C192.047 40.6816 192.33 40.5742 192.643 40.3594C192.955 40.125 193.268 39.8223 193.58 39.4512C193.912 39.0801 194.234 38.6602 194.547 38.1914C194.859 37.7031 195.143 37.2148 195.396 36.7266C195.67 36.2383 195.904 35.7598 196.1 35.291C196.314 34.8223 196.471 34.4023 196.568 34.0312C196.705 33.3086 196.793 32.7422 196.832 32.332C196.871 31.9219 196.734 31.5508 196.422 31.2188ZM200.015 41.5312C200.874 37.918 201.558 35.0176 202.066 32.8301C202.593 30.6426 202.993 28.9727 203.267 27.8203C203.579 26.4531 203.794 25.5059 203.911 24.9785C203.97 24.6074 204.019 24.2461 204.058 23.8945C204.097 23.582 204.116 23.2598 204.116 22.9277C204.116 22.5957 204.087 22.293 204.029 22.0195C204.185 21.9219 204.351 21.8438 204.527 21.7852C204.722 21.7266 204.907 21.6777 205.083 21.6387C205.298 21.5801 205.513 21.5312 205.728 21.4922C205.943 21.4531 206.138 21.4336 206.314 21.4336C206.47 21.4336 206.616 21.4531 206.753 21.4922C206.89 21.5117 206.978 21.5703 207.017 21.668C207.134 21.7656 207.183 21.9609 207.163 22.2539C207.163 22.5469 207.144 22.8496 207.105 23.1621C207.027 23.5332 206.939 23.9336 206.841 24.3633C206.607 25.2031 206.284 26.4141 205.874 27.9961C205.523 29.3438 205.044 31.1797 204.439 33.5039C203.853 35.8281 203.111 38.7578 202.212 42.293C202.114 42.3906 201.997 42.459 201.861 42.498C201.724 42.5371 201.597 42.5566 201.48 42.5566C201.343 42.5566 201.196 42.5469 201.04 42.5273C200.904 42.4883 200.767 42.4297 200.63 42.3516C200.513 42.2734 200.396 42.166 200.279 42.0293C200.161 41.9121 200.073 41.7461 200.015 41.5312ZM213.012 24.7441C212.954 24.959 212.836 25.1738 212.661 25.3887C212.504 25.584 212.319 25.75 212.104 25.8867C211.909 26.0039 211.704 26.082 211.489 26.1211C211.274 26.1602 211.098 26.1211 210.961 26.0039C210.551 25.6914 210.336 25.3594 210.317 25.0078C210.297 24.6367 210.385 24.2949 210.58 23.9824C210.776 23.6504 211.02 23.377 211.313 23.1621C211.606 22.9277 211.86 22.791 212.075 22.752C212.289 22.7129 212.465 22.7617 212.602 22.8984C212.758 23.0156 212.875 23.1816 212.954 23.3965C213.032 23.5918 213.071 23.8164 213.071 24.0703C213.09 24.3242 213.071 24.5488 213.012 24.7441ZM208.969 30.9844C209.067 30.8672 209.252 30.7695 209.526 30.6914C209.799 30.6133 210.082 30.5547 210.375 30.5156C210.668 30.457 210.932 30.4277 211.166 30.4277C211.42 30.4082 211.567 30.4082 211.606 30.4277C211.625 30.4473 211.577 30.6523 211.459 31.043C211.342 31.4336 211.196 31.8926 211.02 32.4199C210.844 32.9473 210.659 33.4941 210.463 34.0605C210.268 34.6074 210.121 35.0566 210.024 35.4082C209.926 35.7598 209.809 36.1602 209.672 36.6094C209.536 37.0391 209.409 37.4688 209.291 37.8984C209.194 38.3086 209.125 38.6992 209.086 39.0703C209.047 39.4414 209.077 39.7246 209.174 39.9199C209.272 40.1543 209.379 40.3203 209.496 40.418C209.614 40.4961 209.741 40.5352 209.877 40.5352C210.268 40.5352 210.756 40.3203 211.342 39.8906C211.948 39.4609 212.553 38.9531 213.159 38.3672C213.784 37.7617 214.36 37.1562 214.887 36.5508C215.414 35.9258 215.805 35.4277 216.059 35.0566C216.215 34.8613 216.371 34.7344 216.528 34.6758C216.704 34.6172 216.84 34.627 216.938 34.7051C217.055 34.7832 217.114 34.9102 217.114 35.0859C217.133 35.2617 217.075 35.4668 216.938 35.7012C216.625 36.248 216.166 36.9023 215.561 37.6641C214.955 38.4062 214.311 39.1289 213.627 39.832C212.944 40.5156 212.27 41.1016 211.606 41.5898C210.961 42.0781 210.434 42.332 210.024 42.3516C209.692 42.3711 209.36 42.3125 209.028 42.1758C208.715 42.0586 208.422 41.8926 208.149 41.6777C207.895 41.4434 207.68 41.1797 207.504 40.8867C207.329 40.5742 207.231 40.252 207.211 39.9199C207.153 39.4316 207.153 38.7676 207.211 37.9277C207.27 37.0684 207.377 36.1992 207.534 35.3203C207.69 34.4219 207.885 33.5723 208.12 32.7715C208.373 31.9707 208.657 31.375 208.969 30.9844ZM213.91 41.5312C214.769 37.918 215.453 35.0176 215.961 32.8301C216.488 30.6426 216.888 28.9727 217.162 27.8203C217.474 26.4531 217.689 25.5059 217.806 24.9785C217.865 24.6074 217.914 24.2461 217.953 23.8945C217.992 23.582 218.011 23.2598 218.011 22.9277C218.011 22.5957 217.982 22.293 217.923 22.0195C218.08 21.9219 218.246 21.8438 218.421 21.7852C218.617 21.7266 218.802 21.6777 218.978 21.6387C219.193 21.5801 219.408 21.5312 219.623 21.4922C219.838 21.4531 220.033 21.4336 220.209 21.4336C220.365 21.4336 220.511 21.4531 220.648 21.4922C220.785 21.5117 220.873 21.5703 220.912 21.668C221.029 21.7656 221.078 21.9609 221.058 22.2539C221.058 22.5469 221.039 22.8496 221 23.1621C220.921 23.5332 220.834 23.9336 220.736 24.3633C220.502 25.2031 220.179 26.4141 219.769 27.9961C219.418 29.3438 218.939 31.1797 218.334 33.5039C217.748 35.8281 217.005 38.7578 216.107 42.293C216.009 42.3906 215.892 42.459 215.755 42.498C215.619 42.5371 215.492 42.5566 215.375 42.5566C215.238 42.5566 215.091 42.5469 214.935 42.5273C214.798 42.4883 214.662 42.4297 214.525 42.3516C214.408 42.2734 214.291 42.166 214.173 42.0293C214.056 41.9121 213.968 41.7461 213.91 41.5312ZM226.907 24.7441C226.848 24.959 226.731 25.1738 226.555 25.3887C226.399 25.584 226.214 25.75 225.999 25.8867C225.804 26.0039 225.598 26.082 225.384 26.1211C225.169 26.1602 224.993 26.1211 224.856 26.0039C224.446 25.6914 224.231 25.3594 224.212 25.0078C224.192 24.6367 224.28 24.2949 224.475 23.9824C224.671 23.6504 224.915 23.377 225.208 23.1621C225.501 22.9277 225.755 22.791 225.97 22.752C226.184 22.7129 226.36 22.7617 226.497 22.8984C226.653 23.0156 226.77 23.1816 226.848 23.3965C226.927 23.5918 226.966 23.8164 226.966 24.0703C226.985 24.3242 226.966 24.5488 226.907 24.7441ZM222.864 30.9844C222.962 30.8672 223.147 30.7695 223.421 30.6914C223.694 30.6133 223.977 30.5547 224.27 30.5156C224.563 30.457 224.827 30.4277 225.061 30.4277C225.315 30.4082 225.462 30.4082 225.501 30.4277C225.52 30.4473 225.471 30.6523 225.354 31.043C225.237 31.4336 225.091 31.8926 224.915 32.4199C224.739 32.9473 224.554 33.4941 224.358 34.0605C224.163 34.6074 224.016 35.0566 223.919 35.4082C223.821 35.7598 223.704 36.1602 223.567 36.6094C223.43 37.0391 223.304 37.4688 223.186 37.8984C223.089 38.3086 223.02 38.6992 222.981 39.0703C222.942 39.4414 222.971 39.7246 223.069 39.9199C223.167 40.1543 223.274 40.3203 223.391 40.418C223.509 40.4961 223.636 40.5352 223.772 40.5352C224.163 40.5352 224.651 40.3203 225.237 39.8906C225.843 39.4609 226.448 38.9531 227.054 38.3672C227.679 37.7617 228.255 37.1562 228.782 36.5508C229.309 35.9258 229.7 35.4277 229.954 35.0566C230.11 34.8613 230.266 34.7344 230.423 34.6758C230.598 34.6172 230.735 34.627 230.833 34.7051C230.95 34.7832 231.009 34.9102 231.009 35.0859C231.028 35.2617 230.97 35.4668 230.833 35.7012C230.52 36.248 230.061 36.9023 229.456 37.6641C228.85 38.4062 228.206 39.1289 227.522 39.832C226.839 40.5156 226.165 41.1016 225.501 41.5898C224.856 42.0781 224.329 42.332 223.919 42.3516C223.587 42.3711 223.255 42.3125 222.923 42.1758C222.61 42.0586 222.317 41.8926 222.044 41.6777C221.79 41.4434 221.575 41.1797 221.399 40.8867C221.223 40.5742 221.126 40.252 221.106 39.9199C221.048 39.4316 221.048 38.7676 221.106 37.9277C221.165 37.0684 221.272 36.1992 221.429 35.3203C221.585 34.4219 221.78 33.5723 222.014 32.7715C222.268 31.9707 222.552 31.375 222.864 30.9844ZM243.273 36.1699C243 36.5605 242.648 37.0488 242.219 37.6348C241.789 38.2012 241.34 38.7773 240.871 39.3633C240.422 39.9297 239.973 40.457 239.523 40.9453C239.094 41.4141 238.732 41.7461 238.439 41.9414C238.244 42.0586 238.02 42.1562 237.766 42.2344C237.512 42.3125 237.248 42.3613 236.975 42.3809C236.721 42.4004 236.477 42.3809 236.242 42.3223C236.008 42.2832 235.803 42.2051 235.627 42.0879C235.451 41.9512 235.305 41.7559 235.188 41.502C235.09 41.2871 234.992 41.0039 234.895 40.6523C234.816 40.3008 234.787 39.8613 234.807 39.334C234.338 40.1152 233.82 40.7207 233.254 41.1504C232.688 41.5605 232.15 41.8633 231.643 42.0586C231.057 42.2734 230.471 42.4004 229.885 42.4395C229.611 42.4395 229.318 42.3418 229.006 42.1465C228.693 41.9707 228.43 41.6875 228.215 41.2969C228 40.8867 227.863 40.3691 227.805 39.7441C227.746 39.0996 227.824 38.3379 228.039 37.459C228.312 36.2676 228.742 35.1836 229.328 34.207C229.934 33.2305 230.588 32.4004 231.291 31.7168C231.994 31.0137 232.688 30.4863 233.371 30.1348C234.055 29.7832 234.621 29.627 235.07 29.666C235.598 29.7637 236.027 29.9199 236.359 30.1348C236.633 30.3301 236.809 30.623 236.887 31.0137C236.984 31.3848 236.828 31.8828 236.418 32.5078C236.691 32.4492 236.916 32.4102 237.092 32.3906C237.287 32.3711 237.434 32.3613 237.531 32.3613C237.648 32.3613 237.727 32.3711 237.766 32.3906C237.785 32.4297 237.795 32.5176 237.795 32.6543C237.795 32.7715 237.766 32.9961 237.707 33.3281C237.648 33.6602 237.561 34.1094 237.443 34.6758C237.326 35.2422 237.17 35.9746 236.975 36.873C236.936 37.0488 236.896 37.2148 236.857 37.3711C236.838 37.5078 236.809 37.6543 236.77 37.8105C236.75 37.9473 236.721 38.1133 236.682 38.3086C236.643 38.5039 236.594 38.748 236.535 39.041C236.516 39.2168 236.506 39.4121 236.506 39.627C236.525 39.8223 236.564 40.0078 236.623 40.1836C236.682 40.3594 236.77 40.5059 236.887 40.623C237.023 40.7207 237.209 40.7695 237.443 40.7695C237.639 40.7695 237.893 40.6523 238.205 40.418C238.518 40.1641 238.85 39.8516 239.201 39.4805C239.553 39.0898 239.914 38.6699 240.285 38.2207C240.676 37.752 241.037 37.3027 241.369 36.873C241.701 36.4434 241.994 36.0625 242.248 35.7305C242.521 35.3984 242.717 35.1543 242.834 34.998C242.99 34.8223 243.146 34.7246 243.303 34.7051C243.459 34.666 243.576 34.7051 243.654 34.8223C243.732 34.9395 243.742 35.1152 243.684 35.3496C243.645 35.584 243.508 35.8574 243.273 36.1699ZM234.689 37.459C234.787 37.0684 234.904 36.6094 235.041 36.082C235.178 35.5547 235.295 35.0469 235.393 34.5586C235.49 34.0703 235.559 33.6699 235.598 33.3574C235.656 33.0254 235.646 32.8691 235.568 32.8887C235.471 32.9082 235.363 32.9375 235.246 32.9766C235.148 33.0156 235.021 33.0449 234.865 33.0645C234.709 33.084 234.553 33.1133 234.396 33.1523C234.553 32.8398 234.641 32.5859 234.66 32.3906C234.699 32.1758 234.709 32.0098 234.689 31.8926C234.67 31.7559 234.631 31.6484 234.572 31.5703C234.357 31.3945 233.977 31.541 233.43 32.0098C232.902 32.459 232.287 33.2988 231.584 34.5293C231.291 35.0371 231.057 35.584 230.881 36.1699C230.705 36.7363 230.578 37.2734 230.5 37.7812C230.441 38.2891 230.432 38.7383 230.471 39.1289C230.51 39.5 230.588 39.7441 230.705 39.8613C230.92 40.0762 231.164 40.1836 231.438 40.1836C231.711 40.1641 231.984 40.0859 232.258 39.9492C232.551 39.793 232.834 39.5977 233.107 39.3633C233.4 39.1289 233.654 38.8848 233.869 38.6309C234.104 38.377 234.289 38.1426 234.426 37.9277C234.582 37.7129 234.67 37.5566 234.689 37.459ZM249.562 42.7324C249.112 42.7324 248.722 42.6445 248.39 42.4688C248.077 42.3125 247.823 42.0977 247.628 41.8242C247.433 41.5508 247.306 41.2383 247.247 40.8867C247.189 40.5156 247.208 40.125 247.306 39.7148C247.364 39.4414 247.462 39.0801 247.599 38.6309C247.736 38.1621 247.872 37.6641 248.009 37.1367C248.165 36.5898 248.302 36.0527 248.419 35.5254C248.556 34.9785 248.644 34.4902 248.683 34.0605C248.722 33.6113 248.702 33.25 248.624 32.9766C248.546 32.6836 248.38 32.5371 248.126 32.5371C247.814 32.5371 247.491 32.6445 247.159 32.8594C246.827 33.0547 246.486 33.3281 246.134 33.6797C245.802 34.0312 245.46 34.4414 245.109 34.9102C244.777 35.3594 244.445 35.8281 244.112 36.3164C243.937 36.9805 243.79 37.5664 243.673 38.0742C243.556 38.5625 243.448 39.0117 243.351 39.4219C243.273 39.8125 243.195 40.1641 243.116 40.4766C243.038 40.7695 242.97 41.0527 242.911 41.3262C242.853 41.5215 242.677 41.7168 242.384 41.9121C242.091 42.0879 241.779 42.2344 241.446 42.3516C241.114 42.4688 240.831 42.5273 240.597 42.5273C240.343 42.5273 240.236 42.4395 240.275 42.2637C240.294 42.1465 240.362 41.8828 240.48 41.4727C240.577 41.0625 240.704 40.584 240.861 40.0371C240.997 39.4707 241.144 38.875 241.3 38.25C241.456 37.625 241.603 37.0293 241.739 36.4629C241.837 36.0137 241.945 35.5156 242.062 34.9688C242.159 34.5 242.277 33.9531 242.413 33.3281C242.57 32.7031 242.745 32.0195 242.941 31.2773C243.077 31.1602 243.214 31.0723 243.351 31.0137C243.507 30.9355 243.663 30.877 243.82 30.8379C243.976 30.7793 244.142 30.7402 244.318 30.7207C244.474 30.7207 244.63 30.7305 244.786 30.75C244.923 30.7695 245.06 30.8086 245.196 30.8672C245.353 30.9062 245.489 30.9746 245.607 31.0723C245.548 31.209 245.48 31.4043 245.402 31.6582C245.323 31.8926 245.245 32.1465 245.167 32.4199C245.089 32.7324 244.991 33.0547 244.874 33.3867C245.128 33.0352 245.411 32.6836 245.724 32.332C246.056 31.9609 246.407 31.6289 246.779 31.3359C247.169 31.043 247.579 30.8086 248.009 30.6328C248.439 30.4375 248.878 30.3398 249.327 30.3398C249.698 30.3398 250.03 30.4473 250.323 30.6621C250.616 30.877 250.841 31.1797 250.997 31.5703C251.173 31.9414 251.271 32.3906 251.29 32.918C251.329 33.4453 251.261 34.0215 251.085 34.6465L250.763 35.9355C250.665 36.3457 250.538 36.834 250.382 37.4004C250.245 37.9473 250.07 38.5527 249.855 39.2168C249.737 39.6465 249.689 40.0176 249.708 40.3301C249.747 40.6426 249.943 40.7988 250.294 40.7988C250.646 40.7988 251.085 40.584 251.612 40.1543C252.159 39.7246 252.706 39.207 253.253 38.6016C253.8 37.9961 254.318 37.3809 254.806 36.7559C255.294 36.1113 255.665 35.5938 255.919 35.2031C256.095 34.9492 256.261 34.7832 256.417 34.7051C256.573 34.627 256.691 34.6172 256.769 34.6758C256.866 34.7344 256.915 34.8711 256.915 35.0859C256.915 35.2812 256.837 35.5352 256.681 35.8477C256.544 36.1211 256.329 36.4824 256.036 36.9316C255.763 37.3809 255.431 37.8594 255.04 38.3672C254.65 38.875 254.23 39.3926 253.78 39.9199C253.331 40.4277 252.862 40.8965 252.374 41.3262C251.886 41.7363 251.398 42.0684 250.909 42.3223C250.441 42.5957 249.991 42.7324 249.562 42.7324ZM255.762 39.7734C256.27 39.6953 256.67 39.7441 256.963 39.9199C257.276 40.0762 257.413 40.3789 257.373 40.8281C257.354 41.082 257.246 41.3262 257.051 41.5605C256.875 41.7754 256.651 41.9707 256.377 42.1465C256.123 42.3223 255.85 42.459 255.557 42.5566C255.264 42.6543 255.01 42.7031 254.795 42.7031C254.405 42.7031 254.063 42.6152 253.77 42.4395C253.457 42.2637 253.321 41.9805 253.36 41.5898C253.379 41.3359 253.467 41.1113 253.623 40.916C253.76 40.7012 253.946 40.5156 254.18 40.3594C254.395 40.2031 254.639 40.0762 254.913 39.9785C255.205 39.8809 255.489 39.8125 255.762 39.7734Z" fill="#FFC368"/>
</svg>
