<?xml version="1.0" encoding="UTF-8"?><svg xmlns="http://www.w3.org/2000/svg" xmlns:xlink="http://www.w3.org/1999/xlink" width="1080pt" zoomAndPan="magnify" viewBox="0 0 1080 585.000005" height="585.000005pt" preserveAspectRatio="xMidYMid meet" version="1.2"><defs><clipPath xml:id="clip1" id="clip1"><path d="M 0.921875 353 L 317 353 L 317 584 L 0.921875 584 Z M 0.921875 353 "/></clipPath><clipPath xml:id="clip2" id="clip2"><path d="M 889 0 L 1078.726562 0 L 1078.726562 233.601562 L 889 233.601562 Z M 889 0 "/></clipPath></defs><g xml:id="surface1" id="surface1"><g clip-rule="nonzero" clip-path="url(#clip1)"><path style=" stroke:none;fill-rule:nonzero;fill:rgb(63.529968%,82.348633%,100%);fill-opacity:1;" d="M 53.160156 358.828125 C 99.105469 338.40625 256.746094 383.679688 289.007812 438.277344 C 321.273438 492.878906 323.789062 530.183594 303.914062 584.851562 C 284.039062 639.519531 234.625 679.210938 184.867188 686.632812 C 135.113281 694.050781 63.101562 708.960938 18.378906 654.363281 C -26.339844 599.761719 -43.695312 594.722656 -46.144531 572.394531 C -48.597656 550.0625 -61.050781 480.554688 -28.789062 430.855469 C 3.472656 381.160156 8.441406 378.707031 53.160156 358.828125 Z M 53.160156 358.828125 "/></g><path style=" stroke:none;fill-rule:nonzero;fill:rgb(100%,78.42865%,86.669922%);fill-opacity:1;" d="M 474.824219 156.199219 C 420.128906 225.234375 400.339844 343.851562 474.824219 421.113281 C 549.304688 498.375 672.925781 468.027344 760.195312 481.8125 C 847.460938 495.597656 955.074219 495.597656 977.085938 374.199219 C 999.207031 252.804688 946.738281 222.457031 797.660156 136.855469 C 648.582031 51.257812 579.765625 23.6875 474.824219 156.199219 Z M 474.824219 156.199219 "/><g clip-rule="nonzero" clip-path="url(#clip2)"><path style=" stroke:none;fill-rule:nonzero;fill:rgb(63.529968%,82.348633%,100%);fill-opacity:1;" d="M 1078.699219 233.601562 C 1057.808594 225.335938 1020.839844 202.554688 1022.320312 145.011719 C 1024.328125 64.957031 882.589844 125.410156 889.625 0 C 893.007812 0 1033.53125 0 1078.699219 0 Z M 1078.699219 233.601562 "/></g></g></svg>