<svg width="151" height="37" viewBox="0 0 151 37" fill="none" xmlns="http://www.w3.org/2000/svg">
<path d="M10.1154 16.4043C10.0178 17.0098 9.92012 17.5859 9.82246 18.1328C9.74434 18.6797 9.69551 19.1191 9.67598 19.4512C9.65645 19.9395 9.74434 20.291 9.93965 20.5059C10.135 20.7207 10.3498 20.8281 10.5842 20.8281C10.8576 20.8281 11.1897 20.6914 11.5803 20.418C11.9904 20.1445 12.4201 19.8027 12.8693 19.3926C13.3186 18.9824 13.7678 18.5332 14.217 18.0449C14.6662 17.5566 15.0764 17.0977 15.4475 16.668C15.8381 16.2188 16.1604 15.8281 16.4143 15.4961C16.6877 15.1641 16.8732 14.9492 16.9709 14.8516C17.0881 14.7344 17.2053 14.666 17.3225 14.6465C17.4592 14.627 17.5666 14.6465 17.6447 14.7051C17.7229 14.7637 17.7619 14.8711 17.7619 15.0273C17.7619 15.1836 17.6838 15.3789 17.5275 15.6133C17.2932 15.9844 16.9904 16.4238 16.6193 16.9316C16.2482 17.4199 15.8381 17.9277 15.3889 18.4551C14.9397 18.9824 14.4611 19.5 13.9533 20.0078C13.465 20.5156 12.967 20.9648 12.4592 21.3555C11.9709 21.7461 11.4924 22.0586 11.0236 22.293C10.5744 22.5469 10.1643 22.6738 9.79317 22.6738C9.51973 22.6738 9.25606 22.5957 9.00215 22.4395C8.76778 22.2832 8.55293 22.0781 8.35762 21.8242C8.16231 21.5703 8.00606 21.2871 7.88887 20.9746C7.79121 20.6621 7.75215 20.3496 7.77168 20.0371C7.79121 19.9004 7.82051 19.666 7.85957 19.334C7.03926 20.252 6.20918 20.9844 5.36934 21.5312C4.54903 22.0586 3.75801 22.3223 2.99629 22.3223C2.72285 22.3223 2.42989 22.2539 2.11739 22.1172C1.80489 21.9805 1.52168 21.7559 1.26778 21.4434C1.0334 21.1309 0.838089 20.7207 0.681839 20.2129C0.525589 19.7051 0.466995 19.0898 0.506058 18.3672C0.564651 17.2344 0.789261 16.1602 1.17989 15.1445C1.57051 14.1289 2.05879 13.25 2.64473 12.5078C3.2502 11.7461 3.92403 11.1504 4.66621 10.7207C5.42793 10.2715 6.18965 10.0469 6.95137 10.0469C7.2834 10.0469 7.58614 10.1348 7.85957 10.3105C8.13301 10.4668 8.36739 10.6816 8.5627 10.9551C8.75801 11.209 8.91426 11.4922 9.03145 11.8047C9.16817 12.1172 9.26582 12.4102 9.32442 12.6836C9.46114 12.1172 9.58809 11.5605 9.70528 11.0137C9.82246 10.4668 9.93965 9.94922 10.0568 9.46094C10.2522 8.73828 10.4572 7.95703 10.6721 7.11719C10.8674 6.39453 11.092 5.56445 11.3459 4.62695C11.5998 3.68945 11.883 2.70313 12.1955 1.66797C12.3908 1.51172 12.5764 1.39453 12.7522 1.31641C12.9279 1.23828 13.0939 1.17969 13.2502 1.14062C13.426 1.08203 13.592 1.05273 13.7482 1.05273C13.9436 1.05273 14.1193 1.08203 14.2756 1.14062C14.4318 1.17969 14.5588 1.30664 14.6564 1.52148C14.7736 1.7168 14.8518 2.01953 14.8908 2.42969C14.9299 2.83984 14.9299 3.39648 14.8908 4.09961C14.8518 4.95898 14.6955 5.89648 14.4221 6.91211C14.1682 7.92773 13.8264 8.98242 13.3967 10.0762C12.967 11.1504 12.4689 12.2344 11.9025 13.3281C11.3557 14.4023 10.76 15.4277 10.1154 16.4043ZM8.38692 16.7852C8.46504 16.4141 8.5334 16.043 8.592 15.6719C8.67012 15.3008 8.75801 14.9199 8.85567 14.5293C8.8166 14.5488 8.77754 14.5684 8.73848 14.5879C8.71895 14.6074 8.68965 14.627 8.65059 14.6465C8.43575 14.7441 8.28926 14.7441 8.21114 14.6465C8.13301 14.5293 8.09395 14.3535 8.09395 14.1191C8.09395 14.002 8.08418 13.7969 8.06465 13.5039C8.04512 13.1914 7.98653 12.8789 7.88887 12.5664C7.81075 12.2344 7.68379 11.9512 7.50801 11.7168C7.33223 11.4629 7.08809 11.3359 6.77559 11.3359C6.32637 11.3359 5.86739 11.5703 5.39864 12.0391C4.92989 12.4883 4.49043 13.0449 4.08028 13.709C3.67012 14.3535 3.32832 15.0469 3.05489 15.7891C2.78145 16.5312 2.6252 17.1953 2.58614 17.7812C2.54707 18.7188 2.66426 19.3926 2.9377 19.8027C3.21114 20.2129 3.58223 20.418 4.05098 20.418C4.40254 20.418 4.7834 20.2812 5.19356 20.0078C5.62325 19.7344 6.0334 19.4023 6.42403 19.0117C6.83418 18.6211 7.20528 18.2207 7.53731 17.8105C7.88887 17.4004 8.17207 17.0586 8.38692 16.7852ZM28.1225 15.9062C27.5365 16.7656 26.8725 17.6055 26.1303 18.4258C25.3881 19.2266 24.5971 19.9492 23.7572 20.5938C22.9369 21.2188 22.0873 21.7266 21.2084 22.1172C20.349 22.5078 19.5092 22.7031 18.6889 22.7031C18.2592 22.7031 17.7904 22.5957 17.2826 22.3809C16.7943 22.1855 16.3451 21.873 15.935 21.4434C15.5248 21.0137 15.1928 20.457 14.9389 19.7734C14.7045 19.0898 14.6361 18.2598 14.7338 17.2832C14.8119 16.4824 15.0561 15.6426 15.4662 14.7637C15.8959 13.8652 16.4135 13.0449 17.0189 12.3027C17.6439 11.5605 18.3373 10.9453 19.099 10.457C19.8803 9.96875 20.6615 9.72461 21.4428 9.72461C22.185 9.72461 22.7221 9.91016 23.0541 10.2812C23.3861 10.6523 23.5326 11.1113 23.4936 11.6582C23.435 12.2637 23.2592 12.8203 22.9662 13.3281C22.6928 13.8359 22.3607 14.2949 21.9701 14.7051C21.5795 15.1152 21.1596 15.4863 20.7104 15.8184C20.2807 16.1504 19.8705 16.4531 19.4799 16.7266C19.0502 17.0195 18.64 17.3027 18.2494 17.5762C17.8588 17.8301 17.517 18.0645 17.224 18.2793C17.2436 18.7676 17.3314 19.1777 17.4877 19.5098C17.6439 19.8418 17.8393 20.1152 18.0736 20.3301C18.308 20.5254 18.5717 20.6719 18.8647 20.7695C19.1772 20.8477 19.4897 20.8867 19.8022 20.8867C20.4662 20.8867 21.1596 20.6816 21.8822 20.2715C22.6049 19.8418 23.308 19.334 23.9916 18.748C24.6947 18.1426 25.3393 17.5176 25.9252 16.873C26.5307 16.2285 27.0287 15.6719 27.4193 15.2031C27.5561 15.0469 27.6928 14.959 27.8295 14.9395C27.9857 14.9004 28.1029 14.9199 28.1811 14.998C28.2787 15.0566 28.3275 15.1738 28.3275 15.3496C28.3275 15.5059 28.2592 15.6914 28.1225 15.9062ZM20.6225 11.3945C20.3881 11.3945 20.1049 11.5117 19.7729 11.7461C19.4604 11.9805 19.1479 12.3223 18.8354 12.7715C18.5229 13.2012 18.2299 13.7383 17.9564 14.3828C17.683 15.0078 17.4779 15.7305 17.3412 16.5508C17.5756 16.375 17.8295 16.1992 18.1029 16.0234C18.3764 15.8281 18.6498 15.623 18.9232 15.4082C19.7631 14.7637 20.349 14.1973 20.6811 13.709C21.0131 13.2207 21.1986 12.8008 21.2377 12.4492C21.2768 12.0781 21.2377 11.8145 21.1205 11.6582C21.0033 11.4824 20.8373 11.3945 20.6225 11.3945ZM29.6939 21.0039C29.8111 21.082 29.9576 21.1211 30.1334 21.1211C30.3287 21.1211 30.5143 21.082 30.69 21.0039C30.8854 20.9258 31.0611 20.8184 31.2174 20.6816C31.3932 20.5449 31.5201 20.3691 31.5982 20.1543C31.6764 19.9395 31.6764 19.6367 31.5982 19.2461C31.5201 18.8359 31.3932 18.4062 31.2174 17.957C31.0611 17.4883 30.8854 17.0195 30.69 16.5508C30.4947 16.082 30.3287 15.6523 30.192 15.2617C30.0748 14.9688 29.9772 14.6953 29.899 14.4414C29.8209 14.2266 29.7428 14.0215 29.6647 13.8262C29.6061 13.6113 29.5572 13.4648 29.5182 13.3867C29.4205 13.543 29.2447 13.7969 28.9908 14.1484C28.7564 14.5 28.4928 14.8711 28.1998 15.2617C27.9264 15.6328 27.6627 15.9844 27.4088 16.3164C27.1549 16.6289 26.9791 16.8438 26.8814 16.9609C26.7252 17.1367 26.5689 17.2441 26.4127 17.2832C26.276 17.3027 26.1588 17.2734 26.0611 17.1953C25.9635 17.0977 25.9049 16.9707 25.8854 16.8145C25.8854 16.6387 25.9635 16.4336 26.1197 16.1992C26.2369 16.043 26.4127 15.7988 26.6471 15.4668C26.8814 15.1152 27.1158 14.7637 27.3502 14.4121C27.5846 14.041 27.7994 13.7188 27.9947 13.4453C28.19 13.1523 28.2975 12.9766 28.317 12.918C28.3561 12.7617 28.2975 12.5566 28.1412 12.3027C28.0045 12.0488 27.985 11.7559 28.0826 11.4238C28.1607 11.1504 28.3365 10.8379 28.61 10.4863C28.8834 10.1152 29.2057 9.7832 29.5768 9.49023C29.9479 9.19727 30.3287 8.98242 30.7193 8.8457C31.11 8.68945 31.4615 8.68945 31.774 8.8457C32.0279 9.00195 32.233 9.17773 32.3893 9.37305C32.5455 9.54883 32.6041 9.73438 32.565 9.92969C32.526 10.0273 32.4674 10.1543 32.3893 10.3105C32.3111 10.4668 32.1939 10.6621 32.0377 10.8965C31.8814 11.1113 31.6568 11.3945 31.3639 11.7461C31.4225 12.1953 31.5006 12.6055 31.5982 12.9766C31.7154 13.3477 31.8229 13.6699 31.9205 13.9434C32.0377 14.2754 32.1647 14.5781 32.3014 14.8516C32.4772 15.2031 32.6627 15.5645 32.858 15.9355C33.0533 16.3066 33.2291 16.6777 33.3854 17.0488C33.5416 17.4004 33.6686 17.7324 33.7662 18.0449C33.8639 18.3574 33.8932 18.6211 33.8541 18.8359C33.7955 19.168 33.6197 19.5684 33.3268 20.0371C33.0533 20.5059 32.7018 20.9648 32.2721 21.4141C31.8619 21.8438 31.3834 22.2148 30.8365 22.5273C30.3092 22.8398 29.7525 22.9961 29.1666 22.9961C28.7564 22.9961 28.3561 22.8691 27.9654 22.6152C27.5943 22.3613 27.2721 22.0684 26.9986 21.7363C26.7447 21.3848 26.5494 21.043 26.4127 20.7109C26.2955 20.3789 26.2857 20.125 26.3834 19.9492C26.5006 19.7148 26.608 19.5293 26.7057 19.3926C26.8033 19.2559 26.9498 19.0996 27.1451 18.9238C27.2232 18.8652 27.3209 18.7969 27.4381 18.7188C27.5357 18.6602 27.6725 18.6016 27.8482 18.543C28.024 18.4844 28.2291 18.416 28.4635 18.3379C28.6588 18.9434 28.8346 19.4219 28.9908 19.7734C29.1471 20.1055 29.274 20.3691 29.3717 20.5645C29.4889 20.7793 29.5963 20.9258 29.6939 21.0039ZM42.1053 4.74414C42.0467 4.95898 41.9295 5.17383 41.7537 5.38867C41.5975 5.58398 41.4119 5.75 41.1971 5.88672C41.0018 6.00391 40.7967 6.08203 40.5818 6.12109C40.367 6.16016 40.1912 6.12109 40.0545 6.00391C39.6443 5.69141 39.4295 5.35938 39.41 5.00781C39.3904 4.63672 39.4783 4.29492 39.6736 3.98242C39.8689 3.65039 40.1131 3.37695 40.4061 3.16211C40.699 2.92773 40.9529 2.79102 41.1678 2.75195C41.3826 2.71289 41.5584 2.76172 41.6951 2.89844C41.8514 3.01562 41.9686 3.18164 42.0467 3.39648C42.1248 3.5918 42.1639 3.81641 42.1639 4.07031C42.1834 4.32422 42.1639 4.54883 42.1053 4.74414ZM38.0623 10.9844C38.16 10.8672 38.3455 10.7695 38.6189 10.6914C38.8924 10.6133 39.1756 10.5547 39.4686 10.5156C39.7615 10.457 40.0252 10.4277 40.2596 10.4277C40.5135 10.4082 40.66 10.4082 40.699 10.4277C40.7186 10.4473 40.6697 10.6523 40.5525 11.043C40.4354 11.4336 40.2889 11.8926 40.1131 12.4199C39.9373 12.9473 39.7518 13.4941 39.5564 14.0605C39.3611 14.6074 39.2147 15.0566 39.117 15.4082C39.0193 15.7598 38.9022 16.1602 38.7654 16.6094C38.6287 17.0391 38.5018 17.4688 38.3846 17.8984C38.2869 18.3086 38.2186 18.6992 38.1795 19.0703C38.1404 19.4414 38.1697 19.7246 38.2674 19.9199C38.365 20.1543 38.4725 20.3203 38.5897 20.418C38.7068 20.4961 38.8338 20.5352 38.9705 20.5352C39.3611 20.5352 39.8494 20.3203 40.4354 19.8906C41.0408 19.4609 41.6463 18.9531 42.2518 18.3672C42.8768 17.7617 43.4529 17.1562 43.9803 16.5508C44.5076 15.9258 44.8982 15.4277 45.1522 15.0566C45.3084 14.8613 45.4647 14.7344 45.6209 14.6758C45.7967 14.6172 45.9334 14.627 46.0311 14.7051C46.1482 14.7832 46.2068 14.9102 46.2068 15.0859C46.2264 15.2617 46.1678 15.4668 46.0311 15.7012C45.7186 16.248 45.2596 16.9023 44.6541 17.6641C44.0486 18.4062 43.4041 19.1289 42.7205 19.832C42.0369 20.5156 41.3631 21.1016 40.699 21.5898C40.0545 22.0781 39.5272 22.332 39.117 22.3516C38.785 22.3711 38.4529 22.3125 38.1209 22.1758C37.8084 22.0586 37.5154 21.8926 37.242 21.6777C36.9881 21.4434 36.7732 21.1797 36.5975 20.8867C36.4217 20.5742 36.324 20.252 36.3045 19.9199C36.2459 19.4316 36.2459 18.7676 36.3045 17.9277C36.3631 17.0684 36.4705 16.1992 36.6268 15.3203C36.783 14.4219 36.9783 13.5723 37.2127 12.7715C37.4666 11.9707 37.7498 11.375 38.0623 10.9844ZM51.1768 26.1895C51.0791 26.6582 50.9522 27.2441 50.7959 27.9473C50.6592 28.6504 50.4932 29.3926 50.2979 30.1738C50.1221 30.9551 49.9072 31.7266 49.6533 32.4883C49.4189 33.2695 49.1553 33.9629 48.8623 34.5684C48.5693 35.1934 48.2471 35.7012 47.8955 36.0918C47.5439 36.4824 47.1533 36.6777 46.7236 36.6777C46.0791 36.6777 45.5225 36.4824 45.0537 36.0918C44.6045 35.7207 44.2236 35.2422 43.9111 34.6562C43.5986 34.0898 43.374 33.4746 43.2373 32.8105C43.0811 32.1465 43.0029 31.5312 43.0029 30.9648C43.0029 30.1836 43.0713 29.5293 43.208 29.002C43.3447 28.4941 43.5791 28.0059 43.9111 27.5371C44.2627 27.0684 44.7314 26.5703 45.3174 26.043C45.9033 25.5156 46.6553 24.8613 47.5732 24.0801C48.0225 23.6895 48.4522 23.3184 48.8623 22.9668C49.2725 22.6152 49.6631 22.293 50.0342 22C50.1318 21.6094 50.2197 21.248 50.2979 20.916C50.3955 20.5645 50.4736 20.252 50.5322 19.9785C50.0244 20.6621 49.4092 21.2383 48.6865 21.707C47.9834 22.1758 47.1729 22.4102 46.2549 22.4102C45.415 22.4102 44.7314 22.0391 44.2041 21.2969C43.6963 20.5352 43.4424 19.4219 43.4424 17.957C43.4424 17.2344 43.5791 16.4043 43.8525 15.4668C44.126 14.5293 44.5166 13.6504 45.0244 12.8301C45.5322 12.0098 46.1572 11.3164 46.8994 10.75C47.6416 10.1836 48.4717 9.90039 49.3897 9.90039C49.8193 9.90039 50.1904 10.0078 50.5029 10.2227C50.8154 10.4375 51.0791 10.7109 51.2939 11.043C51.5088 11.3555 51.6748 11.6973 51.792 12.0684C51.9092 12.4199 51.9971 12.752 52.0557 13.0645C52.0947 12.9473 52.124 12.8301 52.1436 12.7129C52.1631 12.5762 52.1924 12.459 52.2314 12.3613C52.4268 11.6973 52.6416 11.248 52.876 11.0137C53.1299 10.7598 53.501 10.6328 53.9893 10.6328C54.2627 10.6328 54.4873 10.6816 54.6631 10.7793C54.8584 10.877 54.9561 10.9648 54.9561 11.043C54.8584 11.2578 54.7803 11.4238 54.7217 11.541C54.6631 11.6582 54.6045 11.7852 54.5459 11.9219C54.4873 12.0391 54.4287 12.1953 54.3701 12.3906C54.3115 12.5859 54.2334 12.8691 54.1357 13.2402C54.0967 13.377 54.0186 13.6992 53.9014 14.207C53.8037 14.6953 53.667 15.2812 53.4912 15.9648C53.335 16.6484 53.1592 17.4004 52.9639 18.2207C52.7881 19.041 52.6123 19.8418 52.4365 20.623C52.9834 20.3105 53.5498 19.9297 54.1357 19.4805C54.7217 19.0312 55.2783 18.5723 55.8057 18.1035C56.333 17.6348 56.8018 17.1953 57.2119 16.7852C57.6221 16.3555 57.9248 16.0039 58.1201 15.7305C58.2764 15.4961 58.4522 15.3301 58.6475 15.2324C58.8428 15.1348 59.0088 15.1055 59.1455 15.1445C59.3018 15.1641 59.3897 15.252 59.4092 15.4082C59.4482 15.5449 59.3897 15.7402 59.2334 15.9941C58.7842 16.7168 58.2373 17.4199 57.5928 18.1035C56.9482 18.7676 56.2842 19.3926 55.6006 19.9785C54.9365 20.5449 54.2822 21.0527 53.6377 21.502C53.0127 21.9316 52.4756 22.2832 52.0264 22.5566C51.8311 23.4355 51.665 24.1484 51.5283 24.6953C51.3916 25.2422 51.2744 25.7402 51.1768 26.1895ZM47.4854 20.418C47.8955 20.418 48.2764 20.3105 48.6279 20.0957C48.999 19.8809 49.3311 19.6367 49.624 19.3633C49.917 19.0703 50.1611 18.7773 50.3564 18.4844C50.5518 18.1914 50.6982 17.957 50.7959 17.7812C50.874 17.6055 50.9619 17.3711 51.0596 17.0781C51.1768 16.7852 51.2647 16.502 51.3232 16.2285C51.3818 15.9551 51.4014 15.7109 51.3818 15.4961C51.3818 15.2812 51.3135 15.1641 51.1768 15.1445C51.0596 15.125 50.9619 15.0469 50.8838 14.9102C50.8252 14.7734 50.7764 14.6172 50.7373 14.4414C50.6982 14.2656 50.6689 14.0898 50.6494 13.9141C50.6494 13.7383 50.6397 13.582 50.6201 13.4453C50.5225 12.7617 50.3564 12.2637 50.1221 11.9512C49.8877 11.6387 49.624 11.4824 49.3311 11.4824C48.8428 11.4824 48.374 11.6777 47.9248 12.0684C47.4951 12.459 47.1045 12.9668 46.7529 13.5918C46.4209 14.1973 46.1572 14.8711 45.9619 15.6133C45.7666 16.3359 45.6689 17.0293 45.6689 17.6934C45.6689 18.5137 45.7861 19.1777 46.0205 19.6855C46.2549 20.1738 46.7432 20.418 47.4854 20.418ZM46.1377 34.0117C46.5283 34.0117 46.8408 33.7188 47.0752 33.1328C47.3291 32.5664 47.5928 31.7852 47.8662 30.7891C47.9248 30.5547 48.0029 30.2129 48.1006 29.7637C48.2178 29.334 48.3447 28.8359 48.4814 28.2695C48.6377 27.7031 48.7939 27.0879 48.9502 26.4238C49.1064 25.7793 49.2725 25.125 49.4482 24.4609C49.292 24.5977 49.126 24.7344 48.9502 24.8711C48.7939 25.0273 48.6279 25.2031 48.4522 25.3984C48.0225 25.8086 47.6025 26.1992 47.1924 26.5703C46.8018 26.9609 46.4502 27.3613 46.1377 27.7715C45.8252 28.2012 45.5713 28.6602 45.376 29.1484C45.2002 29.6367 45.1123 30.2031 45.1123 30.8477C45.1123 31.4922 45.1318 32.0195 45.1709 32.4297C45.2295 32.8398 45.2979 33.1621 45.376 33.3965C45.4736 33.6309 45.5811 33.7871 45.6982 33.8652C45.835 33.9629 45.9814 34.0117 46.1377 34.0117ZM65.4924 22.7324C65.0432 22.7324 64.6525 22.6445 64.3205 22.4688C64.008 22.3125 63.7541 22.0977 63.5588 21.8242C63.3635 21.5508 63.2365 21.2383 63.1779 20.8867C63.1193 20.5156 63.1389 20.125 63.2365 19.7148C63.2951 19.4414 63.3928 19.0801 63.5295 18.6309C63.6662 18.1621 63.8029 17.6641 63.9397 17.1367C64.0959 16.5898 64.2326 16.0527 64.3498 15.5254C64.4865 14.9785 64.5744 14.4902 64.6135 14.0605C64.6525 13.6113 64.633 13.25 64.5549 12.9766C64.4768 12.6836 64.3107 12.5371 64.0568 12.5371C63.7443 12.5371 63.4221 12.6445 63.09 12.8594C62.758 13.0547 62.4162 13.3281 62.0647 13.6797C61.7326 14.0312 61.3908 14.4414 61.0393 14.9102C60.7072 15.3594 60.3752 15.8281 60.0432 16.3164C59.8674 16.9805 59.7209 17.5664 59.6037 18.0742C59.4865 18.5625 59.3791 19.0117 59.2814 19.4219C59.2033 19.8125 59.1252 20.1641 59.0471 20.4766C58.9689 20.7695 58.9006 21.0527 58.842 21.3262C58.7834 21.5215 58.6076 21.7168 58.3147 21.9121C58.0217 22.0879 57.7092 22.2344 57.3772 22.3516C57.0451 22.4688 56.7619 22.5273 56.5275 22.5273C56.2736 22.5273 56.1662 22.4395 56.2053 22.2637C56.2248 22.1465 56.2932 21.8828 56.4104 21.4727C56.508 21.0625 56.635 20.584 56.7912 20.0371C56.9279 19.4707 57.0744 18.875 57.2307 18.25C57.3869 17.625 57.5334 17.0293 57.6701 16.4629C57.7678 16.0137 57.8752 15.5156 57.9924 14.9688C58.09 14.5 58.2072 13.9531 58.3439 13.3281C58.5002 12.7031 58.676 12.0195 58.8713 11.2773C59.008 11.1602 59.1447 11.0723 59.2814 11.0137C59.4377 10.9355 59.5939 10.877 59.7502 10.8379C59.9064 10.7793 60.0725 10.7402 60.2482 10.7207C60.4045 10.7207 60.5607 10.7305 60.717 10.75C60.8537 10.7695 60.9904 10.8086 61.1272 10.8672C61.2834 10.9062 61.4201 10.9746 61.5373 11.0723C61.4787 11.209 61.4104 11.4043 61.3322 11.6582C61.2541 11.8926 61.176 12.1465 61.0979 12.4199C61.0197 12.7324 60.9221 13.0547 60.8049 13.3867C61.0588 13.0352 61.342 12.6836 61.6545 12.332C61.9865 11.9609 62.3381 11.6289 62.7092 11.3359C63.0998 11.043 63.51 10.8086 63.9397 10.6328C64.3693 10.4375 64.8088 10.3398 65.258 10.3398C65.6291 10.3398 65.9611 10.4473 66.2541 10.6621C66.5471 10.877 66.7717 11.1797 66.9279 11.5703C67.1037 11.9414 67.2014 12.3906 67.2209 12.918C67.26 13.4453 67.1916 14.0215 67.0158 14.6465L66.6936 15.9355C66.5959 16.3457 66.4689 16.834 66.3127 17.4004C66.176 17.9473 66.0002 18.5527 65.7854 19.2168C65.6682 19.6465 65.6193 20.0176 65.6389 20.3301C65.6779 20.6426 65.8732 20.7988 66.2248 20.7988C66.5764 20.7988 67.0158 20.584 67.5432 20.1543C68.09 19.7246 68.6369 19.207 69.1838 18.6016C69.7307 17.9961 70.2482 17.3809 70.7365 16.7559C71.2248 16.1113 71.5959 15.5938 71.8498 15.2031C72.0256 14.9492 72.1916 14.7832 72.3479 14.7051C72.5041 14.627 72.6213 14.6172 72.6994 14.6758C72.7971 14.7344 72.8459 14.8711 72.8459 15.0859C72.8459 15.2812 72.7678 15.5352 72.6115 15.8477C72.4748 16.1211 72.26 16.4824 71.967 16.9316C71.6936 17.3809 71.3615 17.8594 70.9709 18.3672C70.5803 18.875 70.1604 19.3926 69.7111 19.9199C69.2619 20.4277 68.7932 20.8965 68.3049 21.3262C67.8166 21.7363 67.3283 22.0684 66.84 22.3223C66.3713 22.5957 65.9221 22.7324 65.4924 22.7324ZM76.9076 5.21289C76.6147 6.38477 76.2826 7.50781 75.9115 8.58203C75.56 9.63672 75.1889 10.6328 74.7982 11.5703C74.4272 12.4883 74.0463 13.3281 73.6557 14.0898C73.2846 14.8516 72.9525 15.5156 72.6596 16.082C72.4643 17.4883 72.4643 18.6211 72.6596 19.4805C72.8549 20.3398 73.2357 20.7695 73.8022 20.7695C74.2709 20.7695 74.7299 20.5547 75.1791 20.125C75.6283 19.6953 76.0287 19.168 76.3803 18.543C76.7318 17.918 77.0248 17.2539 77.2592 16.5508C77.5131 15.8281 77.6693 15.1836 77.7279 14.6172C77.3568 14.5195 77.0443 14.3535 76.7904 14.1191C76.5365 13.8652 76.4096 13.5332 76.4096 13.123C76.4096 12.8496 76.4877 12.5957 76.644 12.3613C76.8002 12.1074 76.9857 11.8926 77.2006 11.7168C77.4154 11.541 77.6498 11.4043 77.9037 11.3066C78.1576 11.209 78.392 11.1602 78.6068 11.1602C78.9389 11.1602 79.2221 11.375 79.4565 11.8047C79.6908 12.2148 79.8471 12.7422 79.9252 13.3867C80.7065 13.3672 81.5268 13.25 82.3861 13.0352C83.2455 12.8203 84.0561 12.5469 84.8178 12.2148C85.0326 12.1172 85.2084 12.0879 85.3451 12.127C85.4818 12.166 85.5697 12.2441 85.6088 12.3613C85.6674 12.4785 85.6674 12.6152 85.6088 12.7715C85.5502 12.9082 85.433 13.0156 85.2572 13.0938C84.808 13.3477 84.3393 13.582 83.851 13.7969C83.3822 13.9922 82.9135 14.1582 82.4447 14.2949C81.976 14.4316 81.5268 14.5391 81.0971 14.6172C80.6674 14.6953 80.2768 14.7344 79.9252 14.7344C79.8471 15.5156 79.6029 16.3652 79.1928 17.2832C78.7826 18.1816 78.2846 19.0215 77.6986 19.8027C77.1127 20.5645 76.4584 21.1992 75.7357 21.707C75.0326 22.2148 74.3393 22.4688 73.6557 22.4688C73.4408 22.4688 73.1576 22.4395 72.8061 22.3809C72.4545 22.3223 72.1127 22.1172 71.7807 21.7656C71.4486 21.4141 71.1654 20.8574 70.9311 20.0957C70.6967 19.3145 70.599 18.2109 70.6381 16.7852C70.6576 15.8281 70.765 14.8125 70.9604 13.7383C71.1557 12.6641 71.39 11.5898 71.6635 10.5156C71.9369 9.44141 72.2397 8.40625 72.5717 7.41016C72.9232 6.39453 73.2553 5.48633 73.5678 4.68555C73.8803 3.86523 74.1635 3.18164 74.4174 2.63477C74.6908 2.08789 74.8959 1.73633 75.0326 1.58008C75.2084 1.36523 75.4135 1.20898 75.6479 1.11133C75.8822 0.994141 76.1068 0.916016 76.3217 0.876953C76.5561 0.818359 76.7709 0.798828 76.9662 0.818359C77.1615 0.837891 77.2982 0.867187 77.3764 0.90625C77.4936 0.984375 77.5229 1.41406 77.4643 2.19531C77.4252 2.97656 77.2397 3.98242 76.9076 5.21289ZM89.9049 11.2188C90.1588 11.0234 90.4029 10.877 90.6373 10.7793C90.8912 10.6621 91.1158 10.584 91.3111 10.5449C91.526 10.4863 91.7408 10.4668 91.9557 10.4863C92.483 10.5254 92.8053 10.6914 92.9225 10.9844C93.0592 11.2773 93.0787 11.7461 92.9811 12.3906C92.9225 12.7227 92.8053 13.1426 92.6295 13.6504C92.4537 14.1582 92.2486 14.7832 92.0143 15.5254C91.7799 16.248 91.526 17.0781 91.2525 18.0156C90.9986 18.9531 90.7545 20.0078 90.5201 21.1797C90.2857 22.1367 90.0318 23.2402 89.7584 24.4902C89.524 25.584 89.2408 26.9023 88.9088 28.4453C88.5963 29.9883 88.2545 31.7559 87.8834 33.748C87.7857 34.2363 87.5709 34.5195 87.2389 34.5977C86.9264 34.6758 86.5943 34.6367 86.2428 34.4805C86.1061 34.4023 85.9791 34.3145 85.8619 34.2168C85.7643 34.1191 85.6568 34.002 85.5396 33.8652C85.4225 33.748 85.3248 33.582 85.2467 33.3672C85.6959 31.7266 86.0865 30.2324 86.4186 28.8848C86.7701 27.5371 87.0826 26.3652 87.3561 25.3691C87.649 24.2168 87.9225 23.1816 88.1764 22.2637C88.274 21.8535 88.3619 21.4531 88.44 21.0625C88.5377 20.6523 88.6354 20.252 88.733 19.8613C88.4791 20.2715 88.2057 20.6621 87.9127 21.0332C87.6197 21.4043 87.2975 21.7266 86.9459 22C86.5943 22.2734 86.2135 22.4785 85.8033 22.6152C85.4127 22.7715 85.0025 22.8203 84.5729 22.7617C83.5182 22.625 82.7662 22.2344 82.317 21.5898C81.8873 20.9453 81.7018 20.1055 81.7604 19.0703C81.7799 18.6602 81.8385 18.2109 81.9361 17.7227C82.0338 17.2344 82.1412 16.7656 82.2584 16.3164C82.3756 15.8672 82.483 15.4668 82.5807 15.1152C82.6979 14.7441 82.7857 14.4805 82.8443 14.3242C83.0787 13.582 83.2447 12.9473 83.3424 12.4199C83.4596 11.8926 83.3814 11.4531 83.108 11.1016C83.3814 10.9258 83.6354 10.8086 83.8697 10.75C84.1236 10.6719 84.3482 10.6133 84.5436 10.5742C84.7584 10.5547 84.9732 10.5547 85.1881 10.5742C85.7154 10.6523 86.0182 10.8477 86.0963 11.1602C86.1939 11.4727 86.1646 11.9414 86.0084 12.5664C85.9303 12.8984 85.8033 13.3281 85.6275 13.8555C85.4518 14.3633 85.2662 14.8906 85.0709 15.4375C84.8756 15.9844 84.6998 16.4922 84.5436 16.9609C84.3873 17.4102 84.2994 17.7324 84.2799 17.9277C84.1041 18.8066 84.0943 19.4902 84.2506 19.9785C84.4068 20.4473 84.7486 20.6816 85.276 20.6816C85.5299 20.6816 85.8131 20.5742 86.1256 20.3594C86.4381 20.125 86.7506 19.8223 87.0631 19.4512C87.3951 19.0801 87.7174 18.6602 88.0299 18.1914C88.3424 17.7031 88.6256 17.2148 88.8795 16.7266C89.1529 16.2383 89.3873 15.7598 89.5826 15.291C89.7975 14.8223 89.9537 14.4023 90.0514 14.0312C90.1881 13.3086 90.276 12.7422 90.315 12.332C90.3541 11.9219 90.2174 11.5508 89.9049 11.2188ZM93.4979 21.5312C94.3572 17.918 95.0408 15.0176 95.5486 12.8301C96.076 10.6426 96.4764 8.97266 96.7498 7.82031C97.0623 6.45313 97.2772 5.50586 97.3943 4.97852C97.4529 4.60742 97.5018 4.24609 97.5408 3.89453C97.5799 3.58203 97.5994 3.25977 97.5994 2.92773C97.5994 2.5957 97.5701 2.29297 97.5115 2.01953C97.6678 1.92187 97.8338 1.84375 98.0096 1.78516C98.2049 1.72656 98.3904 1.67773 98.5662 1.63867C98.7811 1.58008 98.9959 1.53125 99.2107 1.49219C99.4256 1.45312 99.6209 1.43359 99.7967 1.43359C99.9529 1.43359 100.099 1.45312 100.236 1.49219C100.373 1.51172 100.461 1.57031 100.5 1.66797C100.617 1.76563 100.666 1.96094 100.646 2.25391C100.646 2.54688 100.627 2.84961 100.588 3.16211C100.51 3.5332 100.422 3.93359 100.324 4.36328C100.09 5.20312 99.7674 6.41406 99.3572 7.99609C99.0057 9.34375 98.5272 11.1797 97.9217 13.5039C97.3357 15.8281 96.5936 18.7578 95.6951 22.293C95.5975 22.3906 95.4803 22.459 95.3436 22.498C95.2068 22.5371 95.0799 22.5566 94.9627 22.5566C94.826 22.5566 94.6795 22.5469 94.5232 22.5273C94.3865 22.4883 94.2498 22.4297 94.1131 22.3516C93.9959 22.2734 93.8787 22.166 93.7615 22.0293C93.6443 21.9121 93.5564 21.7461 93.4979 21.5312ZM106.495 4.74414C106.437 4.95898 106.319 5.17383 106.144 5.38867C105.987 5.58398 105.802 5.75 105.587 5.88672C105.392 6.00391 105.187 6.08203 104.972 6.12109C104.757 6.16016 104.581 6.12109 104.444 6.00391C104.034 5.69141 103.819 5.35938 103.8 5.00781C103.78 4.63672 103.868 4.29492 104.063 3.98242C104.259 3.65039 104.503 3.37695 104.796 3.16211C105.089 2.92773 105.343 2.79102 105.558 2.75195C105.772 2.71289 105.948 2.76172 106.085 2.89844C106.241 3.01562 106.358 3.18164 106.437 3.39648C106.515 3.5918 106.554 3.81641 106.554 4.07031C106.573 4.32422 106.554 4.54883 106.495 4.74414ZM102.452 10.9844C102.55 10.8672 102.735 10.7695 103.009 10.6914C103.282 10.6133 103.565 10.5547 103.858 10.5156C104.151 10.457 104.415 10.4277 104.649 10.4277C104.903 10.4082 105.05 10.4082 105.089 10.4277C105.108 10.4473 105.06 10.6523 104.942 11.043C104.825 11.4336 104.679 11.8926 104.503 12.4199C104.327 12.9473 104.142 13.4941 103.946 14.0605C103.751 14.6074 103.604 15.0566 103.507 15.4082C103.409 15.7598 103.292 16.1602 103.155 16.6094C103.019 17.0391 102.892 17.4688 102.774 17.8984C102.677 18.3086 102.608 18.6992 102.569 19.0703C102.53 19.4414 102.56 19.7246 102.657 19.9199C102.755 20.1543 102.862 20.3203 102.979 20.418C103.097 20.4961 103.224 20.5352 103.36 20.5352C103.751 20.5352 104.239 20.3203 104.825 19.8906C105.431 19.4609 106.036 18.9531 106.642 18.3672C107.267 17.7617 107.843 17.1562 108.37 16.5508C108.897 15.9258 109.288 15.4277 109.542 15.0566C109.698 14.8613 109.854 14.7344 110.011 14.6758C110.187 14.6172 110.323 14.627 110.421 14.7051C110.538 14.7832 110.597 14.9102 110.597 15.0859C110.616 15.2617 110.558 15.4668 110.421 15.7012C110.108 16.248 109.649 16.9023 109.044 17.6641C108.438 18.4062 107.794 19.1289 107.11 19.832C106.427 20.5156 105.753 21.1016 105.089 21.5898C104.444 22.0781 103.917 22.332 103.507 22.3516C103.175 22.3711 102.843 22.3125 102.511 22.1758C102.198 22.0586 101.905 21.8926 101.632 21.6777C101.378 21.4434 101.163 21.1797 100.987 20.8867C100.812 20.5742 100.714 20.252 100.694 19.9199C100.636 19.4316 100.636 18.7676 100.694 17.9277C100.753 17.0684 100.86 16.1992 101.017 15.3203C101.173 14.4219 101.368 13.5723 101.603 12.7715C101.856 11.9707 102.14 11.375 102.452 10.9844ZM107.393 21.5312C108.252 17.918 108.936 15.0176 109.444 12.8301C109.971 10.6426 110.371 8.97266 110.645 7.82031C110.957 6.45313 111.172 5.50586 111.289 4.97852C111.348 4.60742 111.397 4.24609 111.436 3.89453C111.475 3.58203 111.494 3.25977 111.494 2.92773C111.494 2.5957 111.465 2.29297 111.406 2.01953C111.563 1.92187 111.729 1.84375 111.904 1.78516C112.1 1.72656 112.285 1.67773 112.461 1.63867C112.676 1.58008 112.891 1.53125 113.106 1.49219C113.321 1.45312 113.516 1.43359 113.692 1.43359C113.848 1.43359 113.994 1.45312 114.131 1.49219C114.268 1.51172 114.356 1.57031 114.395 1.66797C114.512 1.76563 114.561 1.96094 114.541 2.25391C114.541 2.54688 114.522 2.84961 114.483 3.16211C114.404 3.5332 114.317 3.93359 114.219 4.36328C113.985 5.20312 113.662 6.41406 113.252 7.99609C112.901 9.34375 112.422 11.1797 111.817 13.5039C111.231 15.8281 110.488 18.7578 109.59 22.293C109.492 22.3906 109.375 22.459 109.238 22.498C109.102 22.5371 108.975 22.5566 108.858 22.5566C108.721 22.5566 108.574 22.5469 108.418 22.5273C108.281 22.4883 108.145 22.4297 108.008 22.3516C107.891 22.2734 107.774 22.166 107.656 22.0293C107.539 21.9121 107.451 21.7461 107.393 21.5312ZM120.39 4.74414C120.331 4.95898 120.214 5.17383 120.038 5.38867C119.882 5.58398 119.697 5.75 119.482 5.88672C119.287 6.00391 119.081 6.08203 118.867 6.12109C118.652 6.16016 118.476 6.12109 118.339 6.00391C117.929 5.69141 117.714 5.35938 117.695 5.00781C117.675 4.63672 117.763 4.29492 117.958 3.98242C118.154 3.65039 118.398 3.37695 118.691 3.16211C118.984 2.92773 119.238 2.79102 119.453 2.75195C119.667 2.71289 119.843 2.76172 119.98 2.89844C120.136 3.01562 120.253 3.18164 120.331 3.39648C120.41 3.5918 120.449 3.81641 120.449 4.07031C120.468 4.32422 120.449 4.54883 120.39 4.74414ZM116.347 10.9844C116.445 10.8672 116.63 10.7695 116.904 10.6914C117.177 10.6133 117.46 10.5547 117.753 10.5156C118.046 10.457 118.31 10.4277 118.544 10.4277C118.798 10.4082 118.945 10.4082 118.984 10.4277C119.003 10.4473 118.954 10.6523 118.837 11.043C118.72 11.4336 118.574 11.8926 118.398 12.4199C118.222 12.9473 118.037 13.4941 117.841 14.0605C117.646 14.6074 117.499 15.0566 117.402 15.4082C117.304 15.7598 117.187 16.1602 117.05 16.6094C116.913 17.0391 116.787 17.4688 116.669 17.8984C116.572 18.3086 116.503 18.6992 116.464 19.0703C116.425 19.4414 116.454 19.7246 116.552 19.9199C116.65 20.1543 116.757 20.3203 116.874 20.418C116.992 20.4961 117.119 20.5352 117.255 20.5352C117.646 20.5352 118.134 20.3203 118.72 19.8906C119.326 19.4609 119.931 18.9531 120.537 18.3672C121.162 17.7617 121.738 17.1562 122.265 16.5508C122.792 15.9258 123.183 15.4277 123.437 15.0566C123.593 14.8613 123.749 14.7344 123.906 14.6758C124.081 14.6172 124.218 14.627 124.316 14.7051C124.433 14.7832 124.492 14.9102 124.492 15.0859C124.511 15.2617 124.453 15.4668 124.316 15.7012C124.003 16.248 123.544 16.9023 122.939 17.6641C122.333 18.4062 121.689 19.1289 121.005 19.832C120.322 20.5156 119.648 21.1016 118.984 21.5898C118.339 22.0781 117.812 22.332 117.402 22.3516C117.07 22.3711 116.738 22.3125 116.406 22.1758C116.093 22.0586 115.8 21.8926 115.527 21.6777C115.273 21.4434 115.058 21.1797 114.882 20.8867C114.706 20.5742 114.609 20.252 114.589 19.9199C114.531 19.4316 114.531 18.7676 114.589 17.9277C114.648 17.0684 114.755 16.1992 114.912 15.3203C115.068 14.4219 115.263 13.5723 115.497 12.7715C115.751 11.9707 116.035 11.375 116.347 10.9844ZM136.756 16.1699C136.483 16.5605 136.131 17.0488 135.702 17.6348C135.272 18.2012 134.823 18.7773 134.354 19.3633C133.905 19.9297 133.456 20.457 133.006 20.9453C132.577 21.4141 132.215 21.7461 131.922 21.9414C131.727 22.0586 131.503 22.1562 131.249 22.2344C130.995 22.3125 130.731 22.3613 130.458 22.3809C130.204 22.4004 129.96 22.3809 129.725 22.3223C129.491 22.2832 129.286 22.2051 129.11 22.0879C128.934 21.9512 128.788 21.7559 128.671 21.502C128.573 21.2871 128.475 21.0039 128.378 20.6523C128.299 20.3008 128.27 19.8613 128.29 19.334C127.821 20.1152 127.303 20.7207 126.737 21.1504C126.171 21.5605 125.633 21.8633 125.126 22.0586C124.54 22.2734 123.954 22.4004 123.368 22.4395C123.094 22.4395 122.801 22.3418 122.489 22.1465C122.176 21.9707 121.913 21.6875 121.698 21.2969C121.483 20.8867 121.346 20.3691 121.288 19.7441C121.229 19.0996 121.307 18.3379 121.522 17.459C121.796 16.2676 122.225 15.1836 122.811 14.207C123.417 13.2305 124.071 12.4004 124.774 11.7168C125.477 11.0137 126.171 10.4863 126.854 10.1348C127.538 9.7832 128.104 9.62695 128.553 9.66602C129.081 9.76367 129.51 9.91992 129.842 10.1348C130.116 10.3301 130.292 10.623 130.37 11.0137C130.467 11.3848 130.311 11.8828 129.901 12.5078C130.174 12.4492 130.399 12.4102 130.575 12.3906C130.77 12.3711 130.917 12.3613 131.014 12.3613C131.131 12.3613 131.21 12.3711 131.249 12.3906C131.268 12.4297 131.278 12.5176 131.278 12.6543C131.278 12.7715 131.249 12.9961 131.19 13.3281C131.131 13.6602 131.044 14.1094 130.926 14.6758C130.809 15.2422 130.653 15.9746 130.458 16.873C130.419 17.0488 130.379 17.2148 130.34 17.3711C130.321 17.5078 130.292 17.6543 130.253 17.8105C130.233 17.9473 130.204 18.1133 130.165 18.3086C130.126 18.5039 130.077 18.748 130.018 19.041C129.999 19.2168 129.989 19.4121 129.989 19.627C130.008 19.8223 130.047 20.0078 130.106 20.1836C130.165 20.3594 130.253 20.5059 130.37 20.623C130.506 20.7207 130.692 20.7695 130.926 20.7695C131.122 20.7695 131.376 20.6523 131.688 20.418C132.001 20.1641 132.333 19.8516 132.684 19.4805C133.036 19.0898 133.397 18.6699 133.768 18.2207C134.159 17.752 134.52 17.3027 134.852 16.873C135.184 16.4434 135.477 16.0625 135.731 15.7305C136.004 15.3984 136.2 15.1543 136.317 14.998C136.473 14.8223 136.629 14.7246 136.786 14.7051C136.942 14.666 137.059 14.7051 137.137 14.8223C137.215 14.9395 137.225 15.1152 137.167 15.3496C137.128 15.584 136.991 15.8574 136.756 16.1699ZM128.172 17.459C128.27 17.0684 128.387 16.6094 128.524 16.082C128.661 15.5547 128.778 15.0469 128.876 14.5586C128.973 14.0703 129.042 13.6699 129.081 13.3574C129.139 13.0254 129.129 12.8691 129.051 12.8887C128.954 12.9082 128.846 12.9375 128.729 12.9766C128.631 13.0156 128.504 13.0449 128.348 13.0645C128.192 13.084 128.036 13.1133 127.879 13.1523C128.036 12.8398 128.124 12.5859 128.143 12.3906C128.182 12.1758 128.192 12.0098 128.172 11.8926C128.153 11.7559 128.114 11.6484 128.055 11.5703C127.84 11.3945 127.46 11.541 126.913 12.0098C126.385 12.459 125.77 13.2988 125.067 14.5293C124.774 15.0371 124.54 15.584 124.364 16.1699C124.188 16.7363 124.061 17.2734 123.983 17.7812C123.924 18.2891 123.915 18.7383 123.954 19.1289C123.993 19.5 124.071 19.7441 124.188 19.8613C124.403 20.0762 124.647 20.1836 124.921 20.1836C125.194 20.1641 125.467 20.0859 125.741 19.9492C126.034 19.793 126.317 19.5977 126.59 19.3633C126.883 19.1289 127.137 18.8848 127.352 18.6309C127.587 18.377 127.772 18.1426 127.909 17.9277C128.065 17.7129 128.153 17.5566 128.172 17.459ZM143.045 22.7324C142.596 22.7324 142.205 22.6445 141.873 22.4688C141.56 22.3125 141.306 22.0977 141.111 21.8242C140.916 21.5508 140.789 21.2383 140.73 20.8867C140.672 20.5156 140.691 20.125 140.789 19.7148C140.847 19.4414 140.945 19.0801 141.082 18.6309C141.219 18.1621 141.355 17.6641 141.492 17.1367C141.648 16.5898 141.785 16.0527 141.902 15.5254C142.039 14.9785 142.127 14.4902 142.166 14.0605C142.205 13.6113 142.185 13.25 142.107 12.9766C142.029 12.6836 141.863 12.5371 141.609 12.5371C141.297 12.5371 140.974 12.6445 140.642 12.8594C140.31 13.0547 139.969 13.3281 139.617 13.6797C139.285 14.0312 138.943 14.4414 138.592 14.9102C138.26 15.3594 137.928 15.8281 137.596 16.3164C137.42 16.9805 137.273 17.5664 137.156 18.0742C137.039 18.5625 136.931 19.0117 136.834 19.4219C136.756 19.8125 136.678 20.1641 136.599 20.4766C136.521 20.7695 136.453 21.0527 136.394 21.3262C136.336 21.5215 136.16 21.7168 135.867 21.9121C135.574 22.0879 135.262 22.2344 134.929 22.3516C134.597 22.4688 134.314 22.5273 134.08 22.5273C133.826 22.5273 133.719 22.4395 133.758 22.2637C133.777 22.1465 133.846 21.8828 133.963 21.4727C134.06 21.0625 134.187 20.584 134.344 20.0371C134.48 19.4707 134.627 18.875 134.783 18.25C134.939 17.625 135.086 17.0293 135.222 16.4629C135.32 16.0137 135.428 15.5156 135.545 14.9688C135.642 14.5 135.76 13.9531 135.896 13.3281C136.053 12.7031 136.228 12.0195 136.424 11.2773C136.56 11.1602 136.697 11.0723 136.834 11.0137C136.99 10.9355 137.146 10.877 137.303 10.8379C137.459 10.7793 137.625 10.7402 137.801 10.7207C137.957 10.7207 138.113 10.7305 138.269 10.75C138.406 10.7695 138.543 10.8086 138.679 10.8672C138.836 10.9062 138.972 10.9746 139.09 11.0723C139.031 11.209 138.963 11.4043 138.885 11.6582C138.806 11.8926 138.728 12.1465 138.65 12.4199C138.572 12.7324 138.474 13.0547 138.357 13.3867C138.611 13.0352 138.894 12.6836 139.207 12.332C139.539 11.9609 139.89 11.6289 140.262 11.3359C140.652 11.043 141.062 10.8086 141.492 10.6328C141.922 10.4375 142.361 10.3398 142.81 10.3398C143.181 10.3398 143.513 10.4473 143.806 10.6621C144.099 10.877 144.324 11.1797 144.48 11.5703C144.656 11.9414 144.754 12.3906 144.773 12.918C144.812 13.4453 144.744 14.0215 144.568 14.6465L144.246 15.9355C144.148 16.3457 144.021 16.834 143.865 17.4004C143.728 17.9473 143.553 18.5527 143.338 19.2168C143.221 19.6465 143.172 20.0176 143.191 20.3301C143.23 20.6426 143.426 20.7988 143.777 20.7988C144.129 20.7988 144.568 20.584 145.096 20.1543C145.642 19.7246 146.189 19.207 146.736 18.6016C147.283 17.9961 147.801 17.3809 148.289 16.7559C148.777 16.1113 149.148 15.5938 149.402 15.2031C149.578 14.9492 149.744 14.7832 149.9 14.7051C150.056 14.627 150.174 14.6172 150.252 14.6758C150.349 14.7344 150.398 14.8711 150.398 15.0859C150.398 15.2812 150.32 15.5352 150.164 15.8477C150.027 16.1211 149.812 16.4824 149.519 16.9316C149.246 17.3809 148.914 17.8594 148.523 18.3672C148.133 18.875 147.713 19.3926 147.263 19.9199C146.814 20.4277 146.346 20.8965 145.857 21.3262C145.369 21.7363 144.881 22.0684 144.392 22.3223C143.924 22.5957 143.474 22.7324 143.045 22.7324Z" fill="black"/>
</svg>
