<svg id="Layer_1" data-name="Layer 1" xmlns="http://www.w3.org/2000/svg" viewBox="0 0 2793 2642"><defs><style>.cls-1,.cls-2,.cls-3,.cls-5{fill:none;stroke-width:8px;}.cls-1,.cls-2{stroke:#000;}.cls-1,.cls-3{stroke-linecap:round;}.cls-3,.cls-5{stroke:#fdf186;}.cls-4{fill:#a3dca2;}</style></defs><g id="Page-1"><g id="_16" data-name="16"><g id="Background"><line id="Path" class="cls-1" x1="187.1" y1="2637.5" x2="2705.3" y2="2637.5"/><circle id="Oval" class="cls-2" cx="2529.4" cy="861.6" r="5.3"/><circle id="Oval-2" data-name="Oval" class="cls-2" cx="322.5" cy="986.3" r="5.3"/><circle id="Oval-3" data-name="Oval" class="cls-2" cx="364.2" cy="2187.2" r="5.3"/><circle id="Oval-4" data-name="Oval" class="cls-2" cx="1860.4" cy="128.7" r="5.3"/><circle id="Oval-5" data-name="Oval" class="cls-2" cx="382.9" cy="9.5" r="5.3"/><line id="Path-2" data-name="Path" class="cls-1" x1="2090.6" y1="1428.3" x2="2120" y2="1449.7"/><line id="Path-3" data-name="Path" class="cls-1" x1="1185.7" y1="18.8" x2="1215.1" y2="40.2"/><line id="Path-4" data-name="Path" class="cls-1" x1="328.1" y1="1819.6" x2="298.3" y2="1840.4"/><line id="Path-5" data-name="Path" class="cls-1" x1="2436.6" y1="2424.9" x2="2406.8" y2="2445.7"/><line id="Path-6" data-name="Path" class="cls-1" x1="262.5" y1="416" x2="232.7" y2="436.8"/><line id="Path-7" data-name="Path" class="cls-1" x1="2217.1" y1="586.7" x2="2250.9" y2="573.4"/><polygon id="Path-8" data-name="Path" class="cls-2" points="190.6 1302.3 221.6 1470.1 353.9 1415.2 231.2 1511.5 340.9 1565.4 213.8 1541.7 240.4 1699.3 174.9 1546 59.3 1671.1 135.4 1528.6 21.1 1490.2 130.4 1483.4 97.6 1413 161.2 1463.4 190.6 1302.3"/><polygon id="Path-9" data-name="Path" points="2405.8 1719.6 2426.3 1830.4 2513.6 1794.1 2432.6 1857.7 2505 1893.3 2421.1 1877.6 2438.7 1981.6 2395.4 1880.4 2319.1 1963 2369.3 1868.9 2293.8 1843.6 2366 1839.1 2344.3 1792.6 2386.3 1825.9 2405.8 1719.6"/><line id="Path-10" data-name="Path" class="cls-1" x1="2482.8" y1="40.2" x2="2502.6" y2="70.7"/><line id="Path-11" data-name="Path" class="cls-1" x1="88.8" y1="2387.5" x2="108.5" y2="2418"/><line id="Path-12" data-name="Path" class="cls-1" x1="2677.3" y1="1353" x2="2697.1" y2="1383.5"/><path id="Shape" class="cls-3" d="M2198.3,55.6c-32.8,45.4-75.2,121.6-78.4,182.1m352.4,341.7a322.7,322.7,0,0,1-49.5-.7M2120.2,255.3a91,91,0,0,0,3.7,19.1m3.8,9.8a67.91,67.91,0,0,0,12.7,18.2m5.3,4.8c8,6.6,18.2,12,30.7,15.8,112.2,34.2,195-79.3,222.4-140.3,19.3-47.1,18.6-119.2-60.3-74.5S2234,300,2231.1,367.9c-.2,51.2,21.8,136,97,181.3m15.5,8.4c3.6,1.7,7.3,3.4,11.1,5m8.5,3.2a208.54,208.54,0,0,0,20.7,6.3m8.7,2.1c7.1,1.5,14.5,2.8,22.3,3.7"/></g><g id="Phone"><polyline id="Path-13" data-name="Path" class="cls-2" points="1641.7 985.8 1548 119.4 766.6 199.5 351.3 242.1 588 2506 1782 2355.4 1715 1720"/><polygon id="Path-14" data-name="Path" points="759.2 375.2 744.8 201.4 1144.7 158.6 1155.9 347.3 759.2 375.2"/></g><g id="Girl"><path id="Shape-2" data-name="Shape" class="cls-1" d="M1634.6,1203.1c-86.1,110-283.4,361.7-347.8,486.5s-146,416.2-178.8,546.3l252.6,108.6m331.5-740.4-181.3,221.5L1395,2359.3l-34.4-14.8m306.3-904.1,14.7,85.2m305-349.5,32.7,662.1,151,538.8H1876.5m.1,0H1828l-146.5-851.4M1876.6,2377l62.3-969M1828,1260c.1,49.3,28,148,138.9,148m-285.3,117.6L1395,1783.4l-34.4,561.2"/><polygon id="Path-15" data-name="Path" points="1175.8 2536.8 1244.6 2587.2 1350.9 2369.2 1215.6 2291.3 1201 2334.3 817.4 2274.2 1138.8 2509.6 1200.4 2490.1 1175.8 2536.8"/><path id="Shape-3" data-name="Shape" class="cls-1" d="M1350.9,2369.2l-106.3,218-68.8-50.4,24.7-46.6-61.6,19.5L817.5,2274.3l383.6,60.1,14.6-43Zm0,0,10.5-19.5"/><polygon id="Path-16" data-name="Path" points="2085.1 2637.5 2170.4 2637.5 2127.3 2398.8 1972.1 2415.9 1985.8 2459.2 1640.8 2637.4 2039.2 2637.4 2077.4 2585.2 2085.1 2637.5"/><path id="Shape-4" data-name="Shape" class="cls-1" d="M2127.4,2398.9l43.1,238.7h-85.3l-7.6-52.2-38.2,52.2H1641l345-178.2-13.7-43.3m155.1-17.2L1972.2,2416m155.2-17.1-3.1-21.9m-152.1,39-13.2-39"/><path id="Path-17" data-name="Path" class="cls-2" d="M1213.1,1276.7,1114.5,1393c-13.3,13.7-15,43.7,22.7,21.7-3.9,14.8-4.1,40.8,26.6,26.6-10.3,13.4-4.3,40.4,22.7,18.7-1,11.5,3,31.5,26.6,19.7,3.9,0,35.8-38.8,51.3-58.2,0,0-3.8,36.5-5.5,58.2s23.3,26.6,30.1-11.8c.9-3.8,13.5-65.4,16.8-89.7l22.7-36.5"/><path id="Path-18" data-name="Path" class="cls-2" d="M2333.3,1325l81.9,128.6c11.1,15.4,0,43.3-25.4,18.4,1.9,15.2-1.4,41-30,22.8,9.6,17.5-5.9,36.1-25,15.5-.6,11.5-7.2,30.8-29,15.9-3.9-.5-30.2-43.3-42.9-64.6l-2.5,58.4c-.9,16.5-25,19.9-28.2-15.8-.4-3.9-4.5-66.6-4.5-91.2l-17.5-39.2"/><path id="Shape-5" data-name="Shape" class="cls-1" d="M1185.1,1462.6l49.2-56.9m-71.8,37.2,40-52.1m-65.8,24.1,43.4-48"/><path id="Shape-6" data-name="Shape" class="cls-1" d="M2336.3,1510.6l-41.2-60.8m66,46.6-32.6-57m62,32.7-36.5-53.5"/><path id="Path-19" data-name="Path" d="M1783.8,696.8v55.4s-50.4,5.9-80.2,14.7-76.9,35.6-76.9,35.6c-10-22.7-9.7-63.7-7.4-72.9,5.7-22.3,37.2-37.1,47.2-37.2,2-13.3,11.7-13.5,16.3-12a45.17,45.17,0,0,1,2.6-26.5c13.5-26.6,41.1-24,53.3-19.4-18.6-43.7,17.3-66.2,37.6-72,2.1-5,8.2-16.7,16.2-23.1,13.8-12.6,37.3-5.3,47.3-.1,28.7-11.1,38.1,8.4,39.2,19.6l9,3.5c27.6,12.6,18.6,40.3,10.7,52.5.5.1,15.6,10.9,22.1,18.4,18.7,21.5,7.3,52.9-3.4,63.4a129.24,129.24,0,0,1,23.9,18.1c8.9,8.7,12.2,18.5,0,30.4-36.4,0-58.7-.6-89-.6v-4.9c-4.6.9-18.5,2.9-30.4.6-21.5-4.1-31.3-29.5-35.5-41.6,21.9,24.5,39.2,24.8,51.2,21.2,17.8-5.3,34.8-31.9,41.1-45.5-18.7-12.4-12.9-32.6-7.7-41.1-1.5,1.1-7.5,2.7-19.5-.2-19.8-4.5-16.7-18.9-12.6-25.5-19.8,2.9-27.2-9.7-28.4-16.4-9.8,21.2-25.3,20.7-31.9,17.7C1764.3,644.9,1776.8,684.1,1783.8,696.8Z"/><path id="Path-20" data-name="Path" class="cls-1" d="M1776.4,616.5c9.5-.3,20.2,4,25.3,15.2,6.9,15.1,4.5,34.9-7.9,47.7,1.2.3,13.8-.3,24.3-9.4"/><path id="Path-21" data-name="Path" class="cls-1" d="M1825.2,619.3c6.1-3.2,20.7-6,29.8,8.5"/><path id="Path-22" data-name="Path" class="cls-1" d="M1817.7,692c3.8.8,12.8.5,18.5-7"/><path id="Path-23" data-name="Path" class="cls-1" d="M1826.5,640c4.1-6,15.5-14.8,28.4-1.9"/><path id="Path-24" data-name="Path" class="cls-1" d="M1774.4,640.5c4.6-5.6,16.8-13.3,28.4.6"/><circle id="Oval-6" data-name="Oval" cx="1840.6" cy="638.3" r="5.8"/><circle id="Oval-7" data-name="Oval" cx="1788.6" cy="640.1" r="5.8"/><path id="Path-25" data-name="Path" class="cls-4" d="M1553,868.4c71.5-91.1,183.2-117.1,230.1-118.7l39.1,20.2,30.8-27.5h85.6c75.4,2.9,113.4,53.8,133.2,84.1l283,521.9c-14.7,0-45,3.7-49,18.4-4.9,18.4-25.7,29.4-63.7,29.4-30.4,0-38.8,23.7-39.2,35.5l-204.4-405.2,41.6,217.9c-4.5-7.8-25-25.7-71-35.5-57.5-12.2-67.3,34.3-134.7,35.5s-58.8-57.5-104.1-35.5c-77.4,36.2-103.2,15.1-106.5,0l30.6-193.4-322,380.7c1.6-11.8-3.2-37.9-35.5-47.7-40.4-12.2-38-17.1-52.6-44.1-11.8-21.5-31.8-24.5-40.4-23.3C1290.7,1181.4,1481.6,959.5,1553,868.4Z"/><path id="Shape-7" data-name="Shape" class="cls-1" d="M1658.5,998.1l18.9-61.5m313.2,61.5-14.2-61.5"/><path id="Path-26" data-name="Path" class="cls-2" d="M1816.4,780.6c-30.4,24.8-81.7,77.8-43.7,92.1S1817.7,817.2,1816.4,780.6Z"/><path id="Path-27" data-name="Path" class="cls-2" d="M1822.2,781.1c-8.5,38.3-15.8,111.7,22.9,99.4S1846,809.1,1822.2,781.1Z"/><polygon id="Path-28" data-name="Path" class="cls-2" points="2128.6 2192.2 2222.2 1702 2516.7 1702 2610.1 2192.2 2128.6 2192.2"/><polygon id="Path-29" data-name="Path" class="cls-5" points="607.6 1866.3 962.2 1515.1 1205 1681.8 1004.5 2138.8 607.6 1866.3"/><path id="Shape-8" data-name="Shape" class="cls-2" d="M2236.7,1701.9l58.6-185.8m118.1-34.8,79,220.6"/><path id="Shape-9" data-name="Shape" class="cls-2" d="M974.2,1523.3l135-102.7m136.6,23.8L1185,1668"/><line id="Path-30" data-name="Path" class="cls-2" x1="2416.4" y1="1472.2" x2="2572" y2="1745.4"/><polyline id="Path-31" data-name="Path" class="cls-2" points="2524 1743.1 2685.7 1743.1 2787.6 2278.3 2260.1 2278.3 2277.1 2189.4"/><polygon id="Path-32" data-name="Path" points="1429.3 2387.5 1358.9 2357.6 1364.7 2344.6 1394.8 2359 1512.1 1822.4 1692.2 1604.2 1711.1 1700.9 1543.8 1838.2 1429.3 2387.5"/></g></g></g></svg>