<svg id="Layer_1" data-name="Layer 1" xmlns="http://www.w3.org/2000/svg" viewBox="0 0 2563 2504"><defs><style>.cls-1{fill:#94c2f8;}</style></defs><g id="Page-1"><g id="_2" data-name="2"><g id="Background"><g id="Shape"><path class="cls-1" d="M2091.2 2454c-19.1.0-36.1-9.4-46.1-19l-.1-.1c-1.5-1.5-3.1-3.3-4.7-5.2a45.84 45.84.0 0 1-10.8 8.4 29.35 29.35.0 0 1-11.1 3.8h-1.1a3.19 3.19.0 0 1-1.4.3 22.86 22.86.0 0 1-7.6-1.2 3.07 3.07.0 0 1-1.5-1 3.92 3.92.0 0 1-1.8-.4 27.76 27.76.0 0 1-5.4-3.5 4.61 4.61.0 0 1-1.5-2.6 3.85 3.85.0 0 1-2.6-1.3c-8.1-8.6-18.5-27.6-23.4-54.9a4 4 0 1 1 7.8-1.4c2.9 16.1 10.3 39 21.4 50.9a3.86 3.86.0 0 1 1.1 2.2 3.6 3.6.0 0 1 2.2.9 20.65 20.65.0 0 0 4 2.5 4.44 4.44.0 0 1 1.1.8 6.75 6.75.0 0 1 1.4.2 15.42 15.42.0 0 0 5 .8 1.7 1.7.0 0 1 .7.1 3.55 3.55.0 0 1 1-.2 20.39 20.39.0 0 0 7.9-2.8 38.26 38.26.0 0 0 9.6-7.7c-14-17.9-29.5-45.2-24-66.8 2.7-10.8 7.4-16.5 13.9-17.1 8.7-.7 17 8.9 21.4 18.7l.1.1c6.2 15.4 11.7 44.4-1.1 64.8 1.9 2.2 3.7 4.2 5.5 6 11.1 10.6 31.7 20.9 53.5 15a4.24 4.24.0 0 1 2.5.1 3.82 3.82.0 0 1 2-1.5c1-.4 2-.7 3-1.2a2.77 2.77.0 0 1 1.3-.3 3.59 3.59.0 0 1 1-.7 52.94 52.94.0 0 0 5.2-2.9 3.7 3.7.0 0 1 1.1-.5l.9-.9a45 45 0 0 0 4.9-3.7 4.05 4.05.0 0 1 .9-.5 6.47 6.47.0 0 1 .8-.9 80.12 80.12.0 0 0 9.6-9.7 4 4 0 0 1 6.1 5.1 97.48 97.48.0 0 1-10.6 10.7l-.9.6a3.92 3.92.0 0 1-.8 1c-2 1.6-3.8 3-5.5 4.1a6.12 6.12.0 0 1-1.2.5 2.84 2.84.0 0 1-1 .9 66.52 66.52.0 0 1-5.8 3.3 3.71 3.71.0 0 1-1.4.4 4.44 4.44.0 0 1-1.1.8c-1.3.6-2.5 1-3.6 1.4a4.46 4.46.0 0 1-2.8.0 3.51 3.51.0 0 1-2.3 1.6A65 65 0 0 1 2091.2 2454zm-65.3-106.5h-.3c-2.5.2-5.1 4.4-6.8 11.1-4.4 17.1 7.9 40.6 21 57.9a47.92 47.92.0 0 0 5-19 87 87 0 0 0-5.9-36C2035.6 2353.8 2029.7 2347.5 2025.9 2347.5z"/></g><g id="Shape-2" data-name="Shape"><path d="M1614.7 2125.1a4 4 0 0 1 0-8c3.1.0 6.4.0 9.7-.2a4.09 4.09.0 0 1 3.8 2.1 3.91 3.91.0 0 1 3.4-2.6 165.49 165.49.0 0 0 17-2.4 3.9 3.9.0 0 0 6.9-1.3c4.9-1.1 10.2-2.6 17.3-4.8a4.12 4.12.0 0 1 3.6.6 3.83 3.83.0 0 1 2.5-2.6 250.42 250.42.0 0 0 36-16.3 4 4 0 1 1 3.8 7 254.8 254.8.0 0 1-37.2 16.7 4 4 0 0 1-3.7-.5 4.12 4.12.0 0 1-2.6 2.7c-7.3 2.3-12.8 3.8-17.9 5a4.14 4.14.0 0 1-4-1.4 3.89 3.89.0 0 1-3.1 2.8c-6 1.2-11.8 2-17.8 2.6a3.83 3.83.0 0 1-3.9-2.1 3.89 3.89.0 0 1-3.5 2.6C1621.3 2125.1 1618 2125.1 1614.7 2125.1zm-14.2-.9h-.4c-69.4-7.3-116.9-59.7-136.6-102.3l-.1-.1c-1.9-4.6-5.5-13.7-9.6-25.9a116 116 0 0 1-41.9 14.2 76.38 76.38.0 0 1-29.6-1.2 4 4 0 0 1-2.6-2.1 4 4 0 0 1-3.4.3 57.75 57.75.0 0 1-16.7-9.7 4 4 0 1 1 5.1-6.1 46 46 0 0 0 14.3 8.3 4 4 0 0 1 2.2 2 3.88 3.88.0 0 1 3-.4 67.9 67.9.0 0 0 26.4 1 107.58 107.58.0 0 0 40.5-14.1c-6.4-20.5-13.5-47.8-17.1-77.7-6.3-52.4.2-92.8 19.5-120 16-22.5 31.3-31.8 45.4-27.7 9.2 2.7 17.2 11.3 23 24.8 4.8 11.2 7.9 25.4 8.6 39.1v.1c.6 46.1-14.6 127.4-70 164.8 4.2 12.9 8 22.4 10 27.1 18.8 40.7 64.2 90.6 130.2 97.6a4 4 0 0 1 3.6 4.4A3.69 3.69.0 0 1 1600.5 2124.2zm-107.8-354.5c-9.5.0-20.6 8.6-32.4 25.3-17.9 25.1-24.1 64.7-18.1 114.4a431 431 0 0 0 16.1 74.2c51-36.1 65.1-112.9 64.5-156.6-1.2-24.1-10.7-52.1-25.9-56.6A10 10 0 0 0 1492.7 1769.7zm-136.6 222.7a4.34 4.34.0 0 1-3-1.3 78.61 78.61.0 0 1-9.7-13.5 4 4 0 1 1 7-4 71.69 71.69.0 0 0 8.7 12.1 4 4 0 0 1-.3 5.6A3.62 3.62.0 0 1 1356.1 1992.4zm-15.5-25.6a3.88 3.88.0 0 1-3.7-2.5c-8.5-21.1-12.8-48.8-12.8-82.2a441.42 441.42.0 0 1 7.8-80.7 4 4 0 0 1 7.9 1.5c-14 73.7-6.8 130.2 4.6 158.5a4.06 4.06.0 0 1-2.2 5.2A10 10 0 0 1 1340.6 1966.8z"/></g><g id="Oval"><path d="M2049.2 1263.5a9.3 9.3.0 1 1 9.3-9.3A9.35 9.35.0 0 1 2049.2 1263.5zm0-10.6a1.3 1.3.0 1 0 1.3 1.3A1.32 1.32.0 0 0 2049.2 1252.9z"/></g><g id="Oval-2" data-name="Oval"><path d="M196.2 979.7a9.3 9.3.0 1 1 9.3-9.3A9.35 9.35.0 0 1 196.2 979.7zm0-10.6a1.3 1.3.0 1 0 1.3 1.3A1.32 1.32.0 0 0 196.2 969.1z"/></g><g id="Oval-3" data-name="Oval"><path d="M532.1 2355.6a9.3 9.3.0 1 1 9.3-9.3A9.35 9.35.0 0 1 532.1 2355.6zm0-10.6a1.3 1.3.0 1 0 1.3 1.3A1.32 1.32.0 0 0 532.1 2345z"/></g><g id="Oval-4" data-name="Oval"><path d="M580.2 261.8a9.3 9.3.0 1 1 9.3-9.3A9.35 9.35.0 0 1 580.2 261.8zm0-10.6a1.3 1.3.0 1 0 1.3 1.3A1.32 1.32.0 0 0 580.2 251.2z"/></g><g id="Path"><path d="M2558.8 1341.4a3.41 3.41.0 0 1-2.3-.8l-29.4-21.3a4 4 0 1 1 4.7-6.5l29.4 21.3a4 4 0 0 1 .9 5.6A4.17 4.17.0 0 1 2558.8 1341.4z"/></g><g id="Path-2" data-name="Path"><path d="M853.7 742.4a3.84 3.84.0 0 1-2.4-.8l-29.4-21.4a4 4 0 1 1 4.7-6.5L856 735.1a4 4 0 0 1 .9 5.6A3.85 3.85.0 0 1 853.7 742.4z"/></g><g id="Path-3" data-name="Path"><path d="M181.3 1808.4a4 4 0 0 1-2.3-7.3l29.8-20.8a4 4 0 1 1 4.6 6.6l-29.8 20.8A3.89 3.89.0 0 1 181.3 1808.4z"/></g><g id="Path-4" data-name="Path"><path d="M2125.7 2052.6a4 4 0 0 1-2.3-7.3l29.8-20.8a4 4 0 1 1 4.6 6.6l-29.8 20.8A3.89 3.89.0 0 1 2125.7 2052.6z"/></g><g id="Path-5" data-name="Path"><path d="M115.7 404.8a4 4 0 0 1-2.3-7.3l29.8-20.8a4 4 0 1 1 4.6 6.6L118 404.1A3.89 3.89.0 0 1 115.7 404.8z"/></g><g id="Path-6" data-name="Path"><path d="M1624.3 81.6a4 4 0 0 1-1.4-7.7l33.8-13.3a4 4 0 0 1 2.9 7.5l-33.8 13.3A7.72 7.72.0 0 1 1624.3 81.6z"/></g><g id="Path-7" data-name="Path"><path d="M2385.6 38.7a4.05 4.05.0 0 1-3.4-1.8L2362.4 6.4a3.92 3.92.0 0 1 1.2-5.5 3.92 3.92.0 0 1 5.5 1.2l19.8 30.5a3.94 3.94.0 0 1-3.3 6.1z"/></g><g id="Path-8" data-name="Path"><path d="M24.2 2390.1a4.05 4.05.0 0 1-3.4-1.8L1.1 2357.8a3.92 3.92.0 0 1 1.2-5.5 3.92 3.92.0 0 1 5.5 1.2L27.5 2384a3.94 3.94.0 0 1-3.3 6.1z"/></g><g id="Shape-3" data-name="Shape"><path d="M671.9 2294.4l12.6-284.9 8 .4-12.2 276.3 373.7-10.9 765.8-22.2V1618.7H1219.2v-8h600.6V1480.2H1512.4v-8h315.4v142.4h0v646.3l-773.6 22.4zm296-675.7H901.7v-8h66.2z"/></g><g id="Path-9" data-name="Path"><path class="cls-1" d="M650.9 78.9 678.3 226.8 794.9 178.4 686.8 263.3 783.4 310.8 671.4 289.9 694.9 428.8 637 293.7 535.2 404 602.3 278.3 501.6 244.5 597.9 238.5 569 176.5 625.1 220.9 650.9 78.9z"/></g><g id="Path-10" data-name="Path"><path d="M597.8 1752H381.4V1124.5H848.6V975.7H1165.1v8H856.6V1132.5H389.4V1744H597.8v8z"/></g><g id="Shape-4" data-name="Shape"><path d="M1044.3 251.5h-70a4 4 0 0 1 0-8h70a4 4 0 0 1 0 8zm-100.6.0H868.2a4 4 0 0 1 0-8h75.5a4 4 0 0 1 0 8z"/></g><g id="Shape-5" data-name="Shape"><path d="M2269.3 1275.5a4 4 0 0 1-4-4v-70a4 4 0 0 1 8 0v70a4 4 0 0 1-4 4zm0-100.5a4 4 0 0 1-4-4v-75.6a4 4 0 0 1 8 0V1171a4 4 0 0 1-4 4z"/></g><g id="Shape-6" data-name="Shape"><path d="M2269.3 1489.6a4 4 0 0 1-4-4v-70a4 4 0 0 1 8 0v70a4 4 0 0 1-4 4zm0-100.6a4 4 0 0 1-4-4v-75.6a4 4 0 0 1 8 0V1385a4 4 0 0 1-4 4z"/></g><g id="Shape-7" data-name="Shape"><path d="M2269.3 1701a4 4 0 0 1-4-4v-70a4 4 0 0 1 8 0v70a4 4 0 0 1-4 4zm0-100.7a4 4 0 0 1-4-4v-75.5a4 4 0 0 1 8 0v75.5a4 4 0 0 1-4 4z"/></g><g id="Shape-8" data-name="Shape"><path d="M2228.7 1701h-70a4 4 0 0 1 0-8h70a4 4 0 0 1 0 8zm-100.6.0h-75.6a4 4 0 0 1 0-8h75.6a4 4 0 0 1 0 8z"/></g><g id="Shape-9" data-name="Shape"><path d="M2017.3 1701h-70a4 4 0 0 1 0-8h70a4 4 0 1 1 0 8zm-100.7.0h-75.5a4 4 0 0 1 0-8h75.5a4 4 0 0 1 0 8z"/></g><g id="Shape-10" data-name="Shape"><path d="M1454 251.5h-70a4 4 0 0 1 0-8h70a4 4 0 0 1 0 8zm-100.6.0h-75.6a4 4 0 0 1 0-8h75.6a4 4 0 0 1 0 8z"/></g><g id="Path-11" data-name="Path"><path d="M1755.6 251.5h-75.5a4 4 0 0 1 0-8h75.5a4 4 0 0 1 0 8z"/></g><g id="Path-12" data-name="Path"><path d="M1760 251.5h-75.6a4 4 0 0 1 0-8H1760a4 4 0 0 1 0 8z"/></g><g id="Shape-11" data-name="Shape"><path d="M1762.2 452.6a4 4 0 0 1-4-4v-70a4 4 0 0 1 8 0v70a4 4 0 0 1-4 4zm0-100.6a4 4 0 0 1-4-4V272.4a4 4 0 1 1 8 0V348a4 4 0 0 1-4 4z"/></g><g id="Shape-12" data-name="Shape"><path d="M1248.5 251.5h-70a4 4 0 0 1 0-8h70a4 4 0 0 1 0 8zm-100.5.0h-75.6a4 4 0 0 1 0-8H1148a4 4 0 0 1 0 8z"/></g><g id="Shape-13" data-name="Shape"><path d="M1658.2 251.5h-70a4 4 0 0 1 0-8h70a4 4 0 0 1 0 8zm-100.7.0H1482a4 4 0 0 1 0-8h75.5a4 4 0 0 1 0 8z"/></g><g id="Path-13" data-name="Path"><path d="M1762.2 557a4 4 0 0 1-4-4V477.4a4 4 0 1 1 8 0V553a4 4 0 0 1-4 4z"/></g><g id="Shape-14" data-name="Shape"><path d="M1982.3 557h-70a4 4 0 0 1 0-8h70a4 4 0 1 1 0 8zm-100.7.0h-75.5a4 4 0 0 1 0-8h75.5a4 4 0 0 1 0 8z"/></g><g id="Oval-5" data-name="Oval"><circle cx="1513.2" cy="1557.1" r="28.4"/></g><g id="Oval-6" data-name="Oval"><circle cx="1598" cy="1557.1" r="28.4"/></g><g id="Oval-7" data-name="Oval"><circle cx="1690.4" cy="1557.1" r="28.4"/></g></g><g id="Girl"><g id="Path-14" data-name="Path"><path d="M1664.4 1480.3H1171.9L1170.8 1478.5 962.5 1161 1248 1127.4l1 8L976.3 1167.4 1176.3 1472.3h479.5L1630.9 1128.8 1638.9 1128.2 1664.4 1480.3z"/></g><g id="Shape-15" data-name="Shape"><path d="M2196.8 1075.4 2090.6 1065a4 4 0 1 1 .8-8l102.8 10c68.1-56.6 109.6-91.4 115.1-96.6.8-2.9 1.2-6.4-.6-8.4s-5.2-2.6-8.2-2.3l-50.4 45.1a4 4 0 1 1-5.3-5.9l50.3-45c.7-4.6.2-7.9-1.5-9.4-1.9-1.7-5.8-1.5-9-.6l-52.1 47.4a4 4 0 0 1-5.4-6l52-47.3c1.4-5 1.4-8.6.0-9.9-1.7-1.5-6.8-1-11.8 1.2l-53.5 46.2a4 4 0 0 1-5.2-6l52.8-45.6c.8-4.9.3-8.4-1.3-9.7-2.1-1.7-6.8-.8-10.4.8l-67.2 52.7L2149 964c-1.9 16.9-10.6 45.7-33 56.6a4 4 0 0 1-3.5-7.1c21-10.2 28.1-39.8 28.9-54v-.2a5 5 0 0 1 .3-1.3h0a3.25 3.25.0 0 1 1-1.3 3.15 3.15.0 0 1 1.5-.8c17.3-8 37.6-18.4 42.2-23 4.1-6.4 5.6-11.5 4-14.1s-6.3-3.3-10.4-3.1l-74.9 23.2L2055 979.7a4 4 0 0 1-5-6.2l51.3-41.8 77.2-24h.4c3.2-.3 13.9-.6 18.4 6.9 3.3 5.6 1.9 13.3-4.4 22.9l-.2.3-.2.3c-4.6 4.9-20.5 13.2-32.7 19.2l20.1 2.3 65.4-51.3.4-.2c2.8-1.3 12.6-5.2 19.1-.1 3.3 2.6 4.8 6.6 4.8 12.2 4.6-1.2 10.6-1.5 14.7 2.1 3.2 2.8 4.3 7.2 3.5 13 3.5-.2 7.7.3 11 3.2s4.8 7.4 4.5 13.3c4.2.3 8.6 1.7 11.5 5.1 3.4 3.9 4.1 9.4 2.1 16.3-.1 1.7-1.5 2.8-14.2 13.7-7.3 6.2-17.8 15.1-31.2 26.3-24 20.1-53.2 44.4-73.4 61.2z"/></g><g id="Path-15" data-name="Path"><path d="M542.2 1415c-6.9.0-18-1.7-21.2-12-2.6-8.4 2.1-19.5 10.2-24.1l.3-.1 48.9-23.1-117.6-19.1-.2-.1c-12-3.4-15.3-11.6-14.4-18.2 1.1-8 7.9-14.2 15.4-14.2h17.6c-3.3-1.6-6.3-3.1-8.1-4.2a25.35 25.35.0 0 1-9.1-10c-4.5-10.5-.6-17 2.1-20a19.43 19.43.0 0 1 13.4-6c-1.8-7.7-.1-14.4 5-19.1a23.34 23.34.0 0 1 16.3-5.6 9.56 9.56.0 0 1 1.1-7.6c3.2-5 10.9-6.4 21.8-3.8L699 1264.4l18.9-5.9 2.4 7.6-20.9 6.5-177.5-37c-9.3-2.2-12.8-.5-13.3.3s0 3.1 3 6.9l-5.1 6c-4.8-2.7-12.5-1.9-16.6 1.9-4.9 4.5-3.2 11.3-.9 16.2l3.8 8.2-8.6-2.7c-4.3-1.3-9.4-.1-12.1 2.9-3.2 3.5-2.1 8.2-.7 11.5a16.78 16.78.0 0 0 6 6.4c3.8 2.3 16.6 8.1 23.9 11.3l-1.6 7.7H463.6c-3.5.0-7 3.3-7.5 7.3-.6 4.3 2.4 7.6 8.4 9.3l142.6 23.1-72.1 34c-4.8 2.8-7.9 10-6.4 14.8 1.9 6.3 10.8 6.6 15.9 6.3h.3c11.3.0 102.7-15.3 177.8-28.4l41.7-20.8 3.6 7.2-42.7 21.4-.6.1c-27.3 4.8-163.7 28.5-179.6 28.7A12.74 12.74.0 0 0 542.2 1415z"/></g><g id="Shape-16" data-name="Shape"><path d="M565.1 1320.1h-.5l-69.4-8.5a4 4 0 0 1-3.5-4.5 4.11 4.11.0 0 1 4.5-3.5l69.4 8.5a4 4 0 0 1 3.5 4.5 4.08 4.08.0 0 1-4 3.5zm17.3-17.5a5 5 0 0 1-1.2-.2L483.4 1272a4 4 0 0 1 2.4-7.6l97.8 30.4a4 4 0 0 1-1.2 7.8zm15.9-25.9a5 5 0 0 1-1.2-.2l-90.2-27.7a4 4 0 0 1 2.4-7.6l90.2 27.7a4 4 0 0 1-1.2 7.8z"/></g><g id="Path-16" data-name="Path"><path d="M1502.7 618.1l-9.5 45.4 151.1 35.2v-17c-.3-23-19.9-33.6-29.6-36.1 1.2-13.4-8.2-15.9-13.1-15.5a45.74 45.74.0 0 0 3.7-26.4c-6.9-29-34.3-33-47.2-31.3 28.3-38.1-1.4-68.4-19.8-78.8-.9-5.4-4.1-18.1-10.3-26.2-10.5-15.5-35-13.9-45.9-11.2-25.2-17.5-39-.7-42.7 9.9l-9.6 1.3c-29.8 5.8-27.5 34.8-22.7 48.5-.5.0-17.7 7-25.8 12.8-23.2 16.6-19.4 49.7-11.6 62.4a138.92 138.92.0 0 0-27.5 12c-30.6 19.6-20.2 54.8-11.1 69.2l94.2-13 3.2-9.2c.9 1.1 6.1 3.5 20.2 4.7 21.8 1 41-20.3 47.9-31.1-27.1 18.7-44 14.9-54.7 8.7-16-9.3-26.3-39.1-29.3-53.8 21.1-7.7 20.2-28.7 17.1-38.2 1.2 1.5 6.7 4.4 19 4.4 20.3.3 20.6-14.4 18.3-21.8 18.6 7.4 28.8-3.1 31.5-9.3 4.6 22.9 19.8 26 26.8 24.7C1530.7 576.4 1512.5 607.4 1502.7 618.1z"/></g><g id="Path-17" data-name="Path"><path d="M1594.3 1439.7l-463.5-28.6a3.87 3.87.0 0 1-3.7-4.2 3.93 3.93.0 0 1 4.2-3.7l451.5 27.8-86.1-246.2a4 4 0 1 1 7.6-2.6z"/></g><g id="Path-18" data-name="Path"><path class="cls-1" d="M1304.5 677.9s32.9-10.5 98.2-15.8l29.2 88.6 61.7-87.1c27.7 4.8 95.5 18 145.4 32.6s81.7 60.7 91.3 81.9l121.1 273 203.5-78.4 58.6 126.1c-65.2 41.4-208.9 127.1-262.1 139-66.7 17.5-108.6-34.4-121.1-62.5L1628 934l11 195.6H1250.8l-282.1 33.1s-27 6.5-47.4 19.5c-75.6 48-154 185.6-154 185.6l-53.6-108.2 361.4-208.5c35.1-79.1 109.2-244.4 125.1-273C1224.7 720 1267.3 687.3 1304.5 677.9z"/></g><g id="Path-19" data-name="Path"><path d="M1500.9 607.1h-7c-2.6.0-16-4.3-24.8-16.6a4 4 0 1 1 6.5-4.7 37 37 0 0 0 10.7 9.8 48.43 48.43.0 0 1 7.9-43.3c9.1-11.6 22.7-12.9 32.4-10.3a4 4 0 0 1-2.1 7.7c-7.2-2-17.3-1-24 7.5-9.7 12.4-11 30.4-3.2 43.8z"/></g><g id="Path-20" data-name="Path"><path d="M1446.5 542.5a4.18 4.18.0 0 1-2.9-1.2 4.08 4.08.0 0 1 .1-5.7c7.9-7.7 16-8.6 21.4-8a27.79 27.79.0 0 1 15.1 6.6 4 4 0 1 1-5.3 5.9c-.1-.1-12.9-11.2-25.6 1.2A4 4 0 0 1 1446.5 542.5z"/></g><g id="Path-21" data-name="Path"><path d="M1467.7 613.7h-.1c-4.9-.1-15.4-3.1-19.9-13.5a4 4 0 0 1 7.4-3.2c3 6.9 10.2 8.6 12.7 8.7a4 4 0 0 1-.1 8z"/></g><g id="Path-22" data-name="Path"><path d="M1471.3 561.1a4 4 0 0 1-3.7-2.6c-1.2-3.2-4.2-7.5-8.6-9-3.7-1.2-7.9-.4-12.7 2.5a4 4 0 1 1-4.2-6.8c6.9-4.2 13.4-5.3 19.4-3.3 7 2.4 11.6 8.7 13.5 13.8a4 4 0 0 1-2.3 5.2A5.9 5.9.0 0 1 1471.3 561.1z"/></g><g id="Path-23" data-name="Path"><path d="M1521.9 573.8a4 4 0 0 1-3.6-2.2c-1.5-3.1-4.9-7.1-9.4-8.2-3.8-.9-7.9.3-12.4 3.7a4 4 0 1 1-4.8-6.4c6.5-4.8 12.9-6.5 19.1-5 7.2 1.7 12.3 7.6 14.7 12.5a4 4 0 0 1-1.8 5.4A11 11 0 0 1 1521.9 573.8z"/></g><g id="Oval-8" data-name="Oval"><circle cx="1458" cy="552.1" r="5.8"/></g><g id="Oval-9" data-name="Oval"><circle cx="1508.2" cy="566.1" r="5.8"/></g><g id="Path-24" data-name="Path"><path d="M868.1 2493.4 1090.5 2132c-22.3-87-53.5-213.1-82.3-337.4l274.7 27.7 120.8 390.2-61.5 35.1-30.7-46.8v60z"/></g><g id="Shape-17" data-name="Shape"><path d="M857.1 2503.6l229.1-372.4c-13.3-51.9-47-185-81.8-335.3.0-.1-.1-.3-.1-.4-36.3-156.3-78.8-353.8-75.8-407 4.8-85 77.2-113.4 114.9-116.5a4 4 0 1 1 .6 8c-35.2 2.9-103 29.4-107.5 108.9-2.3 41.2 23.6 180.2 74.9 401.9l265.8 26.8L1171.9 1477a4 4 0 1 1 7.6-2.4l107 345.9c.1.2.1.4.2.5l121.7 393.2-67.6 38.6-25.4-38.7v49l-2.1 1.1zM1013.4 1799c34.8 149.9 68.2 281.7 81 331.9l.4 1.6-.9 1.4-214.8 349 428.4-224.7v-71l36 54.9 55.4-31.6-119.1-384.6z"/></g><g id="Path-25" data-name="Path"><path d="M54 1938.3l413.4-95.9c46.2-77.1 113.9-187.9 182.1-295.8l173.4 214.8L630.3 2121.6l-68.2-19 11.7-54.8L531.1 2090z"/></g><g id="Shape-18" data-name="Shape"><path d="M632.3 2126.3l-74.9-20.9 9.7-45.4-34.9 34.5-2.3-.7-491-156.1 425.8-98.9c28-46.7 99.9-165.7 181.2-294.3.0-.1.1-.1.1-.2 85.8-135.8 196.5-305 236.1-340 33.2-29.4 48.2-36.4 89.1-42.1a4 4 0 0 1 1.1 7.9c-39.4 5.4-52.9 11.8-84.9 40.1-30.7 27.1-111.3 143.2-233.1 335.9l167.9 208 123.6-231.4a4 4 0 1 1 7 3.8L826.4 1763.2h0zm-65.5-26.5 61.5 17.1 189.8-355L649.8 1553.4c-80.9 128.2-152 245.9-179.1 291l-.9 1.5L69 1939l461 146.5 50.5-49.9z"/></g><g id="Path-26" data-name="Path"><path d="M1249.9 1135.4a1.7 1.7.0 0 1-.7-.1 4 4 0 0 1-3.2-4.6l40.9-228.1a4 4 0 0 1 7.8 1.4l-40.9 228.1A4 4 0 0 1 1249.9 1135.4z"/></g><g id="Path-27" data-name="Path"><path d="M1628.3 932.9a4 4 0 0 1-4-3.7l-3.6-46.9a4 4 0 0 1 8-.6l3.6 46.9a4 4 0 0 1-3.7 4.3z"/></g></g><g id="Money"><g id="Oval-10" data-name="Oval"><path d="M2269.3 869a232.51 232.51.0 1 1 164.3-68.1A230.78 230.78.0 0 1 2269.3 869zm0-456.8A224.31 224.31.0 1 0 2428 477.9 223 223 0 0 0 2269.3 412.2z"/></g><g id="Oval-11" data-name="Oval"><path d="M2269.3 790.5c-88.1.0-159.7-71.6-159.7-159.7s71.6-159.7 159.7-159.7S2429 542.7 2429 630.8 2357.4 790.5 2269.3 790.5zm0-311.4c-83.6.0-151.7 68.1-151.7 151.7s68.1 151.7 151.7 151.7S2421 714.4 2421 630.8 2352.9 479.1 2269.3 479.1z"/></g><g id="Shape-19" data-name="Shape"><path d="M2329.7 675.5c-19.1.0-36.1-9.4-46.1-19l-.1-.1c-1.5-1.5-3.1-3.3-4.8-5.2a43.88 43.88.0 0 1-10.8 8.4 30.23 30.23.0 0 1-10.9 3.8 3.33 3.33.0 0 1-1.4-.1 5 5 0 0 1-1.2.2 22.86 22.86.0 0 1-7.6-1.2 3.07 3.07.0 0 1-1.5-1 3.29 3.29.0 0 1-1.7-.4 27.76 27.76.0 0 1-5.4-3.5 4.7 4.7.0 0 1-1.5-2.5 4.07 4.07.0 0 1-2.8-1.3c-8.1-8.6-18.5-27.6-23.4-54.9a4 4 0 0 1 7.8-1.4c2.9 16.1 10.3 39 21.4 50.9a3.73 3.73.0 0 1 1 2.1 3.52 3.52.0 0 1 2.3.9 20.65 20.65.0 0 0 4 2.5 4.44 4.44.0 0 1 1.1.8 6.88 6.88.0 0 1 1.3.2 15.42 15.42.0 0 0 5 .8 2.77 2.77.0 0 1 .9.1c.2-.1.5-.1.7-.2a22.54 22.54.0 0 0 8-2.8 35.64 35.64.0 0 0 9.6-7.8c-13.9-17.9-29.4-45.1-24-66.8 2.8-10.8 7.4-16.5 13.9-17.1 8.7-.7 17 8.9 21.4 18.7l.1.1c6.2 15.4 11.7 44.3-1.2 64.8 1.9 2.2 3.7 4.2 5.5 6.1 11.1 10.6 31.7 20.9 53.5 15a4.19 4.19.0 0 1 2.5.1 3.82 3.82.0 0 1 2-1.5l1.5-.6c.6-.2 1.2-.5 1.8-.7a2.92 2.92.0 0 1 .9-.2 4.44 4.44.0 0 1 1.1-.8 52.94 52.94.0 0 0 5.2-2.9 6.12 6.12.0 0 1 1.2-.5 4.62 4.62.0 0 1 .7-.7c1.6-1.1 3.4-2.4 5-3.7l.9-.6a3.92 3.92.0 0 1 .8-1 80.12 80.12.0 0 0 9.6-9.7 4 4 0 0 1 6.1 5.1 97.48 97.48.0 0 1-10.6 10.7 2.07 2.07.0 0 1-1 .6 2.84 2.84.0 0 1-.9 1c-1.8 1.5-3.7 2.8-5.4 4.1a3.51 3.51.0 0 1-1.4.6 6.47 6.47.0 0 1-.9.8 66.52 66.52.0 0 1-5.8 3.3 6.47 6.47.0 0 1-1.3.4 4 4 0 0 1-1.5 1l-1.5.6c-.6.2-1.2.5-1.8.7a4.46 4.46.0 0 1-2.8.0 3.51 3.51.0 0 1-2.3 1.6A51.29 51.29.0 0 1 2329.7 675.5zM2264.4 569h-.3c-2.5.2-5.1 4.4-6.8 11.1-4.3 17.1 7.9 40.6 21 57.9 9.3-17.6 4.5-41.8-.8-55C2274.1 575.3 2268.2 569 2264.4 569z"/></g></g></g></g></svg>