<svg xmlns="http://www.w3.org/2000/svg" viewBox="0 0 922.51 828.16"><defs><style>.cls-1{fill:#d09ef3;}.cls-2{fill:#faf57f;}</style></defs><g id="background"><g id="background-2" data-name="background"><path d="M117.6 782.27a8.46 8.46.0 1 1 8.45-8.46A8.47 8.47.0 0 1 117.6 782.27zm0-15.41a7 7 0 1 0 7 6.95A7 7 0 0 0 117.6 766.86z"/><circle class="cls-1" cx="431.21" cy="704.84" r="5.12"/><path d="M64.82 318.28a8.4 8.4.0 0 1-2.42-.36 8.22 8.22.0 1 1 10.27-5.46h0a8.21 8.21.0 0 1-7.85 5.82zm0-14.95a6.73 6.73.0 0 0-5.94 9.88 6.62 6.62.0 0 0 4 3.27A6.72 6.72.0 0 0 71.23 312h0a6.74 6.74.0 0 0-6.42-8.69z"/><circle class="cls-1" cx="273.04" cy="40.82" r="7.47"/><circle class="cls-1" cx="15.14" cy="589.79" r="14.39"/><path d="M771.16 79.54a9.5 9.5.0 1 1 1.74-.17A9.35 9.35.0 0 1 771.16 79.54zm0-17.29a8.11 8.11.0 0 0-1.46.14 7.89 7.89.0 1 0 8 12.21h0a7.9 7.9.0 0 0-6.5-12.35z"/><path d="M793.78 412.79a5.89 5.89.0 1 1 4.87-2.56h0A5.88 5.88.0 0 1 793.78 412.79zm0-10.28a4.4 4.4.0 1 0 2.47.77A4.34 4.34.0 0 0 793.8 402.51zm4.23 7.3h0z"/><path d="M57.33 99.28a.75.75.0 0 1-.53-.22l-27-27a.75.75.0 0 1 0-1.06l27.05-27a.74.74.0 0 1 1.06.0l27 27a.75.75.0 0 1 0 1.06l-27 27.05A.75.75.0 0 1 57.33 99.28zm-26-27.8 26 26 26-26-26-26z"/><path d="M202.48 682.54a.75.75.0 0 1-.53-.22l-18-18a.75.75.0 0 1 0-1.06l18-18a.75.75.0 0 1 1.06.0l18 18a.75.75.0 0 1 0 1.06l-18 18A.75.75.0 0 1 202.48 682.54zm-16.9-18.71 16.9 16.9 16.9-16.9-16.9-16.9z"/><path class="cls-1" d="M875.13 137.65h23.36v23.36H875.13z" transform="translate(154.15 670.81) rotate(-45)"/><path d="M868.25 670.92a.73.73.0 0 1-.6-.3L848.2 644.69a.75.75.0 0 1 .15-1.05l25.93-19.45a.74.74.0 0 1 .56-.14.71.71.0 0 1 .49.29l19.45 25.94a.72.72.0 0 1 .14.55.76.76.0 0 1-.29.5L868.7 670.77A.78.78.0 0 1 868.25 670.92zm-18.4-26.53 18.55 24.73 24.73-18.54-18.55-24.74z"/><path d="M847.28 252.5a.75.75.0 0 1-.46-.17.74.74.0 0 1-.12-1.05l15.1-18.94a.75.75.0 0 1 1.18.94l-15.11 18.93A.75.75.0 0 1 847.28 252.5z"/><path d="M90.48 516.86a.72.72.0 0 1-.46-.16.75.75.0 0 1-.12-1.06L105 496.71a.75.75.0 0 1 1.18.93L91.07 516.58A.74.74.0 0 1 90.48 516.86z"/><path d="M468.65 22.19a.75.75.0 0 1-.64-.36L455.41 1.14a.75.75.0 1 1 1.28-.78l12.6 20.69a.74.74.0 0 1-.25 1A.79.79.0 0 1 468.65 22.19z"/><path d="M363.91 664.27a.74.74.0 0 1-.52-.2l-17.65-16.59a.75.75.0 0 1 0-1.06.75.75.0 0 1 1.06.0L364.42 663a.75.75.0 0 1-.51 1.29z"/><path d="M921.76 453a.74.74.0 0 1-.47-.16L902.35 437.7a.75.75.0 0 1-.12-1.05.76.76.0 0 1 1.06-.12l18.93 15.11a.74.74.0 0 1 .12 1.05A.72.72.0 0 1 921.76 453z"/></g></g><g id="general"><g id="general-2" data-name="general"><g id="lines"><path class="cls-2" d="M862.23 329.44c6.44 7.93-3.67 35.53-20.83 40.72-12.06 3.65-27-4-46.4-3.13a22.38 22.38.0 0 0-10.61 2.65c-5.87 3.32-6.35 7.71-10.23 10.23-7.8 5.06-21.23-2.7-23.11-3.79C737 368 732.19 353.31 724 326.88c-1.17-3.77-2.25-7.25-3.21-10.48 17.19 8.32 36 11.71 51.48 7.36 20.77-5.83 30.47-24.59 42.28-19 8 3.82 6.83 13.67 17.38 19.92C845.08 332.5 857.29 323.36 862.23 329.44z"/><path class="cls-2" d="M657.05 41.79c3.05 9.86-1 21.76-8.64 26.47-11.71 7.24-22.24-8.44-42-6.86-14.81 1.19-19.83 10.88-35.61 24.9-10.43-15.25-14.42-34.66-8.88-40.12 4.83-4.78 15.85 2.15 21.77-4.49 4.81-5.4.19-12.93 5.57-18 4.48-4.22 12-3.13 15.86-2.57 11.1 1.6 12.44 7.8 21.84 8.13 7.62.26 8.84-3.73 15-2.51C649.24 28.16 655 35.06 657.05 41.79z"/><path class="cls-2" d="M640.77 184.32c3 9.18 3.29 19.36.0 28.42C633.81 231.64 612.3 242 592.17 242s-39.23-8.38-57.43-17S498.07 207.12 478 205.11c-45-4.5-86 27.87-131.13 31.46-38.27 3.05-75.14-14.81-113.44-17.55-21.08-1.5-44.71.85-60.83-12.83-12.79-10.86-16-29.61-10.95-45.76l57 14.46c16.57 4.2 34 8.41 50.53 4 22.31-5.9 37.65-25.84 57.05-38.33a95 95 0 0 1 84.4-8.54c27.1 10.54 49.46 33.69 78.34 37 39.38 4.54 77.5-29.57 115.73-19.15A53.26 53.26.0 0 1 640.77 184.32z"/><path class="cls-2" d="M473.73 567.1c4.95 16.58-5 35.5-20.51 43.08s-35 4.71-49.31-4.95c-19.33-13-35.1-38.5-58.08-34.53-8.47 1.47-15.59 7-22.83 11.61a131.39 131.39.0 0 1-82.37 20c-26.36-2.47-55.57-17.84-58.48-44.17-1.2-11 2.61-19.66 6.29-27.17a85.71 85.71.0 0 1 16.14-22.31c21 18.5 54.87 32.8 87.67 34.33 35 1.62 34.6-8.26 88.09-14.86 29.59-3.64 62.8.47 83.2 22.21A42.94 42.94.0 0 1 473.73 567.1z"/><path d="M668 398a34.87 34.87.0 0 1-6.15-.54c-12.3-2.19-23.53-11.21-28-22.46-2.24-5.67-1.79-9.46-1.35-13.12.38-3.22.74-6.26-1-10.38-6.69-16-34.31-25.82-52.77-18.69-6.31 2.43-10 6.38-13.34 9.87-3.92 4.15-7.62 8.06-14.6 8.13-9.72.12-22-6.12-24.67-15.51-1.91-6.65 1.68-12.28 5.15-17.73s7.2-11.29 5.66-18.46c-2.19-10.22-13.37-16.11-16.74-17.67-9.39-4.36-17.31-2.46-25-.62-7 1.68-14.27 3.42-22.47.31-9.62-3.65-12.8-10.88-15.88-17.87-2.67-6.06-5.19-11.78-11.75-14.89-11.73-5.56-24.28 3-40.17 13.74s-34 23.05-57.13 25.47-47.79-5.8-73.21-24.42a.75.75.0 0 1 .89-1.21c25.11 18.4 49.39 26.52 72.17 24.14s40.66-14.52 56.44-25.23 29.14-19.77 41.66-13.84c7.06 3.34 9.81 9.59 12.47 15.63 3 6.71 6 13.65 15 17.07 7.77 2.95 14.48 1.34 21.59-.36 7.9-1.9 16.08-3.86 25.95.71 3.53 1.64 15.24 7.82 17.58 18.73 1.66 7.77-2.16 13.77-5.86 19.58-3.45 5.4-6.7 10.51-5 16.51 2.53 8.73 14 14.48 23.22 14.42 6.34-.06 9.67-3.58 13.52-7.66 3.41-3.6 7.26-7.69 13.89-10.24C597.39 324 626 334.21 633 350.89c1.86 4.47 1.46 7.85 1.07 11.13-.42 3.47-.85 7.07 1.25 12.39 4.24 10.78 15 19.43 26.83 21.54 13.75 2.45 27-4.29 34.19-10.81 5.52-5 8.6-10.66 8.25-15.12-.34-4.3-3.77-6.41-8.52-9.35-5.44-3.36-12.22-7.54-17.48-16.93-4.09-7.3-4.38-12.72-4.64-17.5s-.47-8.7-3.93-13.76c-6.5-9.5-16.88-11.53-26-13.32-7.85-1.54-14.64-2.86-16.74-8.73-2.48-6.9 2.8-16.31 8.57-22.82 7.2-8.13 18.39-15.43 27.16-13.44 5.64 1.28 7.81 6.24 10.81 13.1a101 101 0 0 0 6.11 12.3c8.71 14.51 23.75 27.69 41.25 36.15a.75.75.0 1 1-.65 1.35c-17.76-8.58-33-22-41.89-36.73a104.62 104.62.0 0 1-6.2-12.47c-2.93-6.7-4.86-11.12-9.76-12.23-8.17-1.86-18.8 5.17-25.71 13s-10.14 16.15-8.28 21.32 8.21 6.32 15.62 7.77c9 1.75 20.14 3.94 27 13.94 3.71 5.41 3.95 9.84 4.2 14.53S676 336 679.88 343c5.07 9 11.66 13.12 17 16.39 4.93 3 8.82 5.45 9.22 10.5s-2.78 11-8.73 16.36C691 392 680 398 668 398z"/><path d="M767.73 382.37c-6.49.0-13.63-3.62-17.05-5.61-14.62-8.45-19.43-24-27.39-49.66-1.18-3.8-2.26-7.27-3.21-10.49a.75.75.0 0 1 1-.89c18 8.7 36.54 11.36 51 7.31 9.18-2.57 16.1-7.66 22.21-12.15 7.64-5.63 13.68-10.06 20.6-6.77 4 1.92 5.86 5.29 7.79 8.85 2.11 3.9 4.3 7.93 9.65 11.1 6.9 4.09 13.64 3.36 19.06 2.77 4.78-.52 8.91-1 11.44 2.13s2.82 9.48.58 16.77c-3.12 10.18-11.06 21.9-21.78 25.14-6.66 2-14 .71-22.58-.8-7.1-1.25-15.13-2.68-24-2.29a21.55 21.55.0 0 0-10.28 2.55 18 18 0 0 0-6.13 5.9 15.19 15.19.0 0 1-4.06 4.3A12.34 12.34.0 0 1 767.73 382.37zM722 317.8c.83 2.75 1.74 5.68 2.71 8.81 8.52 27.5 13.21 41.05 26.72 48.86 3.49 2 15.43 8.28 22.33 3.81a14 14 0 0 0 3.65-3.92A19.51 19.51.0 0 1 784 369a23 23 0 0 1 11-2.74c9-.39 17.16 1.05 24.33 2.32 8.35 1.47 15.57 2.75 21.89.84 10.18-3.08 17.77-14.35 20.78-24.15 2.06-6.71 1.94-12.61-.32-15.38-2-2.47-5.58-2.08-10.11-1.59-5.64.61-12.65 1.38-20-3-5.7-3.38-8.09-7.79-10.2-11.68-1.89-3.48-3.52-6.49-7.12-8.21-6.11-2.91-11.83 1.3-19.06 6.62-6.21 4.57-13.25 9.75-22.69 12.4C758.13 328.51 739.81 326.07 722 317.8z"/><path d="M720.79 317.15a.74.74.0 0 1-.71-.54c-5.46-18.35-7.05-28.5-1.33-36.6 6.31-8.89 17.18-12.56 24.06-11 4.63 1.07 6.88 3.89 9.27 6.88 2.06 2.58 4.2 5.25 8.13 7.28 10.47 5.37 25.43 2 32.83-4.6 6.89-6.1 10.24-17.37 9.19-30.91-1.37-17.78-9.7-34.06-21.22-41.47-13.15-8.46-29.12-4.78-43.21-1.53-11.8 2.72-22 5.07-26.8-1.33-5.79-7.73.71-21.17 7-34.16 5.73-11.83 11.65-24.07 6.73-29.89-3.49-4.14-10.36-2.34-19.05-.06-10.85 2.85-24.35 6.39-37.33-.38C659 134 655 126.55 651.18 119.33c-3.92-7.38-7.63-14.34-16.92-17.45-7.78-2.61-13.42-.54-19.38 1.66s-11.9 4.38-20.24 2.25c-11.44-2.93-19.61-12-24.45-19.07a.75.75.0 1 1 1.23-.85c4.7 6.88 12.6 15.66 23.59 18.47 7.89 2 13.72-.13 19.35-2.21 5.94-2.19 12.09-4.45 20.37-1.68 9.86 3.31 13.71 10.53 17.78 18.18 3.73 7 7.59 14.26 16.53 18.92 12.47 6.5 25.66 3 36.26.26 9.2-2.41 16.47-4.32 20.58.54 5.54 6.57-.32 18.68-6.53 31.52-6.09 12.58-12.39 25.6-7.15 32.6 4.22 5.62 14 3.37 25.27.77 13.66-3.15 30.67-7.07 44.35 1.72 11.9 7.66 20.5 24.39 21.91 42.63 1.08 14-2.45 25.72-9.7 32.15-7.77 6.88-23.49 10.45-34.51 4.8-4.21-2.17-6.55-5.09-8.61-7.68-2.32-2.9-4.32-5.4-8.43-6.35-8.15-1.89-17.84 3.79-22.5 10.37-5.37 7.59-3.78 17.43 1.53 35.3a.74.74.0 0 1-.5.93A.57.57.0 0 1 720.79 317.15z"/><path d="M570.8 87.05h-.09a.74.74.0 0 1-.52-.32c-10.45-15.27-14.72-35.24-8.79-41.08 2.46-2.44 6.16-2.14 10.08-1.84 4.28.34 8.71.69 11.66-2.61 2.15-2.42 2.25-5.31 2.37-8.37.12-3.37.25-6.86 3.24-9.68 4.76-4.49 12.68-3.32 16.48-2.77A27.89 27.89.0 0 1 617 25c2.92 1.81 5.45 3.38 10 3.54a16.46 16.46.0 0 0 7.58-1.5 11.8 11.8.0 0 1 7.58-1c7.91 1.55 13.64 9.15 15.62 15.56 3.12 10.09-.9 22.35-9 27.33-6.47 4-12.58 1.38-19.65-1.67-6.31-2.73-13.47-5.81-22.69-5.08-10.7.86-16.27 6.39-24.7 14.76-3 3-6.37 6.32-10.47 10A.76.76.0 0 1 570.8 87.05zM567.74 45.1c-2.13.0-4 .34-5.29 1.61-5.28 5.21-1.07 24.06 8.5 38.45 3.77-3.39 6.95-6.53 9.76-9.33 8.66-8.6 14.39-14.28 25.64-15.18 9.6-.77 16.93 2.4 23.41 5.19 7 3 12.45 5.37 18.26 1.78 7.39-4.57 11.2-16.3 8.32-25.61-1.86-6-7.18-13.11-14.48-14.54a10.47 10.47.0 0 0-6.74.93A17.9 17.9.0 0 1 626.94 30c-5-.17-7.76-1.91-10.74-3.75A26.07 26.07.0 0 0 605 21.86c-3.58-.53-11-1.62-15.24 2.37-2.55 2.4-2.66 5.43-2.78 8.64s-.23 6.49-2.74 9.31c-3.45 3.87-8.47 3.47-12.9 3.12C570.11 45.2 568.89 45.1 567.74 45.1z"/><path d="M161.68 161.18a.93.93.0 0 1-.22.0.75.75.0 0 1-.49-.94 47.53 47.53.0 0 1 8.25-15.68c13.25-16.42 36.93-25 61.8-22.42 1.77.18 3.58.42 5.32.65 6 .78 12.11 1.59 18 .38 11.69-2.4 16.35-10.64 21.28-19.36 4.05-7.17 8.24-14.58 16.58-19 12.56-6.65 24.35-1.82 36.84 3.3s25.54 10.45 41.12 5.45c12.62-4 18.18-12.78 23.55-21.22s10.44-16.39 22-18.07c27.16-3.94 57 31.28 60.33 35.31a112.12 112.12.0 0 1 10.93 16.16c3.62 6.25 6 10.37 12.26 12.77 15 5.72 32.81-5.75 50.05-16.83a169.23 169.23.0 0 0 21.06-15.9.73.73.0 0 1 1.05.06.75.75.0 0 1-.06 1.06 170.86 170.86.0 0 1-21.2 16c-17.59 11.31-35.75 23-51.43 17-6.75-2.58-9.25-6.9-13-13.42a110.34 110.34.0 0 0-10.79-16c-3.25-4-32.6-38.6-59-34.77C405 57.3 400.35 64.62 395 73.1c-5.26 8.26-11.23 17.63-24.37 21.85-16.09 5.17-29.93-.5-42.14-5.5s-23.63-9.68-35.56-3.35c-8 4.21-12 11.43-16 18.41-4.87 8.63-9.92 17.55-22.27 20.09-6.11 1.26-12.4.43-18.47-.36-1.74-.23-3.53-.47-5.28-.65-24.37-2.53-47.55 5.85-60.48 21.88a45.84 45.84.0 0 0-8 15.18A.76.76.0 0 1 161.68 161.18z"/><path d="M592.34 242.7h-.17c-20.15.0-38.81-8.11-57.75-17.08l-2.94-1.4c-17.06-8.1-34.69-16.48-53.52-18.37-25-2.49-49.27 6.65-72.75 15.49-18.79 7.07-38.21 14.38-58.25 16-22.26 1.78-44.41-3.57-65.82-8.75-15.56-3.76-31.66-7.65-47.73-8.8-4.09-.29-8.37-.44-12.5-.58-17.49-.61-35.58-1.24-48.76-12.42-12.14-10.31-16.63-29-11.18-46.56a.74.74.0 0 1 .9-.5l57 14.46c15.66 4 33.41 8.47 50.15 4 14.27-3.77 25.95-13.6 37.24-23.11 6.25-5.25 12.71-10.69 19.6-15.13a95.66 95.66.0 0 1 85.08-8.6c10.75 4.18 20.88 10.41 30.67 16.43 14.83 9.11 30.16 18.54 47.48 20.54 18.23 2.1 36.51-4.27 54.18-10.43 20.19-7 41.07-14.31 61.66-8.7a54.29 54.29.0 0 1 36.53 34.89c3.19 9.86 3.18 20.12.0 28.9C634 233.42 610.78 242.7 592.34 242.7zM469.43 203.93c2.89.0 5.77.14 8.68.43 19.09 1.91 36.84 10.35 54 18.51l3 1.4c18.77 8.89 37.27 16.88 57.11 16.93h.16c17.93.0 40.46-9 47.7-28.72 3.1-8.47 3.11-18.39.0-27.93a52.75 52.75.0 0 0-35.49-33.9c-20.15-5.49-39.88 1.39-60.77 8.67C526 165.53 507.52 172 489 169.82c-17.65-2-33.13-11.55-48.1-20.76-9.73-6-19.8-12.17-30.43-16.31a94.15 94.15.0 0 0-83.72 8.48c-6.81 4.38-13.23 9.79-19.44 15-11.42 9.61-23.23 19.55-37.82 23.41-17.13 4.53-35.07.0-50.91-4l-56.34-14.28c-4.95 16.77-.6 34.49 10.93 44.28 12.78 10.85 30.61 11.47 47.84 12.07 4.15.14 8.44.29 12.56.59 16.19 1.16 32.35 5.06 48 8.83 21.3 5.15 43.33 10.47 65.35 8.72 19.83-1.58 39.15-8.85 57.84-15.89C425.61 212.05 447.18 203.93 469.43 203.93z"/><path d="M204.58 509.39a.77.77.0 0 1-.49-.19c-13-11.45-20.33-23.64-21.14-35.25a58 58 0 0 1 .56-10.79c.77-6.57 1.43-12.25-2.68-16.9-4.33-4.91-10.59-4.67-17.22-4.42-6.1.22-12.41.46-18-3.08-10.59-6.68-16.83-26.67-15.17-48.61 1.57-20.85 9.57-36.38 21.4-41.54 17.77-7.76 43.1 7.85 55.41 21.42 7.33 8.08 9.67 14.63 11.94 21 2.21 6.17 4.3 12 11 18.63 14.13 14 36.5 19.46 51.29 17.67 6.48-.79 11.1-2.94 13-6.05 3.07-5-1.45-12.06-6.23-19.52-5.37-8.38-11.46-17.88-7.59-26.34 7.16-15.6 43-14 63.94-9.28 26.7 6 42 15.1 43.14 25.6 1 9-8.21 16.08-17.09 22.94-8.19 6.34-15.93 12.32-14.5 18.9 1.65 7.54 14.59 12.58 25.07 12 20.48-1 34.49-24 39.53-37.42 5.3-14.09 4.26-25.54 3.43-34.74-.81-8.83-1.44-15.8 4.25-20.68 7.12-6.12 17.76-3.45 28.06-.86 10.57 2.65 20.55 5.15 27-.94 7.33-6.95 6.63-21.54 1.1-29.95-9.13-13.87-32.35-12.05-44.82-11.08-22.71 1.79-32.69 6.52-50.8 15.13-4.3 2-9.17 4.35-14.75 6.88-28.41 12.88-50.64 14.76-67.95 5.75-12.53-6.52-21.43-18.48-30-30.05-10.72-14.41-20.84-28-37.27-31.63-9.55-2.1-19.51-.08-29.13 1.87-3.58.73-7.27 1.48-10.91 2-20.66 3-42.7-1.44-62.06-12.57s-34.3-27.92-42.08-47.3c-7.46-18.57-7.91-43.25 7.89-56.54 15.11-12.7 37.12-9.39 58.65-3.92l.59.15a.75.75.0 0 1-.37 1.45l-.59-.15c-21.15-5.36-42.72-8.64-57.31 3.62-15.23 12.8-14.72 36.76-7.47 54.83 7.66 19.07 22.38 35.6 41.44 46.56s40.76 15.36 61.1 12.38c3.59-.52 7.26-1.27 10.82-2 9.78-2 19.89-4 29.76-1.87 17 3.73 27.73 18.21 38.14 32.2 8.5 11.44 17.29 23.26 29.52 29.62 16.88 8.78 38.68 6.89 66.64-5.79 5.57-2.52 10.43-4.83 14.72-6.87 18.28-8.68 28.34-13.46 51.33-15.26 12.79-1 36.58-2.86 46.19 11.74 5.86 8.91 6.53 24.43-1.32 31.87-7 6.66-17.88 3.93-28.38 1.3-9.92-2.49-20.18-5.06-26.72.54-5.09 4.38-4.52 10.69-3.73 19.42.85 9.35 1.91 21-3.51 35.4-5.18 13.74-19.61 37.3-40.87 38.38-13.84.71-25.12-6.39-26.61-13.21-1.63-7.5 6.48-13.77 15.06-20.41S387.1 4e2 386.22 391.87c-1.05-9.81-16-18.44-42-24.29-22-4.93-55.84-5.57-62.26 8.44-3.54 7.71 2.06 16.45 7.48 24.9 5 7.87 9.81 15.3 6.25 21.12-2.14 3.51-7.15 5.9-14.1 6.75-15.15 1.84-38.06-3.78-52.52-18.09-7-6.87-9.09-12.86-11.36-19.19s-4.52-12.62-11.64-20.47c-12-13.24-36.61-28.52-53.7-21.06-11.31 4.94-19 20-20.51 40.29-1.62 21.41 4.34 40.82 14.48 47.22 5.23 3.3 11.3 3.07 17.18 2.85 7-.27 13.6-.51 18.4 4.93 4.55 5.15 3.82 11.42 3 18.06a56.13 56.13.0 0 0-.56 10.51c.79 11.21 7.92 23.05 20.64 34.23a.75.75.0 0 1-.5 1.32z"/><path d="M433.77 615.24a54.7 54.7.0 0 1-30.27-9.39c-5.92-4-11.56-9.18-17-14.2-12.8-11.79-24.89-22.91-40.53-20.22-7 1.21-13.11 5.29-19.07 9.23l-3.48 2.28A131.62 131.62.0 0 1 240.56 603c-13.89-1.3-27.88-6.13-38.38-13.26-12.22-8.3-19.41-19.22-20.77-31.57-1.21-11 2.48-19.67 6.36-27.58a87.07 87.07.0 0 1 16.28-22.51.76.76.0 0 1 1 0c21.91 19.3 56.14 32.7 87.21 34.15 18.64.85 27.32-1.61 39.32-5 10.6-3 23.8-6.77 48.64-9.84 49-6 73.55 11.48 83.84 22.44 5.12 5.47 8.61 11.21 10.36 17.08 4.86 16.26-4.52 36-20.9 44A45.12 45.12.0 0 1 433.77 615.24zm-83.19-45.7c14.11.0 25.69 10.66 36.93 21 5.41 5 11 10.13 16.82 14.05 15 10.07 34 12 48.57 4.9 15.74-7.68 24.77-26.61 20.12-42.19a42.1 42.1.0 0 0-10-16.48c-10.1-10.76-34.25-27.92-82.56-22-24.73 3-37.87 6.79-48.42 9.79-12.14 3.45-20.91 6-39.8 5.08-31.14-1.46-65.43-14.8-87.6-34.05a84.88 84.88.0 0 0-15.5 21.61c-3.79 7.72-7.38 16.14-6.22 26.75 2.79 25.27 31.19 41 57.8 43.51a130.11 130.11.0 0 0 81.9-19.87c1.16-.74 2.31-1.5 3.47-2.27 6.08-4 12.37-8.18 19.64-9.44A28.11 28.11.0 0 1 350.58 569.54z"/><path d="M204.58 509.39a.76.76.0 0 1-.53-1.28c20.67-20.86 47.81-30.44 67.53-23.85 7.45 2.5 12.35 6.71 16.67 10.43 4.85 4.17 8.67 7.47 14.17 6.31 6.29-1.32 8.58-7 11.24-13.65 2.44-6.07 5.2-13 11.82-16.69 11.78-6.66 25.45 1.81 41.27 11.61 16.73 10.36 35.7 22.12 56 17.22 10.39-2.52 16-8.07 22-13.95 6.79-6.71 13.81-13.65 28.38-15.78 13.49-2 24.31 1.58 32.21 4.17 6.64 2.17 11.44 3.74 14.19 1 5-5-2-18.26-9.37-32.27-9.09-17.23-18.49-35.05-10.72-44.89 4.72-6 15.29-8.45 29.76-7A109 109 0 0 1 568.52 403a84.54 84.54.0 0 1 9.33 5.95.75.75.0 1 1-.89 1.21 82.2 82.2.0 0 0-9.17-5.85c-22.64-12.45-57.68-17.75-67.24-5.64-7.16 9.07 2.43 27.24 10.88 43.26 8 15.14 14.88 28.21 9.11 34-3.41 3.44-8.58 1.75-15.73-.59-7.76-2.54-18.38-6-31.53-4.1-14.08 2.05-20.92 8.82-27.54 15.36-5.83 5.76-11.86 11.72-22.66 14.34-20.88 5-40.14-6.89-57.12-17.41C350.54 474 337.23 465.75 326.21 472c-6.15 3.48-8.7 9.82-11.16 15.94-2.7 6.72-5.25 13.07-12.32 14.56-6.22 1.3-10.5-2.38-15.46-6.64-4.21-3.63-9-7.74-16.16-10.14-19.2-6.42-45.72 3-66 23.47A.76.76.0 0 1 204.58 509.39z"/></g><g id="floor_line" data-name="floor line"><path d="M593.58 749.87H562.19a.75.75.0 0 1 0-1.5h31.39a.75.75.0 0 1 0 1.5z"/><path d="M839.59 749.87H769.91a.75.75.0 0 1 0-1.5h69.68a.75.75.0 0 1 0 1.5z"/><path d="M263.85 750.33a.75.75.0 0 1-.75-.74.76.76.0 0 1 .75-.76l223.47-.46h0a.74.74.0 0 1 .75.74.75.75.0 0 1-.74.76l-223.47.46z"/></g><g id="man"><path id="shoe" d="M493.55 773.81l-5.76 23c-33.27-14-61.92-9.59-69.7 4.48-1.38 2.5-4.4 9.45.22 22.46l125.24-2v-43z"/><g id="hand"><path d="M638.06 441.18a.76.76.0 0 1-.68-.43c-.74-1.52-1.59-3.08-2.53-4.64-.15-.25-.49-.81-1-1.61-6.09-9.54-11.85-14.71-15.4-13.81a3.6 3.6.0 0 0-1.83 1.17 4.35 4.35.0 0 0-.74 3.27l.06.48c0 .15.06.32.1.5a.75.75.0 1 1-1.45.37c-.06-.22-.1-.45-.14-.67l-.06-.51a5.86 5.86.0 0 1 1.06-4.39 5.12 5.12.0 0 1 2.63-1.67c5.84-1.49 13.18 8.42 17 14.46l1 1.64c1 1.6 1.83 3.2 2.59 4.76a.76.76.0 0 1-.67 1.08z"/><path d="M638.85 440.58 615.2 425.7l-.53-.53h.47l19.35 8.9 1 1.62Q637.16 438.32 638.85 440.58z"/><path d="M616.47 463.2h0c-.71.0-7.06-.31-10.6-6a12.86 12.86.0 0 1-.37-12.93.75.75.0 0 1 1-.3.76.76.0 0 1 .3 1 11.33 11.33.0 0 0 .32 11.41c3.18 5.07 9.11 5.26 9.36 5.26a.75.75.0 0 1 .73.77A.74.74.0 0 1 616.47 463.2z"/><path d="M615.26 473.64h-.24c-.56-.19-5.58-2-7-7.11a10.35 10.35.0 0 1 .6-7 .75.75.0 0 1 1.37.62 8.84 8.84.0 0 0-.52 6c1.22 4.4 5.55 5.92 6 6.08a.75.75.0 0 1-.23 1.46z"/><path d="M620.07 487.47a.79.79.0 0 1-.39-.11 32.09 32.09.0 0 1-4.57-3.46 19.55 19.55.0 0 1-3.85-4.33 13.76 13.76.0 0 1-1.19-9.73.76.76.0 0 1 .89-.58.75.75.0 0 1 .58.89 12.2 12.2.0 0 0 1 8.66 17.6 17.6.0 0 0 3.57 4 28.81 28.81.0 0 0 4.34 3.29.76.76.0 0 1 .24 1A.74.74.0 0 1 620.07 487.47z"/><path d="M661.92 496.1h0a.75.75.0 0 1-.75-.76 67 67 0 0 0-3.63-22c-.63-1.82-1.35-3.63-2.14-5.39a.75.75.0 0 1 1.37-.61c.81 1.79 1.55 3.65 2.19 5.51a68.36 68.36.0 0 1 3.71 22.46A.76.76.0 0 1 661.92 496.1z"/><path d="M618.89 449.36a.83.83.0 0 1-.22.0 114.74 114.74.0 0 1-15.21-6.06c-5.53-2.68-8.63-4.76-9.16-8a6.91 6.91.0 0 1 .64-4 3.45 3.45.0 0 1 1.24-1.32.75.75.0 0 1 .78 1.29 1.76 1.76.0 0 0-.69.71 5.45 5.45.0 0 0-.49 3.12c.38 2.33 2.48 4.07 8.33 6.91a113.64 113.64.0 0 0 15 6 .75.75.0 0 1-.23 1.46z"/></g><g id="head"><path d="M769.1 502.38a.75.75.0 0 1-.74-.68q-.81-8.15-1.61-16.3a.75.75.0 0 1 .67-.82.74.74.0 0 1 .82.67q.79 8.14 1.61 16.3a.75.75.0 0 1-.67.82zm-34 0a.76.76.0 0 1-.75-.73l-.12-3.92c-8.16.0-15.23-3.17-20-8.88s-6.55-13.32-5-21.38a36.62 36.62.0 0 1 12.88-21.21 41.27 41.27.0 0 1 5.5-3.83c13.52-7.83 29.42-6.17 37.81 3.94a25.35 25.35.0 0 1 5.3 19.79c0 .19-.06.41-.1.61a.75.75.0 0 1-1.47-.32c0-.15.06-.32.08-.47a23.91 23.91.0 0 0-5-18.65c-7.93-9.55-23-11.06-35.91-3.6a39.12 39.12.0 0 0-5.29 3.69 35.19 35.19.0 0 0-12.37 20.32c-1.42 7.62.26 14.78 4.72 20.15 4.59 5.53 11.54 8.51 19.54 8.33a.73.73.0 0 1 .74.57.47.47.0 0 1 0 .17l.14 4.64a.76.76.0 0 1-.72.78z"/><path d="M769.81 486.36a10 10 0 0 1-2.5-.31.75.75.0 0 1 .37-1.45 8.94 8.94.0 0 0 2.13.26 8.75 8.75.0 0 0 0-17.5 7.93 7.93.0 0 0-2.59.39 10 10 0 0 0-5.75 5.71.76.76.0 0 1-1 .4.75.75.0 0 1-.4-1 11.56 11.56.0 0 1 6.67-6.56 9.24 9.24.0 0 1 3-.46 10.25 10.25.0 1 1 0 20.5z"/><path d="M770.06 466.61a6.77 6.77.0 0 0-1.4.0 7.27 7.27.0 0 0-1.67.4 10.43 10.43.0 0 0-2.89 1.58 12.88 12.88.0 0 0-3.38 3.91l-7.91-20.42-24.86-9c13.59-7.58 29.07-5.38 36.86 3.77C771.2 454.35 770.35 464.11 770.06 466.61z"/><path d="M735.18 500.54a34.27 34.27.0 0 0 6.16-1.38 37.67 37.67.0 0 0 17.93-13 43.71 43.71.0 0 1-8.15 5.41 44.31 44.31.0 0 1-16.31 4.65C734.94 497.66 735.06 499.1 735.18 500.54z"/></g><g id="legs"><path d="M667.22 651.77c-38.68 19-53.45 10.75-58 7.35-28.24-21-6-103.44-3.29-113.3C634.74 568.69 654.84 614.62 667.22 651.77z"/><path d="M678.51 828.17c-8.55.0-28.3-1.56-46.88-14.24s-30.11-32-38.77-64.62c-5-19-8.92-41.57-13.21-69.65l-.34-2.22v-.05q-1.39-9.12-2.84-18.89l-.16-1.07c-1.26-8.53-2.39-17-3.45-26.07-.41-3.55-.76-6.72-1.05-9.47a.75.75.0 0 1 1.49-.15c.29 2.73.64 5.9 1.05 9.44 1 9 2.18 17.52 3.45 26l.16 1.07q1.45 9.79 2.84 18.92v0l.34 2.19c4.28 28 8.16 50.58 13.17 69.48 8.56 32.29 20 51.36 38.17 63.78 21.72 14.82 45.07 14.15 49.53 13.87 19.41-1.28 37.39-10.12 53.45-26.28a121.79 121.79.0 0 0 20.37-27.24.75.75.0 1 1 1.33.69C754.41 779 729 825 682.1 828.06 681.37 828.11 680.15 828.17 678.51 828.17z"/><path d="M554.56 780.57h-.08l-70-7a.78.78.0 0 1-.51-.27.76.76.0 0 1-.16-.55c.83-8 1.77-16 2.77-23.72 2.93-22.53 6.72-45.2 11.24-67.35 14.91-73 29-142 66.07-150.09 7.12-1.55 15.34-.53 24.44 3a71.15 71.15.0 0 1 18 10.62.75.75.0 0 1-.93 1.17A70 70 0 0 0 587.78 536c-8.81-3.46-16.74-4.45-23.57-3-16.17 3.52-28.85 19.1-39.9 49-9.57 25.92-16.7 59.16-25 99.92-4.52 22.12-8.29 44.75-11.22 67.24-1 7.51-1.88 15.22-2.69 22.93L554 779l2.93-11.76q2.28-9.16 4.56-18.32l17.85-71.77a.77.77.0 0 1 .73-.59.74.74.0 0 1 .75.75h0a.55.55.0 0 1 0 .18L562.92 749.3l-4.56 18.31L555.28 780A.75.75.0 0 1 554.56 780.57z"/><path d="M680.1 780.65q-1.35.0-2.52-.09A42.75 42.75.0 0 1 659 774.42c-8.78-5.25-16.15-13.41-22.52-24.94C619.7 719.21 613 669.32 607 625.3l-.3-2.28c-2.68-20-6-44.95-22.44-52.2a29.4 29.4.0 0 0-15.66-1.47C541 574.6 526.24 684.28 519.93 749.19c-.86 8.85-1.67 17.9-2.41 26.91A.75.75.0 0 1 516 776c.74-9 1.55-18.07 2.41-26.93 7.75-79.8 22.7-176 49.91-181.16a30.44 30.44.0 0 1 16.54 1.57c17.2 7.59 20.59 33 23.31 53.37l.31 2.27c5.92 43.89 12.63 93.64 29.23 123.66 6.24 11.3 13.43 19.27 22 24.38a41.39 41.39.0 0 0 18 5.94c23.72 1.67 43.19-20.71 50.45-30.4l.39-.52.2-.26a.75.75.0 1 1 1.19.91l-.18.25-.4.53C709.56 776 690.84 780.65 680.1 780.65z"/><path d="M692 778.57a.76.76.0 0 1-.68-.43c-5.06-10.39-7.71-20.16-7.9-29-.23-11 3.49-18.7 6.65-23.18a28.2 28.2.0 0 1 7-7.19.76.76.0 0 1 1 .23.77.77.0 0 1-.23 1c-.14.08-13.43 8.78-13 29.07.18 8.64 2.79 18.19 7.75 28.39a.75.75.0 0 1-.35 1A.72.72.0 0 1 692 778.57z"/><path d="M580.39 679.55c-.11-.74-.23-1.48-.34-2.22q-8.92 35.89-17.86 71.79-3.83 15.35-7.64 30.7l-11-1.1 6-29.6 24-117.84z"/></g><g id="sweater"><path class="cls-2" d="M769.91 749.12c-5.53 15-9.62 24.94-10.36 26.7l-.15-.09-29.23-26.61-.85-.77-31.8-29-15.47-14.08q-7.41-26.77-14.83-53.54a412.51 412.51.0 0 0-17.38-44.11c-6.73-14.41-14.57-28.39-23.54-40.35a116.82 116.82.0 0 0-20.39-21.49q4.2-17.08 8.33-34.39 1.39-5.85 2.77-11.68 1.54-6.52 3.06-13c6.69.92 13.78 2.11 21.21 3.64s14.64 3.31 21.25 5.15c-1.45 10.6-4.6 33.48-9 64.88-2.79 19.65-3.83 26.73-.87 28.21 4.88 2.43 14.18-13.18 27.73-31.4 12.6-17 28.88-36.17 48.68-45.21V501.63h48v11h0a55.44 55.44.0 0 1 9.42 5.59c13 9.75 19.35 26.75 21.28 47.54C812.92 622.14 785.62 706.37 769.91 749.12z"/><path d="M682.05 706.06a.76.76.0 0 1-.73-.59c-2.59-11.7-7.13-30.07-14-51.1l-.78-2.36a.75.75.0 0 1 .37-.9 219.66 219.66.0 0 0 75.45-64.06.75.75.0 0 1 1.2.9 221.06 221.06.0 0 1-75.39 64.19l.58 1.75c6.91 21.1 11.46 39.52 14.07 51.26a.75.75.0 0 1-.57.89A.5.5.0 0 1 682.05 706.06z"/><g id="pattern"><path d="M712.18 538.61a.74.74.0 0 1-.58-.27.76.76.0 0 1 .11-1.06l12.54-10.18a.75.75.0 0 1 .94 1.17l-12.54 10.18A.72.72.0 0 1 712.18 538.61z"/><path d="M743.61 528.43a.76.76.0 0 1-.7-.47l-4.77-12.08a.75.75.0 0 1 1.4-.55l4.76 12.08a.74.74.0 0 1-.42 1A.65.65.0 0 1 743.61 528.43z"/><path d="M750.38 645.64a.76.76.0 0 1-.7-.47l-4.77-12.08a.75.75.0 0 1 .43-1 .74.74.0 0 1 1 .42l4.77 12.08a.75.75.0 0 1-.43 1A.65.65.0 0 1 750.38 645.64z"/><path d="M765.3 729.75a.73.73.0 0 1-.69-.48l-4.77-12.08a.75.75.0 1 1 1.39-.55L766 728.72a.76.76.0 0 1-.42 1A.87.87.0 0 1 765.3 729.75z"/><path d="M699.28 635.1a.74.74.0 0 1-.69-.48l-4.77-12.07a.76.76.0 0 1 .42-1 .75.75.0 0 1 1 .42L7e2 634.07a.76.76.0 0 1-.42 1A.87.87.0 0 1 699.28 635.1z"/><path d="M789.33 627.39a.74.74.0 0 1-.7-.47l-4.77-12.08a.75.75.0 0 1 1.4-.55L790 626.37a.75.75.0 0 1-.42 1A.72.72.0 0 1 789.33 627.39z"/><path d="M754 615.32a.74.74.0 0 1-.69-.48l-4.77-12.08a.75.75.0 1 1 1.39-.55l4.77 12.08a.74.74.0 0 1-.42 1A.67.67.0 0 1 754 615.32z"/><path d="M751.6 681a.75.75.0 0 1-.7-.48l-4.76-12.07a.74.74.0 0 1 .42-1 .75.75.0 0 1 1 .42L752.3 680a.76.76.0 0 1-.42 1A.92.92.0 0 1 751.6 681z"/><path d="M794.1 584.52a.76.76.0 0 1-.7-.47L788.63 572a.75.75.0 0 1 1.4-.55l4.77 12.08a.75.75.0 0 1-.43 1A.65.65.0 0 1 794.1 584.52z"/><path d="M751.6 549.61a.77.77.0 0 1-.51-.19.76.76.0 0 1 0-1.06l10.1-11a.73.73.0 0 1 1.05-.05.75.75.0 0 1 0 1.06l-10.1 11A.74.74.0 0 1 751.6 549.61z"/><path d="M639 555.11a.74.74.0 0 1-.51-.19.75.75.0 0 1-.05-1.06l10.1-11a.75.75.0 1 1 1.11 1l-10.1 11A.75.75.0 0 1 639 555.11z"/><path d="M647.49 611a.74.74.0 0 1-.55-1.25l6.62-7.22a.73.73.0 0 1 1.05.0.75.75.0 0 1 0 1.06L648 610.75A.75.75.0 0 1 647.49 611z"/><path d="M725.13 597.2a.74.74.0 0 1-.5-.2.75.75.0 0 1 0-1.06l10.1-11a.76.76.0 0 1 1.06-.05.76.76.0 0 1 0 1.06l-10.09 11A.75.75.0 0 1 725.13 597.2z"/><path d="M707.13 717.13a.74.74.0 0 1-.5-.2.75.75.0 0 1 0-1.06l10.1-11a.75.75.0 1 1 1.1 1l-10.09 11A.76.76.0 0 1 707.13 717.13z"/><path d="M699.55 605.3a.78.78.0 0 1-.51-.2.75.75.0 0 1 0-1.06l10.09-11a.76.76.0 0 1 1.06.0.75.75.0 0 1 .05 1.06l-10.1 11A.75.75.0 0 1 699.55 605.3z"/><path d="M672.09 651.14a.77.77.0 0 1-.51-.19.76.76.0 0 1 0-1.06l10.09-11a.75.75.0 0 1 1.11 1l-10.1 11A.75.75.0 0 1 672.09 651.14z"/><path d="M672.09 617.65a.78.78.0 0 1-.51-.2.75.75.0 0 1 0-1.06l10.09-11a.76.76.0 0 1 1.06.0.75.75.0 0 1 0 1.06l-10.1 11A.75.75.0 0 1 672.09 617.65z"/><path d="M623.56 571.06a.74.74.0 0 1-.55-1.25l3.77-4.12a.75.75.0 1 1 1.11 1l-3.78 4.12A.75.75.0 0 1 623.56 571.06z"/><path d="M794.1 543.7a.72.72.0 0 1-.47-.16l-12.54-10.18a.76.76.0 0 1-.11-1.06.75.75.0 0 1 1-.11l12.54 10.18a.76.76.0 0 1 .11 1.06A.74.74.0 0 1 794.1 543.7z"/><path d="M725.41 561.69a.65.65.0 0 1-.27-.05.74.74.0 0 1-.42-1l4.76-12.08a.75.75.0 0 1 1.4.55l-4.77 12.08A.76.76.0 0 1 725.41 561.69z"/><path d="M751.6 761.94a.65.65.0 0 1-.27-.05.75.75.0 0 1-.43-1l4.77-12.08a.74.74.0 0 1 1-.42.75.75.0 0 1 .43 1l-4.77 12.08A.76.76.0 0 1 751.6 761.94z"/><path d="M677.14 592.24a.71.71.0 0 1-.28-.06.75.75.0 0 1-.42-1l4.77-12.08a.75.75.0 0 1 1-.42.74.74.0 0 1 .42 1l-4.76 12.08A.75.75.0 0 1 677.14 592.24z"/><path d="M705.92 576.73a.67.67.0 0 1-.28-.06.74.74.0 0 1-.42-1L710 563.62a.75.75.0 1 1 1.39.55l-4.77 12.08A.74.74.0 0 1 705.92 576.73z"/><path d="M628.34 528.43a.69.69.0 0 1-.28.0.75.75.0 0 1-.42-1l4.77-12.08a.75.75.0 0 1 1.39.55L629 528A.76.76.0 0 1 628.34 528.43z"/><path d="M695.38 556a.76.76.0 0 1-.75-.65l-1.52-11.33a.76.76.0 0 1 .65-.84.74.74.0 0 1 .84.64l1.52 11.33a.75.75.0 0 1-.64.85z"/><path d="M762.92 582.62a.72.72.0 0 1-.47-.16l-12.54-10.19a.75.75.0 1 1 .94-1.16l12.54 10.18a.76.76.0 0 1 .11 1.06A.74.74.0 0 1 762.92 582.62z"/><path d="M760.48 693.78a.75.75.0 0 1 0-1.5l16.14-.42h0a.74.74.0 0 1 .75.73.76.76.0 0 1-.73.77l-16.14.42z"/><path d="M786 675.19a.74.74.0 0 1-.75-.72.76.76.0 0 1 .73-.78l7.47-.2a.77.77.0 0 1 .77.73.74.74.0 0 1-.73.77l-7.47.2z"/><path d="M731 693.78a.7.7.0 0 1-.47-.17L718 683.43a.75.75.0 1 1 .94-1.16l12.54 10.18a.76.76.0 0 1 .11 1.06A.74.74.0 0 1 731 693.78z"/><path d="M727.81 661.5a.74.74.0 0 1-.75-.75V644.6a.74.74.0 0 1 .74-.75h0a.76.76.0 0 1 .75.75v16.15a.75.75.0 0 1-.75.75z"/><path d="M771.18 672.11a.75.75.0 0 1-.74-.62l-2.63-15.94a.74.74.0 0 1 .62-.86.75.75.0 0 1 .86.61l2.63 15.94a.75.75.0 0 1-.62.86z"/><path d="M731.68 626.45a.78.78.0 0 1-.47-.17L718.67 616.1a.75.75.0 0 1 1-1.17l12.53 10.18a.75.75.0 0 1-.47 1.34z"/><path d="M622.29 504.78a.72.72.0 0 1-.47-.16l-5.3-4.3a.75.75.0 0 1 .94-1.17l5.3 4.3a.76.76.0 0 1 .11 1.06A.74.74.0 0 1 622.29 504.78z"/><path d="M617.24 543.7a.72.72.0 0 1-.47-.16l-8.86-7.19a.75.75.0 0 1 1-1.17l8.85 7.19a.76.76.0 0 1 .11 1.06A.74.74.0 0 1 617.24 543.7z"/><path d="M737.26 747.3a.75.75.0 0 1-.47-.17L724.25 737a.76.76.0 0 1-.11-1.06.75.75.0 0 1 1.05-.11L737.73 746a.75.75.0 0 1-.47 1.34z"/><path d="M694.73 698.45a.78.78.0 0 1-.48-.17L681.71 688.1a.75.75.0 0 1 .95-1.17l12.54 10.18a.76.76.0 0 1 .11 1.06A.77.77.0 0 1 694.73 698.45z"/><path d="M805.94 609.41a.72.72.0 0 1-.47-.16l-11.85-9.62a.75.75.0 0 1 1-1.17l11.84 9.62a.76.76.0 0 1 .11 1.06A.74.74.0 0 1 805.94 609.41z"/><path d="M807.68 566.49a.74.74.0 0 1-.46-.16l-9-6.93a.75.75.0 0 1 .91-1.19l9 6.93a.75.75.0 0 1 .14 1.05A.73.73.0 0 1 807.68 566.49z"/><path d="M658.73 520.1a.72.72.0 0 1-.47-.16l-10.89-8.84a.75.75.0 0 1 1-1.17l10.88 8.84a.76.76.0 0 1 .11 1.06A.74.74.0 0 1 658.73 520.1z"/><path d="M790.93 656a.76.76.0 0 1-.69-.47L784 640.6a.75.75.0 1 1 1.38-.57l6.2 14.91a.75.75.0 0 1-.69 1z"/><path d="M773.4 564.65a.66.66.0 0 1-.27-.06.73.73.0 0 1-.42-1l4.76-12.08a.76.76.0 0 1 1-.42.75.75.0 0 1 .42 1l-4.77 12.08A.75.75.0 0 1 773.4 564.65z"/><path d="M702.21 670.18a.65.65.0 0 1-.27.0.73.73.0 0 1-.42-1l4.76-12.08a.75.75.0 0 1 1.4.55l-4.77 12.08A.73.73.0 0 1 702.21 670.18z"/><path d="M769.86 603.24a.66.66.0 0 1-.27-.06.73.73.0 0 1-.42-1l4.76-12.08a.76.76.0 0 1 1-.42.75.75.0 0 1 .42 1l-4.77 12.08A.75.75.0 0 1 769.86 603.24z"/><path d="M741.22 717.67a.86.86.0 0 1-.27.0.76.76.0 0 1-.43-1l4.77-12.08a.75.75.0 1 1 1.4.56l-4.77 12.07A.75.75.0 0 1 741.22 717.67z"/><path d="M762.43 641.14a.92.92.0 0 1-.28.0.76.76.0 0 1-.42-1L766.5 628a.75.75.0 0 1 1.4.55l-4.77 12.08A.75.75.0 0 1 762.43 641.14z"/><path d="M769.86 515.78a.74.74.0 0 1-.55-.24l-7.7-8.39a.75.75.0 1 1 1.1-1l7.7 8.39a.75.75.0 0 1 0 1.06A.73.73.0 0 1 769.86 515.78z"/></g></g></g><g id="pencil"><path d="M660.8 472.76a.8.8.0 0 1-.46-.16c-.8-.63-1.58-1.29-2.34-2s-1.67-1.59-2.46-2.43a1.14 1.14.0 0 1-.15-.23 41.76 41.76.0 0 0-3.66-7c-4.16-6.38-9-10-20.58-17-25.76-15.53-30.89-15-33.67-13.21a8.59 8.59.0 0 0-1 .73.75.75.0 0 1-.9.08l-2.27-1.47c-.51-.34-1.6-1.07-3-2s-3-2.2-4.53-3.36a.76.76.0 0 1-.13-1.05.75.75.0 0 1 1-.14c1.49 1.15 3 2.27 4.48 3.32s2.43 1.68 2.93 2l1.78 1.16a9 9 0 0 1 .74-.52c3.44-2.17 8.73-2.79 35.25 13.19 11.79 7.11 16.74 10.81 21.06 17.43a44.07 44.07.0 0 1 3.74 7.1c.73.78 1.5 1.54 2.28 2.25.51.46 1 .91 1.57 1.35l1.87-3.33 4.62-8.2-5.56-3.45L593.63 413.7a.75.75.0 1 1 .79-1.27l67.88 42.18 6.17 3.84a.74.74.0 0 1 .26 1q-2.47 4.43-5 8.83l-2.3 4.09a.75.75.0 0 1-.51.37z"/><path d="M585.75 424.68l-14-18.69 22.57 6.36 1 4.91-5.45 1 2.72 5.61z"/><path d="M653.45 463.2a.69.69.0 0 1-.37-.1.74.74.0 0 1-.28-1l5-8.71a.76.76.0 0 1 1-.29.77.77.0 0 1 .29 1l-5 8.71A.76.76.0 0 1 653.45 463.2z"/></g></g></g></svg>