<svg id="Layer_1" data-name="Layer 1" xmlns="http://www.w3.org/2000/svg" viewBox="0 0 900 770.9"><defs><style>.cls-1{fill:#c8aaf3;}</style></defs><g id="background"><g id="background-2" data-name="background"><path d="M657.5 156.2c-13.7.0-28.2-10.8-43-32.2a.48.48.0 0 1 .1-.7.49.49.0 0 1 .7.1c15.2 21.8 29.8 32.5 43.6 31.7 11.2-.6 18.9-8.4 27.1-16.6 8-8.1 16.3-16.5 28.3-17.1 13.4-.7 27.3 8.5 41.3 27.3a.48.48.0 0 1-.1.7.49.49.0 0 1-.7-.1c-13.8-18.5-27.4-27.6-40.4-26.9-11.6.6-19.8 8.8-27.6 16.8s-16.1 16.2-27.7 16.9C658.5 156.1 658 156.2 657.5 156.2z"/><path d="M121 701.4c-12.1.0-24.9-9.6-38.1-28.5a.48.48.0 0 1 .1-.7.49.49.0 0 1 .7.1c13.4 19.2 26.4 28.7 38.5 28 9.9-.6 16.7-7.4 23.9-14.6s14.4-14.6 25-15.1c11.8-.6 24.1 7.5 36.6 24.2a.48.48.0 0 1-.1.7.49.49.0 0 1-.7-.1c-12.2-16.3-24.2-24.3-35.7-23.8-10.2.5-17.4 7.8-24.4 14.8s-14.2 14.4-24.5 14.9C121.9 701.3 121.5 701.4 121 701.4z"/><path d="M71.2 71.5c-13.7.0-28.2-10.8-43-32.2a.48.48.0 0 1 .1-.7.49.49.0 0 1 .7.1C44.2 60.5 58.9 71.2 72.6 70.4c11.2-.6 18.9-8.4 27.1-16.6 8-8.1 16.3-16.5 28.3-17.1 13.4-.7 27.2 8.5 41.3 27.3a.48.48.0 0 1-.1.7.49.49.0 0 1-.7-.1C154.6 46.2 141 37.2 128 37.8c-11.6.6-19.8 8.8-27.6 16.8S84.3 70.8 72.7 71.5z"/><path class="cls-1" d="M73.2 316.4 51.6 300.9 66.7 278.8 88.3 294.2 73.2 316.4z"/><path d="M855.7 446.4a.37.37.0 0 1-.3-.1l-15.8-14.6a.52.52.0 0 1-.2-.4.6.6.0 0 1 .1-.4l14.3-16.2a.52.52.0 0 1 .4-.2.6.6.0 0 1 .4.1l15.8 14.6a.52.52.0 0 1 .2.4.6.6.0 0 1-.1.4l-14.3 16.2A1.69 1.69.0 0 1 855.7 446.4zm-15.1-15.2 15.1 13.9 13.6-15.4-15.1-14z"/><path d="M432.6 37.3h-.2a.52.52.0 0 1-.3-.7l5.8-15.7a.54.54.0 1 1 1 .4L433 36.9A.43.43.0 0 1 432.6 37.3z"/><path d="M160.7 372.9c-.2.0-.5-.2-.5-.4s.1-.6.4-.6l16.2-2.8a.55.55.0 0 1 .6.4.44.44.0 0 1-.4.6l-16.3 2.8z"/><path d="M797.5 88.1a.55.55.0 0 1-.5-.3.52.52.0 0 1 .3-.7l15.4-5.7c.3-.1.6.0.6.3a.52.52.0 0 1-.3.7l-15.5 5.7z"/><path d="M173.1 146.5a.52.52.0 0 1-.4-.2L164.1 132c-.1-.2-.1-.6.2-.7s.6-.1.7.2l8.6 14.3c.1.2.1.6-.2.7C173.3 146.4 173.2 146.5 173.1 146.5z"/><path d="M714.6 303.3a.52.52.0 0 1-.4-.2l-9.8-13.5a.48.48.0 0 1 .1-.7.49.49.0 0 1 .7.1l9.8 13.5a.48.48.0 0 1-.1.7A.37.37.0 0 1 714.6 303.3z"/><path d="M779 507.3h0l-15.9-4.6a.45.45.0 0 1-.3-.6.62.62.0 0 1 .6-.4l15.8 4.6a.45.45.0 0 1 .3.6C779.5 507.2 779.2 507.3 779 507.3z"/><path d="M812.1 709.3a.51.51.0 0 1-.5-.4L806.5 693a.61.61.0 0 1 .3-.7c.2-.1.6.1.6.3l5.1 15.9a.61.61.0 0 1-.3.7C812.2 709.3 812.2 709.3 812.1 709.3z"/><ellipse class="cls-1" cx="685" cy="656.6" rx="16.6" ry="17"/><ellipse class="cls-1" cx="820.2" cy="235.4" rx="8.1" ry="8.3"/><path d="M118.3 562.4a8.37 8.37.0 0 1-8.3-8.5 8.73 8.73.0 0 1 2.4-6h0a8.15 8.15.0 0 1 11.7.0 8.3 8.3.0 0 1 2.4 6 8.73 8.73.0 0 1-2.4 6A8.11 8.11.0 0 1 118.3 562.4zm0-15.9a6.82 6.82.0 0 0-5.1 2.2h0a7.4 7.4.0 0 0-2.1 5.3 7.85 7.85.0 0 0 2.1 5.3 7.18 7.18.0 0 0 10.3.0 7.4 7.4.0 0 0 2.1-5.3 7.85 7.85.0 0 0-2.1-5.3A7.2 7.2.0 0 0 118.3 546.5zm-5.5 1.8z"/></g></g><g id="general"><g id="general-2" data-name="general"><g id="picture"><path class="cls-1" d="M527.8 112.8a6.14 6.14.0 0 0-7.6-4.4l-89.3 25.5L377.6 149l-95.3 27.2A6.33 6.33.0 0 0 278 184l33.8 124.3s2.3-13.4 8.1-13.2 6.3 14.5 6.3 14.5l-.4.6c10.7-14.6 24.2-31.3 28.9-29.7a4.78 4.78.0 0 1 2.5 1.7 3.55 3.55.0 0 1 .4.9h0c4.3-17.1 12.5-37.5 29.3-43.7 6-2.2 7.2.6 12.8-2.5 13.6-7.6 13.2-30.9 39.1-48.7 32.1-22.1 53.9 6.6 53.9 6.6a49.12 49.12.0 0 1 13.8-2c8.7.0 19.3 2.6 25 13.8 7.2 14.2 17.1 15.3 26.4 16.6zm-157 241.7-3.6 2.7C368.4 356.3 369.6 355.3 370.8 354.5zm-9.6 75.9.5-.7h-.5zM358 372.8c0-.1.1-.3.1-.4s0-.1.1-.2c0 .1.0.1-.1.2S358 372.6 358 372.8zm-.9-85.2a29.49 29.49.0 0 1-2.9 5.9A15.49 15.49.0 0 0 357.1 287.6zm-25.6 39.3c9.8-13.3 13.2-17.6 17.7-24.6a46.55 46.55.0 0 0 3.6-6.3c-2.3 3.7-5.1 8-8 12.2C339.8 315.4 334.7 322.5 331.5 326.9zm29.7 102.8v.7l.5-.7z"/><path class="cls-1" d="M620.6 466.1a5.93 5.93.0 0 1-2.7 1.7l-1.7.5L610 470l-5.7 1.6-.3.1-10.9 3.1-1.8.5-5.7 1.6-13 3.7-5.7 1.6-10.4 3-2.6.7-4 1.1-1.7.5-13.1 3.7-1.3.4c-3.3-10.5-10-30.1-15.3-28.5-7.1 2-.4 25.8-.4 25.8l5.6 5.6c-2.4-2.3-4.8-4.7-7.2-7l-2.4-2.4c-4.8-4.7-9.7-9.4-14.5-14.1a3.51 3.51.0 0 1-.8-.5l-.6-.3c-1.2-.7-2.7-1.5-4.4-2.4h0a13.39 13.39.0 0 0-1.2-.6.76.76.0 0 0-.4-.2c-.1.0-.1-.1-.2-.1a10.91 10.91.0 0 0-1.1-.6 5.94 5.94.0 0 1-.8-.4c-.7-.4-1.4-.7-2.2-1.1-.3-.2-.6-.3-.9-.5-.6-.3-1.2-.6-1.9-.9a2.51 2.51.0 0 1-.7-.4c-1.2-.6-2.4-1.2-3.7-1.8a3 3 0 0 1-.8-.4c-2.1-1-4.3-2-6.5-3-.4-.2-.8-.4-1.3-.6a9.29 9.29.0 0 1-1-.5c-1.7-.7-3.4-1.4-5-2a5.64 5.64.0 0 0-1.2-.4c-.4-.1-.8-.3-1.2-.4-.9-.3-1.7-.6-2.5-.9-.3-.1-.5-.2-.8-.3s-.4-.1-.6-.2a13.32 13.32.0 0 0-1.9-.5c-.2-.1-.4-.1-.6-.2a4164777496871.19 4164777496871.19.0 0 0-1-.2c-.2.0-.4-.1-.6-.1s-.7-.1-1-.2-.4-.1-.6-.1H454c-.6-.1-1.1-.1-1.7-.2h-2.2a.6.6.0 0 0-.4.1 1390784423044.36 1390784423044.36.0 0 0-.6.2c-.1.0-.2.1-.3.1s-.1.0-.2.1-.1.1-.2.1-.2.1-.3.2-.1.1-.2.1-.1.1-.2.1a.1.1.0 0 0-.1.1l-.3.3c-1.1 1.4-.6 3.7-.5 4.1v.1c0 .1.1.3.1.4s.1.2.1.3a.31.31.0 0 0 .1.2c0 .1.1.2.1.3s.1.2.2.3a1.38 1.38.0 0 1 .3.4c0 .1.1.1.1.2s.1.1.1.2a1.38 1.38.0 0 1 .3.4l.3.3h0l.3.3.1.1c.1.1.3.2.4.3s.4.3.6.4a3.51 3.51.0 0 0 .8.5c.3.2.5.3.8.5h.1a3 3 0 0 0 .8.4c.3.1.5.3.8.4.1.1.3.1.5.2s.5.2.7.3a6.89 6.89.0 0 0 1 .4c.1.0.2.1.3.1s.3.1.4.1.1.1.2.1h.2c1.1.4 2.3.8 3.6 1.4.5.2 1.1.5 1.6.7a121.76 121.76.0 0 1 15.6 8.8c-1.5-.5-2.9-1-4.3-1.5-.9-.3-1.9-.6-2.8-.8-.3-.1-.5-.1-.8-.2l-3.3-.9-1.4-.3c-1.1-.3-2.2-.5-3.2-.8-.3-.1-.7-.1-1-.2s-.4-.1-.6-.1a22.5 22.5.0 0 1-2.2-.5c-1.1-.2-2.2-.5-3.5-.7-1.8-.3-3.7-.6-5.6-.9-.5-.1-1-.1-1.6-.2a15 15 0 0 0-2.2-.2c-.4.0-.9-.1-1.3-.1h-3.7a3.4 3.4.0 0 0-1 .1 2.2 2.2.0 0 0-.8.1.75.75.0 0 0-.5.1 3.55 3.55.0 0 0-1 .2c-.2.0-.4.1-.6.1a1.42 1.42.0 0 0-.6.2.52.52.0 0 0-.4.2c-.1.0-.1.1-.2.1s-.2.1-.3.1-.1.1-.2.1a2.09 2.09.0 0 0-.6.4l-.1.1c-.1.0-.1.1-.2.1s-.1.1-.2.2h0c-.1.0-.1.1-.2.2a.1.1.0 0 0-.1.1 1.38 1.38.0 0 0-.3.4.76.76.0 0 0-.2.4c-1 2 .2 4.5.4 4.8.1.1.1.2.2.3s.1.2.2.3.2.3.3.4a1.76 1.76.0 0 0 .4.5h0l.2.2.5.5.3.3a2.09 2.09.0 0 0 .6.4c.2.1.4.3.6.4h.1c.1.0.1.1.2.1h.1l.6.3.6.3c.1.0.2.1.3.1s.3.1.4.2.3.1.4.2c.4.1.9.3 1.3.4a4.33 4.33.0 0 1 .5.1 6.37 6.37.0 0 1 .7.2c.3.1.5.1.8.2s.4.1.6.1h.1c.3.0.5.1.8.1a.9.9.0 0 1 .5.1c.7.1 1.4.1 1.9.2H447a55.82 55.82.0 0 1 7 1c.3.1.7.1 1 .2a3.55 3.55.0 0 0 1 .2c.3.1.6.1.9.2l2.4.6c.2.0.3.1.5.1s.3.1.4.1a31.64 31.64.0 0 1 3.7 1.2 1.45 1.45.0 0 0 .7.2 8.8 8.8.0 0 0 1.5.5c.2.1.4.1.6.2 1.1.4 2.1.8 3.3 1.3h0c.9.3 1.7.7 2.6 1.1a2 2 0 0 1 .8.4h.1c.6.3 1.2.5 1.8.8a25.57 25.57.0 0 1 2.4 1.1c.3.2.7.3 1 .5.9.4 1.8.8 2.7 1.3a9.14 9.14.0 0 1 1.4.7c.5.2.9.5 1.4.7.2.1.3.2.5.3 1.3.7 2.7 1.4 4.1 2.1a7.49 7.49.0 0 0-1.6-.4c-.6-.2-1.2-.3-1.8-.5l-1.2-.3-1.2-.3a6.47 6.47.0 0 1-1.3-.4c-.6-.2-1.1-.3-1.7-.5l-.9-.3c-1.3-.4-2.6-.7-3.8-1-.6-.2-1.3-.3-1.9-.5a2.92 2.92.0 0 0-.9-.2c-4-1-7.6-1.9-10.9-2.6a14.16 14.16.0 0 0-2-.4c-2.1-.4-4-.8-5.7-1.1-.6-.1-1.2-.2-1.7-.3a4.33 4.33.0 0 1-.5-.1c-.4-.1-.9-.1-1.3-.2l-2-.3c-.5-.1-1-.1-1.5-.2-.3.0-.5-.1-.7-.1a6.6 6.6.0 0 0-1.4-.1 2 2 0 0 1-.7-.1 1.27 1.27.0 0 1-.6-.1 21.75 21.75.0 0 0-2.5-.1h-2.6a3.75 3.75.0 0 0-1.1.1.9.9.0 0 0-.5.1h-.4c-.2.0-.3.1-.5.1a.37.37.0 0 0-.3.1c-.2.0-.3.1-.5.1H435c-.1.0-.1.0-.2.1s-.2.1-.3.1-.2.1-.3.1-.2.1-.3.1-.2.1-.3.2-.2.1-.3.2l-.1.1-.1.1-.1.1-.1.1-.1.1c-.1.2-.2.3-.3.5a6.93 6.93.0 0 0-.3 5.1c.1.1.1.3.2.4v.1c.1.1.1.2.2.3h0c0 .1.1.1.1.2.2.2.3.4.5.6a.35.35.0 0 0 .2.1 1.38 1.38.0 0 0 .4.3c.1.1.2.1.3.2h0c.1.1.2.1.2.2.3.2.5.3.8.5l.6.3c.2.1.5.2.7.3a1.85 1.85.0 0 0 .7.2c.2.1.4.1.6.2.9.2 1.8.4 2.6.6h.5a.76.76.0 0 1 .4.1c.2.0.4.1.6.1s.5.1.7.1a3.09 3.09.0 0 1 .8.2h.1c.1.0.3.1.4.1s.3.1.5.1.3.1.4.1c.3.1.6.1 1 .2h0a13.64 13.64.0 0 1 1.7.4h.1a5 5 0 0 0 1.2.2h.1a5 5 0 0 0 1.2.2c1.1.2 2.3.5 3.6.8 1.6.3 3.3.7 5.2 1.1.2.0.4.1.6.1l1.4.3 1.5.3c1.5.3 3.1.7 4.8 1.1l5.1 1.2a.37.37.0 0 1 .3.1c.3.1.5.1.8.2s.5.1.8.2c.7.2 1.3.3 2 .5.4.1.7.2 1 .3 1.1.3 2 .5 2.8.8.2.0.3.1.5.1h-4.5c-1.1.0-2.2.1-3.3.1a4.1 4.1.0 0 0-1.1.1 19.48 19.48.0 0 0-2.5.2c-.4.0-.8.1-1.3.1l-2.7.3a29.83 29.83.0 0 0-3.3.4c-.3.0-.7.1-1 .1-1.4.2-2.7.4-3.8.6h-.3a.37.37.0 0 0-.3.1.76.76.0 0 0-.4.1 4.33 4.33.0 0 1-.5.1 1.85 1.85.0 0 0-.7.2c-.3.1-.6.1-.9.2-1 .2-2.2.5-3.5.9a6.47 6.47.0 0 0-1.3.4h0c-.2.1-.4.1-.6.2-.4.1-.9.3-1.3.4s-.9.3-1.3.4a1.42 1.42.0 0 1-.6.2l-.9.3a6.89 6.89.0 0 0-.8.3 2 2 0 0 0-.8.4 1.69 1.69.0 0 1-.5.2l-.6.3a7.84 7.84.0 0 0-1.8 1.1c-.2.1-.4.3-.6.4a2.65 2.65.0 0 0-.6.5l-.3.3-.3.3c-.1.1-.1.2-.2.2s-.2.2-.2.3-.1.2-.2.3-.1.2-.2.3l-.3.6a4.39 4.39.0 0 0-.3 1.9l-1.2.3-13.1 3.7-.7.2-5 1.4-1.6.5-11.3 3.2-5.7 1.6L385 534l-5.7 1.6h0a6.14 6.14.0 0 1-7.6-4.4l-1.6-5.8-.5-1.9-3.3-12-1.4-5.2-.5-1.9-3.8-14-.9-3.3-.5-1.9L354.5 468l-.5-1.9-4.7-17.3-.4-1.4c3.5-5.5 7.4-11.3 11.7-17.1l.5-.7c4.6-6.3 9.7-12.7 15.2-19.1 1-1.1 2-2.3 3-3.4 4.7-5.3 9.8-10.6 15.1-15.7 1.2-1.1 2.3-2.2 3.5-3.3 5.9-5.4 12.1-10.7 18.7-15.7.1.0.1-.1.2-.1 5.9-4.4 12-8.6 18.5-12.6 3.7-2.3 7.6-4.5 11.5-6.5.9-.5 1.7-.9 2.6-1.3a206.43 206.43.0 0 1 23.4-10.2c.3-9.7.5-19.4.8-29.2a45.56 45.56.0 0 1-14-11.6 48.46 48.46.0 0 1-10.5-27c12.3-8.1 18.7-16.7 22.3-22.9 5.7-10.1 8.2-21.2 14.7-23.9a103.35 103.35.0 0 0 7.1 9.8A98.25 98.25.0 0 0 522.7 261a9.43 9.43.0 0 1 5.6-1.9 10.9 10.9.0 0 1 4.9 1.3c4.2 2.4 6.4 8.5 5.6 13.8-1 7-7.2 12.6-13.2 12.8a10.65 10.65.0 0 1-3.9-.6c-.6 7.1-1.1 14.5-1.4 22.1s-.5 15-.6 22.2a237.77 237.77.0 0 1 67.4 1.9l.7 2.5 3.1 11.5 1.3 4.7.4 1.6 4.8 17.5.5 1.9.5 2 4.1 15.2.5 1.9.8 2.8 3.9 14.4.5 1.7 1.3 4.9 3.4 12.5.5 1.7 4.7 17.4.5 1.9 3 11.1A5.53 5.53.0 0 1 620.6 466.1z"/><path d="M377.6 149.6h0c-.4.0-.6-.3-.6-.7l6.9-68a.66.66.0 0 1 .4-.5.48.48.0 0 1 .6.2l46.3 52.8a.57.57.0 0 1-.8.8L384.9 82.4l-6.8 66.7A.47.47.0 0 1 377.6 149.6z"/><ellipse cx="385" cy="82.5" rx="3.4" ry="3.5"/></g><g id="head"><path id="hair" d="M587.5 332.5a237.56 237.56.0 0 0-67.4-1.9q.15-10.65.6-22.2c.4-7.6.8-15 1.4-22.1a8.89 8.89.0 0 0 3.9.6c6-.2 12.2-5.8 13.2-12.8.8-5.3-1.5-11.4-5.6-13.8a10.64 10.64.0 0 0-4.9-1.3 10.17 10.17.0 0 0-5.6 1.9A97.46 97.46.0 0 1 486.5 227c-6.6 2.7-9 13.8-14.7 23.9-3.6 6.3-10 14.9-22.3 22.9a49.78 49.78.0 0 0 10.5 27 47.08 47.08.0 0 0 14 11.6c-.3 9.7-.5 19.4-.8 29.2a206.43 206.43.0 0 0-23.4 10.2c-.9.4-1.7.9-2.6 1.3-3.9 2.1-7.8 4.3-11.5 6.5a222.5 222.5.0 0 0-18.5 12.6c-.1.0-.1.1-.2.1A238.7 238.7.0 0 0 398.3 388c-1.2 1.1-2.4 2.2-3.5 3.3-5.4 5.1-10.4 10.4-15.1 15.7-1 1.1-2 2.3-3 3.4-5.5 6.4-10.6 12.8-15.2 19.1H361v.7c-4.2 5.8-8.1 11.6-11.7 17.1l-11.6-42.8 2.7-2.4a6 6 0 0 0 .8-.8 44.7 44.7.0 0 0 4.6-5.5c.3-.4.5-.7.8-1.1a6.73 6.73.0 0 0 .7-1.1c.2-.4.5-.7.7-1.1.7-1.1 1.4-2.2 2-3.2a16.18 16.18.0 0 0 1-1.8c.8-1.3 1.4-2.6 2.1-3.8l.6-1.2a61.34 61.34.0 0 0 3-7.2l.3-.9c.1-.3.2-.5.3-.8a4.87 4.87.0 0 1 .4-1.1c0-.1.1-.3.1-.4s0-.1.1-.2a.35.35.0 0 1 .1-.2c.1-.3.2-.7.3-1a26.81 26.81.0 0 0 .7-2.7 2.92 2.92.0 0 0 .2-.9c0-.1.1-.3.1-.4.1-.3.1-.5.2-.8.0-.1.1-.2.1-.4s.1-.6.2-.9.2-.8.3-1.3.2-1.1.3-1.6c2.3-1.7 4.5-3.3 6.5-4.8 1.3-.9 2.5-1.9 3.6-2.7 2-1.5 3.9-3 5.7-4.4.6-.5 1.2-.9 1.7-1.3s1-.8 1.4-1.1c3-2.3 5.4-4.3 7.2-5.9 2.2-1.9 6.4-5.6 5.7-9.5a5.29 5.29.0 0 0-1.4-2.9 3.61 3.61.0 0 0-2.4-.7h-.8c-.3.0-.5.1-.8.1-.1.0-.3.1-.4.1a4.33 4.33.0 0 1-.5.1c-.5.1-.9.3-1.5.4-1.3.5-2.8 1.1-4.4 1.9l-1.2.6h0a7.46 7.46.0 0 0-1.2.7c-.4.2-.8.5-1.3.7s-.9.5-1.3.7-.7.4-1 .6c-1.9 1.1-3.8 2.4-5.8 3.7-.5.3-.9.6-1.4.9a1 1 0 0 0-.5.4 5.55 5.55.0 0 0-.8.6 7.63 7.63.0 0 0-1.1.8l-1 .7c-1.2.8-2.3 1.6-3.4 2.4l-1.3 1a11.32 11.32.0 0 0-1.3 1c-2.8 2.1-5.4 4.1-7.7 5.9l-.2-.2c.1-.1.5-.4 1.1-.9.2-.1.3-.3.5-.5s.3-.2.4-.4c1.7-1.4 4.3-3.7 7.3-6.3.3-.3.6-.5.9-.8 3.9-3.4 8.4-7.4 12.7-11.3a4.35 4.35.0 0 1 .7-.6l.6-.6c.3-.2.5-.5.8-.7s.6-.5.9-.8c.9-.9 1.8-1.7 2.7-2.5.4-.4.8-.7 1.2-1.1a6 6 0 0 0 .8-.8l.6-.6.9-.9.8-.8c.5-.5 1.1-1.2 1.8-1.9.1-.1.2-.3.4-.4s.1-.2.2-.3.3-.4.4-.6l.1-.1.3-.3c.1-.2.3-.4.4-.6s.2-.3.3-.4.1-.1.1-.2.2-.3.3-.4l.1-.1c.1-.2.2-.3.3-.5a.37.37.0 0 0 .1-.3c.1-.1.1-.2.1-.4s.1-.2.1-.3a.35.35.0 0 1 .1-.2l.3-1.2v-.9a2.77 2.77.0 0 0-.1-.9v-.1a.37.37.0 0 0-.1-.3 5.72 5.72.0 0 0-1.7-2.9.52.52.0 0 0-.4-.2c-.1.0-.1-.1-.2-.1a2.48 2.48.0 0 0-.9-.1h-.7a.76.76.0 0 0-.4.1.37.37.0 0 0-.3.1c-.2.0-.4.1-.6.1h0c-.2.1-.4.1-.6.2s-.2.1-.3.1-.5.2-.7.3a64 64 0 0 0-9.9 5.8c-.6.4-1.2.9-1.9 1.3a3 3 0 0 1-.7.5c-.3.2-.5.4-.8.6l-2.4 1.8a61 61 0 0 0-1.7 1.3 8.65 8.65.0 0 1-1 .7 10.47 10.47.0 0 1-1.1.8 2.7 2.7.0 0 0-.8.7c-.1.1-.2.2-.3.2l-1.5 1.2c-.7.5-1.3 1.1-2 1.6-.5.4-.9.8-1.4 1.2-1.7 1.4-3.6 2.9-5.5 4.6-.3.2-.6.5-.9.7-3.2 2.7-6.7 5.7-10.4 8.9 16.9-16.2 29.8-29.1 36.1-35.8 2-2.1 6-6.4 4.8-10a5.83 5.83.0 0 0-3.1-3.2c-6.7-3.5-32.7 22.5-48.2 38.7.1-.1.1-.2.2-.3s.2-.3.3-.4c.2-.3.5-.6.8-1s.4-.5.6-.8a6.42 6.42.0 0 1 1-1.3c9.8-13.3 13.2-17.6 17.7-24.6a46.55 46.55.0 0 0 3.6-6.3c.5-.9 1.1-1.7 1.5-2.5a18 18 0 0 0 2.9-5.9 8.3 8.3.0 0 0 .4-4.6h0c4.3-17.1 12.5-37.5 29.3-43.7 6-2.2 7.2.6 12.8-2.5 13.6-7.6 13.2-30.9 39.1-48.7 32.1-22.1 53.9 6.6 53.9 6.6a49.12 49.12.0 0 1 13.8-2c8.7.0 19.3 2.6 25 13.8 7.2 14.2 17.1 15.3 26.4 16.6z"/><path d="M472.8 311.6c.1.0.2.1.3.1a20.24 20.24.0 0 0 11.2 1.1c8.2-1.1 16.7-6.9 17.7-7.6a30.65 30.65.0 0 1-8.5 9.6 31.3 31.3.0 0 1-20.5 5.7C473 317.5 472.9 314.5 472.8 311.6z"/><path d="M519.7 265.7a.37.37.0 0 1-.3-.1.52.52.0 0 1-.2-.8 11.42 11.42.0 0 1 3.9-4.5 11.88 11.88.0 0 1 2.5-1.3.51.51.0 0 1 .7.4.67.67.0 0 1-.3.8 15.05 15.05.0 0 0-2.2 1.1 10 10 0 0 0-3.5 4.1A.86.86.0 0 1 519.7 265.7z"/></g><g id="hand_l" data-name="hand l"><path d="M326.1 309.5l-.4.6-.1.1a34.53 34.53.0 0 0-3.4 4.7c-.5.8-.8 1.5-2.2 3.9a26.54 26.54.0 0 1-1.4 2.3c-.7 1.4-1.5 2.8-2.2 4.2l-1-3.8-3.6-13.3s2.3-13.4 8.1-13.2S326.1 309.5 326.1 309.5z"/><path d="M301.3 368.3h-.1a.57.57.0 0 1-.4-.7l10.4-59.4a.61.61.0 1 1 1.2.2l-9.2 52.7L316 325.2a.57.57.0 0 1 .7-.4.53.53.0 0 1 .3.8l-15 42.3A1 1 0 0 1 301.3 368.3z"/><path d="M328.6 331.4a.37.37.0 0 1-.3-.1.53.53.0 0 1-.1-.8c7.5-10.2 12.9-17.9 16-22.5 4.1-5.9 7.3-10.9 9.6-14.7 1.4-2.4 4.7-8 2.8-10.8a4.58 4.58.0 0 0-2.2-1.5c-2-.6-8.3 2.4-28.3 29.5a.57.57.0 1 1-.9-.7c15.8-21.5 25.4-31.3 29.5-30a4.93 4.93.0 0 1 2.8 2c2.3 3.5-1.3 9.5-2.8 12.1-2.3 3.9-5.5 8.8-9.6 14.8-3.2 4.6-8.5 12.3-16 22.5A.76.76.0 0 1 328.6 331.4z"/><path d="M337.3 405.8a.55.55.0 0 1-.3-1l.7-.6c6.8-5.7 10.7-12.4 13.2-16.8a77.89 77.89.0 0 0 9.2-25.5.52.52.0 0 1 .2-.4c5.9-4.4 11.3-8.4 15.9-11.9 4.3-3.3 7.9-6.2 10.3-8.3 1.8-1.6 6.1-5.3 5.5-9a5.32 5.32.0 0 0-1.2-2.5c-1.6-1.4-8.8-2.1-40.4 22.5a.48.48.0 0 1-.7.0l-.2-.2a.61.61.0 0 1 0-.8.47.47.0 0 1 .6-.1c16.3-12.7 36.5-26.7 41.5-22.2a5.75 5.75.0 0 1 1.6 3.2c.7 4.4-4 8.4-5.9 10.1-2.5 2.1-6.1 5-10.4 8.4-4.5 3.5-9.8 7.5-15.7 11.8a76.91 76.91.0 0 1-9.3 25.7c-2.6 4.5-6.5 11.2-13.5 17.1l-.7.6A.76.76.0 0 0 337.3 405.8z"/><path d="M349.8 352.2a.55.55.0 0 1-.3-1c2.4-2 23.1-19.7 32.9-29.6 1.8-1.8 6-6 5.1-9.9a5.7 5.7.0 0 0-1.5-2.6c-1.8-1.5-10.2.6-46.6 32.4a.57.57.0 0 1-.7-.9c38.2-33.3 45.7-34.4 48.1-32.4a6 6 0 0 1 1.9 3.2c1.1 4.5-3.5 9-5.4 11-9.6 9.7-29.1 26.4-32.9 29.6A.85.85.0 0 1 349.8 352.2z"/><path d="M338.9 341.7a.76.76.0 0 1-.4-.2.61.61.0 0 1 0-.8l.1-.1c18.1-17.4 30.5-29.8 36-35.7 1.7-1.8 5.8-6.1 4.7-9.4a5.61 5.61.0 0 0-2.8-2.9c-2.7-1.4-12.4 1.8-47.5 38.6a.57.57.0 0 1-.8-.8c27.1-28.5 43.6-41.5 48.9-38.8a7.64 7.64.0 0 1 3.4 3.6c1.3 4-3.1 8.6-5 10.6-5.5 5.9-17.9 18.3-36.1 35.8C339.2 341.6 339.1 341.7 338.9 341.7z"/><path d="M316.4 325.3 301.3 367.7 306.5 338 315.8 323.1 316.4 325.3z"/><path d="M316.4 325.9a.37.37.0 0 1-.3-.1.54.54.0 0 1-.2-.8c.9-1.8 1.9-3.6 2.9-5.4a91.62 91.62.0 0 1 6.4-9.8.52.52.0 0 1 .8-.1.53.53.0 0 1 .1.8c-2.2 3.1-4.4 6.4-6.3 9.7-1 1.7-2 3.5-2.9 5.3A.51.51.0 0 1 316.4 325.9z"/></g><g id="hand_r" data-name="hand r"><path d="M514.2 549.1H514a55.41 55.41.0 0 1-6.8-2.5c-1-.5-2.1-1-3.2-1.5a58.36 58.36.0 0 1-5.7-3.5 55.71 55.71.0 0 1-18-21.3 57.24 57.24.0 0 0-13-1.2 50.4 50.4.0 0 0-8.7 1c-.4.1-11.6 3.4-17.9 2.6-1.7-.2-2.9-.8-3.5-1.9a4.28 4.28.0 0 1-.5-1.6 7.85 7.85.0 0 1 .3-2.1c1.9-5.8 18.7-8.9 20.6-9.2a131.88 131.88.0 0 1 23.6-1.8.6.6.0 0 1 0 1.2h0a129.66 129.66.0 0 0-23.4 1.8c-6.2 1.1-18.4 4.2-19.7 8.4a5.79 5.79.0 0 0-.3 1.7 1.49 1.49.0 0 0 .3 1c.4.7 1.3 1.1 2.7 1.3 6 .8 17.4-2.6 17.5-2.6a55.1 55.1.0 0 1 9-1 56.54 56.54.0 0 1 13.6 1.3c.2.0.3.2.4.3a54.54 54.54.0 0 0 17.8 21.1 46.45 46.45.0 0 0 5.6 3.4c1 .5 2.1 1 3.1 1.5a40.16 40.16.0 0 0 6.6 2.4.57.57.0 0 1 .4.7A.63.63.0 0 1 514.2 549.1z"/><path d="M528 499.6a.76.76.0 0 1-.4-.2l-1.2-1.2c-1-1.1-2.1-2.1-3.1-3.2-2.8-2.8-5.3-5.3-7.6-7.5-1.8-1.8-3.6-3.5-5.4-5.3-3.6-3.5-7.4-7.1-11.2-10.6-1.9-1-3.8-2.1-5.7-3.1h0l-1.6-.8c-2.6-1.4-10.6-5.6-18.6-9.2s-14.2-5.7-18.5-6.4q-5.25-.9-6.6.9c-.9 1.2-.5 3.2-.4 3.6v.1c.7 2.7 4.9 4.9 7.3 5.9a18.67 18.67.0 0 0 2.1.8 84.13 84.13.0 0 1 8.2 3.5c3.4 1.7 6.1 3.3 8.7 4.9 1.4.8 2.8 1.7 4.1 2.6a.63.63.0 0 1 .2.8.54.54.0 0 1-.8.2c-1.4-.9-2.7-1.7-4.1-2.6a82.77 82.77.0 0 0-8.6-4.8 80 80 0 0 0-8-3.4s-.9-.3-2.1-.8c-3.2-1.4-7.2-3.7-8-6.7V457a6 6 0 0 1 .6-4.7c1.2-1.6 3.7-2 7.7-1.4 4.5.7 10.8 2.9 18.8 6.5s16.1 7.8 18.7 9.2l1.6.8h0c2 1 3.9 2.1 5.8 3.2l.1.1c3.8 3.6 7.6 7.2 11.2 10.7 1.8 1.7 3.6 3.5 5.4 5.3 2.3 2.2 4.7 4.7 7.6 7.5 1.1 1.1 2.1 2.1 3.1 3.2l1.2 1.2a.61.61.0 0 1 0 .8A1.69 1.69.0 0 1 528 499.6z"/><path d="M481.3 507.3h-.2c-2.7-.8-5.2-1.4-7.8-2l-.3-.1c-6.2-1.5-12.5-2.9-18.5-4.2-8.1-1.8-13.3-2.8-13.3-2.8h-.1a20.44 20.44.0 0 1-5.4-1.6 6.22 6.22.0 0 1-3.2-3.2 7.87 7.87.0 0 1 .3-5.5 2.94 2.94.0 0 1 1-1.2 5.28 5.28.0 0 1 2-.9c3.2-.9 8.9-.6 17.2.8h.2c.5.1 1 .2 1.6.3 5.2.9 11.4 2.4 18.6 4.2 4.8 1.2 10.3 2.7 16.3 4.4a.57.57.0 0 1-.3 1.1c-5.9-1.7-11.4-3.2-16.2-4.4-7.1-1.8-13.4-3.2-18.5-4.2l-1.5-.3H453c-8.1-1.4-13.7-1.7-16.7-.8a4.79 4.79.0 0 0-1.6.7 2.7 2.7.0 0 0-.7.8 6.09 6.09.0 0 0-.3 4.6 4.92 4.92.0 0 0 2.7 2.6 19.72 19.72.0 0 0 5.1 1.5h.1c.1.0 5.3 1.1 13.4 2.8 6.1 1.3 12.3 2.7 18.5 4.2l.3.1c2.6.6 5.2 1.3 7.9 2.1a.68.68.0 0 1 .4.6C481.9 507 481.6 507.3 481.3 507.3z"/><path d="M489.4 496.6a.37.37.0 0 1-.3-.1q-8.7-4.65-16.2-7.8h-.1c-.9-.4-1.7-.7-2.5-1h0a98.32 98.32.0 0 0-15.9-5 67.54 67.54.0 0 0-6.9-1h-.4c-2.6-.2-7.9-.6-11.6-3a8 8 0 0 1-2.9-3.2c-.3-.7-1.4-3.2-.4-5.3a5.51 5.51.0 0 1 3.4-2.6c.2-.1.4-.1.6-.2 2.8-.7 7.1-.7 12.7.0q2.55.3 5.7.9c2.4.4 4.5.9 6.1 1.2h.2c4.1.9 8.3 2 12.4 3.3 1.6.5 3 1 4.4 1.5a147.19 147.19.0 0 1 17.4 7.5.6.6.0 1 1-.5 1.1 129.19 129.19.0 0 0-17.2-7.4 43.42 43.42.0 0 0-4.3-1.4q-6.15-2-12.3-3.3h-.2c-1.6-.3-3.7-.8-6.1-1.2-2.1-.4-3.9-.7-5.6-.9q-8.25-1.05-12.3.0a.76.76.0 0 0-.5.2 3.92 3.92.0 0 0-2.7 2c-.8 1.6.2 3.8.4 4.3a5.89 5.89.0 0 0 2.5 2.7c3.4 2.3 8.7 2.7 11 2.8h.4a65.44 65.44.0 0 1 7 1 99.2 99.2.0 0 1 16 5h.1c.9.3 1.7.7 2.6 1.1h.1c5 2.1 10.4 4.7 16.1 7.7h.1a.63.63.0 0 1 .3.8h0c-.1.1-.2.3-.3.3z"/><path d="M533.8 491.7l-.3.1-4.1 1.2-5.7 1.6L518 489s-6.6-23.8.4-25.8C523.8 461.7 530.5 481.2 533.8 491.7z"/><path d="M540.2 511.3c-.2.0-.5-.1-.5-.4l-4.5-12.6c-.1-.3-.3-.9-.6-2s-.8-2.6-1.3-4.4a.57.57.0 1 1 1.1-.3c.5 1.8 1 3.3 1.3 4.4s.5 1.7.6 1.9l4.5 12.6a.67.67.0 0 1-.3.8z"/><path d="M539.6 508.9 507.5 546a42.47 42.47.0 0 0 6.7 2.4c8.7-12.6 17.3-25.2 26-37.8a2.49 2.49.0 0 0-.1-.8A1.93 1.93.0 0 0 539.6 508.9z"/></g><g id="body"><path d="M299.6 615.2h-.7a27 27 0 0 1-11.4-2.2c-11.4-3.4-19.3-19.6-23.5-48.3-.9-5.9-1.4-11.5-1.8-15.2q-.15-1.95-.3-3.6c-2.6-27 1.9-61.8 13.4-103.4a694 694 0 0 1 25.6-75 .78.78.0 0 1 .4-.4c.2.0.4.0.5.2l35.9 37.6a.76.76.0 0 1 .2.4L336 522.1a.65.65.0 0 1-.6.6h0a.65.65.0 0 1-.6-.6l1.9-116.6-35.2-36.8a682.13 682.13.0 0 0-25.2 74c-11.4 41.4-15.9 76-13.3 102.9q.15 1.65.3 3.6c.4 3.6.9 9.2 1.8 15.1 4.1 28.2 11.7 44.1 22.7 47.4h.1a26.65 26.65.0 0 0 11 2.1 47.85 47.85.0 0 0 17.4-3.3 83.63 83.63.0 0 0 14.4-8.2c1.3-.9 2.7-1.8 4.1-2.9 12.8-9.1 28.3-22.1 43.6-36.7a.57.57.0 0 1 .8.8c-15.3 14.6-30.8 27.7-43.7 36.8-1.5 1.1-2.9 2-4.2 2.9a89 89 0 0 1-14.6 8.3A45.14 45.14.0 0 1 299.6 615.2z"/><path d="M593.1 500.6a.65.65.0 0 1-.6-.6c-.1-20.5-.1-40.9-.2-61.4v-5.4a.65.65.0 0 1 .6-.6h0a.65.65.0 0 1 .6.6v5.4c.1 20.5.1 40.9.2 61.4a.65.65.0 0 1-.6.6z"/><path d="M315.8 760.8c-.2.0-.3-.1-.5-.2a1.09 1.09.0 0 1-.1-.5l62.7-196.5c3.2-10.1 6.5-20.3 9.7-30.4L398 500.5c1.4-4.5 2.9-8.9 4.3-13.4 2-6.4 4.1-12.8 6.1-19.1l4.9-15.4a.57.57.0 1 1 1.1.3l-4.9 15.4c-2 6.4-4.1 12.8-6.1 19.1-1.4 4.5-2.8 8.9-4.3 13.4l-10.4 32.7c-3.2 10.1-6.5 20.3-9.7 30.4L316.6 759.6l276.7-14.5c0-27.1-.1-54.6-.2-81.6-.1-33.3-.3-58.7-.5-82.4a.65.65.0 0 1 .6-.6h0a.65.65.0 0 1 .6.6c.2 23.7.3 49.2.5 82.4.1 27.3.2 54.9.2 82.2a.56.56.0 0 1-.5.6L315.8 760.8z"/><path d="M631.9 492.7a.55.55.0 0 1-.5-.3c-13-19.6-26-39.3-39-58.9a.58.58.0 0 1 1-.6c13 19.6 26 39.3 39 58.9a.54.54.0 0 1-.2.8C632.2 492.7 632.1 492.7 631.9 492.7z"/><path d="M472.6 431.6h0a.68.68.0 0 1-.6-.4L449.5 352a.57.57.0 1 1 1.1-.3l22.2 78 25.1-35.3q23.25-32.85 46.5-65.6a.52.52.0 0 1 .8-.1.53.53.0 0 1 .1.8q-23.25 32.85-46.5 65.6l-25.7 36.3C473 431.6 472.8 431.6 472.6 431.6z"/><path d="M336.2 471a.37.37.0 0 1-.3-.1.54.54.0 0 1-.2-.8c1.2-2.3 2.6-4.7 4-7.2 3-5.3 6.2-10.6 9.4-15.7 23-36.1 63.2-83.7 123.8-105.9l.4-28.6a.6.6.0 1 1 1.2.0l-.4 29c0 .2-.2.5-.4.5-60.5 22-100.6 69.6-123.6 105.6-3.2 5.1-6.4 10.3-9.4 15.7-1.4 2.4-2.7 4.9-4 7.2A.85.85.0 0 1 336.2 471z"/><path d="M589.8 581.7c-36 0-65.5-14.2-81.7-24.2a1.38 1.38.0 0 1-.3-.4.9.9.0 0 1 .1-.5c3.5-5 7-10.1 10.4-15.2l5.7-8.3c5.2-7.6 10.4-15.2 15.7-22.8a.52.52.0 0 1 .4-.2l4.2-.8c1.1-.2 2.2-.4 3.3-.7q53.25-10.8 106.4-21.5c.3-.1.6.1.7.5s-.1.6-.5.7Q601 499.1 547.8 509.8c-1.1.2-2.2.4-3.3.7l-3.9.8c-5.2 7.5-10.4 15.1-15.5 22.6l-5.7 8.3c-3.4 4.9-6.7 9.8-10.1 14.6 20.6 12.5 62 31.5 110.4 20.3 9.3-2.2 34-7.9 54.3-23.7a75.53 75.53.0 0 0 23.8-31c7.4-18.7 4.4-35.6 1.8-50.5a12.86 12.86.0 0 0-.4-1.9l-.1-.6c-.1-.7-.3-1.5-.4-2.2-16.4-80.3-70.2-122.5-111.4-134.1-21.2-6-43.8-6.6-67.1-1.9a.9.9.0 0 1-.5-.1.76.76.0 0 1-.2-.5c.1-7.3.3-14.8.6-22.2s.8-14.8 1.4-22.1a.55.55.0 0 1 1.1.1c-.6 7.3-1.1 14.7-1.4 22.1-.3 7.2-.5 14.4-.6 21.4 23.3-4.6 45.8-3.9 66.9 2 30.1 8.5 56.9 28 77.6 56.3A206.63 206.63.0 0 1 699.8 467a17 17 0 0 1 .4 2.2l.1.6a10.62 10.62.0 0 0 .4 1.9c2.5 14.3 5.6 32.1-1.9 51.1a72 72 0 0 1-17.6 25.8c-2 1.9-4.3 3.8-6.6 5.6-20.5 16-45.3 21.7-54.7 23.9A128.05 128.05.0 0 1 589.8 581.7z"/><g id="pattern"><path d="M450.4 353.8h-3a.6.6.0 0 1 0-1.2h3a.6.6.0 0 1 0 1.2z"/><path d="M566.9 353.8H527.8a.6.6.0 0 1 0-1.2h57.8l7.4-.3h0a.6.6.0 0 1 0 1.2l-7.4.3z"/><path d="M598.3 372.9H514.2a.6.6.0 1 1 0-1.2h84.1a.65.65.0 0 1 .6.6A.58.58.0 0 1 598.3 372.9z"/><path d="M358.1 372.9h0a.6.6.0 1 1 .6-.6A.58.58.0 0 1 358.1 372.9z"/><path d="M455.9 372.9H417.5a.6.6.0 1 1 0-1.2h38.4a.65.65.0 0 1 .6.6A.58.58.0 0 1 455.9 372.9z"/><path d="M603.5 392.1H500.7a.6.6.0 0 1 0-1.2H603.5a.6.6.0 0 1 0 1.2z"/><path d="M461.3 392.1H395a.6.6.0 0 1 0-1.2h66.3a.6.6.0 1 1 0 1.2z"/><path d="M585.6 411.2H487.1a.6.6.0 1 1 0-1.2H604.2c1.5.0 2.9-.1 4.4-.1a.6.6.0 1 1 0 1.2c-1.5.0-2.9.1-4.4.1H585.6z"/><path d="M466.8 411.2H376.9a.6.6.0 1 1 0-1.2h89.9a.6.6.0 1 1 0 1.2z"/><path d="M585.6 430.3h-112a.6.6.0 0 1 0-1.2H604.4c3.1-.1 6.3-.1 9.4-.2a.65.65.0 0 1 .6.6.58.58.0 0 1-.6.6c-3.1.0-6.3.1-9.4.2H585.6z"/><path d="M472.2 430.3H361.7a.6.6.0 0 1 0-1.2H472.2a.65.65.0 0 1 .6.6A.53.53.0 0 1 472.2 430.3z"/><path d="M604.3 449.4h-1a.6.6.0 1 1 0-1.2h15.8a.6.6.0 1 1 0 1.2z"/><path d="M593 449.4H350a.6.6.0 1 1 0-1.2H593a.6.6.0 1 1 0 1.2z"/><path d="M436.5 468.6H355.1a.6.6.0 0 1 0-1.2h81.4a.6.6.0 0 1 0 1.2z"/><path d="M466.1 468.7h0c-2.2.0-4.4-.1-6.6-.1H449a.6.6.0 0 1 0-1.2h10.5c2.2.0 4.4.0 6.6.1a.6.6.0 1 1 0 1.2z"/><path d="M566.9 468.6H493.6a.6.6.0 0 1 0-1.2h92l7.5-.1h0a.65.65.0 0 1 .6.6.58.58.0 0 1-.6.6l-7.5.1z"/><path d="M470.6 487.7H452.9a.6.6.0 1 1 0-1.2h17.6a.65.65.0 0 1 .6.6A.47.47.0 0 1 470.6 487.7z"/><path d="M434.2 487.7H360.4a.6.6.0 0 1 0-1.2h73.8a.65.65.0 0 1 .6.6C434.7 487.4 434.5 487.7 434.2 487.7z"/><path d="M549.9 487.7H516.1a.6.6.0 1 1 0-1.2h33.8a.6.6.0 1 1 0 1.2z"/><path d="M436 506.8H365.6a.6.6.0 0 1 0-1.2h89.1l23-.3a.65.65.0 0 1 .6.6.58.58.0 0 1-.6.6l-23 .3z"/><path d="M415.7 526H370.8a.6.6.0 0 1 0-1.2h44.9a.6.6.0 0 1 0 1.2z"/><path d="M361.2 491a.65.65.0 0 1-.6-.6v-60a.6.6.0 1 1 1.2.0v60A.65.65.0 0 1 361.2 491z"/><path d="M379.9 536.2a.65.65.0 0 1-.6-.6V407.2a.6.6.0 1 1 1.2.0V535.6A.65.65.0 0 1 379.9 536.2z"/><path d="M398.6 530.8a.65.65.0 0 1-.6-.6V388.1a.6.6.0 0 1 1.2.0V530.2A.58.58.0 0 1 398.6 530.8z"/><path d="M417.3 525.5a.65.65.0 0 1-.6-.6V372.5a.6.6.0 0 1 1.2.0V524.9A.65.65.0 0 1 417.3 525.5z"/><path d="M436.1 520.1a.65.65.0 0 1-.6-.6l-.2-13.3V496a.6.6.0 0 1 1.2.0v10.2l.2 13.3a.53.53.0 0 1-.6.6z"/><path d="M436 468.7a.65.65.0 0 1-.6-.6V359.7a.6.6.0 1 1 1.2.0V468.1Q436.45 468.7 436 468.7z"/><path d="M436 486.9a.65.65.0 0 1-.6-.6v-8.1a.6.6.0 1 1 1.2.0v8.1C436.5 486.6 436.3 486.9 436 486.9z"/><path d="M454.6 488a.65.65.0 0 1-.6-.6v-1.9a.6.6.0 0 1 1.2.0v1.9A.58.58.0 0 1 454.6 488z"/><path d="M454.6 504.8a.65.65.0 0 1-.6-.6v-3.8a.6.6.0 1 1 1.2.0v3.8A.58.58.0 0 1 454.6 504.8z"/><path d="M454.6 452.1a.65.65.0 0 1-.6-.6V368a.6.6.0 0 1 1.2.0v83.5A.58.58.0 0 1 454.6 452.1z"/><path d="M454.6 487.7a.65.65.0 0 1-.6-.6v-5a.6.6.0 0 1 1.2.0v5A.58.58.0 0 1 454.6 487.7z"/><path d="M454.6 469.5a.65.65.0 0 1-.6-.6v-5.7a.6.6.0 1 1 1.2.0v5.7A.58.58.0 0 1 454.6 469.5z"/><path d="M454.6 509.7a.65.65.0 0 1-.6-.6v-5.6a.6.6.0 0 1 1.2.0v5.6A.58.58.0 0 1 454.6 509.7z"/><path d="M473.3 458.6a.65.65.0 0 1-.6-.6V430.1a.6.6.0 0 1 1.2.0V458A.65.65.0 0 1 473.3 458.6z"/><path d="M473.3 474a.65.65.0 0 1-.6-.6v-.8a.6.6.0 0 1 1.2.0v.8A.58.58.0 0 1 473.3 474z"/><path d="M473.1 507.4a.65.65.0 0 1-.6-.6v-2.3a.65.65.0 0 1 .6-.6h0a.65.65.0 0 1 .6.6v2.3A.58.58.0 0 1 473.1 507.4z"/><path d="M473.2 492.2a.65.65.0 0 1-.6-.6v-3.4a.65.65.0 0 1 .6-.6h0a.65.65.0 0 1 .6.6v3.4A.65.65.0 0 1 473.2 492.2z"/><path d="M492 467.7a.65.65.0 0 1-.6-.6V403.7a.6.6.0 1 1 1.2.0v63.4A.58.58.0 0 1 492 467.7z"/><path d="M510.7 482.4a.65.65.0 0 1-.6-.6V377.3a.6.6.0 0 1 1.2.0V481.8A.58.58.0 0 1 510.7 482.4z"/><path d="M529.4 491.2a.65.65.0 0 1-.6-.6V351a.6.6.0 0 1 1.2.0V490.6C529.9 490.9 529.7 491.2 529.4 491.2z"/><path d="M548.2 488.2a.65.65.0 0 1-.6-.6V329.1a.6.6.0 0 1 1.2.0V487.6A.65.65.0 0 1 548.2 488.2z"/><path d="M566.9 482.9a.65.65.0 0 1-.6-.6V329.9a.6.6.0 1 1 1.2.0V482.2A.67.67.0 0 1 566.9 482.9z"/><path d="M585.6 477.5a.65.65.0 0 1-.6-.6V332.2a.6.6.0 1 1 1.2.0V477A.63.63.0 0 1 585.6 477.5z"/><path d="M604.2 450.9a.65.65.0 0 1-.6-.6v-56a.6.6.0 0 1 1.2.0v56A.58.58.0 0 1 604.2 450.9z"/><path d="M540.6 335.7a.37.37.0 0 1-.3-.1.63.63.0 0 1-.2-.8c.2-.4.2-.4 8.1-.4h18.7c5.5.0 11.1.0 16.1.1h5.2a.6.6.0 1 1 0 1.2H583c-5 0-10.6.0-16.1-.1H548.2c-5.9.0-7.2.1-7.4.1z"/></g><ellipse cx="453.2" cy="533.7" rx="3.4" ry="3.5"/><ellipse cx="445.9" cy="594.4" rx="3.4" ry="3.5"/><ellipse cx="437.8" cy="656.6" rx="3.4" ry="3.5"/><ellipse cx="428.7" cy="720" rx="3.4" ry="3.5"/><path d="M336.9 430.7h0l-55.2-7.9c-.3.0-.5-.3-.5-.7a.56.56.0 0 1 .6-.5l55.1 7.9c.3.0.5.3.5.7A.54.54.0 0 1 336.9 430.7z"/><path d="M566.3 579.6a.65.65.0 0 1-.6-.6l-1.8-73.2a.6.6.0 1 1 1.2.0l1.8 73.2a.65.65.0 0 1-.6.6z"/><path d="M330.9 603a80.78 80.78.0 0 1-14.5 8.2 46.94 46.94.0 0 1-17.6 3.3 25.66 25.66.0 0 1-11.2-2.2c-14.3-4.2-20.3-28.1-23.1-47.8C286.5 567.3 313 576.7 330.9 603z"/><path d="M698.3 522.7a72.38 72.38.0 0 1-17.5 25.6 83.92 83.92.0 0 1-6.5 5.6c-9.3-19.2-9.9-41.1-1-59.4 6.9-14.3 17.9-22.7 26-27.4a17 17 0 0 1 .4 2.2c.2.9.3 1.7.5 2.5C702.9 487.4 705.6 504.2 698.3 522.7z"/></g></g></g></svg>