<svg xmlns="http://www.w3.org/2000/svg" viewBox="0 0 930.82 746.52"><defs><style>.cls-1{fill:#9050a6;}.cls-2{fill:#94c2f8;}</style></defs><g id="background"><g id="background-2" data-name="background"><path d="M43.16,711a5.36,5.36,0,0,1-3-1,5.36,5.36,0,1,1,4,.88h0A4.91,4.91,0,0,1,43.16,711Zm0-9.21A3.87,3.87,0,0,0,40,703.39a3.85,3.85,0,0,0-.64,2.87A3.8,3.8,0,0,0,41,708.75a3.85,3.85,0,0,0,2.87.64h0a3.8,3.8,0,0,0,2.49-1.59,3.85,3.85,0,0,0,.64-2.87,3.87,3.87,0,0,0-3.79-3.19Z"/><circle class="cls-1" cx="423.5" cy="685.42" r="5.12"/><path d="M57.09,298.85a7.94,7.94,0,0,1-2.4-.36,8.22,8.22,0,0,1-5.46-10.27A8.22,8.22,0,1,1,65,293h0A8.23,8.23,0,0,1,57.09,298.85Zm0-15a6.73,6.73,0,1,0,6.44,8.7h0a6.74,6.74,0,0,0-6.44-8.7Zm7.16,8.92h0Z"/><path d="M376.12,340.71a4.65,4.65,0,0,1-1.32-.2,4.49,4.49,0,0,1-3-5.6,4.49,4.49,0,1,1,8.58,2.62h0a4.42,4.42,0,0,1-2.18,2.65A4.48,4.48,0,0,1,376.12,340.71Zm0-7.48a3,3,0,0,0-1.4.35,3,3,0,1,0,4.26,3.51,3,3,0,0,0-2.86-3.86Zm3.58,4.08h0Z"/><circle class="cls-1" cx="301.37" cy="104.78" r="4.16"/><circle class="cls-1" cx="8.89" cy="500.67" r="8.89"/><circle class="cls-1" cx="715.58" cy="32.54" r="6.34"/><circle class="cls-1" cx="924.48" cy="386.95" r="6.34"/><path d="M37.37,48.09a.75.75,0,0,1-.53-.22L22,33.07A.75.75,0,0,1,22,32l14.8-14.8a.77.77,0,0,1,1.06,0L52.7,32a.75.75,0,0,1,0,1.06L37.9,47.87A.75.75,0,0,1,37.37,48.09ZM23.63,32.54,37.37,46.28,51.11,32.54,37.37,18.8Z"/><path d="M193.75,590.87a.75.75,0,0,1-.53-.22l-8.13-8.13a.75.75,0,0,1,0-1.06l8.13-8.13a.75.75,0,0,1,1.06,0l8.12,8.13a.75.75,0,0,1,0,1.06l-8.12,8.13A.75.75,0,0,1,193.75,590.87ZM186.68,582l7.07,7.07,7.06-7.07-7.06-7.06Z"/><path d="M555.81,355a.74.74,0,0,1-.42-.13l-7.73-5.29a.75.75,0,0,1-.19-1l5.29-7.73a.75.75,0,0,1,1-.2l7.73,5.3a.75.75,0,0,1,.2,1l-5.3,7.73A.74.74,0,0,1,555.81,355Zm-6.68-6.23,6.49,4.44,4.44-6.49-6.49-4.44Z"/><path d="M394.76,184.08a.75.75,0,0,1-.43-.13l-10.19-7a.74.74,0,0,1-.19-1l7-10.19a.75.75,0,0,1,1-.2l10.19,7a.74.74,0,0,1,.31.48.73.73,0,0,1-.11.56l-7,10.19A.76.76,0,0,1,394.76,184.08Zm-9.15-7.92,8.95,6.13,6.13-9-8.95-6.13Z"/><path d="M871.79,103h-.15a.73.73,0,0,1-.48-.32l-8.1-12.2a.76.76,0,0,1-.11-.57.77.77,0,0,1,.32-.47l12.2-8.1a.76.76,0,0,1,.57-.11.74.74,0,0,1,.47.32l8.1,12.2a.74.74,0,0,1-.21,1l-12.2,8.1A.75.75,0,0,1,871.79,103Zm-7.06-12.74,7.27,11,11-7.27-7.27-11Z"/><path d="M858.91,621h-.11a.76.76,0,0,1-.49-.29l-10.49-14a.74.74,0,0,1-.14-.56.7.7,0,0,1,.29-.49l14-10.49a.75.75,0,0,1,1,.15l10.49,14a.75.75,0,0,1-.15,1.05l-14,10.49A.74.74,0,0,1,858.91,621Zm-9.44-14.59,9.59,12.79,12.79-9.59-9.59-12.79Z"/><path d="M809.1,168.64a.74.74,0,0,1-.68-.45L798.65,146a.75.75,0,0,1,1.37-.61l9.77,22.17a.75.75,0,0,1-.39,1A.77.77,0,0,1,809.1,168.64Z"/><path d="M502.94,200.84a.65.65,0,0,1-.27-.05.76.76,0,0,1-.43-1L511,177.24a.76.76,0,0,1,1-.43.75.75,0,0,1,.43,1l-8.77,22.58A.74.74,0,0,1,502.94,200.84Z"/><path d="M507.33,727.32a.75.75,0,0,1-.16-1.48l23.65-5.25a.75.75,0,0,1,.32,1.47l-23.65,5.24Z"/><path d="M415.62,68a.77.77,0,0,1-.4-.12.74.74,0,0,1-.23-1l13-20.44a.75.75,0,0,1,1.26.8l-13,20.44A.74.74,0,0,1,415.62,68Z"/><path d="M655.79,121.34a.72.72,0,0,1-.4-.12.76.76,0,0,1-.23-1l13-20.44a.75.75,0,0,1,1.27.81l-13,20.44A.75.75,0,0,1,655.79,121.34Z"/><path d="M214.28,24.2a.75.75,0,0,1-.7-.49L205.12,1a.75.75,0,0,1,1.4-.52L215,23.19a.76.76,0,0,1-.44,1A.86.86,0,0,1,214.28,24.2Z"/><path d="M365,659.17a.75.75,0,0,1-.52-.21l-17.65-16.59a.75.75,0,1,1,1-1.09l17.65,16.59a.75.75,0,0,1,0,1.06A.73.73,0,0,1,365,659.17Z"/><path d="M322.86,489.64a.8.8,0,0,1-.3-.06.75.75,0,0,1-.39-1l9.52-22.27a.75.75,0,0,1,1-.4.76.76,0,0,1,.4,1l-9.52,22.27A.75.75,0,0,1,322.86,489.64Z"/><path d="M548.12,618.65a.75.75,0,0,1-.73-.61l-4.73-23.75a.74.74,0,0,1,.58-.88.75.75,0,0,1,.89.58l4.73,23.76a.74.74,0,0,1-.59.88Z"/><path d="M717.41,643.69a.74.74,0,0,1-.59-1.21l15-19a.75.75,0,0,1,1.18.94l-15,19A.74.74,0,0,1,717.41,643.69Z"/><path d="M845.7,734.23a.72.72,0,0,1-.59-.28l-14.93-19.08a.75.75,0,0,1,1.18-.92L846.29,733a.76.76,0,0,1-.13,1.05A.74.74,0,0,1,845.7,734.23Z"/><path d="M471.2,438.14a.77.77,0,0,1-.61-.31L456.26,418.3a.76.76,0,0,1,.16-1.05.75.75,0,0,1,1.05.16l14.33,19.53a.74.74,0,0,1-.16,1.05A.73.73,0,0,1,471.2,438.14Z"/><path d="M62.09,430.09a.77.77,0,0,1-.36-.09.75.75,0,0,1-.3-1L73,407.72a.75.75,0,1,1,1.32.72L62.75,429.7A.76.76,0,0,1,62.09,430.09Z"/><path d="M77.53,604.32a.74.74,0,0,1-.46-.16L57.8,589.48a.75.75,0,1,1,.91-1.19L78,603a.75.75,0,0,1,.15,1A.77.77,0,0,1,77.53,604.32Z"/><path d="M8.89,181a.76.76,0,0,1-.73-.59.74.74,0,0,1,.56-.89l23.62-5.38a.75.75,0,0,1,.9.57.76.76,0,0,1-.56.9L9.06,180.93Z"/><path d="M202.12,186.68a.73.73,0,0,1-.52-.21l-17.41-16.84a.75.75,0,0,1,0-1.06.75.75,0,0,1,1.06,0l17.41,16.85a.74.74,0,0,1-.52,1.28Z"/><path d="M271.3,357.24a.75.75,0,0,1-.59-.29l-15-19a.75.75,0,1,1,1.18-.93l15,19a.74.74,0,0,1-.13,1.05A.72.72,0,0,1,271.3,357.24Z"/><path d="M870.13,465.4a.74.74,0,0,1-.47-.16l-18.94-15.11a.75.75,0,0,1,.94-1.17l18.94,15.11a.75.75,0,0,1,.11,1.05A.71.71,0,0,1,870.13,465.4Z"/><path d="M903.6,269.81a.75.75,0,0,1-.38-1.39l20.88-12.28a.75.75,0,0,1,1,.27.74.74,0,0,1-.27,1L904,269.71A.75.75,0,0,1,903.6,269.81Z"/></g></g><g id="general"><g id="general-2" data-name="general"><g id="man_1" data-name="man 1"><path id="legs" d="M327.62,690.18c-20.94,0-62.61.37-75.17.37-.46,0-16-.09-19.41-.14l3.45-31-5.59.16c1-23.22,4.13-105.25,4.71-123.06-6.9-8.88-39.56-53.59-48.21-66.32L175.82,660.73c-1.46.12-3.85.25-6.83.36a37.15,37.15,0,0,0,4.43,3.37,39.93,39.93,0,0,0,9.31,3.94c11.73,3.71,15.69,1.94,21.26,4.3,4.16,1.75,9.63,6,13.76,17.48-20.93,0-62.61.37-75.17.37-.46,0-16-.09-19.41-.14,1-9.3-.76-179.45-2.67-262.94l111.84-8.74h0c4.92,8,10.58,17.27,16.73,27.66,34.15,57.73,37.9,72.27,39.47,83.9,0,0,.15,1.16.27,2.33,2.43,24.77-2.3,54.24-2.3,54.24q-2,15.38-4.25,31-3,20.58-6.12,40.64a33.1,33.1,0,0,0,16.44,9.89c11.74,3.71,15.7,1.94,21.27,4.3C318,674.45,323.49,678.68,327.62,690.18Z"/><path id="tshirt" class="cls-2" d="M313.81,193.44c-.1,2.51-.26,5.35-.47,8.49-.52,7.11-1.43,15.7-3,25.39-.31,2-.67,4.05-1.07,6.13-.66,3.53-1.28,6.87-1.89,10-4.45,23-8.14,36.69-19.59,47.32-6.07,5.63-15.83,9.75-35.4,17.93-12.15,5.08-22.5,8.66-29.81,11l6,60.62,3.81,38.35h-.05c-6.13.18-36.12,2.17-55.55,3.95-22.73,2.09-43.45,3.76-56.3,4.79l-1.87.15c-2.38-24.44-6.38-66.64-10-105.87-2.94-31.65-5.59-61.37-7-78.28-.31-3.78-.55-6.91-.71-9.29-.13-1.9-.31-4.2-.43-6.86a94,94,0,0,1,2-25.39c.46-2.1,1-4.27,1.7-6.48,1.81-5.86,4.07-11,10.47-21.34,3-4.77,6.8-10.65,11.9-18.23,1.48-2.19,3.05-4.53,4.75-7l1-1.47c4.77-7,10.35-15,16.65-23.76,1.56-2.18,3.16-4.4,4.82-6.67l1.25.7c4.61,2.63,15.85,9.3,22.37,13.31h0l2.17,1.33,1.62,1c-.37.62-.74,1.25-1.12,1.91-2.15,3.69-4.59,7.85-7.08,12.14-.3.49-.57,1-.86,1.47-4.29,7.28-8.68,14.76-12.15,20.71-.85,1.45-1.75,3-2.66,4.53-5.11,8.73-11.12,18.95-16.32,27.82-1.19,2-2.36,4-3.45,5.88l2.73,19.51q1.13,8.09,2.28,16.15,1.51,11,3.08,22c1.15.22,11.36,2.39,22.72,4.81,7.28,1.54,15,3.21,21.15,4.53s10.52,2.29,11.43,2.53l21.88-5.85,44.64-11.93c1.35-5.28,2.69-10.63,4-16.07s2.5-10.68,3.72-16.15c.57-2.56,1.12-5.17,1.68-7.77q1.39-6.62,2.69-13.1c.3-1.51.6-3,.89-4.52.6-3.09,1.18-6.18,1.75-9.24,0,0,0-.05,0-.08h.37l13.76.36,2.15.06,10.27.27Z"/><g id="hand_l" data-name="hand l"><path d="M186.88,122.76a.74.74,0,0,1-.64-.35.76.76,0,0,1,.24-1l2.81-1.75,3.27-2q2.13-1.33,3.87-2.37a4.44,4.44,0,0,0,2.22-2.34,4,4,0,0,0-.4-2.81,4.76,4.76,0,0,0-2.64-1.91c-1.08-.43-2.19-.88-2.52-2.17a2.82,2.82,0,0,1,.17-1.77,3.38,3.38,0,0,0,.2-1.83,3.62,3.62,0,0,0-.66-1.73,2.66,2.66,0,0,0-1.66-1,4,4,0,0,1-2.24-1.27,3.31,3.31,0,0,1-.75-2.09,3,3,0,0,0-.53-1.67,2.89,2.89,0,0,0-1.1-1,7.71,7.71,0,0,1-1.5-1.08A7.43,7.43,0,0,1,183,89.5c-.23-.57-.37-.9-.62-1.06-1.5-1-6.55,2.81-9.49,5.69a124.88,124.88,0,0,0-17.47,21.81c-.29.45-.58.89-.87,1.35l-.06.1a.75.75,0,1,1-1.24-.84c.32-.52.61-1,.91-1.43a126.48,126.48,0,0,1,17.68-22.06c1.36-1.34,8.3-7.89,11.37-5.88A3.4,3.4,0,0,1,184.36,89,6.14,6.14,0,0,0,186,91.53a6.58,6.58,0,0,0,1.24.89,4.3,4.3,0,0,1,1.58,1.38,4.39,4.39,0,0,1,.79,2.41,1.9,1.9,0,0,0,.41,1.25,2.68,2.68,0,0,0,1.49.79A4,4,0,0,1,194,99.74a5,5,0,0,1,.93,2.38,4.73,4.73,0,0,1-.25,2.57,1.47,1.47,0,0,0-.14.91c.14.53.68.78,1.63,1.16a6.13,6.13,0,0,1,3.36,2.52h0a5.52,5.52,0,0,1,.56,4,5.87,5.87,0,0,1-2.88,3.2q-1.74,1-3.85,2.37c-1,.63-2.12,1.31-3.28,2l-2.81,1.75A.7.7,0,0,1,186.88,122.76Z"/><path d="M179.64,133.07a.75.75,0,0,1-.35-1.42c.67-.35,1.75-.9,3.09-1.56,5.28-2.57,9.55-4.27,13-5.64,4.49-1.78,7.45-3,7.46-4.22,0-.93-1.34-2-2.27-2.4-1.44-.65-3.08-.23-4.52.14a12.57,12.57,0,0,0-2.77,1.06.75.75,0,0,1-.7-1.32,13.73,13.73,0,0,1,3.1-1.2c1.6-.41,3.59-.91,5.51-.05,1.1.5,3.17,1.93,3.15,3.79,0,2.26-2.82,3.38-8.41,5.6-3.41,1.35-7.66,3-12.88,5.59-1.33.65-2.4,1.2-3.06,1.54A.72.72,0,0,1,179.64,133.07Z"/><path d="M183.66,130.31h0l-4.65,2-25.1-15.42.87-1.36Z"/></g><g id="hand_r" data-name="hand r"><path d="M312.88,194.13h0a.71.71,0,0,1-.74-.71c0-1.62,0-3.14,0-4.6-.08-2.36-.22-4.7-.43-7a100.23,100.23,0,0,0-1.82-11.62,40.19,40.19,0,0,0-2.82-8.38c-.81-1.55-1.63-2.45-2.27-2.46a6,6,0,0,0-2.8.78,5.5,5.5,0,0,0-.86.63,3,3,0,0,1-3.56.51,2.34,2.34,0,0,0-1.26-.27,2.78,2.78,0,0,0-1.68,1,4,4,0,0,1-2.75,1.41,2.55,2.55,0,0,1-1.22-.22,3.1,3.1,0,0,0-1.06-.22,5.51,5.51,0,0,0-3,.57,3.22,3.22,0,0,0-1.4,1.62,4.29,4.29,0,0,1-1.9,2.11,3.69,3.69,0,0,1-1.85.45,3.51,3.51,0,0,0-1.61.35,4.25,4.25,0,0,0-2.23,1.91c-.51,1.3.26,2.81.73,3.72s.81,1.66,1.25,2.6l.15.31.72,1.59,0,.07h0c.8,1.8,1.68,3.83,2.67,6.14a.75.75,0,0,1-1.38.59c-1-2.27-1.84-4.28-2.63-6.06l0-.08c-.25-.56-.5-1.11-.74-1.62l-.13-.31c-.44-.91-.85-1.77-1.24-2.55-.54-1.06-1.55-3-.78-5a5.48,5.48,0,0,1,2.94-2.68,5,5,0,0,1,2.25-.52,2.26,2.26,0,0,0,1.18-.27,2.82,2.82,0,0,0,1.27-1.47,4.65,4.65,0,0,1,2-2.25,7,7,0,0,1,3.78-.76,4.38,4.38,0,0,1,1.54.33,1.33,1.33,0,0,0,.61.11,2.6,2.6,0,0,0,1.78-1,4.16,4.16,0,0,1,2.57-1.41,3.66,3.66,0,0,1,2,.38,1.61,1.61,0,0,0,1.28.18,1.56,1.56,0,0,0,.7-.44,7,7,0,0,1,1.1-.8,7.52,7.52,0,0,1,3.59-1c1.26,0,2.43,1.09,3.56,3.26a42.85,42.85,0,0,1,3,8.76,101.19,101.19,0,0,1,1.84,11.8c.21,2.29.36,4.66.44,7.06,0,1.48,0,3,0,4.57A.79.79,0,0,1,312.88,194.13Z"/><path d="M282.6,193.37a.75.75,0,0,1-.55-.24l-1.6-1.73c-.42-.47-.89-1-1.38-1.57a89.11,89.11,0,0,1-8.26-10.57c-1.93-3.16-2.42-5.44-1.48-7a4.08,4.08,0,0,1,3.68-1.68c.95.1,2,.52,5.25,4.7l.8,1,1,1.34.32.44a.75.75,0,0,1-1.11,1l-.08-.09-.35-.48-.95-1.31-.79-1c-2.76-3.54-3.67-4.07-4.21-4.12a2.63,2.63,0,0,0-2.27,1c-.41.67-.49,2.15,1.49,5.39a87.56,87.56,0,0,0,8.11,10.37c.49.57.95,1.09,1.37,1.55l1.57,1.71a.75.75,0,0,1,0,1.06A.73.73,0,0,1,282.6,193.37Z"/><path d="M312.88,193.34l-14.35-.3-16.29-.35s0-.05,0-.08h.35l-1.05-1.12c6.72-.56,24.37-2.1,31.3-2.7C312.89,190.26,312.9,191.77,312.88,193.34Z"/></g><g id="head"><path id="hair" d="M210.05,227.15l-.39.17-.19.08-1.47.65c-.71.3-1.4.62-2.1.93L204,235.39c-.56,2-1.13,4-1.69,5.93-.58,0-3.16-.28-3.72-.37a6.75,6.75,0,0,0-1.78-7c-2.53-2.25-6.18-1.42-8.23-.19a8.33,8.33,0,0,0-3.66,8.26,8.68,8.68,0,0,0,.33,1.42,9.31,9.31,0,0,0,4,4.87c-.14.16-.27.32-.42.48q-2.76,3.09-5.75,6.29c-2.66,2.82-5.3,5.52-7.91,8.07l-4.54-.72-2.13-.34-8.17-1.32v0c-.2,0-.41-.05-.61-.09a143.72,143.72,0,0,1,.15-17.22,118.39,118.39,0,0,1,1.46-12.15,35.06,35.06,0,0,1,.89-4,20.19,20.19,0,0,1,1.92-4.52c5.15-8.88,15.16-11.2,16.36-11.46a28.72,28.72,0,0,1,5.58-.5c4.69,0,11.51,1,17.29,5.78a18,18,0,0,1,6.35,9A14.52,14.52,0,0,1,210.05,227.15Z"/><path d="M191.77,250.8l-.19,0a12.49,12.49,0,0,1-4.11-1.94.75.75,0,1,1,.88-1.21,11.13,11.13,0,0,0,1.86,1.08,11.72,11.72,0,0,0,1.75.62.75.75,0,0,1-.19,1.47Z"/><g id="face"><path d="M189.58,275.54a.74.74,0,0,1-.75-.75l0-7.67a.74.74,0,0,1,.75-.74l.58,0c3.28.09,9.54-.4,14.05-4.83,4-3.91,4.62-9,5.43-15.45.11-.87.2-1.78.26-2.69a55.4,55.4,0,0,0-1.2-15.87.15.15,0,0,1,0-.07h0c0-.22-.09-.44-.14-.67l-.5-1h0s-.58-1.06-1.24-2a29.85,29.85,0,0,0-4.66-5c-1-.79-10-7.69-21.12-5.35-8.46,1.77-13,7.91-15.29,12.74-.26.54-.47,1-.64,1.44a25.86,25.86,0,0,0-1.42,4.43,102.26,102.26,0,0,0-1.62,11.53c-.47,4.94-.81,10.74-1,17.23a.57.57,0,0,1,0,.13l-.2,7.58a.77.77,0,0,1-.77.73.75.75,0,0,1-.73-.77l.2-7.66a.68.68,0,0,1,0-.14c.21-6.49.55-12.29,1-17.24a103.1,103.1,0,0,1,1.66-11.71,26.43,26.43,0,0,1,1.49-4.67c.18-.45.4-1,.68-1.53,2.45-5.13,7.27-11.66,16.33-13.56,11.76-2.49,21.32,4.81,22.37,5.65a31.31,31.31,0,0,1,5,5.36c.7,1,1.3,2.12,1.32,2.16.24.46.43.84.56,1.13a.35.35,0,0,1,0,.13c.07.28.13.54.18.8h0s0,.06,0,.09a56.75,56.75,0,0,1,1.23,16.27c-.07.94-.16,1.88-.27,2.78-.85,6.74-1.52,12.06-5.87,16.33-4.8,4.71-11.31,5.33-14.94,5.27l0,6.88A.75.75,0,0,1,189.58,275.54Z"/><path d="M190.1,266.4c0,.39-.09.78-.13,1.17-.22,2.18-.34,4.29-.38,6.31h0l-2.87-3.15c-2-2.14-3.89-4.27-5.85-6.4a27.47,27.47,0,0,0,6.76,1.85C188.49,266.29,189.32,266.37,190.1,266.4Z"/></g></g></g><g id="man_2" data-name="man 2"><g id="hand_l-2" data-name="hand l"><path d="M787.14,411.58a3.88,3.88,0,0,1-3-1.51c-1.11-1.47-.75-3.4.2-6.05.46-1.3,1.08-2.82,1.87-4.74l.86-2.08c.5-1.22,1-2.49,1.51-3.79-2.68,3.32-4.82,6.14-6.4,8.4-.06.09-1.14,1.48-2.55,3.08-4,4.5-5.55,4.88-6.4,4.78a4.27,4.27,0,0,1-3-2.26,4.65,4.65,0,0,1-.38-3,16,16,0,0,1,2.82-5.8,18,18,0,0,1,2-2.45,85,85,0,0,0,5.55-6.65c-.76.75-1.64,1.6-2.64,2.56-1.84,1.77-3.36,3.21-4.41,4.17-8.21,7.55-10,7.78-11.27,7.3a4.25,4.25,0,0,1-2.56-3.45c-.25-2.28,1.74-4.27,4.49-7,.74-.74,1.26-1.18,1.26-1.18,1.93-1.71,5.29-4.82,10-9.25-8.86,4.6-15.35,7.83-16.42,8.13a3.64,3.64,0,0,1-2.53-.11,2.73,2.73,0,0,1-.6-.4,4.67,4.67,0,0,1-1.09-1.71h0a4,4,0,0,1-.26-1.46c.09-3.19,4.46-5.22,6.32-6.08,10.45-4.87,21.42-9.94,32.62-15.06l.92-.42,1.69-.78,5.23-2.38a.75.75,0,0,1,.62,1.37l-5.22,2.37-1.7.78-.91.42c-11.21,5.12-22.17,10.19-32.6,15.05-1.49.69-5.4,2.51-5.47,4.77a2.37,2.37,0,0,0,.17.9v0h0a3.08,3.08,0,0,0,.68,1.07.86.86,0,0,0,.25.17,2.23,2.23,0,0,0,1.47,0c.95-.28,8.64-4.07,21-10.56a.75.75,0,0,1,.86,1.21c-6.89,6.48-11.62,10.86-14.07,13,0,0-.5.44-1.19,1.13-2.46,2.45-4.23,4.23-4.06,5.79a2.82,2.82,0,0,0,1.57,2.21c.66.24,2.4-.22,9.76-7,.72-.67,2.07-1.93,4.38-4.15s3.87-3.77,5-4.89c2.61-2.57,2.76-2.72,3.38-2.21a.79.79,0,0,1,.28.57c.06,1.16-5.68,8.7-9.46,12.74a16,16,0,0,0-1.79,2.25,15.15,15.15,0,0,0-2.59,5.21,3.17,3.17,0,0,0,.24,2,2.8,2.8,0,0,0,1.89,1.47c.13,0,1.29,0,5.09-4.28,1.38-1.57,2.45-3,2.46-3,2.13-3,5.3-7.12,9.42-12.08a.75.75,0,0,1,1.28.75c-1.09,2.86-2.17,5.61-3.21,8.17l-.86,2.1c-.78,1.89-1.4,3.39-1.85,4.66-.92,2.57-1,3.83-.41,4.64a2.45,2.45,0,0,0,1.84.92c.91,0,1.87-.84,2.85-2.43.4-.63.74-1.27,1-1.84l.24-.48c.27-.51.53-1,.79-1.54l0-.1c1.45-2.82,2.86-5.64,4.22-8.41.74-1.49,1.47-3,2.19-4.49a.75.75,0,0,1,.62-.42,31.27,31.27,0,0,0,7.92-1.71,31.6,31.6,0,0,0,10.11-6,34.49,34.49,0,0,0,5-5.38.75.75,0,0,1,1.2.9,36.55,36.55,0,0,1-5.21,5.61,32.65,32.65,0,0,1-10.59,6.24,32.31,32.31,0,0,1-7.87,1.76q-1,2.07-2,4.12c-1.36,2.77-2.78,5.6-4.21,8.41l-.72-.25.66.34c-.26.53-.52,1.05-.79,1.57l-.24.46a22.45,22.45,0,0,1-1.1,2c-1.28,2.06-2.61,3.09-4.08,3.13Zm-31.29-23.25h0Z"/></g><g id="tshirt-2" data-name="tshirt"><path d="M781.56,401.38c1.61-2.32,4.37-6,9.4-12.06-1.2,3.14-2.28,5.89-3.2,8.16-1.17,2.85-2.11,5-2.72,6.79l-6,.13C780.47,402.79,781.56,401.38,781.56,401.38Z"/><path d="M797.31,404l-3.44.07-1,0h-.15l.06-.11q2.12-4.12,4.21-8.4C797.12,398.42,797.21,401.23,797.31,404Z"/><path id="tshirt-3" data-name="tshirt" d="M822.19,255a142.48,142.48,0,0,0-48.39-21,169.66,169.66,0,0,0-17.12-3v-4.11c-6.73.2-13.65.3-20.72.3q-10.85,0-21.15-.3v7.71c-1.8.57-3.62,1.19-5.45,1.89-7.12,2.72-18.32,8-33.72,21.62-20,17.74-35.4,39.23-41,47.3q-6.6-13.56-13.16-27.61-4.92-10.59-9.6-21c.1,2.71,1.63,42.27,1.74,45,.11,3,1.7,44.09,1.81,47.09a24,24,0,0,0,5.6,4.75,13.4,13.4,0,0,0,4.05,2c17.95,4.65,41.28-20.86,51.25-31.78,3.31-3.63,5.87-6.84,7.6-9.13q-2.64,19.38-5.42,39-3.79,26.63-7.77,52.84l99.79-2a15.55,15.55,0,0,1,2.7-5.5,18,18,0,0,1,1.86-2.34c4.76-5.09,9.54-12,9.26-12.23s-1.87,1.75-7.39,7.07c-2.52,2.42-3.83,3.63-4.4,4.16-8,7.37-9.58,7.48-10.52,7.15A3.54,3.54,0,0,1,760,400c-.21-1.92,1.61-3.74,4.27-6.41.72-.72,1.22-1.15,1.22-1.15,2-1.82,6.2-5.63,14.06-13-11.48,6-20,10.29-21.14,10.62a3,3,0,0,1-2-.06,2,2,0,0,1-.44-.3,3.77,3.77,0,0,1-.87-1.38,3.56,3.56,0,0,1-.23-1.2c.08-2.73,4.25-4.66,5.91-5.43,5.11-2.39,16.79-7.82,32.6-15.05l2.72,1.94c1.8,1.28,3.61,2.56,5.45,3.83q8.15,5.67,16.12,10.84,5.69,3.71,11.27,7.17A216.67,216.67,0,0,0,859.71,342c6-13.08,9.08-19.78,9.07-27.87C868.71,286.21,838.6,266,822.19,255Zm-8.93,81.17q-8.87,10.44-17.56,19.89l-.9-27.59c-.33-10.48-.71-22.28-1-32.77q9.06,4.56,18.24,9.3,9.48,4.89,18.7,9.8Q822.49,325.3,813.26,336.18Z"/></g><g id="shoes"><path d="M619.14,675.12q1.51,11.53,2.84,21.47c-10.19-.05-22.51-.06-36.74,0,4.23-13.36,10-18.12,14.8-19.9C606.75,674.15,611.4,676.61,619.14,675.12Z"/><path d="M679.11,696.77c-3.57.06-8.57.12-14.57.14l-4.38-5.59v5.6h-.32c-12.46,0-21.6-.24-25.16-.26l-6.85,0c-.14-7.46-.3-15.64-.49-24.47,4-2.18,8.42-5.75,13-11.65h34.76Q677.09,678.64,679.11,696.77Z"/><path d="M788.59,691.32l4.39,5.59c5.54,0,10.18-.08,13.54-.13q-2-18.09-4-36.2-17.49.07-35,.18c-7.56,9.67-14.76,13-20.11,14.18-8.26,1.86-13-.88-20,1.73-4.75,1.78-10.57,6.54-14.8,19.9,20.77-.05,37.48,0,49.44.09,3.56,0,12.7.26,25.17.26h1.33Z"/></g><g id="head-2" data-name="head"><path d="M721.42,227.82a.75.75,0,0,1-.74-.61l-.57-3a20.91,20.91,0,0,1-13.38-3.06c-9.35-6.14-9.32-18.51-9.31-22.58a40.1,40.1,0,0,1,3.78-16.83c0-.1.1-.2.16-.3a24.14,24.14,0,0,1,10.42-10.83c1.15-.61,11.52-5.81,21-1.28,6.61,3.17,10.84,10,13.71,22.21l.13.55a.75.75,0,1,1-1.45.39l-.14-.57c-2.76-11.73-6.74-18.27-12.9-21.22-8.83-4.23-18.58.67-19.66,1.24a22.81,22.81,0,0,0-9.81,10.24l-.13.24a38.5,38.5,0,0,0-3.62,16.16c0,3.87,0,15.63,8.63,21.32a19.67,19.67,0,0,0,13.09,2.77.74.74,0,0,1,.81.6c.24,1.23.47,2.45.7,3.68a.75.75,0,0,1-.6.88Z"/><path d="M742.27,209.24h-.45a.75.75,0,0,1,.07-1.5,6.65,6.65,0,0,0,2.8-.43c3-1.21,6.41-5.34,4.78-10a7.8,7.8,0,0,0-9.94-4.76,9.2,9.2,0,0,0-2.07,1.1,7.08,7.08,0,0,0-2.36,3.67.76.76,0,0,1-.93.53.75.75,0,0,1-.52-.92,8.54,8.54,0,0,1,2.89-4.46l0,0a8.77,8.77,0,0,1,2.46-1.36,9.3,9.3,0,0,1,11.86,5.68c1.94,5.5-2,10.42-5.65,11.85A8.15,8.15,0,0,1,742.27,209.24Z"/><g id="hair-2" data-name="hair"><path id="hair-3" data-name="hair" d="M747.81,192.74c-.63-.36-4.72-2.62-8.7-1.1a9.13,9.13,0,0,0-3.19,2.12,8,8,0,0,0-1.72,3.17l-7.8-11.68a27.53,27.53,0,0,1-6.23-2.63,45.79,45.79,0,0,1-8.31-6.52,20.7,20.7,0,0,1-3.75,3.07,20.93,20.93,0,0,1-6.78,2.8,24,24,0,0,1,9.91-13.22c7.58-4.76,16.86-4.13,23.64-.52C743.47,172.81,748.56,182.46,747.81,192.74Z"/><polygon points="749.3 204.25 749.7 214.72 745.94 207.52 749.3 204.25"/></g><path d="M751.67,227.79a.74.74,0,0,1-.74-.63q-1-6.25-2-12.58l-.29-1.83c-.34-2.29-.7-4.59-1-6.88a.75.75,0,0,1,.64-.85.74.74,0,0,1,.85.63c.33,2.29.68,4.59,1,6.88l.28,1.82c.65,4.22,1.31,8.4,2,12.57a.75.75,0,0,1-.62.86Z"/></g><g id="legs-2" data-name="legs"><path d="M763.44,661.53a.75.75,0,0,1-.74-.64c-2.49-16.84-5.2-34.65-8-52.94v0l-.63-4v0c-4.31-27.71-8.84-55.83-13.47-83.56l-.72-4.31c-.26-1.58-.52-3.16-.79-4.73-3.56-21.26-7.28-42.84-11.36-66a.75.75,0,0,1,.61-.87.74.74,0,0,1,.86.61c4.09,23.15,7.8,44.74,11.36,66,.27,1.57.54,3.16.8,4.73l.72,4.31c4.63,27.75,9.16,55.88,13.48,83.62v0l.63,4v0c2.79,18,5.46,35.63,7.93,52.27l15.55-.09,4.63,0,18.21-.09,9.34-.06-18.7-255.62a.75.75,0,1,1,1.49-.11l18.76,256.42a.71.71,0,0,1-.2.57.76.76,0,0,1-.55.24l-10.13.06-18.21.09-4.58,0-16.25.09Z"/><path d="M678,661.25H632.17a.75.75,0,0,1-.58-.27.8.8,0,0,1-.16-.63l50.63-255.46a.76.76,0,0,1,.89-.59.74.74,0,0,1,.58.88L633.08,659.75h44.4l.31-1,38.07-119v0l18.3-57.2a.75.75,0,0,1,1.43.46l-18.3,57.2v0l-.38,1.19L678.74,660.73A.75.75,0,0,1,678,661.25Z"/><g id="pattern"><circle cx="685.29" cy="405.64" r="2.44"/><circle cx="711.72" cy="405.64" r="2.44"/><circle cx="738.15" cy="405.64" r="2.44"/><circle cx="764.58" cy="405.64" r="2.44"/><path d="M793.44,405.64a2.44,2.44,0,0,1-2.44,2.44,2,2,0,0,1-.34,0c.42-.66.77-1.34,1.06-1.91s.7-1.34,1-2l.06-.11a.31.31,0,0,1,.09.11A2.37,2.37,0,0,1,793.44,405.64Z"/><circle cx="698.5" cy="417.87" r="2.44"/><circle cx="724.93" cy="417.87" r="2.44"/><circle cx="751.36" cy="417.87" r="2.44"/><circle cx="777.79" cy="417.87" r="2.44"/><circle cx="685.29" cy="432.1" r="2.44"/><circle cx="711.72" cy="432.1" r="2.44"/><circle cx="738.15" cy="432.1" r="2.44"/><circle cx="764.58" cy="432.1" r="2.44"/><circle cx="791" cy="432.1" r="2.44"/><circle cx="698.5" cy="444.33" r="2.44"/><circle cx="724.93" cy="444.33" r="2.44"/><circle cx="751.36" cy="444.33" r="2.44"/><circle cx="777.79" cy="444.33" r="2.44"/><circle cx="685.29" cy="459.54" r="2.44"/><circle cx="711.72" cy="459.54" r="2.44"/><circle cx="738.15" cy="459.54" r="2.44"/><circle cx="764.58" cy="459.54" r="2.44"/><circle cx="791" cy="459.54" r="2.44"/><circle cx="672.08" cy="471.77" r="2.44"/><circle cx="698.5" cy="471.77" r="2.44"/><circle cx="724.93" cy="471.77" r="2.44"/><circle cx="751.36" cy="471.77" r="2.44"/><circle cx="777.79" cy="471.77" r="2.44"/><circle cx="685.29" cy="486" r="2.44"/><circle cx="711.72" cy="486" r="2.44"/><circle cx="738.15" cy="486" r="2.44"/><circle cx="764.58" cy="486" r="2.44"/><circle cx="791" cy="486" r="2.44"/><circle cx="672.08" cy="498.23" r="2.44"/><circle cx="698.5" cy="498.23" r="2.44"/><circle cx="724.93" cy="498.23" r="2.44"/><circle cx="751.36" cy="498.23" r="2.44"/><circle cx="777.79" cy="498.23" r="2.44"/><path d="M663.74,513.44a2.44,2.44,0,0,1-2.45,2.43,2.28,2.28,0,0,1-.45,0l.94-4.79A2.45,2.45,0,0,1,663.74,513.44Z"/><circle cx="687.73" cy="513.43" r="2.44"/><circle cx="714.16" cy="513.43" r="2.44"/><path d="M743,513.44a2.43,2.43,0,0,1-2.44,2.43c-.26-1.58-.53-3.16-.79-4.74a2.26,2.26,0,0,1,.79-.13A2.44,2.44,0,0,1,743,513.44Z"/><circle cx="767.01" cy="513.43" r="2.44"/><circle cx="793.44" cy="513.43" r="2.44"/><circle cx="674.51" cy="525.66" r="2.44"/><circle cx="700.94" cy="525.66" r="2.44"/><circle cx="753.8" cy="525.66" r="2.44"/><circle cx="780.23" cy="525.66" r="2.44"/><circle cx="661.3" cy="539.89" r="2.44"/><circle cx="687.73" cy="539.89" r="2.44"/><circle cx="714.16" cy="539.89" r="2.44"/><circle cx="767.01" cy="539.89" r="2.44"/><circle cx="793.44" cy="539.89" r="2.44"/><circle cx="674.51" cy="552.12" r="2.44"/><circle cx="700.94" cy="552.12" r="2.44"/><circle cx="753.8" cy="552.12" r="2.44"/><circle cx="780.23" cy="552.12" r="2.44"/><path d="M804.81,553.73a2.45,2.45,0,0,1-.59-1.61,2.42,2.42,0,0,1,.38-1.31C804.67,551.78,804.75,552.75,804.81,553.73Z"/><circle cx="661.3" cy="567.33" r="2.44"/><circle cx="687.73" cy="567.33" r="2.44"/><circle cx="767.01" cy="567.33" r="2.44"/><circle cx="793.44" cy="567.33" r="2.44"/><path d="M650.52,579.56a2.43,2.43,0,0,1-2.44,2.43,2,2,0,0,1-.34,0l.94-4.76A2.43,2.43,0,0,1,650.52,579.56Z"/><circle cx="674.51" cy="579.56" r="2.44"/><circle cx="700.94" cy="579.56" r="2.44"/><circle cx="753.8" cy="579.56" r="2.44"/><circle cx="780.23" cy="579.56" r="2.44"/><path d="M806.88,582h-.22a2.43,2.43,0,0,1-.14-4.86Z"/><circle cx="661.3" cy="593.79" r="2.44"/><circle cx="687.73" cy="593.79" r="2.44"/><circle cx="767.01" cy="593.79" r="2.44"/><circle cx="793.44" cy="593.79" r="2.44"/><circle cx="648.08" cy="606.02" r="2.44"/><circle cx="674.51" cy="606.02" r="2.44"/><path d="M756.24,606a2.37,2.37,0,0,1-.83,1.81l-.63-4A2.45,2.45,0,0,1,756.24,606Z"/><circle cx="780.23" cy="606.02" r="2.44"/><circle cx="806.65" cy="606.02" r="2.44"/><circle cx="663.03" cy="621.22" r="2.44"/><path d="M691.15,619.48l-1.32,4.15a2.22,2.22,0,0,1-.37,0,2.44,2.44,0,1,1,0-4.88A2.38,2.38,0,0,1,691.15,619.48Z"/><circle cx="768.75" cy="621.22" r="2.44"/><circle cx="795.17" cy="621.22" r="2.44"/><circle cx="649.82" cy="633.45" r="2.44"/><circle cx="676.25" cy="633.45" r="2.44"/><circle cx="781.96" cy="633.45" r="2.44"/><circle cx="808.39" cy="633.45" r="2.44"/><circle cx="636.6" cy="647.68" r="2.44"/><circle cx="663.03" cy="647.68" r="2.44"/><circle cx="768.75" cy="647.68" r="2.44"/><circle cx="795.17" cy="647.68" r="2.44"/><path d="M652.25,659.91a3.57,3.57,0,0,1-.06.59h-4.73a2.21,2.21,0,0,1-.08-.59,2.44,2.44,0,0,1,4.87,0Z"/><path d="M678.51,659,678,660.5h-4.15a2.73,2.73,0,0,1-.07-.59,2.44,2.44,0,0,1,4.7-.9Z"/><path d="M784.39,659.91a2.68,2.68,0,0,1-.11.76h0l-4.62,0a2.5,2.5,0,0,1-.13-.78,2.44,2.44,0,0,1,4.87,0Z"/><path d="M810.83,659.91a2.51,2.51,0,0,1-.08.62l-4.71,0a2.32,2.32,0,0,1-.08-.65,2.44,2.44,0,0,1,4.87,0Z"/></g></g><path d="M573.74,248.49a5,5,0,0,1-1-.1,5.82,5.82,0,0,1-3.44-2.44,25,25,0,0,1-2.42-4.45l-.07-.16a24.52,24.52,0,0,1,3.36-27.28,30.39,30.39,0,0,1,11.93-9.12c.61-.26,1.23-.49,1.86-.7,4-1.31,8.57-1,16.9-.45,3.58.24,6.3.63,7.95,1.77a4,4,0,0,1,1.41,1.61,4.32,4.32,0,0,1-.27,4.22,5.07,5.07,0,0,1,3.57,3.51,4.54,4.54,0,0,1-1.16,4,4.43,4.43,0,0,1-2.89,1.36,23,23,0,0,1-3.81-.09c-1-.08-2.09-.16-3.35-.2a64.61,64.61,0,0,0-10.1.54c3.43.53,6.86,1.15,10.4,1.87,3.16.65,5.92,1.27,7.59,2.32l.09.06a3.93,3.93,0,0,1,1.79,2.2A4.35,4.35,0,0,1,611,231.2a2,2,0,0,1-.27.23l-.09.07c-1.36,1-3.22.71-5.8.34s-5.29-.78-7.57-1.14-4.13-.64-5.63-.84a80.51,80.51,0,0,0,8.22,2.57c4.18,1.13,6.94,1.87,7.65,4.1a3.31,3.31,0,0,1-.13,2.63,3.88,3.88,0,0,1-2.85,1.59c-4.73.69-16.76-3.3-20.2-4.48a15,15,0,0,1-2.57,6.72C581.06,244,577.66,248.49,573.74,248.49Zm17.34-43.67a21,21,0,0,0-6.66.84c-.59.2-1.18.42-1.75.66A29,29,0,0,0,571.33,215a23,23,0,0,0-3.17,25.71l.07.16a24.45,24.45,0,0,0,2.26,4.18,4.33,4.33,0,0,0,2.56,1.87c3.48.72,7.06-4.23,7.46-4.8a13.48,13.48,0,0,0,2.4-6.93.71.71,0,0,1,.34-.57.73.73,0,0,1,.66-.08c.15.05,15.31,5.47,20.34,4.73.45-.07,1.45-.23,1.81-.85a2,2,0,0,0,0-1.4c-.47-1.48-3.05-2.18-6.62-3.14a78.09,78.09,0,0,1-9.35-3c-1-.42-2-.84-2.62-1.15-.26-.11-.49-.23-.69-.33l-.22-.1a.76.76,0,0,1-.4-.87.74.74,0,0,1,.78-.56l1,.08c.84.07,2.16.2,3.78.42s3.46.5,5.7.85,4.85.76,7.55,1.14c2.39.34,3.81.5,4.65,0a.24.24,0,0,1,.08-.06l.18-.15a2.84,2.84,0,0,0,.7-2.75,2.51,2.51,0,0,0-1.24-1.43l-.08-.06c-1.48-.89-4.06-1.46-7-2.07-4.54-.92-8.89-1.68-13.32-2.31l-1.78-.25a.73.73,0,0,1-.65-.71.74.74,0,0,1,.58-.76s.65-.14,1.76-.34a71.13,71.13,0,0,1,13.46-1c1.29,0,2.42.13,3.42.2a21,21,0,0,0,3.52.1,2.93,2.93,0,0,0,2-.89,3,3,0,0,0,.79-2.62,3.88,3.88,0,0,0-3.36-2.6l-.57-.07-.21-.05a32.63,32.63,0,0,1-5,.05l-1,0c-2.22-.07-3.34-.11-3.91-.15a51.79,51.79,0,0,0-10.51.45.74.74,0,0,1-.85-.63.76.76,0,0,1,.64-.85,53.46,53.46,0,0,1,10.83-.47c.54,0,1.72.08,3.84.15l1.06,0c3.31.11,4.83.11,5.49-.26a1,1,0,0,0,.29-.25,2.8,2.8,0,0,0,.15-2.73,2.52,2.52,0,0,0-.89-1c-1.46-1-4.33-1.32-7.21-1.51C596.76,205,593.65,204.82,591.08,204.82Z"/></g><g id="thread"><path d="M695.23,244.21a.75.75,0,0,1-.72-.52A253.76,253.76,0,0,0,666.7,183.8c-11.87-18.69-36.58-57.6-69.35-77.85a.75.75,0,0,1-.24-1,.76.76,0,0,1,1-.25C631.2,125.1,656,164.21,668,183a255.55,255.55,0,0,1,28,60.24.75.75,0,0,1-.49.94A.83.83,0,0,1,695.23,244.21Z"/><path d="M520.84,288.5a90,90,0,0,1-42.3-10.81c-14.79-8-25.83-19.48-32-33.15-6.3-14.1-6.16-25.68-5.52-31.33,2.37-20.79,13.15-46.26,28.83-68.12,23.41-32.67,53.18-52.23,81.67-53.67a70.3,70.3,0,0,1,18,1.44,74.79,74.79,0,0,1,9.49,2.63,85.78,85.78,0,0,1,8.42,3.41.77.77,0,0,1,.36,1,.76.76,0,0,1-1,.36,84.21,84.21,0,0,0-8.27-3.35,73.62,73.62,0,0,0-9.31-2.58,69.06,69.06,0,0,0-17.62-1.41c-28,1.42-57.38,20.75-80.53,53.05-15.54,21.66-26.22,46.86-28.56,67.41-.5,4.42-1,16.26,5.4,30.55,6,13.37,16.8,24.59,31.29,32.44A88.17,88.17,0,0,0,523.43,287c22.66-.73,40-10.95,50.55-19.38a.76.76,0,0,1,1.06.11.77.77,0,0,1-.12,1.06c-10.73,8.58-28.37,19-51.44,19.71C522.6,288.49,521.72,288.5,520.84,288.5Z"/><path d="M132.63,313.46a.76.76,0,0,1-.71-.48c-3.91-10.41-7.47-21-10.59-31.5l-.06-.19c-5.78-19.45-14.52-48.84-19.27-80-7.9-51.92-1.33-88.57,19.52-108.93a66.8,66.8,0,0,1,20.42-13.58c8.77-3.62,17-4.29,23.78-1.93C171,78.66,175.5,82.32,179.6,88a.75.75,0,0,1-.18,1,.74.74,0,0,1-1-.17c-3.91-5.44-8.21-8.92-13.15-10.64-13.75-4.78-31.75,4.51-42.66,15.16-20.49,20-26.91,56.22-19.09,107.63,4.74,31.08,13.46,60.41,19.23,79.82l.06.19c3.11,10.46,6.66,21,10.56,31.4a.74.74,0,0,1-.44,1A.63.63,0,0,1,132.63,313.46Z"/><path d="M375.5,722.6c-18.62,0-34.43-4.83-45.41-14a56,56,0,0,1-13.95-18A54.16,54.16,0,0,1,310.69,672a40.94,40.94,0,0,1,1.22-15.3c4.24-14.95,18.72-28.21,39.72-36.39,19.93-7.76,43.75-10.09,63.74-6.22,22.85,4.42,37.11,15.78,50.89,26.77,5.17,4.12,10.07,8,15.29,11.44,7.5-26.52,5-60.58-7.22-98.62-20.73,9.46-57.14,20.6-92.65,24.44-30.56,3.31-71.48,2.35-92.9-21a51.51,51.51,0,0,1-4-4.9c-13.88-19.53-10.52-44.15-8.9-56v0a107.43,107.43,0,0,1,16.56-43.9c10.07-15.19,23.53-26.17,38.94-31.74a73.86,73.86,0,0,1,21.72-4.32,62.6,62.6,0,0,1,.71-13.49,47,47,0,0,1,4.58-14.07C370.67,365.19,401,362,433.09,358.52c16.83-1.8,34.23-3.66,49.37-8.58-51.15-27.09-72.16-56.43-83.53-76.21a204.62,204.62,0,0,1-17.48-40.47c-21.66,13.54-36,31.39-39.5,49.11-2.24,11.51.65,20.2,3.71,29.39,3.51,10.55,7.14,21.46,2.16,36.72-7.83,24-29.49,38.61-45.66,43.83-22.36,7.2-51.39,2.77-74-11.3-12.44-7.74-21.49-17.78-25.5-28.27-7.56-19.76-.43-49.52,19.56-81.67,14.25-22.91,33.91-45.45,56.86-65.19,5.43-4.68,11.09-9.22,16.82-13.5,5.31-4,10.72-7.74,16.08-11.22a272.3,272.3,0,0,1,44.7-23.69A22.69,22.69,0,0,0,344.34,150c-12.39-2.83-24,4.43-36.24,12.13a.76.76,0,0,1-1-.24.75.75,0,0,1,.24-1c12.54-7.86,24.38-15.29,37.37-12.32a24.19,24.19,0,0,1,13.5,8.31c26.89-10.89,53.56-16.17,79.29-15.7a191.56,191.56,0,0,1,33.19,3.63c37.17,7.23,75.26,25,99.39,46.44a.76.76,0,0,1,.07,1.06.75.75,0,0,1-1.06.06c-23.95-21.25-61.76-38.91-98.69-46.09a189.43,189.43,0,0,0-32.93-3.6c-25.37-.47-51.72,4.72-78.28,15.42,7.05,9.19,10.52,23.61,14.88,41.72,2.28,9.46,4.85,20.16,8.28,31.16,18.35-11.11,39.44-17.65,59.48-18.43a91,91,0,0,1,34.59,5.05c10.47,3.77,36,15.41,47.09,42.08a3.62,3.62,0,0,1,.15.36c8.49,20.64,7.08,45.71-3.61,63.82-7.1,12.06-18.16,20.69-33.76,26.37,13.38,6.91,26.58,12.69,39.36,18.28,27,11.83,50.33,22,62.71,37.76a42.07,42.07,0,0,1,9.13,22.11,50,50,0,0,1-4.09,25.17.64.64,0,0,0,0,.07c-7.6,17.78-24.14,33.76-37.87,45.77,31.33,43.51,42.42,116.55,9.73,146.13-9.92,9-29,18.42-46.26,19.11A70.92,70.92,0,0,1,501.46,663a64.26,64.26,0,0,1-19-8.34,81.92,81.92,0,0,1-12.09,24.53c-16.13,21.93-47.82,38.64-80.75,42.59A118.57,118.57,0,0,1,375.5,722.6Zm19.86-108.89a121.13,121.13,0,0,0-43.19,8c-20.56,8-34.7,20.91-38.81,35.4a39.47,39.47,0,0,0-1.18,14.75,52.76,52.76,0,0,0,5.31,18,54.45,54.45,0,0,0,13.57,17.55c13.33,11.18,34.05,15.74,58.34,12.83,32.54-3.9,63.83-20.38,79.72-42a80.64,80.64,0,0,0,12-24.48c-5.42-3.52-10.46-7.54-15.79-11.78-13.64-10.87-27.74-22.12-50.24-26.47A104.58,104.58,0,0,0,395.36,613.71Zm87.5,39.4a63,63,0,0,0,19,8.38,69.85,69.85,0,0,0,17.06,1.63c16.91-.68,35.6-9.93,45.31-18.72,32.11-29,21.06-101-9.86-144-5.76,5-11.7,9.88-17,14.21A287.84,287.84,0,0,1,475.7,553C488.14,591.61,490.61,626.2,482.86,653.11ZM277.4,496.32v.05c-1.6,11.65-4.92,35.89,8.63,55a47.11,47.11,0,0,0,3.86,4.75c21,22.89,61.41,23.79,91.63,20.52,35.43-3.84,71.75-15,92.35-24.39-14.46-44.26-32.57-70.86-38.28-78.58-18.56,5-38.12,8.73-55.79-4.19-14.41-10.55-25-31.27-26.57-51.75a72.7,72.7,0,0,0-21.31,4.24C310.42,429.7,283.24,453.86,277.4,496.32ZM437.14,473.2c6.13,8.37,23.88,34.89,38.1,78.36a285.78,285.78,0,0,0,61.18-38.14c5.28-4.34,11.25-9.25,17-14.27-8.53-11.64-18.75-23.37-35.3-30.94-24.74-11.3-48.81-4.31-72.1,2.44C443.12,471.5,440.1,472.38,437.14,473.2ZM490,460.73a68,68,0,0,1,28.78,6.12c16.82,7.68,27.18,19.54,35.81,31.31,13.57-11.88,29.88-27.64,37.35-45.09l0-.06a48,48,0,0,0,4-24.48,40.57,40.57,0,0,0-8.82-21.34C575,391.76,551.83,381.62,525,369.88c-13.2-5.78-26.85-11.76-40.7-19-15.62,5.32-33.64,7.24-51.07,9.1-31.68,3.39-61.61,6.59-73.49,29.32A45.41,45.41,0,0,0,355.32,403a60.35,60.35,0,0,0-.69,13.18,64.78,64.78,0,0,1,9.06.35c33.68,3.7,54.32,31.1,72.49,55.42,3.13-.86,6.34-1.79,9.46-2.69C460.11,465,474.89,460.73,490,460.73Zm-135.26-43.1c1.52,20,11.89,40.29,26,50.59,16.95,12.4,35.9,9,53.93,4.11-17.91-24-38.28-50.75-71.09-54.36A64.27,64.27,0,0,0,354.73,417.63Zm3-258.95a270.4,270.4,0,0,0-44.88,23.74c-5.34,3.46-10.72,7.22-16,11.16-5.7,4.26-11.33,8.78-16.73,13.44-22.84,19.64-42.4,42.06-56.57,64.85-19.74,31.74-26.82,61-19.43,80.33,3.89,10.19,12.73,20,24.89,27.54,22.22,13.84,50.76,18.21,72.72,11.14,15.83-5.11,37-19.39,44.69-42.86,4.83-14.8,1.28-25.47-2.15-35.78-3-9-6.08-18.26-3.76-30.16,3.56-18.21,18.31-36.52,40.51-50.3-3.5-11.18-6.11-22-8.42-31.62C368.2,182,364.73,167.6,357.71,158.68Zm25.06,73.77A203.57,203.57,0,0,0,400.23,273c23.7,41.23,59.34,63.28,84.2,76.3,15.95-5.55,27.17-14.12,34.29-26.19,10.45-17.72,11.83-42.27,3.5-62.52a2.9,2.9,0,0,0-.11-.27c-10.9-26.17-36-37.6-46.22-41.3a89.74,89.74,0,0,0-34-5C421.94,214.82,401,221.35,382.77,232.45Z"/><path d="M255.9,181.46a70.61,70.61,0,0,1-10.27-.76c-7.57-1.1-25.31-3.67-37.12-17.46-6.15-7.17-7.52-13.59-9.42-22.49-1-4.45-2-9.49-3.92-15.5-.7-2.24-1.52-4.59-2.42-7a.79.79,0,0,1,.39-1,.71.71,0,0,1,1,.33,1.22,1.22,0,0,1,.07.17c.9,2.38,1.73,4.76,2.44,7,1.91,6.08,3,11.16,4,15.64,1.85,8.68,3.19,14.95,9.09,21.82,11.45,13.37,28.79,15.88,36.19,17a66.42,66.42,0,0,0,25.43-1.08,70.4,70.4,0,0,0,7-2l.38-.13.3.69.2.73-.39.13a73.25,73.25,0,0,1-7.09,2.07A67.67,67.67,0,0,1,255.9,181.46Z"/></g><g id="needle"><path d="M628.67,746.52a.75.75,0,0,1-.75-.65c-3.29-23.74-6.49-47.51-9.53-70.65-9.67-73.79-18.58-148.42-26.49-221.83-1.68-15.49-3.34-31.17-4.92-46.59-4.87-47.21-9.45-95.06-13.6-142.23q-.64-8.54-1.24-16.86a.75.75,0,1,1,1.49-.11q.6,8.33,1.24,16.85c4.16,47.15,8.73,95,13.6,142.19,1.59,15.43,3.24,31.1,4.92,46.58,7.91,73.41,16.82,148,26.49,221.8,2.52,19.18,5.15,38.79,7.85,58.46,0-.18,0-.36,0-.53v-.21c0-.3-.49-30.61-1.13-60.57C626,647,620.85,507.3,611.15,256.85c-.6-9.61-1.23-18.89-1.71-25.91l.75-.06h.75c.47,7,1.1,16.27,1.71,25.9,9.7,250.47,14.89,390.21,15.44,415.36.64,30,1.12,60.28,1.13,60.58v.2c.07,4.29.14,8.56.2,12.84a.76.76,0,0,1-.7.76Z"/><path d="M570.75,215.28a.75.75,0,0,1-.75-.71c-.51-8.81-.89-16-1.2-22.73-2-42.74-2.06-75.82-.12-98.31,1.63-19,4.61-30.58,9.09-35.3,1.66-1.73,3.35-2.35,5.05-1.82,2.11.66,8.52,2.67,15.67,48.79,3.77,24.42,7.35,58.37,10.63,100.92a.74.74,0,0,1-.69.81.76.76,0,0,1-.8-.69c-3.28-42.51-6.86-76.43-10.62-100.81-5.79-37.36-11.16-46.5-14.64-47.59-1.11-.35-2.26.12-3.51,1.43-4.18,4.4-7.11,16-8.69,34.39-1.93,22.43-1.89,55.43.13,98.11.3,6.69.69,13.91,1.2,22.72a.76.76,0,0,1-.71.79Z"/><path d="M588.48,157.56h-5.93a.75.75,0,0,1-.73-.63,278.25,278.25,0,0,1-3.89-39.78c-.23-9-.06-19.12.45-27.06.94-14.48,2.48-14.56,3.32-14.6s2.38-.12,4.76,14c1.34,8,2.52,18.1,3.14,27.11h0a259.36,259.36,0,0,1-.37,40.3A.76.76,0,0,1,588.48,157.56Zm-5.29-1.5h4.6a257.65,257.65,0,0,0,.31-39.39h0c-1.31-19-4.55-37.39-6.32-39.55-1.5,2.29-2.84,20.52-2.35,40A278.41,278.41,0,0,0,583.19,156.06Z"/><path d="M609.8,225.3h-.75c-.1-1.22-.19-2.49-.28-3.76l-.14-2a.75.75,0,0,1,.69-.81.76.76,0,0,1,.8.7l.15,2,.27,3.8Z"/></g></g></g></svg>