<?xml version="1.0" encoding="UTF-8"?><svg xmlns="http://www.w3.org/2000/svg" xmlns:xlink="http://www.w3.org/1999/xlink" width="1080pt" zoomAndPan="magnify" viewBox="0 0 1080 585.000005" height="585.000005pt" preserveAspectRatio="xMidYMid meet" version="1.2"><defs><clipPath xml:id="clip1" id="clip1"><path d="M 819.273438 343 L 1078.949219 343 L 1078.949219 584 L 819.273438 584 Z M 819.273438 343 "/></clipPath><clipPath xml:id="clip2" id="clip2"><path d="M 0.921875 319 L 278.601562 319 L 278.601562 584 L 0.921875 584 Z M 0.921875 319 "/></clipPath></defs><g xml:id="surface1" id="surface1"><g clip-rule="nonzero" clip-path="url(#clip1)"><path style=" stroke:none;fill-rule:nonzero;fill:rgb(100%,100%,100%);fill-opacity:1;" d="M 820.351562 584.136719 C 820.8125 584.136719 821.15625 583.792969 821.210938 583.390625 L 825.976562 537.320312 C 828.214844 516.011719 841.753906 497.628906 861.378906 489.183594 L 914.515625 468.792969 C 919.335938 466.722656 921 462.757812 922.207031 456.671875 L 927.945312 432.601562 C 928 432.3125 927.945312 432.027344 927.773438 431.855469 C 927.597656 431.625 927.3125 431.511719 927.027344 431.566406 L 926.96875 431.566406 C 921.289062 432.085938 912.507812 425.480469 910.84375 411.578125 C 909.066406 396.988281 911.304688 374.125 911.359375 373.894531 C 911.417969 373.433594 911.074219 372.976562 910.558594 372.917969 C 910.039062 372.859375 909.640625 373.203125 909.640625 373.664062 C 909.640625 373.894531 907.34375 396.929688 909.121094 411.691406 C 910.269531 420.941406 916.695312 433.175781 925.992188 433.234375 L 920.484375 456.269531 C 919.335938 461.957031 917.960938 465.402344 913.828125 467.183594 L 860.691406 487.519531 C 840.4375 496.191406 826.492188 515.148438 824.195312 537.09375 L 819.492188 583.160156 C 819.433594 583.621094 819.777344 584.082031 820.238281 584.082031 L 820.351562 584.082031 Z M 960.078125 397.734375 C 960.535156 397.734375 960.9375 397.332031 960.9375 396.871094 C 960.9375 396.699219 960.882812 396.46875 960.765625 396.296875 C 959.332031 394.285156 956.632812 393.710938 954.511719 394.917969 C 954.109375 395.148438 953.9375 395.664062 954.109375 396.066406 C 954.339844 396.46875 954.855469 396.640625 955.257812 396.46875 C 955.316406 396.46875 955.316406 396.410156 955.371094 396.410156 C 956.75 395.609375 958.527344 396.011719 959.445312 397.332031 C 959.5625 397.617188 959.789062 397.734375 960.078125 397.734375 Z M 1077.996094 584.136719 C 1078.054688 584.136719 1078.113281 584.136719 1078.113281 584.136719 C 1078.570312 584.082031 1078.917969 583.621094 1078.800781 583.160156 L 1071.742188 540.480469 C 1069.160156 525.316406 1061.011719 511.644531 1048.789062 502.222656 C 1051.832031 497.800781 1054.128906 492.917969 1055.5625 487.746094 C 1058.832031 476.085938 1056.480469 465.460938 1048.789062 457.015625 C 1038.804688 446.101562 1039.207031 438.574219 1039.667969 430.535156 C 1040.011719 424.15625 1040.355469 417.550781 1035.132812 409.453125 C 1028.246094 398.765625 1020.328125 398.652344 1012.640625 398.480469 C 1007.015625 398.363281 1001.164062 398.25 995.308594 394.285156 C 990.261719 390.839844 989.285156 384.636719 988.136719 377.457031 C 986.242188 365.621094 983.949219 350.859375 960.019531 345.34375 C 943.609375 341.554688 930.8125 342.355469 921.917969 347.757812 C 914.804688 352.066406 911.476562 358.5 909.066406 364.242188 C 907.800781 367.230469 906.710938 370.390625 907.6875 372.515625 C 908.203125 373.550781 909.121094 374.296875 910.210938 374.582031 C 913.539062 375.675781 918.074219 376.308594 922.492188 376.9375 C 930.582031 378.085938 939.707031 379.351562 940.050781 383.601562 C 940.683594 391.472656 948.429688 395.320312 948.773438 395.492188 C 949.117188 395.664062 949.578125 395.550781 949.804688 395.261719 C 949.804688 395.207031 953.191406 391.300781 957.09375 391.300781 C 958.929688 391.300781 960.652344 392.21875 962.144531 394.058594 C 967.882812 400.894531 960.136719 410.3125 960.019531 410.429688 C 959.90625 410.601562 959.789062 410.773438 959.789062 411.003906 L 959.789062 455.292969 C 959.789062 460.691406 963.0625 465.574219 968.109375 467.527344 L 1033.527344 495.675781 C 1038.289062 497.570312 1042.824219 500.097656 1046.953125 503.144531 C 1047.011719 503.199219 1047.011719 503.199219 1047.070312 503.257812 C 1047.125 503.316406 1047.183594 503.316406 1047.242188 503.371094 C 1059.347656 512.507812 1067.554688 525.949219 1070.078125 540.941406 L 1077.195312 583.390625 C 1077.253906 583.792969 1077.597656 584.136719 1077.996094 584.136719 Z M 941.65625 344.769531 C 947.742188 344.828125 953.765625 345.632812 959.617188 347.066406 C 982.398438 352.351562 984.523438 365.851562 986.417969 377.800781 C 987.5625 385.039062 988.652344 391.929688 994.335938 395.78125 C 1000.648438 400.03125 1006.730469 400.203125 1012.582031 400.316406 C 1020.5 400.492188 1027.328125 400.605469 1033.699219 410.484375 C 1038.632812 418.183594 1038.347656 424.15625 1038.003906 430.535156 C 1037.542969 438.519531 1037.140625 446.789062 1047.585938 458.222656 C 1054.988281 466.320312 1057.109375 476.085938 1054.011719 487.289062 C 1052.578125 492.226562 1050.398438 496.9375 1047.472656 501.191406 C 1043.398438 498.203125 1038.921875 495.789062 1034.214844 493.894531 L 968.800781 465.746094 C 964.4375 464.023438 961.570312 459.828125 961.570312 455.121094 L 961.570312 411.175781 C 962.945312 409.394531 964.09375 407.382812 964.957031 405.257812 C 966.792969 400.433594 966.273438 396.183594 963.464844 392.851562 C 961.628906 390.609375 959.445312 389.519531 957.09375 389.519531 C 953.304688 389.519531 950.152344 392.390625 949.003906 393.597656 C 947.28125 392.621094 942.230469 389.175781 941.773438 383.429688 C 941.3125 377.800781 931.902344 376.480469 922.722656 375.214844 C 918.417969 374.582031 913.886719 374.007812 910.730469 372.917969 C 910.097656 372.746094 909.582031 372.34375 909.238281 371.769531 C 908.546875 370.273438 909.640625 367.402344 910.671875 364.875 C 913.367188 358.382812 918.992188 344.769531 941.65625 344.769531 Z M 914.632812 389.921875 C 915.089844 389.921875 915.492188 389.519531 915.492188 389.058594 L 915.492188 387.910156 C 915.492188 387.449219 915.089844 387.046875 914.632812 387.046875 C 914.171875 387.046875 913.769531 387.449219 913.769531 387.910156 L 913.769531 389.058594 C 913.769531 389.578125 914.171875 389.921875 914.632812 389.921875 Z M 932.304688 389.921875 C 932.765625 389.921875 933.164062 389.519531 933.164062 389.058594 L 933.164062 387.910156 C 933.164062 387.449219 932.765625 387.046875 932.304688 387.046875 C 931.84375 387.046875 931.445312 387.449219 931.445312 387.910156 L 931.445312 389.058594 C 931.445312 389.578125 931.789062 389.921875 932.304688 389.921875 Z M 923.296875 411.863281 C 927.253906 411.863281 928.632812 409.679688 928.691406 409.566406 C 928.917969 409.164062 928.804688 408.648438 928.402344 408.359375 C 928 408.128906 927.484375 408.246094 927.199219 408.648438 C 927.140625 408.703125 926.050781 410.3125 922.722656 410.082031 C 919.507812 409.855469 919.050781 408.359375 919.050781 408.304688 C 918.933594 407.84375 918.476562 407.554688 918.015625 407.671875 C 917.558594 407.785156 917.269531 408.1875 917.386719 408.648438 C 917.386719 408.761719 918.015625 411.519531 922.605469 411.808594 C 922.835938 411.863281 923.066406 411.863281 923.296875 411.863281 Z M 921.574219 401.066406 L 922.492188 401.066406 C 922.953125 401.066406 923.351562 400.664062 923.351562 400.203125 C 923.351562 399.742188 922.953125 399.339844 922.492188 399.339844 L 921.574219 399.339844 C 920.484375 399.339844 919.625 398.480469 919.625 397.445312 C 919.625 397.160156 919.679688 396.929688 919.796875 396.699219 L 923.296875 388.542969 C 923.46875 388.082031 923.296875 387.625 922.835938 387.394531 C 922.378906 387.164062 921.917969 387.394531 921.6875 387.851562 L 918.1875 396.011719 C 917.386719 397.847656 918.246094 400.03125 920.082031 400.777344 C 920.597656 400.949219 921.113281 401.066406 921.574219 401.066406 Z M 936.894531 386.128906 C 937.066406 386.128906 937.238281 386.070312 937.355469 385.957031 C 937.757812 385.671875 937.871094 385.152344 937.582031 384.75 C 936.78125 383.542969 935.632812 382.625 934.253906 382.109375 C 933.109375 381.648438 931.84375 381.707031 930.753906 382.164062 C 930.355469 382.394531 930.179688 382.914062 930.410156 383.316406 C 930.640625 383.71875 931.101562 383.890625 931.5 383.71875 C 932.246094 383.488281 932.992188 383.488281 933.738281 383.773438 C 934.714844 384.175781 935.574219 384.867188 936.148438 385.726562 C 936.320312 385.957031 936.609375 386.128906 936.894531 386.128906 Z M 911.074219 384.40625 C 911.359375 384.40625 911.648438 384.292969 911.761719 384.003906 C 912.394531 383.140625 913.195312 382.511719 914.171875 382.109375 C 914.859375 381.820312 915.664062 381.820312 916.410156 382.050781 C 916.8125 382.28125 917.328125 382.109375 917.558594 381.648438 C 917.785156 381.246094 917.613281 380.730469 917.15625 380.5 C 916.007812 380.039062 914.746094 380.039062 913.65625 380.441406 C 912.335938 380.960938 911.1875 381.878906 910.328125 383.085938 C 910.039062 383.488281 910.15625 384.003906 910.558594 384.292969 C 910.730469 384.347656 910.902344 384.40625 911.074219 384.40625 Z M 959.847656 418.871094 C 963.808594 418.871094 967.019531 415.65625 967.019531 411.691406 C 967.019531 411.234375 966.621094 410.832031 966.160156 410.832031 C 965.699219 410.832031 965.300781 411.234375 965.300781 411.691406 C 965.300781 414.679688 962.832031 417.148438 959.847656 417.148438 C 956.863281 417.148438 954.398438 414.679688 954.398438 411.691406 C 954.398438 408.703125 956.863281 406.234375 959.847656 406.234375 C 960.308594 406.234375 960.707031 405.832031 960.707031 405.375 C 960.707031 404.914062 960.308594 404.511719 959.847656 404.511719 C 955.890625 404.511719 952.675781 407.726562 952.675781 411.691406 C 952.675781 415.65625 955.832031 418.871094 959.847656 418.871094 Z M 934.027344 451.617188 C 942.632812 451.617188 960.191406 447.480469 960.9375 447.25 C 961.398438 447.136719 961.683594 446.675781 961.570312 446.214844 C 961.453125 445.757812 960.996094 445.46875 960.535156 445.582031 C 960.363281 445.640625 942.460938 449.890625 934.027344 449.890625 C 926.164062 449.890625 924.269531 448.226562 924.269531 448.226562 C 923.925781 447.882812 923.410156 447.882812 923.066406 448.167969 C 922.722656 448.511719 922.722656 449.03125 923.007812 449.375 C 923.179688 449.664062 925.246094 451.617188 934.027344 451.617188 Z M 934.027344 451.617188 "/></g><g clip-rule="nonzero" clip-path="url(#clip2)"><path style=" stroke:none;fill-rule:nonzero;fill:rgb(100%,100%,100%);fill-opacity:1;" d="M 0.890625 583.011719 L 13.175781 508.953125 C 13.972656 504.097656 17.289062 499.980469 21.898438 498.199219 L 124.910156 457.511719 C 129.578125 455.667969 132.652344 451.183594 132.652344 446.144531 L 132.652344 414.1875 L 130.5625 414.1875 C 130.070312 414.1875 129.640625 413.753906 129.640625 413.265625 L 129.640625 401.769531 C 127.367188 395.503906 125.402344 389.171875 123.804688 382.71875 C 121.289062 372.640625 118.707031 358.257812 120.425781 346.828125 C 121.289062 341.296875 123.128906 337.484375 126.203125 335.210938 C 129.949219 332.445312 135.476562 331.832031 144.199219 333.183594 C 147.027344 333.613281 150.589844 330.972656 154.640625 327.898438 C 160.96875 322.980469 168.832031 317.019531 178.109375 320.15625 C 189.839844 324.089844 192.050781 333.984375 193.648438 341.234375 C 194.261719 344.125 194.816406 346.582031 195.796875 348.179688 C 199.054688 353.589844 203.230469 352.726562 203.355469 352.667969 C 203.847656 352.542969 204.335938 352.851562 204.460938 353.34375 C 204.523438 353.710938 204.398438 354.078125 204.152344 354.265625 C 198.316406 359.121094 193.648438 359.980469 189.777344 359.425781 L 189.777344 414.554688 C 189.777344 419.53125 185.726562 423.589844 180.6875 423.648438 L 176.203125 423.648438 L 176.203125 447.742188 C 176.203125 452.597656 179.089844 457.023438 183.574219 458.988281 L 261.894531 492.542969 C 266.5625 494.574219 269.820312 498.9375 270.308594 504.039062 L 278.542969 583.070312 C 278.601562 583.5625 278.234375 584.054688 277.742188 584.054688 L 277.621094 584.054688 C 277.128906 584.054688 276.761719 583.6875 276.699219 583.195312 L 268.46875 504.160156 C 268.039062 499.734375 265.210938 495.925781 261.15625 494.203125 L 191.070312 464.152344 C 190.578125 465.625 188.859375 469.621094 184.433594 473.429688 C 176.632812 480.128906 165.699219 481.851562 156.667969 481.851562 C 155.195312 481.851562 153.78125 481.789062 152.429688 481.726562 C 122.640625 480.070312 114.160156 467.53125 112.441406 464.398438 L 22.511719 499.917969 C 18.519531 501.515625 15.695312 505.082031 14.957031 509.261719 L 2.671875 583.316406 C 2.609375 583.75 2.179688 584.117188 1.75 584.054688 L 1.625 584.054688 C 1.136719 583.992188 0.828125 583.503906 0.890625 583.011719 Z M 200.957031 354.449219 C 198.992188 354.078125 196.414062 352.789062 194.203125 349.164062 C 193.097656 347.257812 192.480469 344.675781 191.804688 341.664062 C 190.207031 334.476562 188.242188 325.5 177.492188 321.9375 C 169.140625 319.171875 162.015625 324.519531 155.6875 329.25 C 151.265625 332.570312 147.457031 335.457031 143.832031 334.90625 C 135.660156 333.675781 130.5625 334.167969 127.246094 336.625 C 124.542969 338.59375 122.945312 341.910156 122.148438 347.011719 C 118.953125 368.398438 131.175781 400.910156 131.300781 401.21875 C 131.363281 401.339844 131.363281 401.402344 131.363281 401.523438 L 131.363281 412.28125 L 132.527344 412.28125 L 132.527344 399.066406 C 131.175781 397.285156 123.929688 387.207031 130.5 379.460938 C 132.46875 377.066406 134.800781 375.898438 137.320312 375.898438 C 140.453125 375.898438 143.15625 377.742188 144.8125 379.15625 L 144.8125 371.410156 C 144.8125 370.917969 145.242188 370.488281 145.734375 370.488281 C 146.226562 370.488281 146.65625 370.917969 146.65625 371.410156 L 146.65625 381.058594 C 146.71875 381.246094 146.71875 381.429688 146.65625 381.613281 L 146.65625 388.25 L 149.726562 388.25 L 149.726562 359.734375 C 149.726562 359.550781 149.789062 359.425781 149.851562 359.242188 C 150.035156 358.933594 154.457031 351.5 162.074219 349.59375 C 168.402344 347.996094 173.808594 350.699219 178.597656 353.097656 C 179.703125 353.648438 180.6875 354.140625 181.730469 354.570312 C 182.285156 354.816406 182.777344 355.0625 183.328125 355.308594 C 188.242188 357.582031 193.15625 359.917969 200.957031 354.449219 Z M 182.960938 460.648438 C 177.800781 458.433594 174.421875 453.335938 174.421875 447.742188 L 174.421875 422.726562 C 174.421875 422.238281 174.851562 421.804688 175.34375 421.804688 L 180.6875 421.804688 C 184.679688 421.804688 187.875 418.609375 187.9375 414.617188 L 187.9375 359.121094 C 186.15625 358.566406 184.375 357.890625 182.652344 357.03125 C 182.101562 356.785156 181.609375 356.539062 181.054688 356.292969 C 180.011719 355.800781 178.96875 355.308594 177.863281 354.753906 C 173.132812 352.421875 168.277344 350.023438 162.566406 351.4375 C 156.363281 352.972656 152.371094 358.875 151.570312 360.042969 L 151.570312 389.234375 C 151.570312 389.726562 151.140625 390.15625 150.648438 390.15625 L 145.734375 390.15625 C 145.242188 390.15625 144.8125 389.726562 144.8125 389.234375 L 144.8125 381.675781 C 143.894531 380.691406 140.820312 377.742188 137.320312 377.742188 C 135.355469 377.742188 133.511719 378.722656 131.914062 380.628906 C 129.335938 383.640625 128.902344 387.511719 130.625 392 C 131.484375 394.210938 132.652344 396.300781 134.125 398.144531 C 134.25 398.328125 134.371094 398.515625 134.371094 398.757812 L 134.371094 446.082031 C 134.371094 451.859375 130.871094 457.082031 125.464844 459.171875 L 120.796875 461.015625 C 121.410156 462 123.070312 464.089844 126.445312 466.242188 C 130.746094 469.007812 138.855469 472.386719 153.046875 473.125 C 167.234375 473.859375 174.851562 470.359375 178.84375 467.347656 C 181.054688 465.75 182.835938 463.597656 183.941406 461.140625 Z M 152.554688 479.882812 C 161.769531 480.375 174.605469 479.453125 183.207031 472.140625 C 187.566406 468.453125 189.042969 464.519531 189.410156 463.414062 L 185.785156 461.878906 C 184.558594 464.828125 178.785156 475.089844 156.855469 475.089844 C 155.625 475.089844 154.398438 475.089844 153.105469 474.96875 C 127.675781 473.738281 120.550781 463.964844 119.199219 461.691406 L 114.285156 463.660156 C 115.941406 466.671875 124.480469 478.285156 152.554688 479.882812 Z M 170.738281 393.535156 C 170.738281 393.042969 171.167969 392.613281 171.65625 392.613281 L 175.773438 392.613281 C 175.835938 392.613281 175.894531 392.613281 175.894531 392.550781 C 175.894531 392.492188 175.894531 392.429688 175.894531 392.429688 L 170.738281 372.269531 C 170.675781 371.78125 170.980469 371.289062 171.472656 371.226562 C 171.902344 371.164062 172.394531 371.410156 172.519531 371.839844 L 177.675781 392 C 177.921875 393.105469 177.308594 394.148438 176.203125 394.457031 C 176.019531 394.519531 175.894531 394.519531 175.710938 394.519531 L 171.597656 394.519531 C 171.105469 394.457031 170.738281 394.027344 170.738281 393.535156 Z M 180.871094 370.304688 C 181.363281 370.304688 181.792969 370.734375 181.792969 371.226562 L 181.792969 372.457031 C 181.792969 372.949219 181.363281 373.378906 180.871094 373.378906 C 180.378906 373.378906 179.949219 372.949219 179.949219 372.457031 L 179.949219 371.226562 C 179.949219 370.734375 180.378906 370.304688 180.871094 370.304688 Z M 162.015625 370.304688 C 162.503906 370.304688 162.933594 370.734375 162.933594 371.226562 L 162.933594 372.457031 C 162.933594 372.949219 162.503906 373.378906 162.015625 373.378906 C 161.523438 373.378906 161.09375 372.949219 161.09375 372.457031 L 161.09375 371.226562 C 161.09375 370.734375 161.460938 370.304688 162.015625 370.304688 Z M 171.65625 401.21875 C 171.902344 400.789062 172.457031 400.601562 172.886719 400.847656 C 173.316406 401.09375 173.5 401.585938 173.316406 402.015625 C 172.394531 403.675781 170.613281 404.660156 168.710938 404.535156 C 168.035156 404.535156 167.417969 404.414062 166.742188 404.289062 C 162.015625 403.125 161.460938 399.375 161.460938 399.191406 C 161.398438 398.699219 161.769531 398.207031 162.257812 398.144531 C 162.75 398.082031 163.242188 398.453125 163.304688 398.945312 C 163.304688 399.066406 163.734375 401.648438 167.234375 402.507812 C 170.492188 403.367188 171.535156 401.464844 171.65625 401.21875 Z M 163.363281 363.113281 L 155.992188 365.574219 C 155.871094 365.632812 155.808594 365.632812 155.6875 365.632812 C 155.195312 365.632812 154.765625 365.203125 154.765625 364.710938 C 154.765625 364.34375 155.011719 363.972656 155.378906 363.851562 L 162.75 361.394531 C 163.242188 361.269531 163.734375 361.578125 163.855469 362.070312 C 164.039062 362.4375 163.796875 362.929688 163.363281 363.113281 Z M 177.1875 362.5 C 177.433594 362.070312 177.984375 361.886719 178.414062 362.070312 L 185.355469 365.574219 C 185.785156 365.816406 185.96875 366.371094 185.785156 366.800781 C 185.601562 367.109375 185.292969 367.292969 184.988281 367.292969 C 184.863281 367.292969 184.679688 367.230469 184.558594 367.171875 L 177.617188 363.667969 C 177.125 363.542969 176.941406 362.992188 177.1875 362.5 Z M 139.222656 383.273438 C 137.75 382.410156 135.84375 382.84375 134.863281 384.253906 C 134.679688 384.5 134.433594 384.625 134.125 384.625 C 133.632812 384.625 133.203125 384.195312 133.203125 383.703125 C 133.203125 383.519531 133.265625 383.273438 133.386719 383.148438 C 134.925781 381 137.8125 380.382812 140.085938 381.675781 C 140.515625 381.921875 140.636719 382.535156 140.390625 382.964844 C 140.207031 383.394531 139.652344 383.519531 139.222656 383.273438 Z M 139.222656 383.273438 "/></g></g></svg>