<svg id="Layer_1" data-name="Layer 1" xmlns="http://www.w3.org/2000/svg" viewBox="0 0 1119.4 935.1"><defs><style>.cls-1{fill:#fdf186;}.cls-2{fill:#fff;}</style></defs><path d="M977.69,316.39a3.26,3.26,0,1,1,3.25-3.26A3.25,3.25,0,0,1,977.69,316.39Zm0-3.72a.47.47,0,1,0,.46.46A.46.46,0,0,0,977.69,312.67Z"/><path class="cls-1" d="M984.4,266.43c-3.48,0-6.88-.16-10.14-.46a1.4,1.4,0,0,1-1.27-1.43,1.37,1.37,0,0,1-1.54,1.12c-2.69-.33-5.34-.77-7.88-1.31a1.4,1.4,0,0,1,.58-2.73c2.47.53,5,1,7.64,1.28a1.38,1.38,0,0,0,2.73.29,113,113,0,0,0,17,.23,1.4,1.4,0,0,1,.16,2.79C989.25,266.35,986.8,266.43,984.4,266.43Zm-23.55-2.75a2.09,2.09,0,0,1-.35,0c-2.51-.64-5-1.39-7.35-2.25a1.39,1.39,0,0,1,1-2.62c2.28.82,4.66,1.55,7.09,2.16a1.4,1.4,0,0,1-.34,2.75Zm-10.18-3.34a1.4,1.4,0,0,1-.53-.11c-1.36-.56-2.69-1.15-4-1.77a1.4,1.4,0,0,1,1.22-2.51c1.22.59,2.5,1.16,3.81,1.7a1.4,1.4,0,0,1-.53,2.69Zm-9.27-4.65a1.42,1.42,0,0,1-.72-.2c-25.62-15.44-34.59-44.35-34.5-64.43V191c.15-3.59.48-7.72,1-12.22a49.59,49.59,0,0,1-19.13-2A32.35,32.35,0,0,1,876.88,171a1.52,1.52,0,0,0-2-1.8,24.44,24.44,0,0,1-4.68-6.71,1.4,1.4,0,1,1,2.52-1.2,21.62,21.62,0,0,0,4.15,6,1.38,1.38,0,0,1,.34,1.37,1.4,1.4,0,0,1,1.4.22,29.33,29.33,0,0,0,10.23,5.26,46.51,46.51,0,0,0,18.67,1.87c3.52-26.54,13.89-63.67,36.79-76.64,10.21-5.79,17.74-6.65,22.38-2.57,3,2.67,4.54,7.37,4.35,13.6A49.94,49.94,0,0,1,967.33,127l0,0c-8.11,18.07-28.83,47-57.26,51.37-.71,5.92-1,10.41-1.08,12.66-.08,19.34,8.54,47.17,33.15,62a1.4,1.4,0,0,1-.72,2.59ZM959.47,97c-3.59,0-8.23,1.58-13.76,4.71-11.61,6.59-21.3,20.92-28,41.47a186.13,186.13,0,0,0-7.27,32.36c26.86-4.57,46.55-32.28,54.34-49.61,4-9.71,5.36-22.5.12-27.12A7.92,7.92,0,0,0,959.47,97Zm-89.3,62.84a1.4,1.4,0,0,1-1.33-1,33.84,33.84,0,0,1-1.35-6.95,1.4,1.4,0,0,1,2.78-.25A30.91,30.91,0,0,0,871.5,158a1.4,1.4,0,0,1-.91,1.75A1.52,1.52,0,0,1,870.17,159.85Zm-1.38-12.79h-.08a1.4,1.4,0,0,1-1.31-1.47c.51-9.73,3.85-21.25,9.92-34.23a191.59,191.59,0,0,1,17.67-30A1.4,1.4,0,0,1,897.25,83c-11.82,16.37-26,42.63-27.07,62.75A1.39,1.39,0,0,1,868.79,147.06Z"/><path d="M332,601.75c-1.22,0-2.41-.06-3.56-.17a1.32,1.32,0,0,1-.48-.13,1.38,1.38,0,0,1-.5,0c-1-.12-1.88-.27-2.76-.46a1.46,1.46,0,0,1-.51-.22,1.52,1.52,0,0,1-.56,0,26,26,0,0,1-2.59-.79,1.62,1.62,0,0,0-1.06-.41c-.45-.18-.91-.39-1.4-.62a1.41,1.41,0,0,1-.75-.94,1.39,1.39,0,0,1-1.19-.11c-9-5.45-12.2-15.63-12.17-22.69v-.06c0-.94.12-2,.23-3.12a18,18,0,0,1-5.73-.81,11.58,11.58,0,0,1-4.12-2.13,1.31,1.31,0,0,1-.33-.38,1.46,1.46,0,0,1-.41-.29,9.42,9.42,0,0,1-1.77-2.54,1.4,1.4,0,0,1-.13-.72,1.49,1.49,0,0,1-.39-.61,12,12,0,0,1-.49-2.56,1.38,1.38,0,0,1,.44-1.15,1.41,1.41,0,0,1-.48-1.13c.38-7.24,5.18-16.28,9.55-22.32a1.39,1.39,0,1,1,2.26,1.63c-3.94,5.46-8.67,14.2-9,20.84a1.35,1.35,0,0,1-.46.95,1.37,1.37,0,0,1,.48.93,9.69,9.69,0,0,0,.38,2,1.27,1.27,0,0,1,.06.54,1.43,1.43,0,0,1,.32.44,6.71,6.71,0,0,0,1.24,1.77,1.48,1.48,0,0,1,.22.29,1.37,1.37,0,0,1,.3.19,9,9,0,0,0,3.16,1.61,15.09,15.09,0,0,0,5.27.66c1.32-9.16,5-21.53,12.85-26,3.86-2.18,6.77-2.44,8.67-.76s2.73,5.78.46,11.34l0,0c-2.78,6.19-9.79,16-19.47,17.88-.14,1.24-.23,2.43-.28,3.53,0,6.33,2.8,15.42,10.82,20.26a1.25,1.25,0,0,0,1.71.92c.44.22.85.4,1.25.56a1.6,1.6,0,0,1,.43.28,1.36,1.36,0,0,1,.52.09c.75.27,1.53.5,2.32.71a1.21,1.21,0,0,1,.46.21,1.3,1.3,0,0,1,.52,0c.8.17,1.64.31,2.51.42a1.25,1.25,0,0,1,.44.13,1.18,1.18,0,0,1,.46,0,39.11,39.11,0,0,0,5.65.08,1.4,1.4,0,0,1,1.48,1.31,1.39,1.39,0,0,1-1.31,1.47C333.69,601.72,332.84,601.75,332,601.75Zm-8.5-57.58a9.42,9.42,0,0,0-4.22,1.48c-6.4,3.63-9.95,14.2-11.35,23.11,8.11-2.09,14.08-10.61,16.52-16,1.39-3.42,1.52-7.08.28-8.17A1.85,1.85,0,0,0,323.52,544.17Z"/><path d="M961.63,562.41a3.26,3.26,0,1,1,3.25-3.26A3.26,3.26,0,0,1,961.63,562.41Zm0-3.72a.47.47,0,0,0,0,.93.47.47,0,1,0,0-.93Z"/><path d="M728.26,402.94a3.26,3.26,0,1,1,3.26-3.25A3.26,3.26,0,0,1,728.26,402.94Zm0-3.72a.47.47,0,1,0,.47.47A.47.47,0,0,0,728.26,399.22Z"/><path d="M208.12,359.89a3.26,3.26,0,1,1,3.25-3.26A3.26,3.26,0,0,1,208.12,359.89Zm0-3.72a.47.47,0,1,0,.46.46A.46.46,0,0,0,208.12,356.17Z"/><path d="M222.65,778.65a3.25,3.25,0,1,1,3.26-3.25A3.25,3.25,0,0,1,222.65,778.65Zm0-3.71a.46.46,0,0,0-.46.46.47.47,0,1,0,.93,0A.46.46,0,0,0,222.65,774.94Z"/><path d="M744.39,60.84a3.26,3.26,0,1,1,3.26-3.25A3.26,3.26,0,0,1,744.39,60.84Zm0-3.72a.47.47,0,1,0,.47.47A.47.47,0,0,0,744.39,57.12Z"/><path d="M392,645.07a3.26,3.26,0,1,1,3.26-3.26A3.26,3.26,0,0,1,392,645.07Zm0-3.72a.47.47,0,1,0,.47.46A.47.47,0,0,0,392,641.35Z"/><path d="M363.87,120.57a3.26,3.26,0,1,1,3.26-3.25A3.26,3.26,0,0,1,363.87,120.57Zm0-3.72a.47.47,0,1,0,.47.47A.47.47,0,0,0,363.87,116.85Z"/><path d="M428.27,497.3a1.39,1.39,0,0,1-.82-.27l-10.24-7.45a1.4,1.4,0,0,1,1.64-2.26l10.24,7.45a1.4,1.4,0,0,1-.82,2.53Z"/><path d="M519.34,28.1a1.41,1.41,0,0,1-.82-.27l-10.24-7.44a1.4,1.4,0,0,1,1.64-2.26l10.24,7.45a1.39,1.39,0,0,1-.82,2.52Z"/><path d="M698.62,744.17a1.4,1.4,0,0,1-.8-2.54l10.39-7.24a1.39,1.39,0,1,1,1.59,2.29l-10.38,7.24A1.38,1.38,0,0,1,698.62,744.17Z"/><path d="M975.75,883.13a1.39,1.39,0,0,1-.8-2.54l10.39-7.24a1.39,1.39,0,1,1,1.59,2.29l-10.39,7.24A1.37,1.37,0,0,1,975.75,883.13Z"/><path d="M811.62,470.48a1.39,1.39,0,0,1-.79-2.54l10.38-7.23a1.4,1.4,0,1,1,1.6,2.29l-10.39,7.23A1.38,1.38,0,0,1,811.62,470.48Z"/><path d="M350.23,785.48a1.4,1.4,0,0,1-.8-2.54l10.39-7.23a1.4,1.4,0,0,1,1.6,2.29L351,785.23A1.4,1.4,0,0,1,350.23,785.48Z"/><path d="M176.8,166.37a1.39,1.39,0,0,1-.8-2.54l10.39-7.23a1.39,1.39,0,1,1,1.59,2.29l-10.39,7.23A1.37,1.37,0,0,1,176.8,166.37Z"/><path d="M868.79,218.67a1.4,1.4,0,0,1-.51-2.7l11.78-4.63a1.4,1.4,0,1,1,1,2.6l-11.78,4.63A1.32,1.32,0,0,1,868.79,218.67Z"/><path d="M968.33,38.72a1.39,1.39,0,0,1-1.17-.63l-6.89-10.63A1.39,1.39,0,1,1,962.61,26l6.89,10.62a1.4,1.4,0,0,1-.41,1.93A1.42,1.42,0,0,1,968.33,38.72Z"/><path d="M187.18,614.29a1.39,1.39,0,0,1-1.17-.64L179.13,603a1.4,1.4,0,1,1,2.34-1.52l6.88,10.63a1.39,1.39,0,0,1-1.17,2.15Z"/><path d="M996.8,928.92H118.64a1.4,1.4,0,0,1,0-2.79H996.8a1.4,1.4,0,0,1,0,2.79Z"/><path d="M961.19,430a59.83,59.83,0,0,1-15.8-2.22c-9.85-2.7-20.14-7.88-30.58-15.41-13.63-9.83-33.67-20.59-51.72-16a30,30,0,0,0-19.77,15.5,1.4,1.4,0,1,1-2.51-1.22,32.83,32.83,0,0,1,21.59-17c7-1.77,14.76-1.52,23.09.72,9.64,2.59,20,7.89,31,15.75,10.17,7.33,20.16,12.37,29.69,15a53,53,0,0,0,23.32,1.41c16.16-2.86,24.14-13,26.19-16A1.39,1.39,0,0,1,998,412c-2.21,3.27-10.77,14.17-28,17.23A50.57,50.57,0,0,1,961.19,430Z"/><path d="M976.12,485.75c-7.38,0-14.29-3.76-19-7.2-7.61-5.48-14.51-7.65-20-6.27a11.15,11.15,0,0,0-7.35,5.75,1.4,1.4,0,1,1-2.51-1.22,14,14,0,0,1,9.17-7.23c8-2,16.5,2.54,22.29,6.71,7.31,5.27,14.42,7.49,20.54,6.4a15.41,15.41,0,0,0,9.92-6.05,1.39,1.39,0,0,1,2.31,1.56,17.94,17.94,0,0,1-11.74,7.24A21.13,21.13,0,0,1,976.12,485.75Z"/><circle cx="654.83" cy="908.37" r="17.98"/><circle cx="395.86" cy="908.37" r="17.98"/><path d="M843.37,691.93,842,691.5,691.91,644.71c-26.78-9.19-83-39.86-104.08-90.11-6.65-13.71-21.74-70.35-28.8-98.41a1.4,1.4,0,1,1,2.71-.68c7,28,22.07,84.46,28.61,97.9l0,.07c20.68,49.35,76,79.52,102.41,88.59L841.43,688.4l31.2-115.3L710.7,533.42,662.32,366.86a1.38,1.38,0,0,1,.95-1.72,1.39,1.39,0,0,1,1.73.95l47.93,165,163.14,40Zm-197.3-368.6a1.39,1.39,0,0,1-1.33-1l-4.8-15.67-63,13.87a1.39,1.39,0,0,1-.6-2.72L639.12,304l-.88-2.88a1.4,1.4,0,0,1,2.67-.82l1.32,4.31v0l5.16,16.89a1.4,1.4,0,0,1-.92,1.74A1.51,1.51,0,0,1,646.07,323.33Z"/><rect x="399.91" y="626.99" width="277.26" height="2.79" transform="translate(-196 1009.62) rotate(-76.83)"/><polygon points="870.15 585.97 682.05 545.76 681.89 544.82 653.45 372.18 656.2 371.72 684.49 543.43 870.73 583.24 870.15 585.97"/><path d="M587.64,774.22,466.8,759.88l17.53-345.59a1.4,1.4,0,0,1,2.79.14l-17.4,343L584.9,771.08l3.48-214.48a1.39,1.39,0,1,1,2.78,0Z"/><path d="M574.26,86.09c14.27,12,12.38,37.12,9.65,48.17-4.7,0-7.13,1.47-7.76,2.21,3.25-10.39,6.3-25.09-3.25-23.93-20.66,2.35-31.6-1.89-33.87-4.27C540.26,103.67,556.42,71.08,574.26,86.09Z"/><path d="M582.53,113.21a1.46,1.46,0,0,1-.53-.1c-2.32-.83-37.22-5.28-70.52-9.26a1.38,1.38,0,0,1-1.21-1.55,1.4,1.4,0,0,1,1.55-1.22c7,.84,68.2,8.17,71.26,9.45a1.4,1.4,0,0,1-.55,2.68Z"/><path d="M557.18,167.46a17.06,17.06,0,0,1-10.78-3.74,18,18,0,0,1-4.17-4.56l0-.06c-10.73-18.39-6.61-41.7-2.93-51.46a1.39,1.39,0,1,1,2.61,1c-3.51,9.32-7.46,31.57,2.71,49a15.35,15.35,0,0,0,3.52,3.85c7.2,5.67,15.81,2.45,19.36,0a28.53,28.53,0,0,0,6.61-6.53,49.29,49.29,0,0,0,5.19-9.41,1.39,1.39,0,1,1,2.61,1,52.19,52.19,0,0,1-5.54,10.07,30.91,30.91,0,0,1-7.3,7.21A21.77,21.77,0,0,1,557.18,167.46Z"/><path d="M551.19,181a1.39,1.39,0,0,1-1.38-1.21l-1.9-14.73a1.41,1.41,0,0,1,1.21-1.56,1.39,1.39,0,0,1,1.56,1.21l1.89,14.72a1.39,1.39,0,0,1-1.2,1.56Zm29.73-2.52a1.39,1.39,0,0,1-1.36-1.09l-4.91-22.3a1.39,1.39,0,1,1,2.72-.6l4.91,22.3a1.39,1.39,0,0,1-1.06,1.66Z"/><path d="M561.41,165.72c-4.59,1.77-9.63.09-11.57-1l1.15,7.86c13.7,4.24,21.43-7.16,23.22-13.87A57.81,57.81,0,0,1,561.41,165.72Z"/><path d="M578,147.64a12.64,12.64,0,0,1-2.1-.17,1.4,1.4,0,0,1,.48-2.75c2.7.47,8.24-.27,9.41-4.15.71-2.33.38-4.33-.9-5.49s-3.08-1.25-5-.44a1.39,1.39,0,0,1-1.07-2.57c3-1.24,6-.89,8,.94s2.72,5,1.7,8.37a8.45,8.45,0,0,1-5.78,5.51A14.71,14.71,0,0,1,578,147.64Z"/><path d="M541.32,151.51l1.77-3c3.37-5.73,5.36-16.72,3.74-20.64-1.5-3.64-6.9-4.87-9.13-4.87a1.39,1.39,0,1,1,0-2.78c2.33,0,9.49,1.21,11.71,6.59,1.79,4.33.24,13.62-2.38,20a15.81,15.81,0,0,0,4.78-4.4,1.39,1.39,0,0,1,2.2,1.71c-4,5.06-6.87,5.82-8.8,6.32l-.53.15Z"/><path d="M570.55,127.1a1.44,1.44,0,0,1-1-.39c-5-4.87-10-.63-10.16-.45a1.4,1.4,0,0,1-1.84-2.1,10,10,0,0,1,13.95.55,1.39,1.39,0,0,1-1,2.39Z"/><path d="M555.62,155.41a11.66,11.66,0,0,1-3.56-.59,1.39,1.39,0,0,1,.85-2.65c6.64,2.12,9.19-3.9,9.3-4.16a1.39,1.39,0,1,1,2.58,1.06A10.2,10.2,0,0,1,555.62,155.41Z"/><path d="M576.47,141.92a1.4,1.4,0,0,1-1.18-2.13,8.86,8.86,0,0,1,8.3-4,1.39,1.39,0,0,1-.33,2.77,6.08,6.08,0,0,0-5.6,2.66A1.39,1.39,0,0,1,576.47,141.92Z"/><path d="M558.7,133.35a1.41,1.41,0,0,1-.86-.3,1.39,1.39,0,0,1-.23-2,8.94,8.94,0,0,1,6.48-3.48c2.43-.07,4.7,1.09,6.73,3.42a1.4,1.4,0,0,1-2.1,1.84c-1.46-1.68-3-2.51-4.56-2.47a6.19,6.19,0,0,0-4.36,2.41A1.42,1.42,0,0,1,558.7,133.35Z"/><path d="M537.14,132.94a1.33,1.33,0,0,1-.86-.3,1.38,1.38,0,0,1-.23-1.95,8.91,8.91,0,0,1,6.49-3.48c2.43-.06,4.69,1.09,6.72,3.42a1.39,1.39,0,1,1-2.1,1.83c-1.46-1.67-3-2.5-4.55-2.46a6.18,6.18,0,0,0-4.37,2.41A1.41,1.41,0,0,1,537.14,132.94Z"/><path d="M528.92,423.81c-2.51,0-4.64-.94-5.65-2.55a4.07,4.07,0,0,1-.6-2.44,8.07,8.07,0,0,1-6-1.48,6.51,6.51,0,0,1-2.24-6.47,6.76,6.76,0,0,1-4.82-1.75c-1.74-1.64-2.2-4.15-1.28-6.88a8.51,8.51,0,0,1,2.88-3.71c.58-.43,1.57-1,2.68-1.68l-6.08.47a5.64,5.64,0,0,1-5.74-4.51c-.5-2.25.42-5.2,4.49-6.71l.15,0L547,376.28l-17.74-6.76a7.81,7.81,0,0,1-4.21-8.13c.94-4.23,5.87-4.76,8-4.78,4.42-.33,50.87-2.36,62.67-2.41l70.95-47.65-21.77-36.26a1.4,1.4,0,0,1,2.4-1.44l23.12,38.54L596.55,357h-.42c-11.06,0-58.77,2.08-62.93,2.4h-.1c-1.78,0-4.85.37-5.35,2.59a5.07,5.07,0,0,0,2.64,5l26,9.9-48.94,11.88c-2,.77-3,2-2.66,3.47a2.9,2.9,0,0,0,2.8,2.32l12.55-1,.76,2.63c-2.54,1.32-6.77,3.64-8,4.57a5.82,5.82,0,0,0-1.89,2.37c-.4,1.18-.63,2.83.56,4a4.21,4.21,0,0,0,4.29.69l2.92-1.17-1.09,2.95c-.66,1.76-1.06,4.17.74,5.58a5.44,5.44,0,0,0,5.84.2l1.94,1.94c-.49.72-1,1.75-.51,2.49s2.16,1.46,4.35,1.16l74-16.53,78.32-53.28c1.28-.93,2.67-1.9,4.14-2.94,8.41-5.95,19.93-14.09,27.49-23.64,8.75-11.06,10.49-21.64,5.32-32.35C706,264.91,692,241,691.84,240.77a1.4,1.4,0,0,1,2.41-1.42c.14.24,14.24,24.24,27.48,51.64,12.85,26.57-16.3,47.17-33.71,59.48-1.47,1-2.86,2-4.13,2.94l0,0L605.08,407l-.26.06L530.5,423.69h-.06A11.33,11.33,0,0,1,528.92,423.81Z"/><circle cx="564.24" cy="131.67" r="2.26"/><circle cx="542.68" cy="131.27" r="2.26"/><path d="M580.77,143.93a1.32,1.32,0,0,1-.71-.2,1.39,1.39,0,0,1-.48-1.91,2.49,2.49,0,0,0,.51-1.92,1,1,0,0,0-.57-.53,1.39,1.39,0,1,1,.87-2.65,3.73,3.73,0,0,1,2.31,2.2,4.89,4.89,0,0,1-.73,4.34A1.39,1.39,0,0,1,580.77,143.93Z"/><path class="cls-1" d="M515,179.26l34.29-4.13c2.44,3.27,9.59,9.47,17.7,7.67s13.61-8.75,14.09-11.78c5.89-.56,18.41-1.69,31.46-3.53,26.82-3.64,46.21,13.94,52.56,23.18l36,53.39-50.5,36.84-17.38-26.08L642,303.66,575.32,319l-20.7-125.12-81.2,14.76C488.59,187.41,507.48,180.21,515,179.26Z"/><path d="M629.78,247.93a1.4,1.4,0,0,1-1.37-1.14l-3.59-19.3a1.39,1.39,0,1,1,2.74-.51l3.6,19.3A1.39,1.39,0,0,1,630,247.9,1.15,1.15,0,0,1,629.78,247.93Z"/><path d="M523.85,418.53a1.39,1.39,0,0,1-.63-2.64L554,400.39a1.39,1.39,0,0,1,1.25,2.49l-30.75,15.5A1.45,1.45,0,0,1,523.85,418.53Zm-7.07-8.19a1.39,1.39,0,0,1-.57-2.67l32.38-14.33a1.4,1.4,0,0,1,1.84.71,1.38,1.38,0,0,1-.71,1.84l-32.38,14.33A1.23,1.23,0,0,1,516.78,410.34Zm2-13.58a1.4,1.4,0,0,1-.34-2.75l23.64-6a1.39,1.39,0,1,1,.69,2.7l-23.64,6.05A1.39,1.39,0,0,1,518.78,396.76Z"/><polygon points="330.69 432.59 303.02 236.89 555.35 192.62 583.55 355.69 580.8 356.17 553.08 195.85 306.16 239.17 333.07 429.52 515.32 409.46 515.63 412.23 330.69 432.59"/><polygon points="333.57 431.67 331.54 429.77 438.18 315.81 303.91 239.58 305.28 237.15 440.14 313.72 552.86 193.28 554.9 195.19 442.64 315.13 526.61 362.81 525.23 365.23 440.68 317.23 333.57 431.67"/><path d="M483.78,449.24l2.41-33.72,28.89-3.95c1,5.63,6.33,6.76,8.86,6.61.06,1.12,2.76,3.36,3.27,3.73s43.08-8.63,65.18-13.26l-2.09,4.28Z"/><path d="M404.37,860.37H571.46v-74H516.91l1.82,17.4c-8.9,1.23-28,3.95-33.42,5C431.66,816.36,409,846.34,404.37,860.37Z"/><path d="M572.85,861.76H402.44l.6-1.83c4.9-14.84,28.34-44.92,82-52.58,5.12-1,22.51-3.48,32.12-4.82l-1.68-16h0l-2.3-22.1,2.77-.29,2.18,20.85h51.89V770.53h2.79ZM406.36,859h163.7V787.73h-51.6l1.8,17.2-1.34.18c-9.23,1.28-28.08,4-33.35,5l-.07,0C435.29,817.25,412.32,844.19,406.36,859Zm110.55-72.64"/><path d="M628.56,821.31l-55.92,40.57V819.37Z"/><path d="M925.44,781.36l31.28-164.14L884,603.36,873.78,657l17.43,1.47c-.46,9-1.37,28.28-1.35,33.76C887.32,746.31,912.53,774.18,925.44,781.36Z"/><path d="M926.45,783.52l-1.68-.94c-13.67-7.59-38.83-36.26-36.31-90.43,0-5.24.8-22.77,1.29-32.45l-38.23-3.23.24-2.78,20.89,1.76,9.71-51-15.49-3.12.55-2.74,16.84,3.4,74.09,14.11-.26,1.37Zm-51-127.83,17.23,1.45-.07,1.35c-.47,9.3-1.36,28.3-1.35,33.69v.07c-2.37,50.65,19.78,78.26,33.2,86.89l30.64-160.81L885.1,605Z"/><path d="M529,897.47c-72.11,0-139.93-4.17-190.94-11.75-24.82-3.68-44.29-8-57.87-12.75-6.89-2.41-12.19-5-15.74-7.52s-5.48-5.37-5.48-8.09,1.84-5.44,5.48-8.08,8.85-5.11,15.74-7.53c13.6-4.78,33.07-9.06,57.87-12.75,51-7.57,118.82-11.74,190.94-11.74S668.94,821.43,720,829c24.79,3.69,44.26,8,57.86,12.75,6.9,2.42,12.19,5,15.74,7.53s5.49,5.36,5.49,8.08-1.85,5.44-5.49,8.09-8.84,5.11-15.74,7.52c-13.58,4.78-33.05,9.07-57.86,12.75C668.94,893.3,601.13,897.47,529,897.47Zm0-77.42c-72,0-139.65,4.16-190.53,11.71-24.62,3.66-43.92,7.91-57.36,12.63-6.63,2.32-11.69,4.73-15,7.15-2.83,2.06-4.33,4.07-4.33,5.82s1.5,3.77,4.33,5.83c3.33,2.42,8.39,4.82,15,7.15,13.42,4.71,32.72,9,57.36,12.62C389.36,890.52,457,894.68,529,894.68S668.66,890.52,719.55,883c24.63-3.66,43.93-7.91,57.35-12.62,6.64-2.33,11.69-4.73,15-7.15,2.84-2.06,4.34-4.07,4.34-5.83s-1.5-3.76-4.34-5.82c-3.33-2.42-8.38-4.83-15-7.15-13.44-4.72-32.73-9-57.35-12.63C668.66,824.21,601,820.05,529,820.05Z"/><path class="cls-2" d="M582.88,354.23l-28-161.7L305.3,236.32l27.29,193,183.59-20.21"/><polygon points="331.39 430.89 303.73 235.18 556.06 190.91 584.26 353.99 581.51 354.46 553.79 194.15 306.87 237.46 333.78 427.82 516.03 407.75 516.33 410.53 331.39 430.89"/><polygon points="554.2 193.43 306.75 236.37 309.16 258.02 558.83 218.86 554.2 193.43"/><polygon class="cls-2" points="553.74 197.97 308.12 240.24 310.16 253.64 556.47 214.33 553.74 197.97"/><polygon points="346.31 247.87 327.49 251.46 325.08 236.68 344.09 234.05 346.31 247.87"/><polygon points="384.55 241.79 365.73 245.38 363.32 230.6 382.04 227.13 384.55 241.79"/><polygon points="423.2 236.71 404.26 238.68 401.85 223.89 420.57 220.43 423.2 236.71"/><polygon points="460.98 229.9 442.29 234.33 439.63 217.08 458.34 213.61 460.98 229.9"/><polygon points="498.19 224.78 479.78 227.64 477.12 210.39 495.83 206.93 498.19 224.78"/><polygon points="536.16 218.65 517.75 221.51 515.09 204.26 533.81 200.79 536.16 218.65"/><polygon points="548.49 381.59 331.08 408.54 332.43 430.28 516.7 401.79 548.49 381.59"/><polygon class="cls-2" points="545 386.4 332.25 412.47 333.64 425.95 519.79 406.3 545 386.4"/><polygon points="370.03 421.94 351.06 424.62 349.37 409.73 368.48 408.03 370.03 421.94"/><polygon points="408.52 417.73 389.54 420.4 387.86 405.51 406.72 402.96 408.52 417.73"/><polygon points="447.37 414.53 428.36 415.57 426.67 400.69 445.53 398.13 447.37 414.53"/><polygon points="485.43 409.55 466.55 413.07 464.73 395.71 483.59 393.16 485.43 409.55"/><polygon points="522.85 406.25 504.32 408.21 502.5 390.85 521.36 388.3 522.85 406.25"/><path d="M424.91,315.44h0c1.12,6.57,2.2,13.15,3.39,19.71.47,2.63,1.61,4.72,4.48,2.16,9.5-8.45,18.89-17,28.32-25.53,2.58-2.33,1.66-3.74-1.14-4.88-11.21-4.58-22.38-9.25-33.59-13.82-4.35-1.77-5.42-.82-4.62,4C422.79,303.2,423.86,309.32,424.91,315.44Z"/><polyline points="419.8 284.13 480.35 311.26 431.4 354.95"/></svg>