<svg xmlns="http://www.w3.org/2000/svg" viewBox="0 0 969.56 790.41"><defs><style>.cls-1{fill:#faf57f;}.cls-2{fill:#d09ef3;}</style></defs><g id="background"><g id="background-2" data-name="background"><path d="M746.63,262.05c-11.26,0-23.14-8.65-35.32-25.74a.75.75,0,1,1,1.22-.87c12.29,17.24,24.14,25.68,35.19,25.08,9-.49,15.24-6.6,21.81-13.08s13.38-13.18,23.26-13.66c11-.54,22.4,6.82,33.9,21.87a.75.75,0,1,1-1.19.91c-11.19-14.63-22.17-21.79-32.63-21.28-9.31.45-15.91,6.95-22.29,13.23s-13.18,13-22.78,13.5C747.41,262,747,262.05,746.63,262.05Z"/><path d="M83.23,64.86c-9.31,0-19.1-7.13-29.15-21.21a.75.75,0,1,1,1.22-.87c10.08,14.13,19.78,21,28.82,20.56,7.37-.4,12.46-5.41,17.84-10.71s11-10.88,19.21-11.27c9.09-.44,18.5,5.62,28,18a.75.75,0,1,1-1.19.91c-9.17-12-18.14-17.85-26.71-17.45-7.6.37-12.77,5.46-18.24,10.85S92.14,64.41,84.2,64.84Z"/><path d="M34.62,605.9a.73.73,0,0,1-.53-.22L.22,571.82a.75.75,0,0,1,0-1.06l33.87-33.87a.74.74,0,0,1,1.06,0L69,570.76a.75.75,0,0,1,.22.53.77.77,0,0,1-.22.53L35.15,605.68A.74.74,0,0,1,34.62,605.9ZM1.81,571.29l32.81,32.8,32.81-32.8L34.62,538.48Z"/><path d="M472.83,176.68a.75.75,0,0,1-.74-.64l-4.28-28.17a.76.76,0,0,1,.63-.86l28.18-4.28a.76.76,0,0,1,.85.63l4.28,28.18a.75.75,0,0,1-.63.85l-28.18,4.28Zm-3.43-28.3,4.06,26.7,26.7-4.06-4.06-26.69Z"/><path d="M835.85,61.43a.73.73,0,0,1-.62-.33L821.79,40.94a.75.75,0,0,1,1.25-.83l13.44,20.16a.76.76,0,0,1-.21,1A.79.79,0,0,1,835.85,61.43Z"/><path d="M416.1,332.47a.75.75,0,0,1-.49-1.32l18.3-15.87a.75.75,0,0,1,1.06.08.74.74,0,0,1-.08,1.05l-18.3,15.87A.7.7,0,0,1,416.1,332.47Z"/><path d="M811,753.32a.75.75,0,0,1-.61-.31l-14.25-19.59a.75.75,0,0,1,.17-1,.74.74,0,0,1,1,.16l14.25,19.6a.74.74,0,0,1-.16,1A.75.75,0,0,1,811,753.32Z"/><path d="M53.69,333.34a.74.74,0,0,1-.55-.23L36.52,315.48a.75.75,0,0,1,0-1.06.75.75,0,0,1,1.06,0l16.61,17.63a.75.75,0,0,1,0,1.06A.72.72,0,0,1,53.69,333.34Z"/><path d="M141.34,652.11a.74.74,0,0,1-.45-.15.76.76,0,0,1-.16-1.05l14.44-19.45a.76.76,0,0,1,1.05-.16.75.75,0,0,1,.16,1.05L141.94,651.8A.75.75,0,0,1,141.34,652.11Z"/><path d="M949.76,458.64a.74.74,0,0,1-.59-.28.75.75,0,0,1,.13-1.06l19.05-15a.75.75,0,0,1,1,.13.74.74,0,0,1-.13,1l-19,15A.72.72,0,0,1,949.76,458.64Z"/><circle class="cls-1" cx="866.07" cy="365.27" r="16.52"/><circle class="cls-1" cx="521.73" cy="32.22" r="9.86"/><circle class="cls-1" cx="151.36" cy="445.84" r="14"/><circle class="cls-1" cx="904.4" cy="119.83" r="7"/><circle class="cls-1" cx="71.71" cy="705.12" r="7"/><path d="M923.85,278.64a.72.72,0,0,1-.46-.16l-32.78-25.91a.71.71,0,0,1-.28-.5.74.74,0,0,1,.15-.55l25.91-32.78a.75.75,0,0,1,1.05-.12l32.78,25.91a.71.71,0,0,1,.28.5.74.74,0,0,1-.15.55l-25.91,32.78A.74.74,0,0,1,923.85,278.64Zm-31.73-26.78,31.61,25,25-31.6-31.61-25Z"/></g></g><g id="general"><g id="general-2" data-name="general"><g id="test_tube_2" data-name="test tube 2"><path class="cls-2" d="M624.43,616.43q5.93,7.5,11.82,15H612.59Q618.44,623.91,624.43,616.43Z"/><path d="M612.59,632.22A.75.75,0,0,1,612,631c3.78-4.89,7.77-10,11.84-15a.76.76,0,0,1,.59-.28h0a.74.74,0,0,1,.59.28q5.93,7.51,11.82,15a.75.75,0,0,1-.59,1.22Zm11.84-14.59c-3.54,4.43-7,8.82-10.31,13.09h20.59Z"/><path class="cls-2" d="M823.18,561.57c2.72,10.25,10.58,40.19,18.37,69.91q-24.34,0-48.69-.06h0q3.9-8.77,7.78-17.65Q812.15,587.5,823.18,561.57Z"/><path d="M841.55,632.23h0l-48.69-.06a.75.75,0,0,1-.75-.75h0a.67.67,0,0,1,.07-.31q3.89-8.79,7.77-17.65c7.41-16.9,15-34.45,22.54-52.18a.73.73,0,0,1,.74-.45.74.74,0,0,1,.67.55c2.6,9.8,10.15,38.54,18.37,69.91a.76.76,0,0,1-.13.65A.75.75,0,0,1,841.55,632.23Zm-43.29-1.55,42.32.05c-7.6-29-14.59-55.6-17.57-66.85-7.27,17-14.56,33.92-21.69,50.19q-3.65,8.32-7.31,16.59h4.09Z"/><path class="cls-2" d="M936.7,624.4c-35.83-93.65-76.92-157.15-113.33-200.78l0,0c0,.74-.1,1.48-.2,2.21a29,29,0,0,1-2.65,8.95l-.19.36a5.83,5.83,0,0,1,.55.46c2.48,2.33,3.86,8.24.38,12.07a8.81,8.81,0,0,1-11,1.45,6.44,6.44,0,0,1-1.76-1.87l-4.62,16c1.09.5,2.19,1,3.28,1.61,23.83,12.49,39.86,39.6,49.8,66.8,10.69,29.27,18.26,47.87,30.38,85.93,1.52,4.79,3,9.44,4.46,13.94,15.7,0,29.2.07,40,.12A5.34,5.34,0,0,0,936.7,624.4ZM797.52,394.92l-1.41-1.46c-54.52-55.64-100.11-76-123.37-143.09C663,222.25,659.66,193.11,660.16,165H579.83c.49,28.15-2.83,57.29-12.58,85.41C544,317.48,498.39,337.82,443.87,393.46c-30.35,31-66.74,76.24-101.64,143.58l2.85,94.61c40.28,0,104.12-.11,175.72-.16,14.82-16.9,29.64-33.58,39.69-44.26,21.6-22.94,34.87-35.46,43.77-42.32q-12.64-6.4-25.31-12.79l2.71-7.76c-2.72-1.42-45.42-23.77-52.3-30.05-1.14-1.05-4-3.62-3.51-6.41a5.13,5.13,0,0,1,1.91-3.29c1.72-1.16,4.11-.59,6.16.22l-1.46-.67a13.76,13.76,0,0,1-4.34-5,7.22,7.22,0,0,1-1-3.91,5.23,5.23,0,0,1,1.46-3.45,5.68,5.68,0,0,1,3.54-1.18,21.38,21.38,0,0,1,3.5.83s-4-4.45-4.64-5.87a7.47,7.47,0,0,1-1-3.91,5.22,5.22,0,0,1,1.46-3.45A5.57,5.57,0,0,1,535,457c2.53-.06,9.88,3.36,19.87,9.06h0c-1.51-1.5-10.1-9.61-11.24-11.64a7.28,7.28,0,0,1-.94-3.58,4.13,4.13,0,0,1,3.89-4.26c4-.64,10.06,4.46,12.55,6.5,3,2.5,7.55,6.08,13.58,10.23-.45-3.12,0-5.73,2.18-6.87,7.43-3.89,20.71,27.94,20.71,27.94L679.89,531c21.25-38.92,48.9-64.3,71-71a86.41,86.41,0,0,1,24.21-3.54l3.33-7.74c-7.89-7.2-5-24.2-4.37-28.33a29.15,29.15,0,0,1,1.55-5.89,30.15,30.15,0,0,1,10.1-13.88c1.75-1.31,6.29-4.68,12-5.54Z"/><path d="M931.73,632.41h0c-10.75,0-24.25-.09-40-.12a.76.76,0,0,1-.71-.53l-.77-2.38c-1.2-3.75-2.44-7.6-3.69-11.55-9.22-28.94-15.67-46.25-23.13-66.31-2.31-6.19-4.69-12.59-7.24-19.59-8.35-22.85-23.7-52.9-49.44-66.4-1-.53-2.07-1-3.25-1.59a.75.75,0,0,1-.41-.89l4.61-16a.77.77,0,0,1,.62-.53.75.75,0,0,1,.74.33,5.82,5.82,0,0,0,1.56,1.67,8.07,8.07,0,0,0,10-1.35c3.16-3.47,1.89-8.92-.33-11a6.4,6.4,0,0,0-.49-.42.75.75,0,0,1-.2-.95l.18-.36a27.46,27.46,0,0,0,2.57-8.7c.1-.7.16-1.42.2-2.13a.75.75,0,0,1,1.37-.38c44.76,53.62,82.94,121.25,113.43,201a6.09,6.09,0,0,1-5.67,8.28Zm-39.44-1.62c15.46,0,28.78.07,39.41.12h0a4.59,4.59,0,0,0,4.27-6.24h0C905.83,545.8,868.13,478.8,823.94,425.49c0,.14,0,.27-.05.41a30,30,0,0,1-2.64,9l.11.1c2.72,2.55,4.24,8.93.42,13.12a9.54,9.54,0,0,1-12,1.57,6.58,6.58,0,0,1-1-.88l-4,14c1,.46,1.87.9,2.73,1.35,26.17,13.72,41.72,44.12,50.15,67.21,2.56,7,4.94,13.39,7.25,19.59,7.47,20.07,13.92,37.41,23.15,66.38,1.25,3.94,2.49,7.79,3.69,11.54ZM345.08,632.4a.76.76,0,0,1-.75-.73l-2.85-94.61a.91.91,0,0,1,.08-.37c29.12-56.17,63.36-104.53,101.78-143.75,16-16.35,30.94-29.37,45.38-42,34.33-30,61.45-53.61,77.82-100.85,8.87-25.57,13.08-54.22,12.54-85.14a.72.72,0,0,1,.21-.54.76.76,0,0,1,.54-.23h80.33a.76.76,0,0,1,.53.23.77.77,0,0,1,.22.54c-.55,30.92,3.67,59.57,12.54,85.14C689.82,297.36,716.93,321,751.26,351c14.44,12.6,29.37,25.62,45.39,42l1.39,1.43.19.17a.75.75,0,0,1,.23.77.77.77,0,0,1-.61.54c-5.58.83-10,4.14-11.69,5.39a29,29,0,0,0-9.84,13.54,28.15,28.15,0,0,0-1.52,5.74l0,.16c-2.76,17.08.74,24.38,4.16,27.5a.77.77,0,0,1,.18.85l-3.33,7.75a.75.75,0,0,1-.68.45,85.39,85.39,0,0,0-24,3.51c-23.64,7.16-50.68,34.22-70.55,70.63a.76.76,0,0,1-1,.3l-84.3-46.59a.7.7,0,0,1-.33-.37c-.11-.25-10.52-25-17.68-27.62a2.4,2.4,0,0,0-2,.05c-1.65.87-2.25,2.92-1.78,6.1a.76.76,0,0,1-1.17.73c-4.83-3.33-9.42-6.78-13.64-10.27l-.23-.19c-2.44-2-8.16-6.72-11.72-6.15a3.94,3.94,0,0,0-2.46,1.21,3.88,3.88,0,0,0-.81,2.36,6.68,6.68,0,0,0,.85,3.16c.9,1.59,7.13,7.62,9.8,10.2.59.57,1.06,1,1.31,1.28a.72.72,0,0,1,.17.81.79.79,0,0,1-1.08.37c-9.85-5.62-17.1-9-19.44-9h0a4.85,4.85,0,0,0-3.05,1,4.25,4.25,0,0,0-1.21,2.94,6.66,6.66,0,0,0,.94,3.52,49.58,49.58,0,0,0,4.52,5.72.74.74,0,0,1,.07.9.75.75,0,0,1-.85.31,20.8,20.8,0,0,0-3.27-.8,5,5,0,0,0-3,1,4.28,4.28,0,0,0-1.21,3,6.54,6.54,0,0,0,.92,3.53,13.06,13.06,0,0,0,4.05,4.69l1.4.64a.75.75,0,0,1-.59,1.38c-2.52-1-4.31-1.09-5.47-.3a4.36,4.36,0,0,0-1.6,2.82c-.38,2.35,2.19,4.69,3.28,5.69,6.85,6.26,50.3,29,52.14,30a.74.74,0,0,1,.36.91l-2.49,7.15.71.36q12,6.06,24,12.13a.76.76,0,0,1,.41.6.78.78,0,0,1-.29.67C595,553,581.14,566.39,561,587.74c-8.67,9.21-22,24.1-39.67,44.24a.75.75,0,0,1-.57.26c-71.6,0-135.44.11-175.72.16ZM343,537.21l2.82,93.68c40.25,0,103.61-.1,174.65-.15,17.56-20,30.85-34.84,39.49-44,19.52-20.74,33.21-34,42.92-41.67q-11.48-5.82-23-11.6l-1.3-.66a.75.75,0,0,1-.37-.91l2.5-7.16c-6.73-3.52-45.24-23.8-51.88-29.86-1.28-1.17-4.27-3.9-3.75-7.08a5.79,5.79,0,0,1,2.22-3.79,5.06,5.06,0,0,1,2.84-.78,14,14,0,0,1-2.72-3.72,7.83,7.83,0,0,1-1.07-4.3,5.7,5.7,0,0,1,1.69-3.95,6.35,6.35,0,0,1,4-1.38,7.81,7.81,0,0,1,1.34.21,30.6,30.6,0,0,1-3.13-4.18,8,8,0,0,1-1.08-4.28,5.66,5.66,0,0,1,1.69-3.95,6.31,6.31,0,0,1,4-1.37H535c2.68,0,9.08,3.07,15.26,6.42-3.6-3.52-6.62-6.61-7.32-7.87a7.92,7.92,0,0,1-1-4,4.88,4.88,0,0,1,4.52-5c4.21-.68,10.09,4.15,12.92,6.47l.22.19c3.8,3.14,7.9,6.26,12.21,9.27-.12-3,.8-5,2.73-6a3.86,3.86,0,0,1,3.2-.14c7.46,2.7,17.28,25.44,18.45,28.21L679.6,530c20-36.41,47.2-63.46,71.07-70.69a87,87,0,0,1,23.94-3.57l2.92-6.81c-5-5-6.48-14.59-4.24-28.48l0-.15a29.8,29.8,0,0,1,1.59-6A30.57,30.57,0,0,1,785.26,400a29.23,29.23,0,0,1,10.94-5.41l-.59-.61c-16-16.34-30.92-29.34-45.33-41.92C715.78,322,688.53,298.22,672,250.61c-8.85-25.53-13.1-54.09-12.63-84.9H580.59c.47,30.81-3.78,59.37-12.64,84.9C551.45,298.22,524.2,322,489.71,352.1c-14.42,12.58-29.33,25.59-45.3,41.89C406.13,433.06,372,481.25,343,537.21Z"/><path d="M797.74,395.85a.76.76,0,0,1-.49-.18l-.5-.47-.8-.83-.37-.38c-16-16.3-30.88-29.31-45.29-41.88C715.79,322,688.54,298.22,672,250.61,663.11,224.86,658.86,196,659.41,165a.74.74,0,0,1,.75-.73h0a.73.73,0,0,1,.73.76c-.55,30.91,3.67,59.56,12.54,85.14C689.82,297.36,716.94,321,751.27,351c14.44,12.59,29.36,25.62,45.38,42l.37.38.81.83.4.39a.74.74,0,0,1-.49,1.31Z"/><path d="M579.82,165.72a.75.75,0,0,1-.75-.74,360.73,360.73,0,0,0-5.94-57.57c-2.33-12.86-5.38-26.24-9.07-39.78a6.09,6.09,0,0,1,5.87-7.7H670.05a6.11,6.11,0,0,1,5.88,7.7c-3.69,13.54-6.75,26.92-9.08,39.78A360.73,360.73,0,0,0,660.91,165a.75.75,0,1,1-1.5,0,362.79,362.79,0,0,1,6-57.81c2.35-12.9,5.41-26.32,9.11-39.9a4.6,4.6,0,0,0-4.43-5.81H569.93a4.59,4.59,0,0,0-4.42,5.81c3.69,13.58,6.76,27,9.1,39.9a361.63,361.63,0,0,1,6,57.81.75.75,0,0,1-.74.77Z"/><path d="M345.08,631.65l-36.84,0a5.34,5.34,0,0,1-5-7.25,849,849,0,0,1,39-87.4Z"/></g><g id="test_tube_1" data-name="test tube 1"><path d="M288.33,231.54a.75.75,0,0,1-.55-1.26L419.29,89.73a6.09,6.09,0,0,0,.15-8.14L352,3.6a6.11,6.11,0,0,0-4.49-2.1,6,6,0,0,0-4.54,1.92L195.41,161.09a.75.75,0,0,1-1.06,0,.76.76,0,0,1,0-1.06L341.83,2.4A7.54,7.54,0,0,1,347.35,0h.14a7.57,7.57,0,0,1,5.59,2.62l67.5,78a7.59,7.59,0,0,1-.2,10.15L288.88,231.3A.75.75,0,0,1,288.33,231.54Z"/><path class="cls-2" d="M170.33,186.81c1.66-1.79,3.34-3.58,5-5.36.92,3.33,2,7,3.27,11h0l.55,2C176.32,190.11,173,187.42,170.33,186.81Z"/><path d="M179.16,195.15a.76.76,0,0,1-.63-.33c-2.58-3.9-5.79-6.69-8.37-7.28a.75.75,0,0,1-.38-1.25l5-5.36a.79.79,0,0,1,.73-.21.74.74,0,0,1,.54.53c.94,3.38,2,7.05,3.27,10.92a.29.29,0,0,1,0,.09l.53,2a.74.74,0,0,1-.42.88A.8.8,0,0,1,179.16,195.15Zm-7.48-8.7a16.23,16.23,0,0,1,5.63,4.32c-.85-2.73-1.63-5.36-2.33-7.84Z"/><path class="cls-2" d="M349.92,165l-16.1,17.21-22.06,23.58L291.21,227.7l-2.88,3.09a18.88,18.88,0,0,0-12.83-1.31c-11.37,3.17-17.67,18.27-15.3,31.38l-46,49.15c-27.57,29.46-67.33,33.69-88.37,9.4-14.13-16.34-16.36-41.58-7.92-65.33a93.59,93.59,0,0,1,19.8-32.43l27.53-29.42a8.57,8.57,0,0,0,1.45,3c4.08,5.8,16.22,16.78,17.58,18q-5.15-18.8-5.12-18.8s2.15,7.72,6.42,23.17c2.74.84,5.56,1.78,8.44,2.82A175,175,0,0,1,213.78,229a39.17,39.17,0,0,0,.84-20.76A38.76,38.76,0,0,0,208,194c2.54-6.57,4.79-12.69,6.82-18.38.79-2.19,2-5.69.3-7.89a3.71,3.71,0,0,0-2.6-1.47c-2.25-.07-4,2.78-5.14,4.76a149.42,149.42,0,0,0-8,16.11s2.47-14.75,3.48-18.58a19.18,19.18,0,0,0,.7-3.63Z"/><path d="M161.58,335.94h-1.09c-14-.27-26.5-6-35.21-16-13.79-15.94-16.88-41.26-8.06-66.07a94.64,94.64,0,0,1,20-32.69l27.52-29.42a.71.71,0,0,1,.74-.21.74.74,0,0,1,.54.55,7.81,7.81,0,0,0,1.34,2.69c3.2,4.56,11.5,12.41,15.55,16.15q-2.06-7.54-3.17-11.6c-.46-1.7-.78-2.87-1-3.68-.17-.63-.25-.91-.27-1l.06,0c-.12-.78.06-.83.44-.94a.75.75,0,0,1,.57.07c.08.05.14.08.3.51h.07l.49,1.82c.77,2.64,2.35,8.36,5.81,20.9,2.65.82,5.36,1.73,8.09,2.72a173.64,173.64,0,0,1,19,8.25,37.85,37.85,0,0,0-5.93-33.46.72.72,0,0,1-.09-.71c2.29-5.93,4.52-11.94,6.81-18.36.66-1.84,1.89-5.25.41-7.18a3,3,0,0,0-2-1.19c-1.86-.06-3.56,2.85-4.48,4.4a149.64,149.64,0,0,0-8,16,.75.75,0,0,1-.91.42.74.74,0,0,1-.52-.84c.1-.61,2.49-14.83,3.49-18.65l0-.14a17.25,17.25,0,0,0,.64-3.34.75.75,0,0,1,.75-.71H349.92a.75.75,0,0,1,.69.46.78.78,0,0,1-.14.81L288.88,231.3a.75.75,0,0,1-.85.17,18.23,18.23,0,0,0-12.33-1.27c-11.55,3.22-17,18.39-14.76,30.53a.75.75,0,0,1-.19.64l-46,49.15C199.6,326.72,180.28,335.94,161.58,335.94Zm3.36-142.29-26.67,28.51a93.33,93.33,0,0,0-19.64,32.17c-8.64,24.3-5.66,49,7.78,64.59,8.56,9.88,20.35,15.25,34.11,15.51,18.61.36,38-8.73,53.14-24.93l45.74-48.88c-2.67-15.68,6-29.11,15.89-31.86a19.48,19.48,0,0,1,12.85,1.13l60.05-64.18H213.52a4.81,4.81,0,0,1,2.22,1.64c1.95,2.54.54,6.46-.22,8.56-2.24,6.3-4.43,12.2-6.67,18a39.36,39.36,0,0,1,6.5,14.15,39.91,39.91,0,0,1-.86,21.16.75.75,0,0,1-1.06.44,171,171,0,0,0-19.67-8.58c-2.83-1-5.66-2-8.4-2.82a.72.72,0,0,1-.5-.51c-.4-1.44-.77-2.79-1.12-4.06-2.36-2.12-13.7-12.47-17.65-18.1A11.9,11.9,0,0,1,164.94,193.65Zm39.28-27.94a21.42,21.42,0,0,1-.62,2.93l0,.14c-.58,2.2-1.66,8.13-2.46,12.69,1.83-3.89,3.72-7.5,5.63-10.78,1-1.67,2.51-4.29,4.65-5Z"/></g><g id="man_1" data-name="man 1"><g id="shoes"><path d="M398.22,774.88,300.16,767q-.81-16.63-1.61-33.29l41.17-.31q1.32,4.68,2.65,9.37C345.79,742.07,362,739,378,749A49.06,49.06,0,0,1,398.22,774.88Z"/><path d="M261.79,790.41l-88.56-41.14q5.18-15.43,10.37-30.88L222.72,728q-.67,7-1.36,14c3.56.61,19.76,3.74,31,18.8A49,49,0,0,1,261.79,790.41Z"/></g><path id="swaeter" d="M374.73,274.62c-3.06,8.11-6.89,14.22-14.43,26.1C355.1,308.92,349,318,342,327.54q5.64,69.09,11.27,138.16l-148.35.39q4.41-21.57,8.3-44.36c4.18-24.58,7.54-48.38,10.22-71.27A125.57,125.57,0,0,1,195,345.85c-17.57-5-39.34-11.13-47-27.25-7.44-15.64,1.51-34.11,17.72-67.53a304.32,304.32,0,0,1,19.49-34.35c4.61,1.48,9.54,3.25,14.7,5.39,5.39,2.23,10.32,4.57,14.79,6.9,0,.09-.07.25-.13.44-4.27,13.48-19.69,43-27.93,64.12,10.54,2.13,19.48,3.52,26.22,4.44,24.27,3.31,39.85,3.24,43.62,3.21,2.63,0,4.82-.09,6.39-.15q-.17-4.29-.31-8.57l38.38,1.21c0,1.4-.06,2.83-.07,4.27,0,1.07,0,2.13,0,3.17l13.56-1.7a313.25,313.25,0,0,0,20.43-29.16c4.1-6.63,7.75-13.08,11-19.27-4.64-6.69-9.74-13.62-15.32-20.69-6.55-8.3-13.06-15.9-19.38-22.84L331.82,185c11.38,10.78,20.4,20.25,26.86,27.32,18.44,20.19,20.49,25.63,21.39,30.26C382.34,254.14,378.62,264.31,374.73,274.62Z"/><g id="head"><g id="face"><path d="M294.14,285.27a.75.75,0,0,1-.23-1.46,16.56,16.56,0,0,0,1.89-.76c5.6-2.7,8.22-8.12,9.45-12.2A35,35,0,0,0,302,244a32.48,32.48,0,0,0-4.69-6,31.27,31.27,0,0,0-9.29-6.58.75.75,0,0,1-.38-1,.76.76,0,0,1,1-.38,32.71,32.71,0,0,1,9.74,6.89,34.45,34.45,0,0,1,4.92,6.28,36.58,36.58,0,0,1,3.38,28c-1.87,6.26-5.41,10.8-10.23,13.12a16.25,16.25,0,0,1-2.07.83A.67.67,0,0,1,294.14,285.27Z"/><path d="M295.24,294.28a.75.75,0,0,1-.74-.66l-1.1-9s0-.07,0-.1a.75.75,0,0,1,1.5,0h0l1.1,8.92a.75.75,0,0,1-.66.83Z"/><path d="M269.93,293.48h0a.75.75,0,0,1-.71-.79l.76-13.88a.74.74,0,0,1,.79-.7.75.75,0,0,1,.71.79l-.76,13.87A.75.75,0,0,1,269.93,293.48Z"/></g><path id="hair" d="M297.85,237.52c-.33,2.89-1.32,5.84-3.67,7.69a10.22,10.22,0,0,1-5,1.84c-8.08,1.13-13.28-4.36-16.79-1.72a4.39,4.39,0,0,0-1.35,1.77c-1.4,2.94.73,5.56,1.94,10.64.88,3.68,1.29,8.65-.12,9.24-1.06.44-2-2.14-5.49-3a8.66,8.66,0,0,0-5.38.43,8.25,8.25,0,0,0-1.35.78l-.21.11a64.28,64.28,0,0,1-.73-8.74,40.79,40.79,0,0,1,.14-4.69,36.48,36.48,0,0,1,2.09-8.75c.56-1.38,4.44-11,13.54-13.68C283.08,227.22,291.94,230.45,297.85,237.52Z"/><path d="M294.36,283.61a19.26,19.26,0,0,1-5.18.5,20,20,0,0,1-10.63-3.71,25.29,25.29,0,0,0,5.75,4.91A25.62,25.62,0,0,0,295,289C294.77,287.2,294.56,285.4,294.36,283.61Z"/><path d="M266,280.43a9.18,9.18,0,0,1-6-2,9.56,9.56,0,0,1-1.79-11.81,9.14,9.14,0,0,1,6.61-4.31,9,9,0,0,1,6.35,1.86.75.75,0,0,1-.92,1.18,7.47,7.47,0,0,0-5.27-1.55,7.61,7.61,0,0,0-5.48,3.59,7.45,7.45,0,0,0,7.28,11.5,9,9,0,0,0,3.54-1,.75.75,0,1,1,.69,1.33,10.43,10.43,0,0,1-4.12,1.18C266.63,280.42,266.32,280.43,266,280.43Z"/></g><g id="legs"><path d="M279.3,518.4l-.17,0a.76.76,0,0,1-.56-.9l8.19-35.62a.74.74,0,0,1,.9-.56.75.75,0,0,1,.56.9L280,517.81A.76.76,0,0,1,279.3,518.4Z"/><path d="M342.23,537.79a.76.76,0,0,1-.75-.73q-1.07-35.65-2.14-71.3a.76.76,0,0,1,.73-.78.78.78,0,0,1,.77.73q1.08,35.66,2.14,71.3a.76.76,0,0,1-.73.78Z"/><path d="M294.21,734.52a.75.75,0,0,1-.75-.69L278.9,522.76,231.28,730.1a.7.7,0,0,1-.33.47.74.74,0,0,1-.58.09l-47-11.54-6.92-1.7a.74.74,0,0,1-.56-.85q21.27-122.42,42.48-244.82l1-5.83a.75.75,0,0,1,.87-.61.74.74,0,0,1,.61.86l-1,5.83q-21.17,122.07-42.36,244.13l6.24,1.54L230,729,278.57,517.5a.74.74,0,0,1,.79-.58.75.75,0,0,1,.69.69L294.91,733l52.45-.4-.05-1.72q-1.5-49.62-3-99.23a.75.75,0,1,1,1.5,0q1.49,49.62,3,99.23l.07,2.49a.75.75,0,0,1-.74.77l-53.92.41Z"/><path d="M195.73,722.12h-.14a.75.75,0,0,1-.6-.88l49.16-255.39a.75.75,0,0,1,1.47.28L196.46,721.51A.74.74,0,0,1,195.73,722.12Z"/><path d="M324,734.18a.75.75,0,0,1-.74-.63L284.92,490.1a.74.74,0,0,1,.62-.85.75.75,0,0,1,.86.62l38.33,243.45a.73.73,0,0,1-.62.85Z"/></g><g id="hand"><path d="M176,184.41a.77.77,0,0,1-.73-.57c-1.14-4.7-2.41-9.21-3.77-13.43l-.08-.26c-.81-2.47-1.56-4.81-.27-6.76a5.54,5.54,0,0,1,6.2-2c.74.29,1.81,1.05,3.53,4.49a37.87,37.87,0,0,1,1.6,3.7c1.5-5,2.85-8.87,3.49-10.33a4.92,4.92,0,0,1,2.6-2.86l.26-.08a5.41,5.41,0,0,1,3.76.24,5.74,5.74,0,0,1,3,3.79,6.64,6.64,0,0,1-.33,4.5.75.75,0,1,1-1.37-.61,5.15,5.15,0,0,0,.26-3.47,4.43,4.43,0,0,0-2.21-2.85,3.92,3.92,0,0,0-2.67-.18l-.22.07a3.44,3.44,0,0,0-1.74,2c-.58,1.32-2.15,5.73-4.11,12.46a.74.74,0,0,1-.72.54h0a.76.76,0,0,1-.72-.54,33.89,33.89,0,0,0-2.25-5.76c-1.08-2.17-2.05-3.5-2.72-3.76a4,4,0,0,0-4.42,1.41c-.89,1.34-.27,3.25.44,5.46l.09.26c1.37,4.25,2.65,8.8,3.8,13.53a.76.76,0,0,1-.55.91Z"/><path d="M189.13,186.14H189a.76.76,0,0,1-.61-.87c1-6,2.83-14.54,5.48-21,.54-1.32,2-4.85,4.69-5.27.12,0,3.06-.45,4.55,1.42a6.69,6.69,0,0,1,1.18,4.57.75.75,0,0,1-1.5-.07,5.29,5.29,0,0,0-.84-3.55c-.8-1-2.6-1-3.16-.89-1.86.29-3.08,3.25-3.53,4.36-2.6,6.31-4.37,14.72-5.39,20.67A.75.75,0,0,1,189.13,186.14Z"/><path d="M166,194.9a.74.74,0,0,1-.67-.41,6.29,6.29,0,0,1-.66-4.05,6.17,6.17,0,0,1,.48-1.45,5.13,5.13,0,0,1,2.59-2.62,4.88,4.88,0,0,1,3.31-.13.75.75,0,1,1-.45,1.43,3.33,3.33,0,0,0-2.28.08,3.66,3.66,0,0,0-1.82,1.9,4.47,4.47,0,0,0-.35,1.07,4.79,4.79,0,0,0,.51,3.08.74.74,0,0,1-.32,1A.72.72,0,0,1,166,194.9Z"/><path d="M182.47,187.21a.76.76,0,0,1-.73-.59c-.76-3.44-.05-14.09,0-14.54a.75.75,0,0,1,1.5.1c0,.11-.73,10.88,0,14.12a.76.76,0,0,1-.58.9Z"/><path d="M178.07,192.52q.19,7.62.37,15.25l5.84,5.43Z"/></g></g><g id="man_2" data-name="man 2"><g id="legs-2" data-name="legs"><path d="M714.91,715.3q-81.45,1.61-162.88,3.24c0-.39,0-.81,0-1.28q19.34-30.19,40.81-59.58l.69-.3,63.59,2.43c5.66,7.81,10.75,14.28,14.78,19.22a234.53,234.53,0,0,0,15.67,17.7c4.32,4.35,6.88,6.91,10.87,9.81A66.5,66.5,0,0,0,714.91,715.3Z"/><path d="M541.55,734.7a.7.7,0,0,1-.39-.11l-71.32-44.31a.77.77,0,0,1-.34-.53.76.76,0,0,1,.18-.61c2.5-2.83,7.57-8.68,14-16.09,9.81-11.33,23.23-26.83,36.58-42a.75.75,0,0,1,1.13,1C508,647.21,494.6,662.71,484.8,674c-6,6.87-10.75,12.41-13.41,15.44q35,21.74,69.93,43.45c3.5-5.68,6.82-10.95,10.11-16.07,13-20.27,26.72-40.32,40.84-59.61C598.5,648.7,605.14,639.88,612,631a.74.74,0,0,1,1-.13.75.75,0,0,1,.14,1c-6.86,8.86-13.49,17.67-19.71,26.19-14.11,19.27-27.83,39.3-40.79,59.54-3.31,5.17-6.66,10.48-10.23,16.27a2.39,2.39,0,0,0-.13.21l-.16.25A.77.77,0,0,1,541.55,734.7Z"/><path d="M727.35,718.14c-27.26,0-49.36-29.38-70.76-57.82-.18-.26-14-19.14-16.22-22.52l0,0a.73.73,0,0,1-.14-.16L638,634.83l-2.29-2.91a.75.75,0,0,1,1.19-.92c.75,1,1.52,1.93,2.28,2.9l2.28,2.91a.24.24,0,0,1,.06.09c.6.83,13.76,19.11,16.28,22.46,21.21,28.2,43.09,57.28,69.61,57.28.43,0,.87,0,1.31,0,11.21-.41,22.92-12.54,30.78-22.65a165.82,165.82,0,0,0,14.94-23c-7-7-13.64-13.62-20.15-20.35-3.92-4.05-7.87-8.18-11.74-12.26-4.82-5.09-9.41-10-13.87-14.77-3.82-4.08-7.54-8.06-11.23-12-17.14-18.14-32.53-33.56-51.92-49.8-4.2-3.51-9.17-7.57-14.22-11.06-13.16-9.11-24.14-12.37-34.56-10.26a33.64,33.64,0,0,0-12,5.07.75.75,0,0,1-1-.21.74.74,0,0,1,.21-1A35.25,35.25,0,0,1,616.41,539c10.83-2.2,22.18,1.14,35.7,10.5,5.1,3.52,10.11,7.61,14.33,11.14,19.45,16.29,34.87,31.74,52,49.93,3.69,3.91,7.42,7.89,11.23,12,4.46,4.76,9,9.67,13.87,14.76,3.86,4.08,7.81,8.2,11.73,12.25,6.61,6.84,13.31,13.6,20.47,20.67a.82.82,0,0,1,.22.77c-.13.46-24.43,46.3-47.28,47.13C728.27,718.14,727.81,718.14,727.35,718.14Z"/><path d="M501.83,653.87l-60.63-2.32-3-.11-2.86,45.95h.48a50.4,50.4,0,0,1,21.5,5.45,53.22,53.22,0,0,1,14,10.08l15.26-13.08-16.26-10.09C477.56,681.55,488.19,669.4,501.83,653.87Z"/></g><g id="head-2" data-name="head"><path d="M775.1,457.23a.58.58,0,0,1-.29-.06.74.74,0,0,1-.4-1l3.13-7.28c-5-5-6.49-14.56-4.24-28.48l0-.14a30.18,30.18,0,0,1,1.59-6,32.39,32.39,0,0,1,5.46-9.58.75.75,0,0,1,1.15,1,30.53,30.53,0,0,0-5.2,9.14,28.15,28.15,0,0,0-1.52,5.74l0,.14c-2.71,16.78.63,24.09,3.9,27.27l.25.25a.74.74,0,0,1,.19.85l-3.33,7.75A.75.75,0,0,1,775.1,457.23Z"/><path id="hair-2" data-name="hair" d="M823.66,424c-.17.91-.43,2.1-.43,2.1-.19.87-.43,1.87-.67,2.85h0c-.12.48-.26,1-.42,1.53a25.83,25.83,0,0,1-1.92,4.56,8.42,8.42,0,0,0-5.18-1.77,6.56,6.56,0,0,0-1.18.09,23.77,23.77,0,0,1-.14-5.63c.34-3.76,1.4-5.67.15-7.67-1.86-3-5.69-1.05-9.35-4.14-3.94-3.31-2.25-7.85-5.36-9.18-3.28-1.42-6.22,3.2-11.33,2.59-3.43-.39-5.93-2.92-7.38-4.75a25.83,25.83,0,0,1,9.87-7.78,23.36,23.36,0,0,1,31.38,11.75,20.27,20.27,0,0,1,1.35,4.63C823.2,414.14,824.18,421.16,823.66,424Z"/><path d="M778.48,447.63a19.11,19.11,0,0,0,5.57,3.88,20.2,20.2,0,0,0,12.38,1.32,18.47,18.47,0,0,1-6,2.07A20.16,20.16,0,0,1,776.81,452Z"/><path d="M814.75,451.16a8.8,8.8,0,0,1-5-1.45,7.3,7.3,0,0,1-2-2.09.74.74,0,0,1,.23-1,.76.76,0,0,1,1,.22,5.82,5.82,0,0,0,1.56,1.67,8.07,8.07,0,0,0,10-1.35c3.16-3.47,1.89-8.92-.33-11a6.4,6.4,0,0,0-.49-.42,7.69,7.69,0,0,0-6.12-1.57.76.76,0,0,1-.86-.62.74.74,0,0,1,.61-.86,9.18,9.18,0,0,1,7.29,1.87c.2.15.39.32.59.5,2.72,2.55,4.24,8.93.42,13.12A9.46,9.46,0,0,1,814.75,451.16Z"/></g><g id="tshirt"><path d="M877,699.15q-4.12,0-8.23-.41A82.07,82.07,0,0,1,858.32,697a.74.74,0,0,1-.56-.54c-1.09-4.19-2.63-10.12-4.48-17.19l-3-11.67c-2.86-11-6.13-23.44-9.42-36l-1.06-4c-1.54-5.89-3.08-11.75-4.57-17.43-2.14-8.18-4.19-16-6-22.94l-3.36-12.81L823.3,565l-.29-1.09q-2.88,6.76-5.81,13.57c-5.43,12.64-10.77,25-15.88,36.62q-2.3,5.26-4.61,10.5c-1.05,2.37-2.09,4.73-3.14,7.09a.19.19,0,0,1,0,.07c-5.52,12.46-11.28,25.32-17.61,39.33l-.13.3a.75.75,0,1,1-1.35-.67,2,2,0,0,0,.1-.21c6.33-14,12.08-26.86,17.59-39.3l0-.07c1.05-2.37,2.1-4.76,3.16-7.14,1.54-3.5,3.08-7,4.61-10.5,5.11-11.66,10.45-24,15.87-36.61q3.36-7.82,6.67-15.58a.75.75,0,0,1,1.41.1l.85,3.21,2.51,9.49,3.36,12.82c1.83,7,3.88,14.76,6,22.94l4.58,17.43,1,4c3.29,12.51,6.56,25,9.42,36l3,11.67c1.79,6.82,3.29,12.59,4.37,16.75a80.06,80.06,0,0,0,9.82,1.59,81.94,81.94,0,0,0,41.55-6.77l-.09-.27c-.69-2-1.43-4.2-2.2-6.5-2.38-7-4.95-14.74-7.65-22.9-2.32-7-4.82-14.62-7.48-22.8l-2.79-8.63c-1.2-3.75-2.44-7.6-3.69-11.55-3.06-9.57-5.92-18.25-8.76-26.54l-1.23-3.57-1.75-5.08c-2-5.62-4-11.43-6.17-17.65-4.06-11.47-8.13-22.28-12.46-33-.94-2.35-1.93-4.78-3-7.27-3.74-8.85-9-20.45-16.76-31.69a97.73,97.73,0,0,0-11.76-14.08c-.53-.53-1.07-1-1.07-1a83.14,83.14,0,0,0-10.2-8.32c-11.39,8.59-24.49,13.11-35.13,12.12a22.75,22.75,0,0,1-5.24-1.05,40.75,40.75,0,0,1-12.76-7.23,36.35,36.35,0,0,1-9.24-12.61,87.29,87.29,0,0,0-13.55,6.06c-1.52.85-3.87,2.21-6.81,4.24A110.47,110.47,0,0,0,715.6,484c-1,1-1.9,1.93-2.82,2.93A225.9,225.9,0,0,0,687.46,520c-2.38,3.72-4.71,7.55-6.92,11.39a.75.75,0,0,1-1,.28l-32.72-18.08-.11-.07-12.42-6.85-25.72-14.22-6.67-3.69L596,485.51l-16.13,46.24,7.25,3.66q8.75,4.41,17.48,8.83a.75.75,0,1,1-.68,1.34q-8.73-4.43-17.48-8.83l-7.83-4a.75.75,0,0,1-.37-.91l16.64-47.7a.74.74,0,0,1,.44-.46.73.73,0,0,1,.63,0q3.34,1.83,6.67,3.68l6.66,3.68L635,505.35q6.25,3.47,12.52,6.91l.11.07,32,17.67c2.11-3.64,4.33-7.27,6.58-10.81a228.91,228.91,0,0,1,25.49-33.34c.94-1,1.9-2,2.86-3a111,111,0,0,1,15.31-13,79.9,79.9,0,0,1,6.93-4.32,90.29,90.29,0,0,1,14.45-6.4.76.76,0,0,1,.94.42,34.71,34.71,0,0,0,9.12,12.72,40.44,40.44,0,0,0,12.24,6.93,21.48,21.48,0,0,0,4.91,1c10.41,1,23.31-3.56,34.51-12.14a.75.75,0,0,1,.88,0,84.22,84.22,0,0,1,10.83,8.77h0s.55.52,1.1,1.07a99.92,99.92,0,0,1,11.94,14.29c7.8,11.35,13.13,23,16.91,32q1.56,3.75,3,7.29c4.33,10.78,8.41,21.61,12.48,33.09,2.21,6.23,4.22,12,6.16,17.68l1.76,5.07c.4,1.18.81,2.36,1.23,3.57,2.84,8.3,5.71,17,8.77,26.58,1.25,3.94,2.49,7.79,3.69,11.54l2.78,8.63c2.67,8.17,5.16,15.8,7.48,22.79,2.7,8.15,5.27,15.85,7.65,22.89.77,2.3,1.51,4.47,2.2,6.5l.31.91a.75.75,0,0,1-.4.92,83.44,83.44,0,0,1-34.7,7.59Z"/><path d="M694.69,588a.65.65,0,0,1-.27,0,.75.75,0,0,1-.43-1l24-62.9a.74.74,0,0,1,1-.43.75.75,0,0,1,.43,1l-24,62.9A.74.74,0,0,1,694.69,588Z"/><g id="pattern"><circle cx="747.97" cy="476.49" r="1.37"/><circle cx="722.4" cy="488.62" r="1.37"/><circle cx="762.24" cy="505.3" r="1.37"/><circle cx="741.15" cy="513.75" r="1.37"/><circle cx="761.51" cy="539.1" r="1.37"/><circle cx="769.01" cy="565.3" r="1.37"/><circle cx="732.55" cy="561.57" r="1.37"/><circle cx="727.78" cy="531.7" r="1.37"/><circle cx="681.68" cy="541.71" r="1.37"/><circle cx="689.78" cy="569.16" r="1.37"/><circle cx="663.62" cy="550.83" r="1.37"/><circle cx="641.23" cy="524.97" r="1.37"/><circle cx="612.59" cy="538.35" r="1.37"/><circle cx="614.62" cy="505.27" r="1.37"/><circle cx="700.33" cy="530.95" r="1.37"/><circle cx="706.7" cy="506.54" r="1.37"/><circle cx="598.48" cy="517.32" r="1.37"/><circle cx="723.77" cy="593.48" r="1.37"/><circle cx="709.05" cy="579.12" r="1.37"/><circle cx="782.54" cy="532.49" r="1.37"/><circle cx="808.44" cy="539.1" r="1.37"/><circle cx="791.49" cy="557.09" r="1.37"/><circle cx="767.64" cy="593.48" r="1.37"/><circle cx="738.71" cy="613.49" r="1.37"/><circle cx="745.17" cy="579.12" r="1.37"/><circle cx="756.35" cy="633.06" r="1.37"/><circle cx="780.9" cy="636.21" r="1.37"/><circle cx="786.62" cy="605.75" r="1.37"/><circle cx="807.93" cy="579.12" r="1.37"/><circle cx="769.01" cy="617.8" r="1.37"/><circle cx="770.6" cy="652.15" r="1.37"/><circle cx="829.14" cy="557.09" r="1.37"/><circle cx="856.5" cy="571.29" r="1.37"/><circle cx="841.55" cy="596.53" r="1.37"/><circle cx="864.97" cy="598.92" r="1.37"/><circle cx="855.13" cy="616.43" r="1.37"/><circle cx="858.49" cy="641.63" r="1.37"/><circle cx="874.03" cy="663.76" r="1.37"/><circle cx="893.08" cy="680.56" r="1.37"/><circle cx="858.49" cy="687.96" r="1.37"/><circle cx="881.8" cy="652.15" r="1.37"/><circle cx="874.03" cy="626.96" r="1.37"/><circle cx="829.14" cy="528.99" r="1.37"/><circle cx="850.09" cy="541.45" r="1.37"/><circle cx="783.66" cy="489.99" r="1.37"/><circle cx="791.49" cy="509.22" r="1.37"/><circle cx="809.8" cy="493.77" r="1.37"/><circle cx="824.74" cy="507.49" r="1.37"/><circle cx="829.14" cy="488.62" r="1.37"/></g></g><g id="hands"><path d="M922.45,721.2a.75.75,0,0,1,0-1.5c10-.11,22.36-2,24.08-7a3.67,3.67,0,0,0,0-2.74c-.95-1.84-4.59-1.87-9.63-1.91l-1.69,0c-5-.06-10.14-.3-15.28-.71a.74.74,0,0,1-.68-.81.77.77,0,0,1,.8-.69c5.1.41,10.21.65,15.18.71l1.68,0c5.56.05,9.58.08,10.95,2.72a4.89,4.89,0,0,1,.05,3.92c-2.49,7.21-20.14,8-25.49,8Z"/><path d="M914.22,723.83c-6.26,0-14.92-1.51-23.38-3.22-22-4.46-26-9.35-27.36-11a27,27,0,0,1-5.74-13.25.75.75,0,1,1,1.49-.23,25.52,25.52,0,0,0,5.4,12.52c3.34,4,12.26,7.55,26.5,10.44,19,3.85,29.31,4.22,30.6,1.08a.3.3,0,0,0,0-.1c.89-1.81-.39-4.13-.4-4.16-1.43-2.62-5.18-3.19-8.19-3.64l-.71-.11a74.92,74.92,0,0,1-19.27-6,.75.75,0,0,1-.38-1,.76.76,0,0,1,1-.38,73.35,73.35,0,0,0,18.88,5.86l.7.11c3.17.47,7.5,1.13,9.28,4.4.07.11,1.68,3,.44,5.55C922.2,723,918.88,723.83,914.22,723.83Z"/><path d="M947.53,712.29a.75.75,0,0,1-.72-.57.74.74,0,0,1,.53-.91c3.47-.9,6-3.49,6-6.15a5.31,5.31,0,0,0-1.49-3.46c-2.38-2.36-6.57-1.79-9.63-1.37l-.5.07a98.59,98.59,0,0,1-21.3.36.73.73,0,0,1-.68-.8.75.75,0,0,1,.8-.69,96.89,96.89,0,0,0,21-.36l.5-.07c3.18-.43,8-1.09,10.89,1.8a6.84,6.84,0,0,1,1.93,4.51c0,3.39-2.89,6.52-7.08,7.61A.63.63,0,0,1,947.53,712.29Z"/><path d="M952.61,701.7a.77.77,0,0,1-.5-.18.76.76,0,0,1-.07-1.06,4.6,4.6,0,0,0-.6-6.72,5.47,5.47,0,0,0-2.91-1.19,11.24,11.24,0,0,0-4.29.25c-2.93.83-10.56,1.69-23.34,2.64a.76.76,0,0,1-.81-.69.75.75,0,0,1,.7-.8c12.5-.94,20.25-1.81,23-2.59a12.6,12.6,0,0,1,4.9-.3,7.11,7.11,0,0,1,3.67,1.52,6.11,6.11,0,0,1,.77,8.87A.73.73,0,0,1,952.61,701.7Z"/><path d="M940.56,693.42a.75.75,0,0,1-.68-.44,6.37,6.37,0,0,0-2.55-3,7.59,7.59,0,0,0-5.39-.44c-4.24.88-10.72,1.54-20.5,2.09a.75.75,0,1,1-.08-1.5c9.7-.54,16.11-1.19,20.18-2,1.27-.27,4-.85,6.54.59a7.88,7.88,0,0,1,3.17,3.68.75.75,0,0,1-.38,1A.67.67,0,0,1,940.56,693.42Z"/><path d="M580.49,499.31a.76.76,0,0,1-.7-.49,26.85,26.85,0,0,1-.53-17.56c-1-1.79-6.29-10.9-7.3-17.8a.75.75,0,1,1,1.49-.22c1,7.22,7.21,17.43,7.27,17.53a.74.74,0,0,1,.07.63,25.38,25.38,0,0,0,.4,16.89.75.75,0,0,1-.43,1A.86.86,0,0,1,580.49,499.31Z"/><path d="M555.39,499.69a.76.76,0,0,1-.74-.6,25.83,25.83,0,0,1,3.61-19.56,24.85,24.85,0,0,1,10.57-8.77.75.75,0,1,1,.61,1.37,23.4,23.4,0,0,0-9.94,8.24,24.35,24.35,0,0,0-3.38,18.41.74.74,0,0,1-.58.89Z"/><path d="M554.89,495.89a.78.78,0,0,1-.33-.07l-21-10.31a.76.76,0,0,1-.34-1,.74.74,0,0,1,1-.34l21,10.31a.75.75,0,0,1-.33,1.42Z"/><path d="M556.33,484a.69.69,0,0,1-.37-.1L535.25,472.1a.75.75,0,0,1,.74-1.31l20.71,11.78a.75.75,0,0,1-.37,1.4Z"/><path d="M564.91,474.59a.8.8,0,0,1-.46-.16l-10.06-7.74a.75.75,0,1,1,.91-1.19l10.07,7.74a.75.75,0,0,1,.14,1.05A.77.77,0,0,1,564.91,474.59Z"/><path d="M595.21,483.54l-19.49,37.69,6.14,2.56Z"/></g><g id="shoes-2" data-name="shoes"><path d="M494.64,760.27a.8.8,0,0,1-.36-.09l-46-25.51-46-25.52A.75.75,0,0,1,402,708a23.81,23.81,0,0,1,9.86-6.88.74.74,0,0,1,1,.44.75.75,0,0,1-.44,1,22.35,22.35,0,0,0-8.63,5.77L449,733.35l45.46,25.2,26.65-36.24q-17.67-10.69-35.32-21.42a.74.74,0,0,1-.25-1,.75.75,0,0,1,1-.25q18,10.93,36,21.84a.75.75,0,0,1,.35.5.74.74,0,0,1-.13.59L495.25,760A.74.74,0,0,1,494.64,760.27Z"/><path d="M441.2,651.55l-3-.11-2.86,45.95a51.61,51.61,0,0,0-25.21,6.18q-.44-48.49-.86-97a52.44,52.44,0,0,1,26,23.51A50.73,50.73,0,0,1,441.2,651.55Z"/><path d="M502.38,749.77a.8.8,0,0,1-.36-.09l-88.55-47.22a.75.75,0,0,1,.7-1.33l88.56,47.23a.75.75,0,0,1,.31,1A.77.77,0,0,1,502.38,749.77Z"/><path d="M521.73,722.68c-2.32,3.15-4.63,6.32-7,9.47l-30.54-30.31,2.11-1.7Z"/></g></g></g></g></svg>