<?xml version="1.0" encoding="UTF-8"?><svg xmlns="http://www.w3.org/2000/svg" xmlns:xlink="http://www.w3.org/1999/xlink" width="1080pt" zoomAndPan="magnify" viewBox="0 0 1080 585.000005" height="585.000005pt" preserveAspectRatio="xMidYMid meet" version="1.2"><defs><g/><clipPath xml:id="clip1" id="clip1"><path d="M 475 100.792969 L 601.605469 100.792969 L 601.605469 484.105469 L 475 484.105469 Z M 475 100.792969 "/></clipPath></defs><g xml:id="surface1" id="surface1"><path style=" stroke:none;fill-rule:nonzero;fill:rgb(100%,40.779114%,14.898682%);fill-opacity:1;" d="M 385.425781 150.226562 C 345.019531 201.1875 330.402344 288.746094 385.425781 345.777344 C 440.449219 402.8125 531.773438 380.410156 596.238281 390.585938 C 660.707031 400.761719 740.203125 400.761719 756.464844 311.148438 C 772.808594 221.539062 734.046875 199.136719 623.917969 135.949219 C 513.785156 72.761719 462.953125 52.410156 385.425781 150.226562 Z M 385.425781 150.226562 "/><path style=" stroke:none;fill-rule:nonzero;fill:rgb(100%,96.469116%,73.329163%);fill-opacity:1;" d="M 424.710938 106.058594 C 424.738281 104.328125 424.496094 99.246094 424.496094 99.246094 C 424.496094 99.246094 420.226562 99.359375 416.304688 99.359375 C 415.953125 99.359375 413.160156 99.359375 412.5 99.359375 C 407.664062 99.359375 398.074219 99.332031 395.328125 99.273438 C 391.859375 99.132812 386.628906 98.910156 386.613281 99.234375 C 386.597656 99.558594 386.738281 103.792969 386.738281 103.792969 C 386.738281 103.792969 386.738281 128.101562 386.738281 130.226562 C 386.570312 132.941406 386.5 137.078125 386.5 137.078125 C 388.769531 137.414062 391.503906 137.5 393.804688 137.472656 C 396.398438 137.472656 415.542969 137.472656 415.542969 137.472656 L 424.273438 137.316406 C 424.273438 137.316406 424.710938 129.535156 424.710938 128.144531 C 424.710938 126.214844 424.679688 107.816406 424.710938 106.058594 Z M 424.710938 106.058594 "/><path style=" stroke:none;fill-rule:nonzero;fill:rgb(98.81897%,68.629456%,1.179504%);fill-opacity:1;" d="M 391.859375 96.265625 C 391.859375 96.265625 402.546875 97.320312 403.871094 97.347656 L 408.847656 97.445312 L 408.832031 98.472656 C 408.832031 98.472656 409.128906 100.0625 409.117188 100.726562 L 409.085938 102.414062 C 409.085938 102.414062 402.375 101.851562 400.710938 101.78125 C 397.230469 101.609375 391.675781 100.851562 391.675781 100.851562 L 391.546875 99.164062 L 392.082031 97.769531 Z M 391.859375 96.265625 "/><g style="fill:rgb(0%,0%,0%);fill-opacity:1;"><g transform="translate(396.804209, 117.853334)"><path style="stroke:none;" d="M 2.828125 -0.6875 C 2.816406 -0.5625 2.703125 -0.414062 2.484375 -0.25 C 2.273438 -0.09375 2.015625 -0.015625 1.703125 -0.015625 C 1.203125 -0.0234375 0.820312 -0.179688 0.5625 -0.484375 C 0.3125 -0.785156 0.1875 -1.191406 0.1875 -1.703125 C 0.1875 -2.171875 0.328125 -2.570312 0.609375 -2.90625 C 0.890625 -3.238281 1.253906 -3.40625 1.703125 -3.40625 C 2.023438 -3.40625 2.363281 -3.269531 2.71875 -3 C 2.75 -2.957031 2.789062 -2.90625 2.84375 -2.84375 C 2.75 -2.632812 2.65625 -2.53125 2.5625 -2.53125 C 2.5 -2.53125 2.441406 -2.546875 2.390625 -2.578125 C 2.148438 -2.734375 1.921875 -2.8125 1.703125 -2.8125 C 1.398438 -2.8125 1.164062 -2.710938 1 -2.515625 C 0.832031 -2.328125 0.75 -2.054688 0.75 -1.703125 C 0.75 -1.296875 0.832031 -1.003906 1 -0.828125 C 1.175781 -0.648438 1.410156 -0.5625 1.703125 -0.5625 C 1.953125 -0.5625 2.117188 -0.601562 2.203125 -0.6875 C 2.296875 -0.78125 2.367188 -0.859375 2.421875 -0.921875 C 2.691406 -0.910156 2.828125 -0.832031 2.828125 -0.6875 Z M 2.828125 -0.6875 "/></g><g transform="translate(399.802738, 117.853334)"><path style="stroke:none;" d="M 1.515625 -2.109375 C 1.484375 -2.140625 1.414062 -2.15625 1.3125 -2.15625 C 1.207031 -2.15625 1.101562 -2.097656 1 -1.984375 C 0.894531 -1.867188 0.84375 -1.726562 0.84375 -1.5625 L 0.84375 -0.109375 C 0.695312 -0.0234375 0.585938 0.015625 0.515625 0.015625 C 0.429688 0.015625 0.367188 -0.0390625 0.328125 -0.15625 L 0.328125 -2.5625 C 0.410156 -2.625 0.472656 -2.65625 0.515625 -2.65625 C 0.597656 -2.65625 0.695312 -2.609375 0.8125 -2.515625 L 0.8125 -2.234375 C 1.03125 -2.503906 1.226562 -2.640625 1.40625 -2.640625 C 1.582031 -2.640625 1.75 -2.578125 1.90625 -2.453125 C 1.863281 -2.191406 1.800781 -2.0625 1.71875 -2.0625 C 1.613281 -2.0625 1.546875 -2.078125 1.515625 -2.109375 Z M 1.515625 -2.109375 "/></g><g transform="translate(401.752105, 117.853334)"><path style="stroke:none;" d="M 0.640625 -1.625 L 1.671875 -1.6875 C 1.660156 -1.8125 1.628906 -1.929688 1.578125 -2.046875 C 1.523438 -2.171875 1.394531 -2.234375 1.1875 -2.234375 C 0.988281 -2.234375 0.847656 -2.171875 0.765625 -2.046875 C 0.679688 -1.929688 0.640625 -1.789062 0.640625 -1.625 Z M 0.640625 -1.1875 C 0.640625 -0.96875 0.675781 -0.789062 0.75 -0.65625 C 0.832031 -0.53125 0.976562 -0.46875 1.1875 -0.46875 C 1.351562 -0.46875 1.484375 -0.492188 1.578125 -0.546875 C 1.671875 -0.597656 1.722656 -0.671875 1.734375 -0.765625 C 2.023438 -0.765625 2.171875 -0.710938 2.171875 -0.609375 C 2.171875 -0.523438 2.128906 -0.4375 2.046875 -0.34375 C 1.972656 -0.25 1.875 -0.171875 1.75 -0.109375 C 1.632812 -0.0546875 1.445312 -0.03125 1.1875 -0.03125 C 0.84375 -0.03125 0.578125 -0.140625 0.390625 -0.359375 C 0.210938 -0.578125 0.125 -0.910156 0.125 -1.359375 C 0.125 -1.816406 0.222656 -2.144531 0.421875 -2.34375 C 0.617188 -2.550781 0.875 -2.65625 1.1875 -2.65625 C 1.625 -2.65625 1.894531 -2.519531 2 -2.25 C 2.101562 -1.988281 2.15625 -1.78125 2.15625 -1.625 C 2.15625 -1.46875 2.09375 -1.351562 1.96875 -1.28125 Z M 0.640625 -1.1875 "/></g><g transform="translate(404.086813, 117.853334)"><path style="stroke:none;" d="M 2.125 -2.640625 L 2.125 -0.140625 C 2.019531 -0.0664062 1.9375 -0.03125 1.875 -0.03125 C 1.789062 -0.03125 1.722656 -0.0703125 1.671875 -0.15625 L 1.671875 -0.375 C 1.460938 -0.144531 1.253906 -0.03125 1.046875 -0.03125 C 0.691406 -0.03125 0.445312 -0.171875 0.3125 -0.453125 C 0.1875 -0.742188 0.125 -1.046875 0.125 -1.359375 C 0.125 -1.691406 0.210938 -1.988281 0.390625 -2.25 C 0.578125 -2.507812 0.78125 -2.644531 1 -2.65625 Z M 0.625 -1.359375 C 0.625 -1.140625 0.660156 -0.9375 0.734375 -0.75 C 0.804688 -0.5625 0.929688 -0.46875 1.109375 -0.46875 C 1.265625 -0.507812 1.398438 -0.582031 1.515625 -0.6875 C 1.628906 -0.789062 1.6875 -0.957031 1.6875 -1.1875 L 1.6875 -2.1875 L 1.15625 -2.1875 C 0.957031 -2.175781 0.816406 -2.082031 0.734375 -1.90625 C 0.660156 -1.738281 0.625 -1.554688 0.625 -1.359375 Z M 0.625 -1.359375 "/></g><g transform="translate(406.512189, 117.853334)"><path style="stroke:none;" d="M 0.515625 -2.140625 L 0.21875 -2.140625 C 0.132812 -2.273438 0.09375 -2.382812 0.09375 -2.46875 C 0.09375 -2.539062 0.144531 -2.59375 0.25 -2.625 L 0.515625 -2.625 L 0.515625 -3.09375 C 0.660156 -3.125 0.769531 -3.140625 0.84375 -3.140625 C 0.914062 -3.140625 0.984375 -3.109375 1.046875 -3.046875 L 1.046875 -2.625 L 1.453125 -2.625 C 1.503906 -2.5 1.53125 -2.410156 1.53125 -2.359375 C 1.53125 -2.265625 1.488281 -2.191406 1.40625 -2.140625 L 1.046875 -2.140625 L 1.046875 -0.734375 C 1.046875 -0.566406 1.113281 -0.484375 1.25 -0.484375 L 1.453125 -0.484375 C 1.515625 -0.347656 1.546875 -0.238281 1.546875 -0.15625 C 1.546875 -0.0820312 1.503906 -0.0234375 1.421875 0.015625 L 1.21875 0.015625 C 0.945312 0.015625 0.757812 -0.0664062 0.65625 -0.234375 C 0.5625 -0.410156 0.515625 -0.578125 0.515625 -0.734375 Z M 0.515625 -2.140625 "/></g><g transform="translate(408.163646, 117.853334)"><path style="stroke:none;" d="M 0.3125 -3.109375 C 0.3125 -3.191406 0.34375 -3.242188 0.40625 -3.265625 C 0.476562 -3.296875 0.539062 -3.3125 0.59375 -3.3125 C 0.65625 -3.3125 0.703125 -3.300781 0.734375 -3.28125 C 0.773438 -3.257812 0.796875 -3.203125 0.796875 -3.109375 C 0.796875 -3.046875 0.769531 -2.992188 0.71875 -2.953125 C 0.675781 -2.910156 0.601562 -2.890625 0.5 -2.890625 C 0.425781 -2.890625 0.375 -2.910156 0.34375 -2.953125 C 0.320312 -2.992188 0.3125 -3.046875 0.3125 -3.109375 Z M 0.3125 -2.53125 C 0.4375 -2.582031 0.546875 -2.609375 0.640625 -2.609375 C 0.722656 -2.609375 0.789062 -2.570312 0.84375 -2.5 L 0.84375 -0.109375 C 0.726562 -0.0234375 0.625 0.015625 0.53125 0.015625 C 0.4375 0.015625 0.363281 -0.0390625 0.3125 -0.15625 Z M 0.3125 -2.53125 "/></g><g transform="translate(409.300238, 117.853334)"><path style="stroke:none;" d="M 0.9375 -0.140625 L 0.09375 -2.546875 C 0.25 -2.617188 0.367188 -2.65625 0.453125 -2.65625 C 0.546875 -2.65625 0.613281 -2.609375 0.65625 -2.515625 L 1.265625 -0.78125 L 1.875 -2.546875 C 2.03125 -2.617188 2.140625 -2.65625 2.203125 -2.65625 C 2.296875 -2.65625 2.359375 -2.597656 2.390625 -2.484375 L 1.5625 -0.09375 C 1.34375 -0.0507812 1.195312 -0.03125 1.125 -0.03125 C 1.050781 -0.03125 0.988281 -0.0664062 0.9375 -0.140625 Z M 0.9375 -0.140625 "/></g><g transform="translate(411.845425, 117.853334)"><path style="stroke:none;" d="M 0.640625 -1.625 L 1.671875 -1.6875 C 1.660156 -1.8125 1.628906 -1.929688 1.578125 -2.046875 C 1.523438 -2.171875 1.394531 -2.234375 1.1875 -2.234375 C 0.988281 -2.234375 0.847656 -2.171875 0.765625 -2.046875 C 0.679688 -1.929688 0.640625 -1.789062 0.640625 -1.625 Z M 0.640625 -1.1875 C 0.640625 -0.96875 0.675781 -0.789062 0.75 -0.65625 C 0.832031 -0.53125 0.976562 -0.46875 1.1875 -0.46875 C 1.351562 -0.46875 1.484375 -0.492188 1.578125 -0.546875 C 1.671875 -0.597656 1.722656 -0.671875 1.734375 -0.765625 C 2.023438 -0.765625 2.171875 -0.710938 2.171875 -0.609375 C 2.171875 -0.523438 2.128906 -0.4375 2.046875 -0.34375 C 1.972656 -0.25 1.875 -0.171875 1.75 -0.109375 C 1.632812 -0.0546875 1.445312 -0.03125 1.1875 -0.03125 C 0.84375 -0.03125 0.578125 -0.140625 0.390625 -0.359375 C 0.210938 -0.578125 0.125 -0.910156 0.125 -1.359375 C 0.125 -1.816406 0.222656 -2.144531 0.421875 -2.34375 C 0.617188 -2.550781 0.875 -2.65625 1.1875 -2.65625 C 1.625 -2.65625 1.894531 -2.519531 2 -2.25 C 2.101562 -1.988281 2.15625 -1.78125 2.15625 -1.625 C 2.15625 -1.46875 2.09375 -1.351562 1.96875 -1.28125 Z M 0.640625 -1.1875 "/></g></g><g style="fill:rgb(0%,0%,0%);fill-opacity:1;"><g transform="translate(394.942349, 123.14719)"><path style="stroke:none;" d="M 2.4375 -1.703125 C 2.4375 -2.171875 2.320312 -2.484375 2.09375 -2.640625 C 1.875 -2.796875 1.664062 -2.878906 1.46875 -2.890625 L 0.9375 -2.890625 L 0.9375 -0.515625 L 1.46875 -0.515625 C 1.78125 -0.515625 2.019531 -0.632812 2.1875 -0.875 C 2.351562 -1.113281 2.4375 -1.390625 2.4375 -1.703125 Z M 3 -1.703125 C 3 -1.210938 2.867188 -0.8125 2.609375 -0.5 C 2.359375 -0.1875 1.976562 -0.03125 1.46875 -0.03125 L 0.390625 -0.03125 L 0.390625 -3.375 L 1.46875 -3.375 C 1.9375 -3.375 2.304688 -3.222656 2.578125 -2.921875 C 2.859375 -2.628906 3 -2.222656 3 -1.703125 Z M 3 -1.703125 "/></g><g transform="translate(398.206407, 123.14719)"><path style="stroke:none;" d="M 0.640625 -1.625 L 1.671875 -1.6875 C 1.660156 -1.8125 1.628906 -1.929688 1.578125 -2.046875 C 1.523438 -2.171875 1.394531 -2.234375 1.1875 -2.234375 C 0.988281 -2.234375 0.847656 -2.171875 0.765625 -2.046875 C 0.679688 -1.929688 0.640625 -1.789062 0.640625 -1.625 Z M 0.640625 -1.1875 C 0.640625 -0.96875 0.675781 -0.789062 0.75 -0.65625 C 0.832031 -0.53125 0.976562 -0.46875 1.1875 -0.46875 C 1.351562 -0.46875 1.484375 -0.492188 1.578125 -0.546875 C 1.671875 -0.597656 1.722656 -0.671875 1.734375 -0.765625 C 2.023438 -0.765625 2.171875 -0.710938 2.171875 -0.609375 C 2.171875 -0.523438 2.128906 -0.4375 2.046875 -0.34375 C 1.972656 -0.25 1.875 -0.171875 1.75 -0.109375 C 1.632812 -0.0546875 1.445312 -0.03125 1.1875 -0.03125 C 0.84375 -0.03125 0.578125 -0.140625 0.390625 -0.359375 C 0.210938 -0.578125 0.125 -0.910156 0.125 -1.359375 C 0.125 -1.816406 0.222656 -2.144531 0.421875 -2.34375 C 0.617188 -2.550781 0.875 -2.65625 1.1875 -2.65625 C 1.625 -2.65625 1.894531 -2.519531 2 -2.25 C 2.101562 -1.988281 2.15625 -1.78125 2.15625 -1.625 C 2.15625 -1.46875 2.09375 -1.351562 1.96875 -1.28125 Z M 0.640625 -1.1875 "/></g></g><g style="fill:rgb(0%,0%,0%);fill-opacity:1;"><g transform="translate(400.541114, 123.14719)"><path style="stroke:none;" d="M 0.9375 -0.140625 L 0.09375 -2.546875 C 0.25 -2.617188 0.367188 -2.65625 0.453125 -2.65625 C 0.546875 -2.65625 0.613281 -2.609375 0.65625 -2.515625 L 1.265625 -0.78125 L 1.875 -2.546875 C 2.03125 -2.617188 2.140625 -2.65625 2.203125 -2.65625 C 2.296875 -2.65625 2.359375 -2.597656 2.390625 -2.484375 L 1.5625 -0.09375 C 1.34375 -0.0507812 1.195312 -0.03125 1.125 -0.03125 C 1.050781 -0.03125 0.988281 -0.0664062 0.9375 -0.140625 Z M 0.9375 -0.140625 "/></g></g><g style="fill:rgb(0%,0%,0%);fill-opacity:1;"><g transform="translate(403.086302, 123.14719)"><path style="stroke:none;" d="M 0.640625 -1.625 L 1.671875 -1.6875 C 1.660156 -1.8125 1.628906 -1.929688 1.578125 -2.046875 C 1.523438 -2.171875 1.394531 -2.234375 1.1875 -2.234375 C 0.988281 -2.234375 0.847656 -2.171875 0.765625 -2.046875 C 0.679688 -1.929688 0.640625 -1.789062 0.640625 -1.625 Z M 0.640625 -1.1875 C 0.640625 -0.96875 0.675781 -0.789062 0.75 -0.65625 C 0.832031 -0.53125 0.976562 -0.46875 1.1875 -0.46875 C 1.351562 -0.46875 1.484375 -0.492188 1.578125 -0.546875 C 1.671875 -0.597656 1.722656 -0.671875 1.734375 -0.765625 C 2.023438 -0.765625 2.171875 -0.710938 2.171875 -0.609375 C 2.171875 -0.523438 2.128906 -0.4375 2.046875 -0.34375 C 1.972656 -0.25 1.875 -0.171875 1.75 -0.109375 C 1.632812 -0.0546875 1.445312 -0.03125 1.1875 -0.03125 C 0.84375 -0.03125 0.578125 -0.140625 0.390625 -0.359375 C 0.210938 -0.578125 0.125 -0.910156 0.125 -1.359375 C 0.125 -1.816406 0.222656 -2.144531 0.421875 -2.34375 C 0.617188 -2.550781 0.875 -2.65625 1.1875 -2.65625 C 1.625 -2.65625 1.894531 -2.519531 2 -2.25 C 2.101562 -1.988281 2.15625 -1.78125 2.15625 -1.625 C 2.15625 -1.46875 2.09375 -1.351562 1.96875 -1.28125 Z M 0.640625 -1.1875 "/></g></g><g style="fill:rgb(0%,0%,0%);fill-opacity:1;"><g transform="translate(405.421009, 123.14719)"><path style="stroke:none;" d="M 0.90625 -0.703125 C 0.90625 -0.628906 0.921875 -0.570312 0.953125 -0.53125 C 0.992188 -0.5 1.050781 -0.484375 1.125 -0.484375 C 1.207031 -0.359375 1.25 -0.253906 1.25 -0.171875 C 1.25 -0.0859375 1.203125 -0.03125 1.109375 0 C 0.828125 0 0.632812 -0.0625 0.53125 -0.1875 C 0.4375 -0.3125 0.390625 -0.457031 0.390625 -0.625 L 0.390625 -3.296875 C 0.523438 -3.390625 0.632812 -3.4375 0.71875 -3.4375 C 0.800781 -3.425781 0.863281 -3.367188 0.90625 -3.265625 Z M 0.90625 -0.703125 "/></g></g><g style="fill:rgb(0%,0%,0%);fill-opacity:1;"><g transform="translate(406.781033, 123.14719)"><path style="stroke:none;" d="M 0.125 -1.34375 C 0.125 -1.75 0.226562 -2.054688 0.4375 -2.265625 C 0.65625 -2.484375 0.898438 -2.59375 1.171875 -2.59375 C 1.429688 -2.59375 1.671875 -2.484375 1.890625 -2.265625 C 2.109375 -2.046875 2.21875 -1.738281 2.21875 -1.34375 C 2.21875 -0.945312 2.117188 -0.625 1.921875 -0.375 C 1.722656 -0.132812 1.472656 -0.015625 1.171875 -0.015625 C 0.878906 -0.015625 0.628906 -0.132812 0.421875 -0.375 C 0.222656 -0.613281 0.125 -0.9375 0.125 -1.34375 Z M 0.609375 -1.34375 C 0.609375 -1.113281 0.65625 -0.914062 0.75 -0.75 C 0.84375 -0.59375 0.984375 -0.515625 1.171875 -0.515625 C 1.367188 -0.515625 1.507812 -0.597656 1.59375 -0.765625 C 1.6875 -0.929688 1.734375 -1.125 1.734375 -1.34375 C 1.734375 -1.5625 1.675781 -1.742188 1.5625 -1.890625 C 1.457031 -2.046875 1.328125 -2.128906 1.171875 -2.140625 C 1.003906 -2.140625 0.867188 -2.0625 0.765625 -1.90625 C 0.660156 -1.757812 0.609375 -1.570312 0.609375 -1.34375 Z M 0.609375 -1.34375 "/></g><g transform="translate(409.167551, 123.14719)"><path style="stroke:none;" d="M 1.484375 -2.625 C 1.765625 -2.625 1.988281 -2.484375 2.15625 -2.203125 C 2.332031 -1.929688 2.421875 -1.648438 2.421875 -1.359375 C 2.421875 -0.941406 2.335938 -0.609375 2.171875 -0.359375 C 2.015625 -0.117188 1.816406 0 1.578125 0 C 1.347656 0 1.113281 -0.109375 0.875 -0.328125 L 0.875 0.75 C 0.832031 0.84375 0.769531 0.890625 0.6875 0.890625 C 0.601562 0.890625 0.503906 0.859375 0.390625 0.796875 L 0.390625 -2.40625 C 0.390625 -2.550781 0.46875 -2.625 0.625 -2.625 Z M 1.90625 -1.359375 C 1.90625 -1.585938 1.878906 -1.773438 1.828125 -1.921875 C 1.785156 -2.066406 1.671875 -2.140625 1.484375 -2.140625 L 0.90625 -2.15625 L 0.90625 -1.359375 C 0.90625 -1.085938 0.957031 -0.863281 1.0625 -0.6875 C 1.175781 -0.519531 1.3125 -0.4375 1.46875 -0.4375 C 1.625 -0.4375 1.734375 -0.492188 1.796875 -0.609375 C 1.867188 -0.734375 1.90625 -0.984375 1.90625 -1.359375 Z M 1.90625 -1.359375 "/></g><g transform="translate(411.758072, 123.14719)"><path style="stroke:none;" d="M 0.640625 -1.625 L 1.671875 -1.6875 C 1.660156 -1.8125 1.628906 -1.929688 1.578125 -2.046875 C 1.523438 -2.171875 1.394531 -2.234375 1.1875 -2.234375 C 0.988281 -2.234375 0.847656 -2.171875 0.765625 -2.046875 C 0.679688 -1.929688 0.640625 -1.789062 0.640625 -1.625 Z M 0.640625 -1.1875 C 0.640625 -0.96875 0.675781 -0.789062 0.75 -0.65625 C 0.832031 -0.53125 0.976562 -0.46875 1.1875 -0.46875 C 1.351562 -0.46875 1.484375 -0.492188 1.578125 -0.546875 C 1.671875 -0.597656 1.722656 -0.671875 1.734375 -0.765625 C 2.023438 -0.765625 2.171875 -0.710938 2.171875 -0.609375 C 2.171875 -0.523438 2.128906 -0.4375 2.046875 -0.34375 C 1.972656 -0.25 1.875 -0.171875 1.75 -0.109375 C 1.632812 -0.0546875 1.445312 -0.03125 1.1875 -0.03125 C 0.84375 -0.03125 0.578125 -0.140625 0.390625 -0.359375 C 0.210938 -0.578125 0.125 -0.910156 0.125 -1.359375 C 0.125 -1.816406 0.222656 -2.144531 0.421875 -2.34375 C 0.617188 -2.550781 0.875 -2.65625 1.1875 -2.65625 C 1.625 -2.65625 1.894531 -2.519531 2 -2.25 C 2.101562 -1.988281 2.15625 -1.78125 2.15625 -1.625 C 2.15625 -1.46875 2.09375 -1.351562 1.96875 -1.28125 Z M 0.640625 -1.1875 "/></g></g><g style="fill:rgb(0%,0%,0%);fill-opacity:1;"><g transform="translate(414.092779, 123.14719)"><path style="stroke:none;" d="M 1.515625 -2.109375 C 1.484375 -2.140625 1.414062 -2.15625 1.3125 -2.15625 C 1.207031 -2.15625 1.101562 -2.097656 1 -1.984375 C 0.894531 -1.867188 0.84375 -1.726562 0.84375 -1.5625 L 0.84375 -0.109375 C 0.695312 -0.0234375 0.585938 0.015625 0.515625 0.015625 C 0.429688 0.015625 0.367188 -0.0390625 0.328125 -0.15625 L 0.328125 -2.5625 C 0.410156 -2.625 0.472656 -2.65625 0.515625 -2.65625 C 0.597656 -2.65625 0.695312 -2.609375 0.8125 -2.515625 L 0.8125 -2.234375 C 1.03125 -2.503906 1.226562 -2.640625 1.40625 -2.640625 C 1.582031 -2.640625 1.75 -2.578125 1.90625 -2.453125 C 1.863281 -2.191406 1.800781 -2.0625 1.71875 -2.0625 C 1.613281 -2.0625 1.546875 -2.078125 1.515625 -2.109375 Z M 1.515625 -2.109375 "/></g></g><path style=" stroke:none;fill-rule:nonzero;fill:rgb(66.268921%,85.488892%,100%);fill-opacity:1;" d="M 594.082031 110.609375 C 594.082031 110.609375 593.875 114.875 593.570312 120.175781 C 593.269531 125.476562 592.902344 133.132812 592.710938 136.507812 C 592.566406 139.023438 592.390625 144.199219 592.316406 146.6875 L 593.65625 148.25 C 595.542969 148.457031 599.03125 148.835938 602.296875 149.023438 L 633.4375 150.792969 L 635.082031 121.808594 C 635.359375 116.953125 635.449219 113.355469 635.449219 113.355469 C 633.441406 112.980469 631.40625 112.730469 629.351562 112.632812 C 625.785156 112.429688 606.414062 111.394531 603.152344 111.09375 C 598.804688 110.664062 594.082031 110.609375 594.082031 110.609375 Z M 594.082031 110.609375 "/><path style=" stroke:none;fill-rule:nonzero;fill:rgb(100%,63.529968%,67.83905%);fill-opacity:1;" d="M 592.3125 146.707031 L 593.65625 148.269531 L 593.9375 146.550781 Z M 613.925781 110.070312 C 613.925781 110.070312 619.410156 109.835938 621.210938 109.824219 C 623.007812 109.808594 629.308594 109.558594 629.308594 109.558594 C 629.195312 110.09375 629.144531 110.671875 629.179688 111.21875 C 629.234375 111.734375 629.238281 112.261719 629.191406 112.785156 L 629.421875 113.707031 L 629.214844 115 C 629.214844 115 619.390625 114.90625 617.585938 115.015625 C 615.785156 115.128906 613.113281 114.960938 613.113281 114.960938 C 613.113281 114.960938 613.105469 113.390625 613.300781 112.839844 C 613.460938 112.40625 613.535156 111.929688 613.496094 111.449219 C 613.519531 111.085938 613.925781 110.070312 613.925781 110.070312 Z M 613.925781 110.070312 "/><g style="fill:rgb(0%,0%,0%);fill-opacity:1;"><g transform="translate(603.720765, 129.859666)"><path style="stroke:none;" d="M 0.4375 -3.34375 L 3.046875 -3.203125 C 3.128906 -3.023438 3.171875 -2.894531 3.171875 -2.8125 C 3.160156 -2.695312 3.09375 -2.644531 2.96875 -2.65625 L 1.96875 -2.703125 L 1.8125 0.03125 C 1.695312 0.0625 1.582031 0.0703125 1.46875 0.0625 C 1.375 0.0625 1.304688 0.0234375 1.265625 -0.046875 L 1.421875 -2.734375 L 0.375 -2.796875 C 0.28125 -2.953125 0.234375 -3.070312 0.234375 -3.15625 C 0.242188 -3.238281 0.3125 -3.300781 0.4375 -3.34375 Z M 0.4375 -3.34375 "/></g><g transform="translate(606.779121, 130.033487)"><path style="stroke:none;" d="M 0.734375 -1.59375 L 1.765625 -1.59375 C 1.765625 -1.71875 1.738281 -1.84375 1.6875 -1.96875 C 1.644531 -2.09375 1.519531 -2.160156 1.3125 -2.171875 C 1.113281 -2.179688 0.96875 -2.128906 0.875 -2.015625 C 0.789062 -1.898438 0.742188 -1.757812 0.734375 -1.59375 Z M 0.703125 -1.15625 C 0.691406 -0.9375 0.722656 -0.757812 0.796875 -0.625 C 0.867188 -0.488281 1.007812 -0.414062 1.21875 -0.40625 C 1.382812 -0.394531 1.515625 -0.410156 1.609375 -0.453125 C 1.703125 -0.503906 1.757812 -0.578125 1.78125 -0.671875 C 2.070312 -0.648438 2.210938 -0.585938 2.203125 -0.484375 C 2.203125 -0.398438 2.160156 -0.3125 2.078125 -0.21875 C 1.992188 -0.132812 1.890625 -0.0664062 1.765625 -0.015625 C 1.640625 0.0351562 1.445312 0.0507812 1.1875 0.03125 C 0.84375 0.0078125 0.582031 -0.113281 0.40625 -0.34375 C 0.238281 -0.570312 0.171875 -0.910156 0.203125 -1.359375 C 0.222656 -1.816406 0.335938 -2.140625 0.546875 -2.328125 C 0.765625 -2.515625 1.03125 -2.601562 1.34375 -2.59375 C 1.78125 -2.5625 2.039062 -2.410156 2.125 -2.140625 C 2.21875 -1.867188 2.257812 -1.65625 2.25 -1.5 C 2.238281 -1.34375 2.171875 -1.234375 2.046875 -1.171875 Z M 0.703125 -1.15625 "/></g><g transform="translate(609.110067, 130.165965)"><path style="stroke:none;" d="M 2.171875 -2.125 C 2.140625 -1.882812 2.078125 -1.765625 1.984375 -1.765625 C 1.890625 -1.773438 1.816406 -1.8125 1.765625 -1.875 C 1.703125 -1.945312 1.648438 -1.992188 1.609375 -2.015625 C 1.578125 -2.046875 1.5 -2.0625 1.375 -2.0625 C 1.21875 -2.070312 1.070312 -2.007812 0.9375 -1.875 C 0.8125 -1.75 0.742188 -1.566406 0.734375 -1.328125 C 0.710938 -1.023438 0.75 -0.804688 0.84375 -0.671875 C 0.9375 -0.535156 1.078125 -0.460938 1.265625 -0.453125 C 1.460938 -0.429688 1.617188 -0.472656 1.734375 -0.578125 C 1.828125 -0.640625 1.910156 -0.671875 1.984375 -0.671875 C 2.066406 -0.671875 2.128906 -0.546875 2.171875 -0.296875 C 1.828125 -0.046875 1.515625 0.0664062 1.234375 0.046875 C 0.878906 0.0351562 0.613281 -0.113281 0.4375 -0.40625 C 0.257812 -0.707031 0.179688 -1.023438 0.203125 -1.359375 C 0.222656 -1.742188 0.359375 -2.046875 0.609375 -2.265625 C 0.859375 -2.492188 1.125 -2.597656 1.40625 -2.578125 C 1.632812 -2.566406 1.796875 -2.519531 1.890625 -2.4375 C 1.992188 -2.363281 2.085938 -2.257812 2.171875 -2.125 Z M 2.171875 -2.125 "/></g><g transform="translate(611.350491, 130.293299)"><path style="stroke:none;" d="M 0.921875 0 C 0.785156 0.0390625 0.679688 0.0546875 0.609375 0.046875 C 0.515625 0.046875 0.441406 0.00390625 0.390625 -0.078125 L 0.578125 -3.34375 C 0.722656 -3.375 0.832031 -3.390625 0.90625 -3.390625 C 0.988281 -3.390625 1.054688 -3.347656 1.109375 -3.265625 L 1.0625 -2.296875 C 1.28125 -2.484375 1.488281 -2.566406 1.6875 -2.546875 C 1.863281 -2.535156 2.019531 -2.484375 2.15625 -2.390625 C 2.289062 -2.296875 2.351562 -2.148438 2.34375 -1.953125 L 2.328125 0.078125 C 2.179688 0.117188 2.070312 0.132812 2 0.125 C 1.925781 0.125 1.863281 0.0859375 1.8125 0.015625 L 1.8125 -1.796875 C 1.769531 -1.992188 1.6875 -2.097656 1.5625 -2.109375 C 1.414062 -2.117188 1.289062 -2.066406 1.1875 -1.953125 C 1.082031 -1.835938 1.023438 -1.707031 1.015625 -1.5625 Z M 0.921875 0 "/></g><g transform="translate(613.972401, 130.442314)"><path style="stroke:none;" d="M 0.84375 -0.078125 C 0.8125 0.015625 0.75 0.0546875 0.65625 0.046875 C 0.582031 0.046875 0.46875 0.00390625 0.3125 -0.078125 L 0.453125 -2.546875 C 0.554688 -2.585938 0.648438 -2.609375 0.734375 -2.609375 C 0.804688 -2.609375 0.863281 -2.554688 0.90625 -2.453125 L 0.90625 -2.3125 C 1.09375 -2.488281 1.296875 -2.570312 1.515625 -2.5625 C 1.742188 -2.550781 1.925781 -2.507812 2.0625 -2.4375 C 2.195312 -2.363281 2.273438 -2.144531 2.296875 -1.78125 L 2.28125 0 C 2.25 0.09375 2.1875 0.140625 2.09375 0.140625 C 2.007812 0.128906 1.90625 0.0664062 1.78125 -0.046875 L 1.78125 -1.75 C 1.769531 -1.875 1.738281 -1.957031 1.6875 -2 C 1.632812 -2.050781 1.546875 -2.078125 1.421875 -2.078125 C 1.304688 -2.085938 1.195312 -2.035156 1.09375 -1.921875 C 1 -1.816406 0.945312 -1.691406 0.9375 -1.546875 Z M 0.84375 -0.078125 "/></g><g transform="translate(616.545817, 130.588574)"><path style="stroke:none;" d="M 0.484375 -3.09375 C 0.492188 -3.175781 0.53125 -3.226562 0.59375 -3.25 C 0.664062 -3.269531 0.726562 -3.28125 0.78125 -3.28125 C 0.84375 -3.28125 0.890625 -3.265625 0.921875 -3.234375 C 0.960938 -3.210938 0.976562 -3.15625 0.96875 -3.0625 C 0.96875 -3 0.941406 -2.945312 0.890625 -2.90625 C 0.835938 -2.875 0.757812 -2.859375 0.65625 -2.859375 C 0.582031 -2.867188 0.535156 -2.894531 0.515625 -2.9375 C 0.492188 -2.976562 0.484375 -3.03125 0.484375 -3.09375 Z M 0.453125 -2.515625 C 0.578125 -2.554688 0.6875 -2.578125 0.78125 -2.578125 C 0.863281 -2.566406 0.929688 -2.523438 0.984375 -2.453125 L 0.84375 -0.0625 C 0.726562 0.0078125 0.625 0.046875 0.53125 0.046875 C 0.4375 0.0351562 0.367188 -0.0234375 0.328125 -0.140625 Z M 0.453125 -2.515625 "/></g><g transform="translate(617.680577, 130.653067)"><path style="stroke:none;" d="M 2.171875 -2.125 C 2.140625 -1.882812 2.078125 -1.765625 1.984375 -1.765625 C 1.890625 -1.773438 1.816406 -1.8125 1.765625 -1.875 C 1.703125 -1.945312 1.648438 -1.992188 1.609375 -2.015625 C 1.578125 -2.046875 1.5 -2.0625 1.375 -2.0625 C 1.21875 -2.070312 1.070312 -2.007812 0.9375 -1.875 C 0.8125 -1.75 0.742188 -1.566406 0.734375 -1.328125 C 0.710938 -1.023438 0.75 -0.804688 0.84375 -0.671875 C 0.9375 -0.535156 1.078125 -0.460938 1.265625 -0.453125 C 1.460938 -0.429688 1.617188 -0.472656 1.734375 -0.578125 C 1.828125 -0.640625 1.910156 -0.671875 1.984375 -0.671875 C 2.066406 -0.671875 2.128906 -0.546875 2.171875 -0.296875 C 1.828125 -0.046875 1.515625 0.0664062 1.234375 0.046875 C 0.878906 0.0351562 0.613281 -0.113281 0.4375 -0.40625 C 0.257812 -0.707031 0.179688 -1.023438 0.203125 -1.359375 C 0.222656 -1.742188 0.359375 -2.046875 0.609375 -2.265625 C 0.859375 -2.492188 1.125 -2.597656 1.40625 -2.578125 C 1.632812 -2.566406 1.796875 -2.519531 1.890625 -2.4375 C 1.992188 -2.363281 2.085938 -2.257812 2.171875 -2.125 Z M 2.171875 -2.125 "/></g><g transform="translate(619.921001, 130.780401)"><path style="stroke:none;" d="M 2.28125 -2.515625 L 2.140625 -0.015625 C 2.023438 0.046875 1.9375 0.078125 1.875 0.078125 C 1.789062 0.0664062 1.726562 0.0195312 1.6875 -0.0625 L 1.6875 -0.28125 C 1.46875 -0.0625 1.253906 0.0390625 1.046875 0.03125 C 0.691406 0.0078125 0.457031 -0.144531 0.34375 -0.4375 C 0.226562 -0.738281 0.179688 -1.046875 0.203125 -1.359375 C 0.222656 -1.691406 0.332031 -1.984375 0.53125 -2.234375 C 0.726562 -2.484375 0.9375 -2.601562 1.15625 -2.59375 Z M 0.703125 -1.328125 C 0.691406 -1.109375 0.71875 -0.898438 0.78125 -0.703125 C 0.84375 -0.515625 0.960938 -0.414062 1.140625 -0.40625 C 1.296875 -0.4375 1.429688 -0.5 1.546875 -0.59375 C 1.671875 -0.695312 1.738281 -0.863281 1.75 -1.09375 L 1.8125 -2.09375 L 1.28125 -2.125 C 1.082031 -2.125 0.9375 -2.039062 0.84375 -1.875 C 0.757812 -1.707031 0.710938 -1.523438 0.703125 -1.328125 Z M 0.703125 -1.328125 "/></g><g transform="translate(622.342469, 130.918024)"><path style="stroke:none;" d="M 0.953125 -0.65625 C 0.941406 -0.582031 0.953125 -0.523438 0.984375 -0.484375 C 1.023438 -0.441406 1.082031 -0.421875 1.15625 -0.421875 C 1.226562 -0.285156 1.265625 -0.175781 1.265625 -0.09375 C 1.253906 -0.0078125 1.203125 0.0390625 1.109375 0.0625 C 0.828125 0.0390625 0.640625 -0.03125 0.546875 -0.15625 C 0.453125 -0.289062 0.410156 -0.441406 0.421875 -0.609375 L 0.578125 -3.28125 C 0.710938 -3.363281 0.820312 -3.398438 0.90625 -3.390625 C 0.988281 -3.378906 1.050781 -3.320312 1.09375 -3.21875 Z M 0.953125 -0.65625 "/></g></g><g style="fill:rgb(0%,0%,0%);fill-opacity:1;"><g transform="translate(607.000947, 135.348493)"><path style="stroke:none;" d="M 0.515625 -3.34375 C 0.703125 -3.375 0.828125 -3.390625 0.890625 -3.390625 C 0.984375 -3.390625 1.046875 -3.335938 1.078125 -3.234375 L 1.328125 -1.046875 L 1.921875 -3.1875 C 2.097656 -3.21875 2.222656 -3.226562 2.296875 -3.21875 C 2.367188 -3.21875 2.4375 -3.175781 2.5 -3.09375 L 2.859375 -0.984375 L 3.328125 -3.1875 C 3.492188 -3.21875 3.613281 -3.234375 3.6875 -3.234375 C 3.769531 -3.234375 3.84375 -3.171875 3.90625 -3.046875 L 3.1875 0.125 C 2.988281 0.132812 2.851562 0.140625 2.78125 0.140625 C 2.695312 0.140625 2.625 0.0976562 2.5625 0.015625 L 2.15625 -2.390625 L 1.46875 0 C 1.289062 0.03125 1.15625 0.046875 1.0625 0.046875 C 0.976562 0.0351562 0.910156 -0.015625 0.859375 -0.109375 Z M 0.515625 -3.34375 "/></g><g transform="translate(610.812578, 135.565125)"><path style="stroke:none;" d="M 1.625 -2.015625 C 1.601562 -2.054688 1.539062 -2.078125 1.4375 -2.078125 C 1.332031 -2.085938 1.222656 -2.035156 1.109375 -1.921875 C 1.003906 -1.816406 0.945312 -1.679688 0.9375 -1.515625 L 0.84375 -0.0625 C 0.695312 0.0078125 0.585938 0.046875 0.515625 0.046875 C 0.429688 0.0351562 0.375 -0.0234375 0.34375 -0.140625 L 0.46875 -2.546875 C 0.5625 -2.597656 0.628906 -2.625 0.671875 -2.625 C 0.753906 -2.625 0.847656 -2.570312 0.953125 -2.46875 L 0.9375 -2.1875 C 1.175781 -2.445312 1.382812 -2.570312 1.5625 -2.5625 C 1.738281 -2.550781 1.898438 -2.476562 2.046875 -2.34375 C 1.984375 -2.082031 1.910156 -1.957031 1.828125 -1.96875 C 1.722656 -1.96875 1.65625 -1.984375 1.625 -2.015625 Z M 1.625 -2.015625 "/></g><g transform="translate(612.758804, 135.675739)"><path style="stroke:none;" d="M 0.484375 -3.09375 C 0.492188 -3.175781 0.53125 -3.226562 0.59375 -3.25 C 0.664062 -3.269531 0.726562 -3.28125 0.78125 -3.28125 C 0.84375 -3.28125 0.890625 -3.265625 0.921875 -3.234375 C 0.960938 -3.210938 0.976562 -3.15625 0.96875 -3.0625 C 0.96875 -3 0.941406 -2.945312 0.890625 -2.90625 C 0.835938 -2.875 0.757812 -2.859375 0.65625 -2.859375 C 0.582031 -2.867188 0.535156 -2.894531 0.515625 -2.9375 C 0.492188 -2.976562 0.484375 -3.03125 0.484375 -3.09375 Z M 0.453125 -2.515625 C 0.578125 -2.554688 0.6875 -2.578125 0.78125 -2.578125 C 0.863281 -2.566406 0.929688 -2.523438 0.984375 -2.453125 L 0.84375 -0.0625 C 0.726562 0.0078125 0.625 0.046875 0.53125 0.046875 C 0.4375 0.0351562 0.367188 -0.0234375 0.328125 -0.140625 Z M 0.453125 -2.515625 "/></g><g transform="translate(613.893564, 135.740232)"><path style="stroke:none;" d="M 0.640625 -2.109375 L 0.34375 -2.125 C 0.269531 -2.269531 0.234375 -2.382812 0.234375 -2.46875 C 0.234375 -2.539062 0.289062 -2.585938 0.40625 -2.609375 L 0.671875 -2.59375 L 0.6875 -3.0625 C 0.832031 -3.082031 0.941406 -3.09375 1.015625 -3.09375 C 1.085938 -3.09375 1.15625 -3.054688 1.21875 -2.984375 L 1.203125 -2.5625 L 1.609375 -2.546875 C 1.648438 -2.410156 1.671875 -2.316406 1.671875 -2.265625 C 1.660156 -2.171875 1.613281 -2.101562 1.53125 -2.0625 L 1.171875 -2.078125 L 1.09375 -0.671875 C 1.082031 -0.503906 1.144531 -0.414062 1.28125 -0.40625 L 1.484375 -0.40625 C 1.535156 -0.257812 1.5625 -0.144531 1.5625 -0.0625 C 1.550781 0.0078125 1.503906 0.0625 1.421875 0.09375 L 1.21875 0.078125 C 0.945312 0.0664062 0.765625 -0.0234375 0.671875 -0.203125 C 0.585938 -0.378906 0.550781 -0.546875 0.5625 -0.703125 Z M 0.640625 -2.109375 "/></g><g transform="translate(615.542361, 135.833941)"><path style="stroke:none;" d="M 0.734375 -1.59375 L 1.765625 -1.59375 C 1.765625 -1.71875 1.738281 -1.84375 1.6875 -1.96875 C 1.644531 -2.09375 1.519531 -2.160156 1.3125 -2.171875 C 1.113281 -2.179688 0.96875 -2.128906 0.875 -2.015625 C 0.789062 -1.898438 0.742188 -1.757812 0.734375 -1.59375 Z M 0.703125 -1.15625 C 0.691406 -0.9375 0.722656 -0.757812 0.796875 -0.625 C 0.867188 -0.488281 1.007812 -0.414062 1.21875 -0.40625 C 1.382812 -0.394531 1.515625 -0.410156 1.609375 -0.453125 C 1.703125 -0.503906 1.757812 -0.578125 1.78125 -0.671875 C 2.070312 -0.648438 2.210938 -0.585938 2.203125 -0.484375 C 2.203125 -0.398438 2.160156 -0.3125 2.078125 -0.21875 C 1.992188 -0.132812 1.890625 -0.0664062 1.765625 -0.015625 C 1.640625 0.0351562 1.445312 0.0507812 1.1875 0.03125 C 0.84375 0.0078125 0.582031 -0.113281 0.40625 -0.34375 C 0.238281 -0.570312 0.171875 -0.910156 0.203125 -1.359375 C 0.222656 -1.816406 0.335938 -2.140625 0.546875 -2.328125 C 0.765625 -2.515625 1.03125 -2.601562 1.34375 -2.59375 C 1.78125 -2.5625 2.039062 -2.410156 2.125 -2.140625 C 2.21875 -1.867188 2.257812 -1.65625 2.25 -1.5 C 2.238281 -1.34375 2.171875 -1.234375 2.046875 -1.171875 Z M 0.703125 -1.15625 "/></g></g><g style="fill:rgb(0%,0%,0%);fill-opacity:1;"><g transform="translate(617.873307, 135.96642)"><path style="stroke:none;" d="M 1.625 -2.015625 C 1.601562 -2.054688 1.539062 -2.078125 1.4375 -2.078125 C 1.332031 -2.085938 1.222656 -2.035156 1.109375 -1.921875 C 1.003906 -1.816406 0.945312 -1.679688 0.9375 -1.515625 L 0.84375 -0.0625 C 0.695312 0.0078125 0.585938 0.046875 0.515625 0.046875 C 0.429688 0.0351562 0.375 -0.0234375 0.34375 -0.140625 L 0.46875 -2.546875 C 0.5625 -2.597656 0.628906 -2.625 0.671875 -2.625 C 0.753906 -2.625 0.847656 -2.570312 0.953125 -2.46875 L 0.9375 -2.1875 C 1.175781 -2.445312 1.382812 -2.570312 1.5625 -2.5625 C 1.738281 -2.550781 1.898438 -2.476562 2.046875 -2.34375 C 1.984375 -2.082031 1.910156 -1.957031 1.828125 -1.96875 C 1.722656 -1.96875 1.65625 -1.984375 1.625 -2.015625 Z M 1.625 -2.015625 "/></g></g><path style=" stroke:none;fill-rule:nonzero;fill:rgb(82.348633%,83.529663%,100%);fill-opacity:1;" d="M 413.304688 232.972656 C 413.335938 231.242188 413.09375 226.164062 413.09375 226.164062 C 413.09375 226.164062 408.824219 226.273438 404.902344 226.273438 C 404.550781 226.273438 401.757812 226.273438 401.097656 226.273438 C 396.261719 226.273438 386.671875 226.246094 383.921875 226.191406 C 380.453125 226.050781 375.222656 225.824219 375.210938 226.148438 C 375.195312 226.472656 375.335938 230.707031 375.335938 230.707031 C 375.335938 230.707031 375.335938 255.015625 375.335938 257.140625 C 375.167969 259.855469 375.097656 263.992188 375.097656 263.992188 C 377.367188 264.332031 380.101562 264.414062 382.398438 264.386719 C 384.996094 264.386719 404.140625 264.386719 404.140625 264.386719 L 412.867188 264.230469 C 412.867188 264.230469 413.304688 256.453125 413.304688 255.058594 C 413.304688 253.128906 413.277344 234.730469 413.304688 232.972656 Z M 413.304688 232.972656 "/><path style=" stroke:none;fill-rule:nonzero;fill:rgb(32.939148%,12.159729%,76.858521%);fill-opacity:1;" d="M 380.453125 223.179688 C 380.453125 223.179688 391.140625 224.234375 392.46875 224.261719 L 397.445312 224.363281 L 397.429688 225.386719 C 397.429688 225.386719 397.726562 226.980469 397.710938 227.640625 L 397.683594 229.328125 C 397.683594 229.328125 390.972656 228.765625 389.308594 228.695312 C 385.828125 228.527344 380.269531 227.765625 380.269531 227.765625 L 380.144531 226.078125 L 380.679688 224.683594 Z M 380.453125 223.179688 "/><g style="fill:rgb(0%,0%,0%);fill-opacity:1;"><g transform="translate(387.309784, 244.768552)"><path style="stroke:none;" d="M 2.375 -3.296875 C 2.550781 -3.367188 2.675781 -3.40625 2.75 -3.40625 C 2.832031 -3.40625 2.894531 -3.359375 2.9375 -3.265625 L 2.9375 -1.5625 C 2.9375 -0.9375 2.789062 -0.519531 2.5 -0.3125 C 2.207031 -0.113281 1.914062 -0.015625 1.625 -0.015625 C 1.125 -0.015625 0.789062 -0.132812 0.625 -0.375 C 0.46875 -0.613281 0.375 -1.007812 0.34375 -1.5625 L 0.25 -3.265625 C 0.414062 -3.359375 0.539062 -3.40625 0.625 -3.40625 C 0.707031 -3.40625 0.769531 -3.351562 0.8125 -3.25 L 0.890625 -1.5625 C 0.910156 -1.144531 0.96875 -0.875 1.0625 -0.75 C 1.164062 -0.625 1.351562 -0.5625 1.625 -0.5625 C 1.90625 -0.5625 2.097656 -0.617188 2.203125 -0.734375 C 2.316406 -0.847656 2.375 -1.125 2.375 -1.5625 Z M 2.375 -3.296875 "/></g><g transform="translate(390.625651, 244.768552)"><path style="stroke:none;" d="M 0.390625 -0.125 L 0.390625 -3.3125 C 0.566406 -3.394531 0.6875 -3.4375 0.75 -3.4375 C 0.84375 -3.425781 0.910156 -3.378906 0.953125 -3.296875 L 0.953125 -0.15625 C 0.773438 -0.0625 0.644531 -0.015625 0.5625 -0.015625 C 0.476562 -0.015625 0.421875 -0.0507812 0.390625 -0.125 Z M 0.390625 -0.125 "/></g></g><g style="fill:rgb(0%,0%,0%);fill-opacity:1;"><g transform="translate(392.031009, 244.768552)"><path style="stroke:none;" d="M 1.5 -3.515625 C 1.644531 -3.703125 1.769531 -3.796875 1.875 -3.796875 C 1.957031 -3.796875 2.046875 -3.738281 2.140625 -3.625 L 0.890625 0.234375 C 0.722656 0.367188 0.597656 0.4375 0.515625 0.4375 C 0.453125 0.4375 0.382812 0.375 0.3125 0.25 Z M 1.5 -3.515625 "/></g></g><g style="fill:rgb(0%,0%,0%);fill-opacity:1;"><g transform="translate(394.466099, 244.768552)"><path style="stroke:none;" d="M 2.375 -3.296875 C 2.550781 -3.367188 2.675781 -3.40625 2.75 -3.40625 C 2.832031 -3.40625 2.894531 -3.359375 2.9375 -3.265625 L 2.9375 -1.5625 C 2.9375 -0.9375 2.789062 -0.519531 2.5 -0.3125 C 2.207031 -0.113281 1.914062 -0.015625 1.625 -0.015625 C 1.125 -0.015625 0.789062 -0.132812 0.625 -0.375 C 0.46875 -0.613281 0.375 -1.007812 0.34375 -1.5625 L 0.25 -3.265625 C 0.414062 -3.359375 0.539062 -3.40625 0.625 -3.40625 C 0.707031 -3.40625 0.769531 -3.351562 0.8125 -3.25 L 0.890625 -1.5625 C 0.910156 -1.144531 0.96875 -0.875 1.0625 -0.75 C 1.164062 -0.625 1.351562 -0.5625 1.625 -0.5625 C 1.90625 -0.5625 2.097656 -0.617188 2.203125 -0.734375 C 2.316406 -0.847656 2.375 -1.125 2.375 -1.5625 Z M 2.375 -3.296875 "/></g><g transform="translate(397.781967, 244.768552)"><path style="stroke:none;" d="M 0.09375 -3.34375 C 0.34375 -3.394531 0.5 -3.421875 0.5625 -3.421875 C 0.625 -3.421875 0.691406 -3.398438 0.765625 -3.359375 L 1.515625 -2.21875 L 2.265625 -3.34375 C 2.421875 -3.394531 2.535156 -3.421875 2.609375 -3.421875 C 2.703125 -3.421875 2.785156 -3.363281 2.859375 -3.25 L 1.859375 -1.6875 L 2.921875 -0.0625 C 2.722656 -0.0195312 2.585938 0 2.515625 0 C 2.429688 0 2.347656 -0.0195312 2.265625 -0.0625 L 1.515625 -1.1875 L 0.734375 -0.03125 C 0.609375 -0.0078125 0.503906 0 0.421875 0 C 0.316406 0 0.238281 -0.0625 0.1875 -0.1875 L 1.1875 -1.71875 Z M 0.09375 -3.34375 "/></g></g><g style="fill:rgb(0%,0%,0%);fill-opacity:1;"><g transform="translate(384.777699, 250.062407)"><path style="stroke:none;" d="M 2.4375 -1.703125 C 2.4375 -2.171875 2.320312 -2.484375 2.09375 -2.640625 C 1.875 -2.796875 1.664062 -2.878906 1.46875 -2.890625 L 0.9375 -2.890625 L 0.9375 -0.515625 L 1.46875 -0.515625 C 1.78125 -0.515625 2.019531 -0.632812 2.1875 -0.875 C 2.351562 -1.113281 2.4375 -1.390625 2.4375 -1.703125 Z M 3 -1.703125 C 3 -1.210938 2.867188 -0.8125 2.609375 -0.5 C 2.359375 -0.1875 1.976562 -0.03125 1.46875 -0.03125 L 0.390625 -0.03125 L 0.390625 -3.375 L 1.46875 -3.375 C 1.9375 -3.375 2.304688 -3.222656 2.578125 -2.921875 C 2.859375 -2.628906 3 -2.222656 3 -1.703125 Z M 3 -1.703125 "/></g><g transform="translate(388.041756, 250.062407)"><path style="stroke:none;" d="M 0.640625 -1.625 L 1.671875 -1.6875 C 1.660156 -1.8125 1.628906 -1.929688 1.578125 -2.046875 C 1.523438 -2.171875 1.394531 -2.234375 1.1875 -2.234375 C 0.988281 -2.234375 0.847656 -2.171875 0.765625 -2.046875 C 0.679688 -1.929688 0.640625 -1.789062 0.640625 -1.625 Z M 0.640625 -1.1875 C 0.640625 -0.96875 0.675781 -0.789062 0.75 -0.65625 C 0.832031 -0.53125 0.976562 -0.46875 1.1875 -0.46875 C 1.351562 -0.46875 1.484375 -0.492188 1.578125 -0.546875 C 1.671875 -0.597656 1.722656 -0.671875 1.734375 -0.765625 C 2.023438 -0.765625 2.171875 -0.710938 2.171875 -0.609375 C 2.171875 -0.523438 2.128906 -0.4375 2.046875 -0.34375 C 1.972656 -0.25 1.875 -0.171875 1.75 -0.109375 C 1.632812 -0.0546875 1.445312 -0.03125 1.1875 -0.03125 C 0.84375 -0.03125 0.578125 -0.140625 0.390625 -0.359375 C 0.210938 -0.578125 0.125 -0.910156 0.125 -1.359375 C 0.125 -1.816406 0.222656 -2.144531 0.421875 -2.34375 C 0.617188 -2.550781 0.875 -2.65625 1.1875 -2.65625 C 1.625 -2.65625 1.894531 -2.519531 2 -2.25 C 2.101562 -1.988281 2.15625 -1.78125 2.15625 -1.625 C 2.15625 -1.46875 2.09375 -1.351562 1.96875 -1.28125 Z M 0.640625 -1.1875 "/></g></g><g style="fill:rgb(0%,0%,0%);fill-opacity:1;"><g transform="translate(390.376464, 250.062407)"><path style="stroke:none;" d="M 1.078125 -1.1875 C 0.722656 -1.289062 0.488281 -1.390625 0.375 -1.484375 C 0.269531 -1.585938 0.21875 -1.738281 0.21875 -1.9375 C 0.21875 -2.207031 0.316406 -2.394531 0.515625 -2.5 C 0.722656 -2.613281 0.945312 -2.671875 1.1875 -2.671875 C 1.539062 -2.671875 1.8125 -2.535156 2 -2.265625 C 1.96875 -2.128906 1.910156 -2.0625 1.828125 -2.0625 C 1.753906 -2.0625 1.660156 -2.082031 1.546875 -2.125 C 1.453125 -2.21875 1.335938 -2.265625 1.203125 -2.265625 C 1.023438 -2.265625 0.90625 -2.234375 0.84375 -2.171875 C 0.78125 -2.117188 0.75 -2.046875 0.75 -1.953125 C 0.75 -1.835938 0.875 -1.734375 1.125 -1.640625 C 1.476562 -1.523438 1.71875 -1.410156 1.84375 -1.296875 C 1.976562 -1.179688 2.046875 -1.023438 2.046875 -0.828125 C 2.046875 -0.554688 1.921875 -0.34375 1.671875 -0.1875 C 1.503906 -0.0820312 1.296875 -0.03125 1.046875 -0.03125 C 0.578125 -0.03125 0.289062 -0.171875 0.1875 -0.453125 C 0.207031 -0.640625 0.257812 -0.734375 0.34375 -0.734375 C 0.425781 -0.734375 0.5 -0.710938 0.5625 -0.671875 C 0.644531 -0.546875 0.800781 -0.484375 1.03125 -0.484375 C 1.257812 -0.484375 1.394531 -0.507812 1.4375 -0.5625 C 1.488281 -0.625 1.515625 -0.710938 1.515625 -0.828125 C 1.515625 -0.929688 1.488281 -1 1.4375 -1.03125 C 1.382812 -1.0625 1.265625 -1.113281 1.078125 -1.1875 Z M 1.078125 -1.1875 "/></g></g><g style="fill:rgb(0%,0%,0%);fill-opacity:1;"><g transform="translate(392.711171, 250.062407)"><path style="stroke:none;" d="M 0.3125 -3.109375 C 0.3125 -3.191406 0.34375 -3.242188 0.40625 -3.265625 C 0.476562 -3.296875 0.539062 -3.3125 0.59375 -3.3125 C 0.65625 -3.3125 0.703125 -3.300781 0.734375 -3.28125 C 0.773438 -3.257812 0.796875 -3.203125 0.796875 -3.109375 C 0.796875 -3.046875 0.769531 -2.992188 0.71875 -2.953125 C 0.675781 -2.910156 0.601562 -2.890625 0.5 -2.890625 C 0.425781 -2.890625 0.375 -2.910156 0.34375 -2.953125 C 0.320312 -2.992188 0.3125 -3.046875 0.3125 -3.109375 Z M 0.3125 -2.53125 C 0.4375 -2.582031 0.546875 -2.609375 0.640625 -2.609375 C 0.722656 -2.609375 0.789062 -2.570312 0.84375 -2.5 L 0.84375 -0.109375 C 0.726562 -0.0234375 0.625 0.015625 0.53125 0.015625 C 0.4375 0.015625 0.363281 -0.0390625 0.3125 -0.15625 Z M 0.3125 -2.53125 "/></g></g><g style="fill:rgb(0%,0%,0%);fill-opacity:1;"><g transform="translate(393.847762, 250.062407)"><path style="stroke:none;" d="M 0.671875 -1.34375 C 0.671875 -1.03125 0.707031 -0.8125 0.78125 -0.6875 C 0.863281 -0.570312 0.988281 -0.515625 1.15625 -0.515625 C 1.289062 -0.515625 1.421875 -0.59375 1.546875 -0.75 C 1.671875 -0.914062 1.734375 -1.125 1.734375 -1.375 L 1.734375 -2.140625 L 1.234375 -2.125 C 1.003906 -2.125 0.851562 -2.0625 0.78125 -1.9375 C 0.707031 -1.820312 0.671875 -1.625 0.671875 -1.34375 Z M 1.765625 -0.40625 C 1.609375 -0.15625 1.425781 -0.03125 1.21875 -0.03125 C 0.820312 -0.03125 0.550781 -0.148438 0.40625 -0.390625 C 0.257812 -0.640625 0.1875 -0.960938 0.1875 -1.359375 C 0.1875 -1.703125 0.269531 -1.992188 0.4375 -2.234375 C 0.601562 -2.484375 0.804688 -2.613281 1.046875 -2.625 L 1.90625 -2.625 C 2.113281 -2.613281 2.222656 -2.5 2.234375 -2.28125 L 2.234375 -0.21875 C 2.222656 0.1875 2.15625 0.453125 2.03125 0.578125 C 1.914062 0.710938 1.722656 0.800781 1.453125 0.84375 L 0.609375 0.96875 C 0.535156 0.820312 0.5 0.71875 0.5 0.65625 C 0.5 0.601562 0.519531 0.53125 0.5625 0.4375 L 1.40625 0.3125 C 1.644531 0.289062 1.765625 0.175781 1.765625 -0.03125 Z M 1.765625 -0.40625 "/></g></g><g style="fill:rgb(0%,0%,0%);fill-opacity:1;"><g transform="translate(396.538666, 250.062407)"><path style="stroke:none;" d="M 0.84375 -0.125 C 0.8125 -0.03125 0.75 0.015625 0.65625 0.015625 C 0.582031 0.015625 0.46875 -0.0195312 0.3125 -0.09375 L 0.3125 -2.5625 C 0.40625 -2.613281 0.492188 -2.640625 0.578125 -2.640625 C 0.648438 -2.640625 0.710938 -2.59375 0.765625 -2.5 L 0.765625 -2.359375 C 0.941406 -2.546875 1.140625 -2.640625 1.359375 -2.640625 C 1.585938 -2.640625 1.769531 -2.609375 1.90625 -2.546875 C 2.050781 -2.484375 2.144531 -2.269531 2.1875 -1.90625 L 2.28125 -0.125 C 2.25 -0.03125 2.1875 0.015625 2.09375 0.015625 C 2.007812 0.015625 1.898438 -0.0351562 1.765625 -0.140625 L 1.671875 -1.84375 C 1.660156 -1.96875 1.625 -2.050781 1.5625 -2.09375 C 1.507812 -2.132812 1.421875 -2.15625 1.296875 -2.15625 C 1.179688 -2.15625 1.078125 -2.097656 0.984375 -1.984375 C 0.890625 -1.867188 0.84375 -1.738281 0.84375 -1.59375 Z M 0.84375 -0.125 "/></g></g><g style="fill:rgb(0%,0%,0%);fill-opacity:1;"><g transform="translate(399.116234, 250.062407)"><path style="stroke:none;" d="M 0.640625 -1.625 L 1.671875 -1.6875 C 1.660156 -1.8125 1.628906 -1.929688 1.578125 -2.046875 C 1.523438 -2.171875 1.394531 -2.234375 1.1875 -2.234375 C 0.988281 -2.234375 0.847656 -2.171875 0.765625 -2.046875 C 0.679688 -1.929688 0.640625 -1.789062 0.640625 -1.625 Z M 0.640625 -1.1875 C 0.640625 -0.96875 0.675781 -0.789062 0.75 -0.65625 C 0.832031 -0.53125 0.976562 -0.46875 1.1875 -0.46875 C 1.351562 -0.46875 1.484375 -0.492188 1.578125 -0.546875 C 1.671875 -0.597656 1.722656 -0.671875 1.734375 -0.765625 C 2.023438 -0.765625 2.171875 -0.710938 2.171875 -0.609375 C 2.171875 -0.523438 2.128906 -0.4375 2.046875 -0.34375 C 1.972656 -0.25 1.875 -0.171875 1.75 -0.109375 C 1.632812 -0.0546875 1.445312 -0.03125 1.1875 -0.03125 C 0.84375 -0.03125 0.578125 -0.140625 0.390625 -0.359375 C 0.210938 -0.578125 0.125 -0.910156 0.125 -1.359375 C 0.125 -1.816406 0.222656 -2.144531 0.421875 -2.34375 C 0.617188 -2.550781 0.875 -2.65625 1.1875 -2.65625 C 1.625 -2.65625 1.894531 -2.519531 2 -2.25 C 2.101562 -1.988281 2.15625 -1.78125 2.15625 -1.625 C 2.15625 -1.46875 2.09375 -1.351562 1.96875 -1.28125 Z M 0.640625 -1.1875 "/></g></g><g style="fill:rgb(0%,0%,0%);fill-opacity:1;"><g transform="translate(401.450941, 250.062407)"><path style="stroke:none;" d="M 1.515625 -2.109375 C 1.484375 -2.140625 1.414062 -2.15625 1.3125 -2.15625 C 1.207031 -2.15625 1.101562 -2.097656 1 -1.984375 C 0.894531 -1.867188 0.84375 -1.726562 0.84375 -1.5625 L 0.84375 -0.109375 C 0.695312 -0.0234375 0.585938 0.015625 0.515625 0.015625 C 0.429688 0.015625 0.367188 -0.0390625 0.328125 -0.15625 L 0.328125 -2.5625 C 0.410156 -2.625 0.472656 -2.65625 0.515625 -2.65625 C 0.597656 -2.65625 0.695312 -2.609375 0.8125 -2.515625 L 0.8125 -2.234375 C 1.03125 -2.503906 1.226562 -2.640625 1.40625 -2.640625 C 1.582031 -2.640625 1.75 -2.578125 1.90625 -2.453125 C 1.863281 -2.191406 1.800781 -2.0625 1.71875 -2.0625 C 1.613281 -2.0625 1.546875 -2.078125 1.515625 -2.109375 Z M 1.515625 -2.109375 "/></g></g><path style=" stroke:none;fill-rule:nonzero;fill:rgb(100%,96.469116%,73.329163%);fill-opacity:1;" d="M 465.421875 325.546875 C 465.449219 323.816406 465.210938 318.738281 465.210938 318.738281 C 465.210938 318.738281 460.9375 318.851562 457.019531 318.851562 C 456.667969 318.851562 453.875 318.851562 453.210938 318.851562 C 448.375 318.851562 438.789062 318.820312 436.039062 318.765625 C 432.570312 318.625 427.339844 318.398438 427.324219 318.722656 C 427.3125 319.046875 427.453125 323.28125 427.453125 323.28125 C 427.453125 323.28125 427.453125 347.589844 427.453125 349.714844 C 427.28125 352.429688 427.210938 356.566406 427.210938 356.566406 C 429.484375 356.90625 432.21875 356.988281 434.515625 356.960938 C 437.109375 356.960938 456.257812 356.960938 456.257812 356.960938 L 464.984375 356.808594 C 464.984375 356.808594 465.421875 349.027344 465.421875 347.632812 C 465.421875 345.707031 465.394531 327.304688 465.421875 325.546875 Z M 465.421875 325.546875 "/><path style=" stroke:none;fill-rule:nonzero;fill:rgb(91.758728%,18.429565%,23.919678%);fill-opacity:1;" d="M 432.570312 315.753906 C 432.570312 315.753906 443.257812 316.808594 444.582031 316.835938 L 449.558594 316.9375 L 449.546875 317.964844 C 449.546875 317.964844 449.84375 319.554688 449.828125 320.214844 L 449.800781 321.902344 C 449.800781 321.902344 443.089844 321.339844 441.425781 321.269531 C 437.941406 321.101562 432.386719 320.339844 432.386719 320.339844 L 432.261719 318.652344 L 432.796875 317.257812 Z M 432.570312 315.753906 "/><g style="fill:rgb(0%,0%,0%);fill-opacity:1;"><g transform="translate(437.60766, 337.343215)"><path style="stroke:none;" d="M 0.9375 -1.9375 L 1.5625 -1.984375 C 1.789062 -2.003906 1.9375 -2.054688 2 -2.140625 C 2.070312 -2.234375 2.109375 -2.347656 2.109375 -2.484375 C 2.109375 -2.597656 2.054688 -2.691406 1.953125 -2.765625 C 1.847656 -2.835938 1.664062 -2.878906 1.40625 -2.890625 L 0.9375 -2.875 Z M 0.390625 -3.375 L 1.328125 -3.375 C 1.773438 -3.363281 2.101562 -3.28125 2.3125 -3.125 C 2.53125 -2.976562 2.640625 -2.773438 2.640625 -2.515625 C 2.640625 -2.273438 2.566406 -2.050781 2.421875 -1.84375 C 2.285156 -1.644531 2.070312 -1.539062 1.78125 -1.53125 L 0.9375 -1.453125 L 0.9375 -0.0625 C 0.769531 -0.03125 0.648438 -0.015625 0.578125 -0.015625 C 0.484375 -0.015625 0.421875 -0.0664062 0.390625 -0.171875 Z M 0.390625 -3.375 "/></g><g transform="translate(440.405424, 337.343215)"><path style="stroke:none;" d="M 1.515625 -2.109375 C 1.484375 -2.140625 1.414062 -2.15625 1.3125 -2.15625 C 1.207031 -2.15625 1.101562 -2.097656 1 -1.984375 C 0.894531 -1.867188 0.84375 -1.726562 0.84375 -1.5625 L 0.84375 -0.109375 C 0.695312 -0.0234375 0.585938 0.015625 0.515625 0.015625 C 0.429688 0.015625 0.367188 -0.0390625 0.328125 -0.15625 L 0.328125 -2.5625 C 0.410156 -2.625 0.472656 -2.65625 0.515625 -2.65625 C 0.597656 -2.65625 0.695312 -2.609375 0.8125 -2.515625 L 0.8125 -2.234375 C 1.03125 -2.503906 1.226562 -2.640625 1.40625 -2.640625 C 1.582031 -2.640625 1.75 -2.578125 1.90625 -2.453125 C 1.863281 -2.191406 1.800781 -2.0625 1.71875 -2.0625 C 1.613281 -2.0625 1.546875 -2.078125 1.515625 -2.109375 Z M 1.515625 -2.109375 "/></g><g transform="translate(442.354791, 337.343215)"><path style="stroke:none;" d="M 0.125 -1.34375 C 0.125 -1.75 0.226562 -2.054688 0.4375 -2.265625 C 0.65625 -2.484375 0.898438 -2.59375 1.171875 -2.59375 C 1.429688 -2.59375 1.671875 -2.484375 1.890625 -2.265625 C 2.109375 -2.046875 2.21875 -1.738281 2.21875 -1.34375 C 2.21875 -0.945312 2.117188 -0.625 1.921875 -0.375 C 1.722656 -0.132812 1.472656 -0.015625 1.171875 -0.015625 C 0.878906 -0.015625 0.628906 -0.132812 0.421875 -0.375 C 0.222656 -0.613281 0.125 -0.9375 0.125 -1.34375 Z M 0.609375 -1.34375 C 0.609375 -1.113281 0.65625 -0.914062 0.75 -0.75 C 0.84375 -0.59375 0.984375 -0.515625 1.171875 -0.515625 C 1.367188 -0.515625 1.507812 -0.597656 1.59375 -0.765625 C 1.6875 -0.929688 1.734375 -1.125 1.734375 -1.34375 C 1.734375 -1.5625 1.675781 -1.742188 1.5625 -1.890625 C 1.457031 -2.046875 1.328125 -2.128906 1.171875 -2.140625 C 1.003906 -2.140625 0.867188 -2.0625 0.765625 -1.90625 C 0.660156 -1.757812 0.609375 -1.570312 0.609375 -1.34375 Z M 0.609375 -1.34375 "/></g><g transform="translate(444.741309, 337.343215)"><path style="stroke:none;" d="M 0.84375 -2.65625 C 1.144531 -2.65625 1.375 -2.648438 1.53125 -2.640625 C 1.695312 -2.628906 1.882812 -2.5 2.09375 -2.25 C 2.3125 -2 2.421875 -1.703125 2.421875 -1.359375 C 2.421875 -0.953125 2.347656 -0.628906 2.203125 -0.390625 C 2.066406 -0.148438 1.820312 -0.03125 1.46875 -0.03125 C 1.28125 -0.03125 1.070312 -0.148438 0.84375 -0.390625 L 0.84375 -0.109375 C 0.75 -0.046875 0.664062 -0.015625 0.59375 -0.015625 C 0.507812 -0.015625 0.441406 -0.0625 0.390625 -0.15625 L 0.390625 -3.34375 C 0.492188 -3.414062 0.59375 -3.453125 0.6875 -3.453125 C 0.78125 -3.453125 0.832031 -3.398438 0.84375 -3.296875 Z M 1.875 -1.359375 C 1.875 -1.617188 1.8125 -1.816406 1.6875 -1.953125 C 1.570312 -2.085938 1.414062 -2.15625 1.21875 -2.15625 L 0.859375 -2.15625 L 0.859375 -1.265625 C 0.859375 -1.023438 0.921875 -0.84375 1.046875 -0.71875 C 1.171875 -0.601562 1.3125 -0.546875 1.46875 -0.546875 C 1.632812 -0.546875 1.742188 -0.59375 1.796875 -0.6875 C 1.847656 -0.789062 1.875 -1.015625 1.875 -1.359375 Z M 1.875 -1.359375 "/></g><g transform="translate(447.348022, 337.343215)"><path style="stroke:none;" d="M 0.90625 -0.703125 C 0.90625 -0.628906 0.921875 -0.570312 0.953125 -0.53125 C 0.992188 -0.5 1.050781 -0.484375 1.125 -0.484375 C 1.207031 -0.359375 1.25 -0.253906 1.25 -0.171875 C 1.25 -0.0859375 1.203125 -0.03125 1.109375 0 C 0.828125 0 0.632812 -0.0625 0.53125 -0.1875 C 0.4375 -0.3125 0.390625 -0.457031 0.390625 -0.625 L 0.390625 -3.296875 C 0.523438 -3.390625 0.632812 -3.4375 0.71875 -3.4375 C 0.800781 -3.425781 0.863281 -3.367188 0.90625 -3.265625 Z M 0.90625 -0.703125 "/></g><g transform="translate(448.708045, 337.343215)"><path style="stroke:none;" d="M 0.640625 -1.625 L 1.671875 -1.6875 C 1.660156 -1.8125 1.628906 -1.929688 1.578125 -2.046875 C 1.523438 -2.171875 1.394531 -2.234375 1.1875 -2.234375 C 0.988281 -2.234375 0.847656 -2.171875 0.765625 -2.046875 C 0.679688 -1.929688 0.640625 -1.789062 0.640625 -1.625 Z M 0.640625 -1.1875 C 0.640625 -0.96875 0.675781 -0.789062 0.75 -0.65625 C 0.832031 -0.53125 0.976562 -0.46875 1.1875 -0.46875 C 1.351562 -0.46875 1.484375 -0.492188 1.578125 -0.546875 C 1.671875 -0.597656 1.722656 -0.671875 1.734375 -0.765625 C 2.023438 -0.765625 2.171875 -0.710938 2.171875 -0.609375 C 2.171875 -0.523438 2.128906 -0.4375 2.046875 -0.34375 C 1.972656 -0.25 1.875 -0.171875 1.75 -0.109375 C 1.632812 -0.0546875 1.445312 -0.03125 1.1875 -0.03125 C 0.84375 -0.03125 0.578125 -0.140625 0.390625 -0.359375 C 0.210938 -0.578125 0.125 -0.910156 0.125 -1.359375 C 0.125 -1.816406 0.222656 -2.144531 0.421875 -2.34375 C 0.617188 -2.550781 0.875 -2.65625 1.1875 -2.65625 C 1.625 -2.65625 1.894531 -2.519531 2 -2.25 C 2.101562 -1.988281 2.15625 -1.78125 2.15625 -1.625 C 2.15625 -1.46875 2.09375 -1.351562 1.96875 -1.28125 Z M 0.640625 -1.1875 "/></g><g transform="translate(451.042753, 337.343215)"><path style="stroke:none;" d="M 2.171875 -0.078125 C 2.023438 -0.015625 1.921875 0.015625 1.859375 0.015625 C 1.773438 0.015625 1.710938 -0.03125 1.671875 -0.125 L 1.671875 -1.5625 C 1.671875 -1.71875 1.65625 -1.851562 1.625 -1.96875 C 1.59375 -2.09375 1.503906 -2.15625 1.359375 -2.15625 C 1.179688 -2.15625 1.050781 -2.09375 0.96875 -1.96875 C 0.882812 -1.84375 0.84375 -1.707031 0.84375 -1.5625 L 0.84375 -0.078125 C 0.6875 -0.015625 0.570312 0.015625 0.5 0.015625 C 0.40625 0.015625 0.34375 -0.03125 0.3125 -0.125 L 0.3125 -2.515625 C 0.4375 -2.597656 0.535156 -2.640625 0.609375 -2.640625 C 0.691406 -2.640625 0.757812 -2.585938 0.8125 -2.484375 L 0.8125 -2.359375 C 1.007812 -2.523438 1.191406 -2.609375 1.359375 -2.609375 C 1.710938 -2.609375 1.9375 -2.445312 2.03125 -2.125 C 2.21875 -2.445312 2.460938 -2.609375 2.765625 -2.609375 C 2.953125 -2.609375 3.09375 -2.554688 3.1875 -2.453125 C 3.289062 -2.347656 3.347656 -2.191406 3.359375 -1.984375 L 3.453125 -0.078125 C 3.304688 -0.015625 3.195312 0.015625 3.125 0.015625 C 3.039062 0.015625 2.976562 -0.0195312 2.9375 -0.09375 L 2.859375 -1.75 C 2.847656 -1.875 2.820312 -1.972656 2.78125 -2.046875 C 2.75 -2.117188 2.6875 -2.15625 2.59375 -2.15625 C 2.46875 -2.15625 2.363281 -2.09375 2.28125 -1.96875 C 2.207031 -1.84375 2.171875 -1.707031 2.171875 -1.5625 Z M 2.171875 -0.078125 "/></g></g><g style="fill:rgb(0%,0%,0%);fill-opacity:1;"><g transform="translate(439.524541, 342.637071)"><path style="stroke:none;" d="M 0.140625 -0.734375 C 0.242188 -0.910156 0.335938 -1.003906 0.421875 -1.015625 C 0.503906 -1.003906 0.578125 -0.960938 0.640625 -0.890625 C 0.859375 -0.628906 1.125 -0.5 1.4375 -0.5 C 1.6875 -0.5 1.859375 -0.535156 1.953125 -0.609375 C 2.046875 -0.679688 2.09375 -0.804688 2.09375 -0.984375 C 2.09375 -1.117188 2.050781 -1.21875 1.96875 -1.28125 C 1.882812 -1.34375 1.707031 -1.414062 1.4375 -1.5 C 1.09375 -1.613281 0.816406 -1.738281 0.609375 -1.875 C 0.398438 -2.007812 0.296875 -2.207031 0.296875 -2.46875 C 0.296875 -2.75 0.421875 -2.972656 0.671875 -3.140625 C 0.921875 -3.316406 1.175781 -3.40625 1.4375 -3.40625 C 1.738281 -3.40625 1.960938 -3.363281 2.109375 -3.28125 C 2.265625 -3.207031 2.382812 -3.125 2.46875 -3.03125 C 2.570312 -2.914062 2.625 -2.820312 2.625 -2.75 C 2.625 -2.664062 2.484375 -2.597656 2.203125 -2.546875 C 2.078125 -2.710938 1.953125 -2.8125 1.828125 -2.84375 C 1.703125 -2.882812 1.5625 -2.90625 1.40625 -2.90625 C 1.195312 -2.894531 1.050781 -2.851562 0.96875 -2.78125 C 0.894531 -2.71875 0.859375 -2.613281 0.859375 -2.46875 C 0.859375 -2.394531 0.90625 -2.320312 1 -2.25 C 1.09375 -2.175781 1.242188 -2.109375 1.453125 -2.046875 C 1.847656 -1.941406 2.144531 -1.804688 2.34375 -1.640625 C 2.539062 -1.484375 2.640625 -1.265625 2.640625 -0.984375 C 2.640625 -0.691406 2.515625 -0.453125 2.265625 -0.265625 C 2.015625 -0.0859375 1.738281 0.00390625 1.4375 0.015625 C 0.96875 0.00390625 0.535156 -0.242188 0.140625 -0.734375 Z M 0.140625 -0.734375 "/></g><g transform="translate(442.309352, 342.637071)"><path style="stroke:none;" d="M 0.125 -1.34375 C 0.125 -1.75 0.226562 -2.054688 0.4375 -2.265625 C 0.65625 -2.484375 0.898438 -2.59375 1.171875 -2.59375 C 1.429688 -2.59375 1.671875 -2.484375 1.890625 -2.265625 C 2.109375 -2.046875 2.21875 -1.738281 2.21875 -1.34375 C 2.21875 -0.945312 2.117188 -0.625 1.921875 -0.375 C 1.722656 -0.132812 1.472656 -0.015625 1.171875 -0.015625 C 0.878906 -0.015625 0.628906 -0.132812 0.421875 -0.375 C 0.222656 -0.613281 0.125 -0.9375 0.125 -1.34375 Z M 0.609375 -1.34375 C 0.609375 -1.113281 0.65625 -0.914062 0.75 -0.75 C 0.84375 -0.59375 0.984375 -0.515625 1.171875 -0.515625 C 1.367188 -0.515625 1.507812 -0.597656 1.59375 -0.765625 C 1.6875 -0.929688 1.734375 -1.125 1.734375 -1.34375 C 1.734375 -1.5625 1.675781 -1.742188 1.5625 -1.890625 C 1.457031 -2.046875 1.328125 -2.128906 1.171875 -2.140625 C 1.003906 -2.140625 0.867188 -2.0625 0.765625 -1.90625 C 0.660156 -1.757812 0.609375 -1.570312 0.609375 -1.34375 Z M 0.609375 -1.34375 "/></g><g transform="translate(444.69587, 342.637071)"><path style="stroke:none;" d="M 0.90625 -0.703125 C 0.90625 -0.628906 0.921875 -0.570312 0.953125 -0.53125 C 0.992188 -0.5 1.050781 -0.484375 1.125 -0.484375 C 1.207031 -0.359375 1.25 -0.253906 1.25 -0.171875 C 1.25 -0.0859375 1.203125 -0.03125 1.109375 0 C 0.828125 0 0.632812 -0.0625 0.53125 -0.1875 C 0.4375 -0.3125 0.390625 -0.457031 0.390625 -0.625 L 0.390625 -3.296875 C 0.523438 -3.390625 0.632812 -3.4375 0.71875 -3.4375 C 0.800781 -3.425781 0.863281 -3.367188 0.90625 -3.265625 Z M 0.90625 -0.703125 "/></g><g transform="translate(446.055894, 342.637071)"><path style="stroke:none;" d="M 0.9375 -0.140625 L 0.09375 -2.546875 C 0.25 -2.617188 0.367188 -2.65625 0.453125 -2.65625 C 0.546875 -2.65625 0.613281 -2.609375 0.65625 -2.515625 L 1.265625 -0.78125 L 1.875 -2.546875 C 2.03125 -2.617188 2.140625 -2.65625 2.203125 -2.65625 C 2.296875 -2.65625 2.359375 -2.597656 2.390625 -2.484375 L 1.5625 -0.09375 C 1.34375 -0.0507812 1.195312 -0.03125 1.125 -0.03125 C 1.050781 -0.03125 0.988281 -0.0664062 0.9375 -0.140625 Z M 0.9375 -0.140625 "/></g><g transform="translate(448.601081, 342.637071)"><path style="stroke:none;" d="M 0.640625 -1.625 L 1.671875 -1.6875 C 1.660156 -1.8125 1.628906 -1.929688 1.578125 -2.046875 C 1.523438 -2.171875 1.394531 -2.234375 1.1875 -2.234375 C 0.988281 -2.234375 0.847656 -2.171875 0.765625 -2.046875 C 0.679688 -1.929688 0.640625 -1.789062 0.640625 -1.625 Z M 0.640625 -1.1875 C 0.640625 -0.96875 0.675781 -0.789062 0.75 -0.65625 C 0.832031 -0.53125 0.976562 -0.46875 1.1875 -0.46875 C 1.351562 -0.46875 1.484375 -0.492188 1.578125 -0.546875 C 1.671875 -0.597656 1.722656 -0.671875 1.734375 -0.765625 C 2.023438 -0.765625 2.171875 -0.710938 2.171875 -0.609375 C 2.171875 -0.523438 2.128906 -0.4375 2.046875 -0.34375 C 1.972656 -0.25 1.875 -0.171875 1.75 -0.109375 C 1.632812 -0.0546875 1.445312 -0.03125 1.1875 -0.03125 C 0.84375 -0.03125 0.578125 -0.140625 0.390625 -0.359375 C 0.210938 -0.578125 0.125 -0.910156 0.125 -1.359375 C 0.125 -1.816406 0.222656 -2.144531 0.421875 -2.34375 C 0.617188 -2.550781 0.875 -2.65625 1.1875 -2.65625 C 1.625 -2.65625 1.894531 -2.519531 2 -2.25 C 2.101562 -1.988281 2.15625 -1.78125 2.15625 -1.625 C 2.15625 -1.46875 2.09375 -1.351562 1.96875 -1.28125 Z M 0.640625 -1.1875 "/></g><g transform="translate(450.935789, 342.637071)"><path style="stroke:none;" d="M 1.515625 -2.109375 C 1.484375 -2.140625 1.414062 -2.15625 1.3125 -2.15625 C 1.207031 -2.15625 1.101562 -2.097656 1 -1.984375 C 0.894531 -1.867188 0.84375 -1.726562 0.84375 -1.5625 L 0.84375 -0.109375 C 0.695312 -0.0234375 0.585938 0.015625 0.515625 0.015625 C 0.429688 0.015625 0.367188 -0.0390625 0.328125 -0.15625 L 0.328125 -2.5625 C 0.410156 -2.625 0.472656 -2.65625 0.515625 -2.65625 C 0.597656 -2.65625 0.695312 -2.609375 0.8125 -2.515625 L 0.8125 -2.234375 C 1.03125 -2.503906 1.226562 -2.640625 1.40625 -2.640625 C 1.582031 -2.640625 1.75 -2.578125 1.90625 -2.453125 C 1.863281 -2.191406 1.800781 -2.0625 1.71875 -2.0625 C 1.613281 -2.0625 1.546875 -2.078125 1.515625 -2.109375 Z M 1.515625 -2.109375 "/></g></g><path style=" stroke:none;fill-rule:nonzero;fill:rgb(100%,86.268616%,36.468506%);fill-opacity:1;" d="M 632.863281 280.777344 C 632.804688 279.050781 632.300781 273.988281 632.300781 273.988281 C 632.300781 273.988281 628.042969 274.320312 624.128906 274.523438 C 623.773438 274.542969 620.988281 274.6875 620.324219 274.722656 C 615.496094 274.972656 605.917969 275.4375 603.171875 275.523438 C 599.699219 275.5625 594.464844 275.609375 594.464844 275.933594 C 594.46875 276.253906 594.828125 280.476562 594.828125 280.476562 C 594.828125 280.476562 596.085938 304.753906 596.195312 306.875 C 596.164062 309.597656 596.308594 313.730469 596.308594 313.730469 C 598.59375 313.953125 601.328125 313.894531 603.621094 313.746094 C 606.214844 313.613281 625.335938 312.625 625.335938 312.625 L 634.042969 312.019531 C 634.042969 312.019531 634.078125 304.226562 634.003906 302.835938 C 633.90625 300.910156 632.925781 282.539062 632.863281 280.777344 Z M 632.863281 280.777344 "/><path style=" stroke:none;fill-rule:nonzero;fill:rgb(62.348938%,54.508972%,100%);fill-opacity:1;" d="M 599.550781 272.695312 C 599.550781 272.695312 610.277344 273.199219 611.605469 273.15625 L 616.578125 273 L 616.617188 274.023438 C 616.617188 274.023438 616.996094 275.597656 617.015625 276.257812 L 617.074219 277.945312 C 617.074219 277.945312 610.34375 277.730469 608.679688 277.746094 C 605.191406 277.757812 599.605469 277.285156 599.605469 277.285156 L 599.390625 275.605469 L 599.855469 274.1875 Z M 599.550781 272.695312 "/><g style="fill:rgb(0%,0%,0%);fill-opacity:1;"><g transform="translate(606.841601, 293.936848)"><path style="stroke:none;" d="M 2.796875 -0.828125 C 2.785156 -0.703125 2.675781 -0.550781 2.46875 -0.375 C 2.269531 -0.207031 2.015625 -0.117188 1.703125 -0.109375 C 1.203125 -0.0859375 0.816406 -0.222656 0.546875 -0.515625 C 0.273438 -0.804688 0.125 -1.207031 0.09375 -1.71875 C 0.0703125 -2.1875 0.191406 -2.59375 0.453125 -2.9375 C 0.722656 -3.28125 1.082031 -3.46875 1.53125 -3.5 C 1.851562 -3.507812 2.195312 -3.390625 2.5625 -3.140625 C 2.59375 -3.097656 2.640625 -3.046875 2.703125 -2.984375 C 2.617188 -2.773438 2.53125 -2.664062 2.4375 -2.65625 C 2.375 -2.65625 2.3125 -2.671875 2.25 -2.703125 C 2.007812 -2.847656 1.78125 -2.914062 1.5625 -2.90625 C 1.257812 -2.882812 1.03125 -2.769531 0.875 -2.5625 C 0.71875 -2.363281 0.644531 -2.085938 0.65625 -1.734375 C 0.675781 -1.328125 0.773438 -1.039062 0.953125 -0.875 C 1.140625 -0.707031 1.378906 -0.632812 1.671875 -0.65625 C 1.921875 -0.664062 2.085938 -0.71875 2.171875 -0.8125 C 2.253906 -0.90625 2.320312 -0.984375 2.375 -1.046875 C 2.644531 -1.046875 2.785156 -0.972656 2.796875 -0.828125 Z M 2.796875 -0.828125 "/></g><g transform="translate(609.836128, 293.781984)"><path style="stroke:none;" d="M 1.40625 -2.1875 C 1.375 -2.21875 1.304688 -2.226562 1.203125 -2.21875 C 1.097656 -2.21875 0.992188 -2.15625 0.890625 -2.03125 C 0.796875 -1.914062 0.753906 -1.773438 0.765625 -1.609375 L 0.84375 -0.15625 C 0.695312 -0.0625 0.585938 -0.015625 0.515625 -0.015625 C 0.429688 -0.00390625 0.363281 -0.0546875 0.3125 -0.171875 L 0.203125 -2.578125 C 0.273438 -2.640625 0.332031 -2.675781 0.375 -2.6875 C 0.457031 -2.6875 0.5625 -2.644531 0.6875 -2.5625 L 0.703125 -2.28125 C 0.898438 -2.5625 1.085938 -2.707031 1.265625 -2.71875 C 1.441406 -2.726562 1.613281 -2.671875 1.78125 -2.546875 C 1.75 -2.285156 1.691406 -2.15625 1.609375 -2.15625 C 1.503906 -2.144531 1.4375 -2.15625 1.40625 -2.1875 Z M 1.40625 -2.1875 "/></g><g transform="translate(611.782894, 293.681306)"><path style="stroke:none;" d="M 0.15625 -3.125 C 0.144531 -3.207031 0.171875 -3.265625 0.234375 -3.296875 C 0.304688 -3.328125 0.367188 -3.34375 0.421875 -3.34375 C 0.484375 -3.34375 0.53125 -3.332031 0.5625 -3.3125 C 0.601562 -3.300781 0.628906 -3.25 0.640625 -3.15625 C 0.640625 -3.09375 0.613281 -3.035156 0.5625 -2.984375 C 0.519531 -2.941406 0.445312 -2.921875 0.34375 -2.921875 C 0.269531 -2.910156 0.21875 -2.925781 0.1875 -2.96875 C 0.164062 -3.007812 0.15625 -3.0625 0.15625 -3.125 Z M 0.1875 -2.546875 C 0.300781 -2.609375 0.40625 -2.640625 0.5 -2.640625 C 0.582031 -2.648438 0.65625 -2.617188 0.71875 -2.546875 L 0.84375 -0.15625 C 0.726562 -0.0625 0.625 -0.015625 0.53125 -0.015625 C 0.4375 -0.00390625 0.359375 -0.0546875 0.296875 -0.171875 Z M 0.1875 -2.546875 "/></g></g><g style="fill:rgb(0%,0%,0%);fill-opacity:1;"><g transform="translate(612.917968, 293.622605)"><path style="stroke:none;" d="M 0.40625 -2.171875 L 0.109375 -2.15625 C 0.015625 -2.28125 -0.03125 -2.382812 -0.03125 -2.46875 C -0.0390625 -2.539062 0.00390625 -2.597656 0.109375 -2.640625 L 0.375 -2.65625 L 0.359375 -3.125 C 0.503906 -3.15625 0.613281 -3.175781 0.6875 -3.1875 C 0.757812 -3.1875 0.828125 -3.15625 0.890625 -3.09375 L 0.90625 -2.671875 L 1.3125 -2.703125 C 1.375 -2.578125 1.40625 -2.488281 1.40625 -2.4375 C 1.414062 -2.34375 1.378906 -2.269531 1.296875 -2.21875 L 0.9375 -2.1875 L 1.015625 -0.78125 C 1.015625 -0.613281 1.082031 -0.535156 1.21875 -0.546875 L 1.421875 -0.5625 C 1.492188 -0.425781 1.53125 -0.316406 1.53125 -0.234375 C 1.539062 -0.160156 1.503906 -0.101562 1.421875 -0.0625 L 1.21875 -0.046875 C 0.945312 -0.0351562 0.753906 -0.113281 0.640625 -0.28125 C 0.535156 -0.445312 0.484375 -0.609375 0.484375 -0.765625 Z M 0.40625 -2.171875 "/></g></g><g style="fill:rgb(0%,0%,0%);fill-opacity:1;"><g transform="translate(614.567222, 293.537313)"><path style="stroke:none;" d="M 0.15625 -3.125 C 0.144531 -3.207031 0.171875 -3.265625 0.234375 -3.296875 C 0.304688 -3.328125 0.367188 -3.34375 0.421875 -3.34375 C 0.484375 -3.34375 0.53125 -3.332031 0.5625 -3.3125 C 0.601562 -3.300781 0.628906 -3.25 0.640625 -3.15625 C 0.640625 -3.09375 0.613281 -3.035156 0.5625 -2.984375 C 0.519531 -2.941406 0.445312 -2.921875 0.34375 -2.921875 C 0.269531 -2.910156 0.21875 -2.925781 0.1875 -2.96875 C 0.164062 -3.007812 0.15625 -3.0625 0.15625 -3.125 Z M 0.1875 -2.546875 C 0.300781 -2.609375 0.40625 -2.640625 0.5 -2.640625 C 0.582031 -2.648438 0.65625 -2.617188 0.71875 -2.546875 L 0.84375 -0.15625 C 0.726562 -0.0625 0.625 -0.015625 0.53125 -0.015625 C 0.4375 -0.00390625 0.359375 -0.0546875 0.296875 -0.171875 Z M 0.1875 -2.546875 "/></g></g><g style="fill:rgb(0%,0%,0%);fill-opacity:1;"><g transform="translate(615.702297, 293.478612)"><path style="stroke:none;" d="M 1.9375 -2.34375 C 1.925781 -2.101562 1.875 -1.976562 1.78125 -1.96875 C 1.6875 -1.96875 1.609375 -1.992188 1.546875 -2.046875 C 1.472656 -2.117188 1.414062 -2.164062 1.375 -2.1875 C 1.34375 -2.207031 1.265625 -2.210938 1.140625 -2.203125 C 0.984375 -2.191406 0.847656 -2.113281 0.734375 -1.96875 C 0.617188 -1.820312 0.570312 -1.628906 0.59375 -1.390625 C 0.601562 -1.085938 0.660156 -0.875 0.765625 -0.75 C 0.867188 -0.625 1.015625 -0.566406 1.203125 -0.578125 C 1.398438 -0.585938 1.554688 -0.648438 1.671875 -0.765625 C 1.742188 -0.835938 1.816406 -0.875 1.890625 -0.875 C 1.972656 -0.882812 2.050781 -0.769531 2.125 -0.53125 C 1.8125 -0.238281 1.515625 -0.0859375 1.234375 -0.078125 C 0.878906 -0.0546875 0.597656 -0.179688 0.390625 -0.453125 C 0.179688 -0.722656 0.0703125 -1.023438 0.0625 -1.359375 C 0.0390625 -1.742188 0.140625 -2.0625 0.359375 -2.3125 C 0.578125 -2.570312 0.828125 -2.707031 1.109375 -2.71875 C 1.335938 -2.726562 1.503906 -2.695312 1.609375 -2.625 C 1.722656 -2.5625 1.832031 -2.46875 1.9375 -2.34375 Z M 1.9375 -2.34375 "/></g></g><g style="fill:rgb(0%,0%,0%);fill-opacity:1;"><g transform="translate(617.943342, 293.362715)"><path style="stroke:none;" d="M 1.984375 -2.75 L 2.125 -0.25 C 2.019531 -0.175781 1.9375 -0.132812 1.875 -0.125 C 1.789062 -0.125 1.71875 -0.164062 1.65625 -0.25 L 1.65625 -0.46875 C 1.457031 -0.21875 1.253906 -0.0859375 1.046875 -0.078125 C 0.691406 -0.0664062 0.441406 -0.195312 0.296875 -0.46875 C 0.148438 -0.75 0.0703125 -1.046875 0.0625 -1.359375 C 0.0390625 -1.691406 0.113281 -1.992188 0.28125 -2.265625 C 0.445312 -2.535156 0.640625 -2.679688 0.859375 -2.703125 Z M 0.5625 -1.390625 C 0.570312 -1.171875 0.613281 -0.96875 0.6875 -0.78125 C 0.769531 -0.601562 0.898438 -0.519531 1.078125 -0.53125 C 1.234375 -0.570312 1.363281 -0.648438 1.46875 -0.765625 C 1.582031 -0.878906 1.632812 -1.050781 1.625 -1.28125 L 1.578125 -2.28125 L 1.046875 -2.25 C 0.847656 -2.226562 0.710938 -2.128906 0.640625 -1.953125 C 0.578125 -1.773438 0.550781 -1.585938 0.5625 -1.390625 Z M 0.5625 -1.390625 "/></g><g transform="translate(620.365481, 293.237452)"><path style="stroke:none;" d="M 0.875 -0.75 C 0.875 -0.675781 0.890625 -0.617188 0.921875 -0.578125 C 0.960938 -0.546875 1.019531 -0.535156 1.09375 -0.546875 C 1.1875 -0.421875 1.234375 -0.316406 1.234375 -0.234375 C 1.242188 -0.148438 1.203125 -0.09375 1.109375 -0.0625 C 0.828125 -0.0390625 0.632812 -0.0859375 0.53125 -0.203125 C 0.425781 -0.328125 0.367188 -0.472656 0.359375 -0.640625 L 0.21875 -3.3125 C 0.351562 -3.414062 0.460938 -3.46875 0.546875 -3.46875 C 0.628906 -3.46875 0.691406 -3.414062 0.734375 -3.3125 Z M 0.875 -0.75 "/></g></g><g style="fill:rgb(0%,0%,0%);fill-opacity:1;"><g transform="translate(606.429454, 299.259092)"><path style="stroke:none;" d="M 0.078125 -3.375 L 2.6875 -3.5 C 2.789062 -3.34375 2.84375 -3.222656 2.84375 -3.140625 C 2.851562 -3.023438 2.796875 -2.960938 2.671875 -2.953125 L 1.671875 -2.90625 L 1.8125 -0.171875 C 1.695312 -0.117188 1.582031 -0.09375 1.46875 -0.09375 C 1.375 -0.0820312 1.304688 -0.113281 1.265625 -0.1875 L 1.125 -2.875 L 0.078125 -2.828125 C -0.0351562 -2.960938 -0.09375 -3.070312 -0.09375 -3.15625 C -0.101562 -3.238281 -0.046875 -3.3125 0.078125 -3.375 Z M 0.078125 -3.375 "/></g><g transform="translate(609.488658, 299.100883)"><path style="stroke:none;" d="M 0.921875 -0.09375 C 0.785156 -0.0390625 0.679688 -0.015625 0.609375 -0.015625 C 0.515625 -0.015625 0.441406 -0.046875 0.390625 -0.109375 L 0.21875 -3.375 C 0.363281 -3.425781 0.472656 -3.457031 0.546875 -3.46875 C 0.628906 -3.476562 0.695312 -3.441406 0.75 -3.359375 L 0.796875 -2.390625 C 0.992188 -2.597656 1.191406 -2.707031 1.390625 -2.71875 C 1.566406 -2.726562 1.726562 -2.691406 1.875 -2.609375 C 2.019531 -2.523438 2.097656 -2.382812 2.109375 -2.1875 L 2.328125 -0.171875 C 2.179688 -0.117188 2.070312 -0.09375 2 -0.09375 C 1.925781 -0.0820312 1.863281 -0.113281 1.8125 -0.1875 L 1.609375 -1.984375 C 1.546875 -2.171875 1.453125 -2.265625 1.328125 -2.265625 C 1.179688 -2.253906 1.0625 -2.1875 0.96875 -2.0625 C 0.875 -1.9375 0.832031 -1.800781 0.84375 -1.65625 Z M 0.921875 -0.09375 "/></g></g><g style="fill:rgb(0%,0%,0%);fill-opacity:1;"><g transform="translate(612.111294, 298.965252)"><path style="stroke:none;" d="M 0.15625 -3.125 C 0.144531 -3.207031 0.171875 -3.265625 0.234375 -3.296875 C 0.304688 -3.328125 0.367188 -3.34375 0.421875 -3.34375 C 0.484375 -3.34375 0.53125 -3.332031 0.5625 -3.3125 C 0.601562 -3.300781 0.628906 -3.25 0.640625 -3.15625 C 0.640625 -3.09375 0.613281 -3.035156 0.5625 -2.984375 C 0.519531 -2.941406 0.445312 -2.921875 0.34375 -2.921875 C 0.269531 -2.910156 0.21875 -2.925781 0.1875 -2.96875 C 0.164062 -3.007812 0.15625 -3.0625 0.15625 -3.125 Z M 0.1875 -2.546875 C 0.300781 -2.609375 0.40625 -2.640625 0.5 -2.640625 C 0.582031 -2.648438 0.65625 -2.617188 0.71875 -2.546875 L 0.84375 -0.15625 C 0.726562 -0.0625 0.625 -0.015625 0.53125 -0.015625 C 0.4375 -0.00390625 0.359375 -0.0546875 0.296875 -0.171875 Z M 0.1875 -2.546875 "/></g></g><g style="fill:rgb(0%,0%,0%);fill-opacity:1;"><g transform="translate(613.246368, 298.906551)"><path style="stroke:none;" d="M 0.84375 -0.171875 C 0.8125 -0.078125 0.75 -0.0234375 0.65625 -0.015625 C 0.582031 -0.015625 0.46875 -0.046875 0.3125 -0.109375 L 0.1875 -2.578125 C 0.269531 -2.628906 0.351562 -2.660156 0.4375 -2.671875 C 0.507812 -2.671875 0.578125 -2.628906 0.640625 -2.546875 L 0.640625 -2.40625 C 0.804688 -2.59375 1 -2.691406 1.21875 -2.703125 C 1.445312 -2.722656 1.632812 -2.703125 1.78125 -2.640625 C 1.925781 -2.585938 2.03125 -2.378906 2.09375 -2.015625 L 2.28125 -0.25 C 2.25 -0.144531 2.1875 -0.09375 2.09375 -0.09375 C 2.007812 -0.09375 1.898438 -0.140625 1.765625 -0.234375 L 1.578125 -1.9375 C 1.554688 -2.050781 1.515625 -2.128906 1.453125 -2.171875 C 1.398438 -2.210938 1.3125 -2.226562 1.1875 -2.21875 C 1.070312 -2.21875 0.96875 -2.15625 0.875 -2.03125 C 0.789062 -1.914062 0.753906 -1.785156 0.765625 -1.640625 Z M 0.84375 -0.171875 "/></g></g><g style="fill:rgb(0%,0%,0%);fill-opacity:1;"><g transform="translate(615.820497, 298.773429)"><path style="stroke:none;" d="M 1.234375 -1.59375 L 2.46875 -0.359375 C 2.445312 -0.203125 2.390625 -0.125 2.296875 -0.125 C 2.210938 -0.113281 2.117188 -0.140625 2.015625 -0.203125 L 0.953125 -1.234375 L 0.84375 -1.140625 L 0.90625 -0.125 C 0.75 -0.0507812 0.640625 -0.015625 0.578125 -0.015625 C 0.472656 -0.00390625 0.410156 -0.046875 0.390625 -0.140625 L 0.21875 -3.34375 C 0.363281 -3.425781 0.476562 -3.46875 0.5625 -3.46875 C 0.644531 -3.476562 0.703125 -3.441406 0.734375 -3.359375 L 0.8125 -1.765625 L 1.59375 -2.65625 C 1.695312 -2.71875 1.796875 -2.753906 1.890625 -2.765625 C 1.984375 -2.765625 2.046875 -2.703125 2.078125 -2.578125 Z M 1.234375 -1.59375 "/></g><g transform="translate(618.404328, 298.639804)"><path style="stroke:none;" d="M 0.5625 -1.65625 L 1.578125 -1.78125 C 1.566406 -1.894531 1.53125 -2.007812 1.46875 -2.125 C 1.414062 -2.25 1.285156 -2.304688 1.078125 -2.296875 C 0.878906 -2.285156 0.738281 -2.21875 0.65625 -2.09375 C 0.582031 -1.96875 0.550781 -1.820312 0.5625 -1.65625 Z M 0.578125 -1.21875 C 0.585938 -1 0.632812 -0.828125 0.71875 -0.703125 C 0.800781 -0.578125 0.945312 -0.519531 1.15625 -0.53125 C 1.320312 -0.539062 1.453125 -0.570312 1.546875 -0.625 C 1.640625 -0.6875 1.6875 -0.765625 1.6875 -0.859375 C 1.976562 -0.867188 2.128906 -0.820312 2.140625 -0.71875 C 2.140625 -0.632812 2.101562 -0.539062 2.03125 -0.4375 C 1.957031 -0.34375 1.863281 -0.265625 1.75 -0.203125 C 1.632812 -0.140625 1.445312 -0.101562 1.1875 -0.09375 C 0.84375 -0.0703125 0.570312 -0.164062 0.375 -0.375 C 0.1875 -0.582031 0.0820312 -0.910156 0.0625 -1.359375 C 0.03125 -1.816406 0.109375 -2.148438 0.296875 -2.359375 C 0.484375 -2.578125 0.734375 -2.695312 1.046875 -2.71875 C 1.484375 -2.738281 1.757812 -2.617188 1.875 -2.359375 C 2 -2.097656 2.066406 -1.890625 2.078125 -1.734375 C 2.078125 -1.578125 2.019531 -1.460938 1.90625 -1.390625 Z M 0.578125 -1.21875 "/></g></g><g style="fill:rgb(0%,0%,0%);fill-opacity:1;"><g transform="translate(620.735919, 298.519225)"><path style="stroke:none;" d="M 1.40625 -2.1875 C 1.375 -2.21875 1.304688 -2.226562 1.203125 -2.21875 C 1.097656 -2.21875 0.992188 -2.15625 0.890625 -2.03125 C 0.796875 -1.914062 0.753906 -1.773438 0.765625 -1.609375 L 0.84375 -0.15625 C 0.695312 -0.0625 0.585938 -0.015625 0.515625 -0.015625 C 0.429688 -0.00390625 0.363281 -0.0546875 0.3125 -0.171875 L 0.203125 -2.578125 C 0.273438 -2.640625 0.332031 -2.675781 0.375 -2.6875 C 0.457031 -2.6875 0.5625 -2.644531 0.6875 -2.5625 L 0.703125 -2.28125 C 0.898438 -2.5625 1.085938 -2.707031 1.265625 -2.71875 C 1.441406 -2.726562 1.613281 -2.671875 1.78125 -2.546875 C 1.75 -2.285156 1.691406 -2.15625 1.609375 -2.15625 C 1.503906 -2.144531 1.4375 -2.15625 1.40625 -2.1875 Z M 1.40625 -2.1875 "/></g></g><g clip-rule="nonzero" clip-path="url(#clip1)"><path style=" stroke:none;fill-rule:nonzero;fill:rgb(9.01947%,9.01947%,9.01947%);fill-opacity:1;" d="M 532.796875 119.054688 C 528.390625 111.488281 522.898438 102.070312 513.746094 100.9375 C 503.097656 99.625 489.703125 107.554688 486.597656 114.726562 C 483.203125 122.5625 483.71875 127.789062 484.75 130.796875 C 484.855469 131.09375 485.179688 131.257812 485.484375 131.152344 C 485.632812 131.101562 485.75 130.996094 485.816406 130.863281 L 492.648438 134.21875 L 487.289062 133.589844 C 487.132812 133.570312 486.96875 133.621094 486.84375 133.722656 C 486.722656 133.828125 486.652344 133.980469 486.644531 134.140625 C 486.640625 134.191406 486.449219 139.414062 486.355469 146.542969 C 486.25 154.609375 489.746094 158.886719 498.058594 160.84375 C 498.902344 161.042969 499.78125 161.136719 500.675781 161.136719 C 508.972656 161.136719 518.597656 153.316406 519.046875 152.949219 C 519.265625 152.765625 519.320312 152.457031 519.179688 152.210938 L 515.027344 145.207031 L 526.441406 150.8125 C 526.367188 150.96875 526.351562 151.148438 526.433594 151.3125 C 526.535156 151.519531 526.738281 151.640625 526.953125 151.640625 C 527.039062 151.640625 527.121094 151.621094 527.203125 151.582031 C 527.421875 151.476562 532.621094 148.914062 536.128906 141.613281 C 539.703125 134.179688 539.367188 129.976562 534.566406 122.050781 C 533.992188 121.101562 533.40625 120.097656 532.796875 119.054688 Z M 512.546875 457.089844 L 482.246094 472.644531 C 482.21875 472.65625 482.195312 472.671875 482.175781 472.6875 L 475.945312 477.082031 C 475.753906 477.21875 475.664062 477.457031 475.71875 477.683594 C 475.769531 477.914062 475.957031 478.085938 476.1875 478.121094 C 476.402344 478.15625 479.550781 478.648438 483.671875 478.648438 C 486.367188 478.648438 489.472656 478.4375 492.449219 477.753906 C 499.851562 476.050781 506.582031 474.886719 506.613281 474.878906 C 510.023438 474.519531 512.628906 471.777344 512.8125 468.355469 L 513.386719 457.632812 C 513.398438 457.425781 513.296875 457.230469 513.125 457.117188 C 512.953125 457.003906 512.730469 456.992188 512.546875 457.089844 Z M 601.5625 483.742188 C 601.476562 483.960938 601.265625 484.105469 601.027344 484.105469 C 601.007812 484.105469 600.988281 484.105469 600.964844 484.101562 C 587.488281 482.671875 570.019531 476.21875 569.839844 476.152344 C 567.824219 475.464844 566.332031 473.71875 565.972656 471.601562 L 564.480469 462.882812 C 564.445312 462.667969 564.53125 462.449219 564.707031 462.320312 C 564.886719 462.191406 565.121094 462.175781 565.316406 462.273438 L 592.636719 476.488281 C 592.664062 476.503906 592.691406 476.519531 592.71875 476.535156 L 601.375 483.066406 C 601.582031 483.226562 601.660156 483.5 601.5625 483.742188 "/></g><path style=" stroke:none;fill-rule:nonzero;fill:rgb(100%,69.799805%,11.369324%);fill-opacity:1;" d="M 525.707031 147.980469 C 525.242188 146.703125 524.933594 145.214844 524.933594 143.476562 C 524.933594 143.476562 521.757812 143.09375 516.277344 135.699219 C 516.117188 135.488281 515.953125 135.265625 515.785156 135.039062 C 513.671875 137.808594 513.804688 142.632812 515.988281 146.070312 C 517.894531 149.074219 523.265625 148.445312 525.707031 147.980469 Z M 494.628906 152.695312 C 499.726562 155.863281 503.960938 150.390625 503.960938 150.390625 L 492.800781 142.519531 C 492.800781 142.519531 489.53125 149.527344 494.628906 152.695312 Z M 564.472656 236.339844 C 557.160156 243.636719 549.269531 241.140625 549.269531 241.140625 L 550.234375 244.3125 L 481.738281 232.5 L 493.667969 201.574219 C 493.667969 201.574219 458.460938 223.28125 449.800781 211.566406 C 441.140625 199.847656 448.261719 189.285156 461.730469 176.414062 C 475.195312 163.546875 505.210938 156.824219 505.210938 156.824219 L 516.753906 177.375 L 530.800781 152.792969 C 530.800781 152.792969 530.800781 152.792969 545.808594 161.433594 C 560.816406 170.078125 564.472656 181.023438 567.933594 197.542969 C 571.394531 214.0625 571.78125 229.042969 564.472656 236.339844 "/><path style=" stroke:none;fill-rule:nonzero;fill:rgb(100%,100%,100%);fill-opacity:1;" d="M 515.988281 146.070312 C 517.894531 149.074219 523.265625 148.445312 525.707031 147.980469 C 525.242188 146.703125 524.933594 145.214844 524.933594 143.476562 C 524.933594 143.476562 521.757812 143.09375 516.277344 135.699219 C 516.117188 135.488281 515.953125 135.265625 515.785156 135.039062 C 513.671875 137.808594 513.804688 142.632812 515.988281 146.070312 Z M 494.148438 147.316406 C 491.164062 141.652344 485.296875 130.605469 485.296875 130.605469 C 486.453125 120.429688 499.535156 111.976562 499.535156 111.976562 C 499.535156 111.976562 511.273438 128.113281 516.753906 135.503906 C 522.238281 142.898438 525.414062 143.285156 525.414062 143.285156 C 525.414062 150.582031 530.800781 153.65625 530.800781 153.65625 L 516.707031 177.570312 L 505.210938 157.402344 C 511.082031 155.671875 509.925781 150.101562 509.925781 150.101562 C 509.925781 150.101562 509.925781 150.101562 506.558594 151.734375 C 503.191406 153.367188 497.132812 152.984375 494.148438 147.316406 Z M 482.507812 473.15625 C 482.507812 473.15625 504.730469 466.242188 508.480469 465.382812 C 512.234375 464.515625 512.8125 457.601562 512.8125 457.601562 L 514.546875 433.542969 L 498.476562 438.585938 C 498.476562 438.585938 499.246094 442.90625 500.976562 450.972656 C 502.710938 459.042969 482.507812 473.15625 482.507812 473.15625 Z M 578.132812 458.945312 C 576.980469 449.726562 575.824219 441.65625 575.824219 441.65625 C 575.824219 441.65625 563.125 276.097656 549.269531 243.445312 L 482.699219 231.921875 C 482.699219 231.921875 470.386719 251.898438 471.539062 279.554688 C 472.695312 307.210938 498.476562 438.585938 498.476562 438.585938 L 519.992188 431.785156 C 519.992188 431.785156 517.71875 392.492188 518.101562 376.355469 C 518.484375 360.222656 511.175781 327.1875 515.40625 301.066406 L 551.195312 430.90625 L 558.640625 434.152344 C 559.246094 436.746094 561.820312 447.785156 563.507812 455.871094 C 565.433594 465.089844 564.664062 466.625 573.128906 469.699219 C 581.59375 472.773438 592.367188 476.996094 592.367188 476.996094 C 592.367188 476.996094 579.285156 468.164062 578.132812 458.945312 Z M 482.507812 196.003906 C 485.78125 196.390625 486.933594 199.464844 492.898438 199.847656 C 497.863281 200.167969 506.964844 197.292969 509.980469 194.65625 C 510.589844 194.128906 510.191406 193.125 509.386719 193.125 L 479.933594 193.125 C 479.117188 193.125 478.722656 194.140625 479.339844 194.667969 C 480.039062 195.261719 481.066406 195.839844 482.507812 196.003906 Z M 536.378906 186.980469 C 541.574219 193.316406 554.46875 209.066406 554.46875 209.066406 L 547.539062 234.417969 L 524.453125 186.210938 L 512.328125 189.476562 L 502.132812 189.476562 C 502.132812 189.476562 512.136719 179.683594 519.257812 178.335938 C 526.375 176.992188 531.183594 180.644531 536.378906 186.980469 "/><path style=" stroke:none;fill-rule:nonzero;fill:rgb(9.01947%,9.01947%,9.01947%);fill-opacity:1;" d="M 492.128906 136.273438 C 492.472656 136.273438 492.753906 135.996094 492.753906 135.648438 C 492.753906 135.304688 492.472656 135.027344 492.128906 135.027344 C 491.78125 135.027344 491.503906 135.304688 491.503906 135.648438 C 491.503906 135.996094 491.78125 136.273438 492.128906 136.273438 Z M 500.738281 134.164062 C 501.082031 134.164062 501.363281 133.882812 501.363281 133.539062 C 501.363281 133.191406 501.082031 132.914062 500.738281 132.914062 C 500.390625 132.914062 500.113281 133.191406 500.113281 133.539062 C 500.113281 133.882812 500.390625 134.164062 500.738281 134.164062 Z M 517.429688 193.125 L 442.488281 193.125 L 426.039062 161.53125 L 476.925781 161.53125 L 490.203125 189.957031 L 515.140625 189.957031 C 516.785156 189.957031 517.949219 191.566406 517.429688 193.125 "/><path style=" stroke:none;fill-rule:nonzero;fill:rgb(9.01947%,9.01947%,9.01947%);fill-opacity:1;" d="M 499.398438 112.769531 C 501.339844 115.4375 511.382812 129.226562 516.289062 135.847656 C 520.691406 141.78125 523.703125 143.328125 524.84375 143.722656 C 525.011719 149.738281 528.667969 152.875 530.023438 153.835938 L 516.714844 176.277344 L 506.0625 157.726562 C 510.78125 155.949219 510.679688 151.621094 510.539062 150.351562 L 513.457031 148.058594 C 513.707031 147.859375 513.75 147.5 513.550781 147.25 C 513.355469 147 512.992188 146.957031 512.742188 147.15625 L 509.617188 149.613281 L 506.304688 151.21875 C 503.175781 152.734375 497.5 152.441406 494.660156 147.046875 C 491.886719 141.785156 486.625 131.871094 485.890625 130.5 C 486.996094 121.839844 497.121094 114.351562 499.398438 112.769531 Z M 493.636719 147.585938 C 496.832031 153.660156 503.265625 153.972656 506.808594 152.253906 L 509.445312 150.976562 C 509.511719 152.449219 509.152344 155.640625 505.046875 156.851562 C 504.878906 156.898438 504.742188 157.023438 504.675781 157.1875 C 504.609375 157.351562 504.625 157.535156 504.710938 157.6875 L 516.207031 177.710938 C 516.308594 177.886719 516.496094 178 516.703125 178 C 516.703125 178 516.707031 178 516.707031 178 C 516.914062 178 517.101562 177.894531 517.203125 177.71875 L 531.296875 153.949219 C 531.375 153.820312 531.398438 153.660156 531.359375 153.511719 C 531.320312 153.363281 531.222656 153.234375 531.089844 153.15625 C 531.035156 153.125 525.992188 150.171875 525.992188 143.285156 C 525.992188 143 525.773438 142.757812 525.492188 142.714844 C 525.460938 142.707031 522.414062 142.167969 517.21875 135.164062 C 511.800781 127.855469 500.121094 111.800781 500.003906 111.636719 C 499.824219 111.390625 499.476562 111.328125 499.222656 111.496094 C 498.679688 111.84375 485.894531 120.210938 484.726562 130.542969 C 484.710938 130.660156 484.730469 130.777344 484.785156 130.878906 C 484.785156 130.878906 490.65625 141.921875 493.636719 147.585938 Z M 573.328125 469.160156 C 566.175781 466.5625 565.945312 465.367188 564.667969 458.746094 C 564.496094 457.851562 564.304688 456.855469 564.074219 455.757812 C 562.503906 448.226562 560.558594 438.574219 559.917969 435.378906 L 575.296875 442.058594 C 575.523438 443.644531 576.546875 450.929688 577.558594 459.015625 C 578.371094 465.492188 584.722656 471.65625 588.746094 474.972656 C 584.832031 473.460938 578.601562 471.074219 573.328125 469.160156 Z M 515.964844 300.914062 C 515.960938 300.910156 515.960938 300.90625 515.957031 300.898438 C 515.957031 300.894531 515.957031 300.886719 515.957031 300.882812 C 515.917969 300.773438 512.1875 289.6875 510.476562 284 C 508.667969 277.976562 504.167969 277.011719 503.976562 276.976562 C 503.667969 276.910156 503.363281 277.113281 503.300781 277.421875 C 503.234375 277.734375 503.4375 278.039062 503.75 278.101562 C 503.914062 278.140625 507.769531 278.996094 509.371094 284.332031 C 510.992188 289.71875 514.410156 299.910156 514.816406 301.121094 C 512.105469 318.054688 514.207031 337.996094 515.902344 354.03125 C 516.847656 362.964844 517.660156 370.675781 517.527344 376.34375 C 517.167969 391.386719 519.140625 426.960938 519.390625 431.371094 L 498.917969 437.839844 C 496.980469 427.90625 473.21875 305.847656 472.117188 279.53125 C 471.0625 254.300781 481.429688 235.28125 482.996094 232.558594 L 548.859375 243.960938 C 561.925781 275.511719 574.105469 427.191406 575.171875 440.75 L 551.675781 430.488281 Z M 512.238281 457.554688 C 512.085938 459.359375 511.09375 464.1875 508.351562 464.816406 C 505.457031 465.484375 491.921875 469.640625 485.589844 471.601562 C 491.136719 467.34375 502.949219 457.40625 501.542969 450.851562 C 500.164062 444.421875 499.386719 440.335938 499.136719 438.984375 L 513.90625 434.347656 Z M 592.691406 476.523438 C 592.566406 476.4375 579.816406 467.730469 578.703125 458.875 C 577.566406 449.796875 576.417969 441.738281 576.394531 441.585938 C 576.210938 439.179688 563.503906 275.511719 549.800781 243.222656 C 549.726562 243.042969 549.5625 242.914062 549.371094 242.878906 L 482.796875 231.355469 C 482.566406 231.320312 482.332031 231.417969 482.210938 231.621094 C 482.085938 231.820312 469.816406 252.0625 470.964844 279.578125 C 472.109375 306.953125 497.628906 437.261719 497.910156 438.691406 C 497.921875 438.773438 498.710938 443.148438 500.414062 451.09375 C 502.046875 458.699219 482.375 472.546875 482.175781 472.6875 C 481.941406 472.847656 481.863281 473.15625 481.992188 473.414062 C 482.085938 473.613281 482.292969 473.734375 482.507812 473.734375 C 482.566406 473.734375 482.621094 473.722656 482.679688 473.710938 C 482.902344 473.636719 504.925781 466.789062 508.613281 465.941406 C 512.726562 464.992188 513.359375 457.949219 513.386719 457.640625 L 515.09375 433.9375 L 520.167969 432.335938 C 520.417969 432.253906 520.582031 432.015625 520.570312 431.75 C 520.546875 431.359375 518.300781 392.296875 518.679688 376.371094 C 518.816406 370.632812 517.996094 362.882812 517.050781 353.90625 C 515.449219 338.75 513.476562 320.085938 515.582031 303.871094 L 550.640625 431.054688 C 550.683594 431.222656 550.804688 431.363281 550.964844 431.433594 L 558.617188 434.773438 C 558.972656 436.546875 561.1875 447.585938 562.945312 455.988281 C 563.175781 457.085938 563.363281 458.070312 563.535156 458.964844 C 564.824219 465.628906 565.167969 467.425781 572.933594 470.242188 C 581.292969 473.277344 592.050781 477.492188 592.160156 477.535156 C 592.230469 477.5625 592.296875 477.574219 592.367188 477.574219 C 592.578125 477.574219 592.777344 477.460938 592.882812 477.265625 C 593.019531 477.007812 592.9375 476.683594 592.691406 476.523438 Z M 491.417969 130.335938 C 491.300781 130.632812 490.96875 130.78125 490.671875 130.667969 C 488.660156 129.894531 487.855469 131.304688 487.824219 131.363281 C 487.71875 131.554688 487.519531 131.664062 487.320312 131.664062 C 487.222656 131.664062 487.128906 131.640625 487.039062 131.59375 C 486.761719 131.441406 486.65625 131.089844 486.8125 130.808594 C 487.261719 129.996094 488.734375 128.6875 491.085938 129.589844 C 491.382812 129.703125 491.53125 130.039062 491.417969 130.335938 Z M 495.347656 128.195312 C 495.089844 128.007812 495.03125 127.644531 495.222656 127.390625 C 495.3125 127.261719 497.558594 124.265625 502.539062 126.230469 C 502.835938 126.347656 502.976562 126.683594 502.863281 126.980469 C 502.746094 127.277344 502.40625 127.417969 502.113281 127.304688 C 497.960938 125.664062 496.171875 128.039062 496.152344 128.066406 C 496.042969 128.222656 495.863281 128.304688 495.6875 128.304688 C 495.570312 128.304688 495.453125 128.269531 495.347656 128.195312 Z M 503.972656 142.011719 C 504.039062 141.699219 504.34375 141.5 504.660156 141.570312 C 504.96875 141.636719 505.171875 141.941406 505.101562 142.253906 C 504.464844 145.226562 501.484375 146.28125 501.359375 146.328125 C 501.296875 146.347656 501.234375 146.359375 501.171875 146.359375 C 500.933594 146.359375 500.710938 146.210938 500.625 145.96875 C 500.523438 145.667969 500.679688 145.34375 500.980469 145.234375 C 501.003906 145.226562 503.472656 144.339844 503.972656 142.011719 Z M 495.207031 139.175781 C 495.113281 136.375 493.847656 133.976562 493.832031 133.953125 C 493.683594 133.675781 493.789062 133.324219 494.066406 133.175781 C 494.347656 133.023438 494.699219 133.128906 494.847656 133.40625 C 494.90625 133.515625 496.261719 136.058594 496.359375 139.136719 C 496.382812 139.839844 496.382812 140.539062 496.386719 141.191406 C 496.386719 142.136719 496.390625 143.382812 496.511719 143.910156 C 497.402344 143.441406 498.453125 142.800781 498.464844 142.792969 C 498.734375 142.625 499.09375 142.710938 499.257812 142.984375 C 499.421875 143.253906 499.339844 143.609375 499.066406 143.777344 C 499.015625 143.808594 497.785156 144.5625 496.8125 145.046875 C 496.640625 145.132812 496.492188 145.164062 496.359375 145.164062 C 496.160156 145.164062 496.007812 145.09375 495.917969 145.035156 C 495.265625 144.640625 495.238281 143.570312 495.230469 141.191406 C 495.230469 140.550781 495.230469 139.867188 495.207031 139.175781 Z M 479.636719 193.914062 C 479.652344 193.867188 479.730469 193.703125 479.933594 193.703125 L 498.410156 193.703125 L 494.121094 195.476562 C 493.824219 195.597656 493.683594 195.933594 493.804688 196.226562 C 493.902344 196.449219 494.113281 196.585938 494.339844 196.585938 C 494.414062 196.585938 494.488281 196.570312 494.5625 196.539062 L 501.429688 193.703125 L 504.121094 193.703125 L 499.558594 196.074219 C 499.273438 196.21875 499.164062 196.566406 499.3125 196.847656 C 499.414062 197.046875 499.617188 197.160156 499.824219 197.160156 C 499.914062 197.160156 500.007812 197.140625 500.089844 197.09375 L 506.625 193.703125 L 509.386719 193.703125 C 509.585938 193.703125 509.660156 193.859375 509.679688 193.910156 C 509.707031 193.976562 509.730469 194.113281 509.601562 194.222656 C 506.613281 196.835938 497.585938 199.574219 492.933594 199.273438 C 489.582031 199.058594 487.824219 197.960938 486.273438 196.992188 C 485.132812 196.28125 484.058594 195.609375 482.578125 195.4375 C 481.46875 195.304688 480.507812 194.898438 479.710938 194.226562 C 479.582031 194.117188 479.609375 193.984375 479.636719 193.914062 Z M 482.441406 196.578125 C 483.664062 196.722656 484.589844 197.300781 485.660156 197.96875 C 487.246094 198.957031 489.214844 200.1875 492.859375 200.425781 C 493.117188 200.4375 493.386719 200.449219 493.667969 200.449219 C 498.769531 200.449219 507.308594 197.757812 510.363281 195.09375 C 510.820312 194.691406 510.976562 194.070312 510.757812 193.503906 C 510.539062 192.921875 510.003906 192.550781 509.386719 192.550781 L 507.53125 192.550781 C 507.378906 192.285156 507.046875 192.183594 506.773438 192.328125 L 506.34375 192.550781 L 503.289062 192.550781 C 503.289062 192.476562 503.273438 192.402344 503.242188 192.328125 C 503.121094 192.035156 502.785156 191.894531 502.488281 192.015625 L 501.203125 192.550781 L 479.933594 192.550781 C 479.308594 192.550781 478.765625 192.929688 478.550781 193.515625 C 478.339844 194.089844 478.503906 194.714844 478.964844 195.105469 C 479.933594 195.925781 481.105469 196.421875 482.441406 196.578125 Z M 535.933594 187.34375 C 540.761719 193.234375 552.222656 207.238281 553.832031 209.199219 L 547.390625 232.773438 L 524.765625 185.53125 L 512.253906 188.902344 L 508.789062 188.902344 L 512.910156 185.199219 C 513.144531 184.984375 513.164062 184.621094 512.953125 184.386719 C 512.738281 184.148438 512.375 184.128906 512.136719 184.34375 L 507.066406 188.902344 L 506.191406 188.902344 L 508.101562 185.089844 C 511.488281 182.445312 515.820312 179.570312 519.363281 178.902344 C 526.308594 177.589844 531.007812 181.332031 535.933594 187.34375 Z M 503.589844 188.902344 C 504.175781 188.367188 504.980469 187.652344 505.929688 186.851562 L 504.902344 188.902344 Z M 519.152344 177.769531 C 511.941406 179.132812 502.144531 188.660156 501.726562 189.066406 L 500.71875 190.054688 L 504.324219 190.054688 L 504.214844 190.273438 C 504.070312 190.558594 504.1875 190.90625 504.472656 191.046875 C 504.554688 191.089844 504.640625 191.109375 504.730469 191.109375 C 504.941406 191.109375 505.144531 190.992188 505.246094 190.789062 L 505.617188 190.054688 L 506.191406 190.054688 C 506.210938 190.15625 506.246094 190.257812 506.324219 190.339844 C 506.4375 190.46875 506.59375 190.53125 506.75 190.53125 C 506.886719 190.53125 507.023438 190.484375 507.136719 190.382812 L 507.503906 190.054688 L 512.332031 190.054688 L 524.136719 186.890625 L 547.6875 236.066406 L 554.75 210.214844 L 561.738281 217.71875 C 561.855469 217.839844 562.007812 217.902344 562.160156 217.902344 C 562.304688 217.902344 562.441406 217.851562 562.554688 217.746094 C 562.789062 217.53125 562.800781 217.164062 562.585938 216.933594 L 554.898438 208.6875 C 554.589844 208.308594 541.960938 192.875 536.828125 186.613281 C 531.636719 180.28125 526.644531 176.359375 519.152344 177.769531 "/></g></svg>